<svg width="377" height="100" viewBox="0 0 377 100" fill="none" xmlns="http://www.w3.org/2000/svg">
<path d="M87.2242 0H12.4739C5.58477 0 0 5.60168 0 12.5117V87.4883C0 94.3983 5.58477 100 12.4739 100H87.2242C94.1134 100 99.6981 94.3983 99.6981 87.4883V12.5117C99.6981 5.60168 94.1134 0 87.2242 0Z" fill="#000047"/>
<path d="M65.5702 28.8613L65.5391 28.8301L49.7891 44.6278L61.337 56.2107L65.5702 51.9568L77.0792 40.413L65.5702 28.8613Z" fill="#6A35FF"/>
<path d="M34.0323 28.8301L22.4922 40.413L34.1257 52.0817L38.2422 56.2107L49.7823 44.6278L34.0323 28.8301Z" fill="#9AD0FD"/>
<path d="M49.7863 44.6338L38.2422 56.2129L49.7863 67.792L61.3304 56.2129L49.7863 44.6338Z" fill="#C3AEFF"/>
<path d="M81.8884 57.0566H65.5625V71.1684H81.8884V57.0566Z" fill="#AD90FE"/>
<path d="M81.8884 42.9434H65.5625V57.0551H81.8884V42.9434Z" fill="#9672FE"/>
<path d="M81.8884 28.8301H65.5625V42.9419H81.8884V28.8301Z" fill="#8155FF"/>
<path d="M34.1305 57.0566H17.8047V71.1684H34.1305V57.0566Z" fill="#35ACFE"/>
<path d="M34.1305 42.9434H17.8047V57.0551H34.1305V42.9434Z" fill="#59B9FF"/>
<path d="M34.1305 28.8301H17.8047V42.9419H34.1305V28.8301Z" fill="#7BC4FD"/>
<path d="M122.797 42.4532V17.4766H127.575L138.181 35.1163H135.652L146.087 17.4766H150.826L150.896 42.4532H145.449V25.7735H146.445L138.111 39.8228H135.481L126.999 25.8047H128.213V42.4844L122.797 42.4532Z" fill="#000047"/>
<path d="M162.54 37.8091H176.103V42.4922H156.805V17.5156H175.644V22.1597H162.54V37.8091ZM162.112 27.5219H174.111V32.0489H162.112V27.5219Z" fill="#000047"/>
<path d="M180.695 42.4512V17.4746H185.465L196.072 35.1143H193.551L203.955 17.4512H208.694L208.764 42.4278H203.317V25.7481H204.313L195.978 39.7974H193.379L184.874 25.7481H186.08V42.4278L180.695 42.4512Z" fill="#000047"/>
<path d="M214.695 42.4532V17.4766H226.874C229.986 17.4766 232.341 18.0724 233.939 19.2639C234.679 19.7949 235.278 20.4991 235.685 21.3152C236.092 22.1314 236.294 23.0348 236.274 23.9471C236.303 25.1545 235.969 26.3429 235.317 27.3579C234.658 28.331 233.746 29.1033 232.679 29.5902C231.47 30.1316 230.158 30.3981 228.835 30.3707L229.512 28.9112C230.937 28.8907 232.353 29.1561 233.675 29.6917C234.821 30.1533 235.806 30.9433 236.507 31.963C237.21 33.0564 237.563 34.3391 237.519 35.6392C237.556 36.6213 237.344 37.5967 236.903 38.4744C236.462 39.352 235.806 40.1033 234.998 40.658C233.306 41.86 230.824 42.461 227.551 42.461L214.695 42.4532ZM220.423 38.0979H227.154C228.333 38.1726 229.51 37.9187 230.554 37.3642C230.939 37.1144 231.25 36.7651 231.454 36.353C231.658 35.941 231.748 35.4814 231.714 35.0226C231.743 34.5645 231.651 34.1067 231.448 33.6955C231.244 33.2843 230.936 32.9344 230.554 32.6811C229.519 32.0978 228.339 31.8268 227.154 31.9005H219.995V27.6857H226.158C227.279 27.7553 228.397 27.5006 229.379 26.9521C229.727 26.6978 230.009 26.3648 230.204 25.9803C230.399 25.5958 230.5 25.1706 230.5 24.7393C230.5 24.308 230.399 23.8828 230.204 23.4983C230.009 23.1138 229.727 22.7808 229.379 22.5265C228.396 21.9816 227.279 21.7272 226.158 21.7928H220.423V38.0979Z" fill="#000047"/>
<path d="M247.673 37.8091H261.236V42.4922H241.938V17.5156H260.761V22.1597H247.673V37.8091ZM247.245 27.5219H259.244V32.0489H247.245V27.5219Z" fill="#000047"/>
<path d="M265.836 42.4456V17.469H276.621C278.599 17.4208 280.564 17.7932 282.387 18.5617C283.914 19.2104 285.216 20.2964 286.13 21.6838C287.035 23.1371 287.493 24.8258 287.445 26.5386C287.491 28.2365 287.033 29.9097 286.13 31.3466C285.216 32.7343 283.914 33.8204 282.387 34.4687C280.56 35.2221 278.596 35.5862 276.621 35.538H269.034L271.602 33.0013V42.5002L265.836 42.4456ZM271.602 33.6023L269.034 30.8939H276.326C277.75 31.0031 279.166 30.5898 280.31 29.7309C281.157 28.8794 281.632 27.7257 281.632 26.523C281.632 25.3203 281.157 24.1666 280.31 23.3151C279.159 22.4715 277.747 22.0674 276.326 22.1755H269.057L271.625 19.4281L271.602 33.6023ZM281.718 42.4612L275.493 33.3916H281.656L287.959 42.4612H281.718Z" fill="#000047"/>
<path d="M300.194 42.8798C298.258 42.8967 296.329 42.6338 294.467 42.0992C292.879 41.6773 291.381 40.9684 290.047 40.0074L292.008 35.6521C293.166 36.4568 294.439 37.083 295.782 37.5098C297.211 37.9946 298.709 38.2424 300.217 38.2435C301.15 38.2716 302.081 38.1584 302.98 37.9078C303.578 37.7445 304.118 37.4143 304.536 36.9556C304.861 36.5665 305.038 36.074 305.034 35.5663C305.038 35.2627 304.969 34.9626 304.834 34.6911C304.699 34.4196 304.5 34.1844 304.256 34.0053C303.63 33.5666 302.932 33.2417 302.194 33.0452C301.338 32.7955 300.389 32.5535 299.361 32.3271C298.334 32.1008 297.292 31.8198 296.249 31.492C295.257 31.1759 294.307 30.7436 293.416 30.2041C292.57 29.6869 291.856 28.9786 291.331 28.1358C290.772 27.1343 290.503 25.9964 290.553 24.8498C290.547 23.4626 290.95 22.1047 291.712 20.9472C292.58 19.6893 293.79 18.7084 295.198 18.1217C297.056 17.3621 299.053 17.0031 301.058 17.068C302.631 17.0649 304.198 17.251 305.727 17.6222C307.15 17.9489 308.51 18.5107 309.75 19.2847L307.968 23.679C306.874 23.0378 305.702 22.5394 304.482 22.196C303.37 21.8823 302.221 21.7196 301.066 21.7121C300.135 21.6852 299.206 21.8172 298.319 22.1023C297.712 22.2847 297.171 22.64 296.762 23.1248C296.454 23.5418 296.292 24.0497 296.303 24.5688C296.294 24.8733 296.36 25.1755 296.495 25.4481C296.631 25.7206 296.833 25.9549 297.081 26.1298C297.704 26.5706 298.404 26.8909 299.144 27.0743C300 27.3162 300.941 27.5504 301.976 27.7923C303.011 28.0343 304.038 28.2997 305.089 28.6119C306.082 28.905 307.034 29.3247 307.921 29.8607C308.769 30.3769 309.481 31.0887 309.999 31.9369C310.561 32.9231 310.83 34.0494 310.777 35.1838C310.788 36.5594 310.378 37.9051 309.602 39.0396C308.72 40.2901 307.507 41.2686 306.1 41.8651C304.225 42.6185 302.212 42.9643 300.194 42.8798Z" fill="#000047"/>
<path d="M320.485 42.4512H314.719V17.4746H320.485V42.4512ZM332.243 32.203H320.065V27.3091H332.243V32.203ZM331.815 17.4512H337.581V42.4278H331.815V17.4512Z" fill="#000047"/>
<path d="M343.484 42.4532V17.4766H349.258V42.4532H343.484Z" fill="#000047"/>
<path d="M355.18 42.4456V17.469H365.973C367.95 17.4208 369.915 17.7932 371.739 18.5617C373.266 19.2104 374.568 20.2964 375.482 21.6838C376.343 23.1503 376.797 24.8212 376.797 26.523C376.797 28.2248 376.343 29.8957 375.482 31.3622C374.568 32.7496 373.266 33.8356 371.739 34.4843C369.917 35.257 367.951 35.6295 365.973 35.577H358.386L360.954 32.9701V42.469L355.18 42.4456ZM360.954 33.6023L358.386 30.8549H365.654C367.077 30.9578 368.489 30.5482 369.638 29.6997C370.48 28.8488 370.953 27.6985 370.953 26.4996C370.953 25.3007 370.48 24.1504 369.638 23.2995C368.487 22.4565 367.075 22.0525 365.654 22.1599H358.386L360.954 19.4125V33.6023Z" fill="#000047"/>
<path d="M128.78 83.9219L120.625 58.9453H126.609L133.698 81.0886H130.702L138.11 58.9453H143.448L150.576 81.0886H147.689L154.934 58.9219H160.459L152.304 83.8985H146.079L139.776 64.4714H141.41L134.928 83.8985L128.78 83.9219Z" fill="#8155FF"/>
<path d="M159.602 83.9239L170.714 58.9473H176.41L187.553 83.9239H181.499L172.363 61.8508H174.643L165.492 83.9239H159.602ZM165.158 78.5695L166.714 74.1752H179.53L181.087 78.5695H165.158Z" fill="#8155FF"/>
<path d="M190.133 83.9239V58.9473H195.907V79.2408H208.404V83.9239H190.133Z" fill="#8155FF"/>
<path d="M211.641 83.9239V58.9473H217.415V79.2408H229.912V83.9239H211.641Z" fill="#8155FF"/>
<path d="M238.876 79.2798H252.439V83.9239H233.141V58.9473H251.98V63.5914H238.876V79.2798ZM238.448 69.0003H250.447V73.4961H238.448V69.0003Z" fill="#8155FF"/>
<path d="M262.195 83.9239V63.6304H254.219V58.9473H275.937V63.6304H267.961V83.9239H262.195Z" fill="#8155FF"/>
</svg>
