<svg width="182" height="45" viewBox="0 0 182 45" fill="none" xmlns="http://www.w3.org/2000/svg">
<path d="M51.3605 10.0146H54.9624L60.5904 27.3432H57.3374L54.6979 18.119C54.1351 16.2899 53.6398 14.3144 53.1277 12.4122H53.0207C52.548 14.3257 52.0358 16.2899 51.4843 18.119L48.8279 27.3432H45.6875L51.3605 10.0146ZM49.053 20.2351H57.208V22.6439H49.053V20.2351Z" fill="#555656"/>
<path d="M61.2649 10.3521C61.232 9.97259 61.3145 9.59202 61.5015 9.26021C61.6886 8.9284 61.9715 8.66081 62.3132 8.49249C62.6549 8.32418 63.0395 8.26297 63.4165 8.3169C63.7936 8.37083 64.1456 8.53738 64.4264 8.79473C64.7072 9.05208 64.9038 9.38823 64.9903 9.75918C65.0769 10.1301 65.0494 10.5186 64.9115 10.8736C64.7736 11.2287 64.5316 11.5338 64.2174 11.749C63.9031 11.9643 63.5312 12.0796 63.1502 12.0799C62.911 12.0992 62.6703 12.069 62.4433 11.9911C62.2162 11.9132 62.0077 11.7893 61.8308 11.6271C61.6538 11.465 61.5122 11.268 61.4148 11.0486C61.3175 10.8292 61.2664 10.5921 61.2649 10.3521ZM61.6138 14.3536H64.6642V27.3711H61.6138V14.3536Z" fill="#555656"/>
<path d="M67.6797 14.3252H70.1785L70.4149 16.6495H70.4993C71.4279 14.9611 72.8011 14.01 74.1969 14.01C74.7021 13.9847 75.2065 14.0752 75.6714 14.2745L75.1424 16.9253C74.7098 16.7847 74.2578 16.7125 73.8029 16.7115C72.7674 16.7115 71.518 17.4206 70.7301 19.4016V27.3427H67.6797V14.3252Z" fill="#555656"/>
<path d="M83.5577 10.0146H87.1652L92.7932 27.3432H89.5796L86.9344 18.119C86.3716 16.2899 85.8764 14.3144 85.3699 12.4122H85.2461C84.7677 14.3257 84.2612 16.2899 83.7096 18.119L81.0476 27.3432H77.9297L83.5577 10.0146ZM81.2502 20.2351H89.4108V22.6439H81.2502V20.2351Z" fill="#555656"/>
<path d="M93.8394 14.3256H96.3438L96.5746 15.7157H96.659C97.7339 14.7088 99.1281 14.1113 100.599 14.0273C103.852 14.0273 105.714 16.6331 105.714 20.6515C105.714 25.1032 103.058 27.6752 100.165 27.6752C98.903 27.6261 97.7023 27.1177 96.7884 26.2457L96.8841 28.4069V32.5097H93.8281L93.8394 14.3256ZM102.563 20.6628C102.563 18.0682 101.713 16.5318 99.7488 16.5318C98.8089 16.5318 97.914 17.0102 96.9348 17.9951V24.0564C97.6459 24.7171 98.5706 25.1005 99.5405 25.137C101.24 25.137 102.563 23.6118 102.563 20.6628Z" fill="#555656"/>
<path d="M107.906 14.3256H110.405L110.641 15.7157H110.726C111.8 14.708 113.195 14.1103 114.665 14.0273C117.918 14.0273 119.781 16.6331 119.781 20.6515C119.781 25.1032 117.119 27.6752 114.226 27.6752C112.975 27.6173 111.786 27.1098 110.878 26.2457L110.973 28.4069V32.5097H107.923L107.906 14.3256ZM116.63 20.6628C116.63 18.0682 115.78 16.5318 113.816 16.5318C112.87 16.5318 111.981 17.0102 110.973 17.9951V24.0564C111.687 24.7166 112.613 25.0999 113.585 25.137C115.301 25.137 116.63 23.6118 116.63 20.6628Z" fill="#555656"/>
<path d="M121.828 23.9941V8.62402H124.878V24.1517C124.878 24.9058 125.216 25.1703 125.537 25.1703C125.696 25.174 125.856 25.155 126.01 25.114L126.392 27.3934C125.878 27.5832 125.331 27.673 124.783 27.6579C122.61 27.6579 121.828 26.2622 121.828 23.9941Z" fill="#555656"/>
<path d="M127.266 20.8421C127.266 16.6155 130.198 14.0098 133.259 14.0098C136.777 14.0098 138.634 16.5536 138.634 20.2006C138.638 20.6972 138.593 21.193 138.499 21.6807H130.271C130.524 23.9938 132.004 25.3052 134.104 25.3052C135.181 25.2903 136.23 24.9638 137.126 24.3653L138.161 26.2619C136.846 27.1585 135.296 27.6478 133.704 27.6689C130.08 27.6576 127.266 25.1363 127.266 20.8421ZM135.995 19.5927C135.995 17.5892 135.105 16.3735 133.327 16.3735C131.807 16.3735 130.474 17.4991 130.209 19.5927H135.995Z" fill="#555656"/>
<path d="M139.844 20.8423C139.844 16.5088 142.905 14.0099 146.372 14.0099C147.78 13.9991 149.139 14.5219 150.177 15.4732L148.691 17.4543C148.119 16.871 147.346 16.5286 146.53 16.4975C144.431 16.4975 142.979 18.2366 142.979 20.8423C142.979 23.4481 144.414 25.1702 146.434 25.1702C147.435 25.1227 148.388 24.7242 149.124 24.0446L150.368 26.0595C149.193 27.0909 147.682 27.6591 146.119 27.6578C142.551 27.6578 139.844 25.159 139.844 20.8423Z" fill="#555656"/>
<path d="M151.099 23.8592C151.099 21.0733 153.407 19.6213 158.747 19.0472C158.708 17.6515 158.145 16.4865 156.384 16.4865C155.071 16.5701 153.807 17.0141 152.731 17.7697L151.606 15.7323C153.192 14.6787 155.043 14.0936 156.947 14.0439C160.2 14.0439 161.798 16.0475 161.798 19.6719V27.3767H159.299L159.068 25.9359H158.978C157.886 26.9882 156.452 27.6116 154.937 27.6918C154.426 27.7203 153.915 27.6406 153.437 27.4582C152.959 27.2757 152.524 26.9945 152.162 26.6328C151.8 26.2712 151.518 25.8372 151.335 25.3593C151.152 24.8814 151.071 24.3702 151.099 23.8592ZM158.747 23.8592V20.9326C155.219 21.3772 154.043 22.2946 154.043 23.6115C154.043 24.7371 154.825 25.2662 155.917 25.2662C157.008 25.2662 157.774 24.7428 158.736 23.8592H158.747Z" fill="#555656"/>
<path d="M164.602 14.3252H167.1L167.337 16.6495H167.416C168.339 14.9611 169.717 14.01 171.113 14.01C171.618 13.9847 172.123 14.0752 172.588 14.2745L172.025 16.9253C171.594 16.7846 171.144 16.7125 170.691 16.7115C169.655 16.7115 168.4 17.4206 167.618 19.4016V27.3427H164.602V14.3252Z" fill="#555656"/>
<path d="M175.227 22.9529V16.7621H173.375V14.4715L175.39 14.3308L175.75 10.7852H178.283V14.3308H181.597V16.7621H178.283V22.9529C178.283 24.4837 178.874 25.2378 180.123 25.2378C180.589 25.2181 181.048 25.1172 181.479 24.9396L181.997 27.1908C181.143 27.4935 180.246 27.6551 179.341 27.6691C176.341 27.6579 175.227 25.7612 175.227 22.9529Z" fill="#555656"/>
<path opacity="0.25" d="M17.9425 44.9996C27.4938 44.9996 35.2366 44.312 35.2366 43.4637C35.2366 42.6154 27.4938 41.9277 17.9425 41.9277C8.39126 41.9277 0.648438 42.6154 0.648438 43.4637C0.648438 44.312 8.39126 44.9996 17.9425 44.9996Z" fill="#171425"/>
<path d="M21.1719 2.92923C20.8747 2.07423 20.3155 1.33244 19.5723 0.80734C18.8291 0.282237 17.9391 0 17.0262 0C16.1134 0 15.2233 0.282237 14.4801 0.80734C13.737 1.33244 13.1778 2.07423 12.8805 2.92923L10.5632 8.14815L10.1575 9.06752L8.3125 13.2239C13.7564 13.0126 19.0435 11.3586 23.6226 8.43442L21.1719 2.92923Z" fill="url(#paint0_linear_23762_25735)"/>
<path d="M32.5051 29.0955L29.4152 21.6855L26.8812 15.8555C23.7517 18.48 20.1233 20.4572 16.2101 21.6703C12.2969 22.8833 8.17803 23.3078 4.09655 22.9186L3.49638 24.35L1.518 29.101C1.28302 29.5701 1.14434 30.0807 1.11 30.6033C1.07566 31.1259 1.14634 31.65 1.31794 32.1453C1.31794 32.1949 1.35685 32.2389 1.37352 32.283C1.3717 32.2957 1.3717 32.3087 1.37352 32.3215C1.42021 32.4287 1.47598 32.5319 1.54023 32.6298V32.6683L1.62359 32.7894V32.817C1.65522 32.8654 1.69052 32.9114 1.72918 32.9546L1.82921 33.0647V33.0977C1.91257 33.1803 1.99593 33.2629 2.08484 33.3399H2.11819L2.23489 33.4335C2.28262 33.4715 2.33274 33.5064 2.38493 33.5381C2.42498 33.5678 2.46777 33.5936 2.51275 33.6152L2.55165 33.6427C2.65813 33.7014 2.76757 33.7547 2.87953 33.8024H2.92398L3.06291 33.8574H3.10182L3.27409 33.918H3.31299L3.46303 33.9565H3.51305L3.70199 33.9951L3.89094 34.0226H3.94651H4.10211H4.14657H4.34663H4.83567H5.03573H5.10241H5.26357H5.31914L5.53032 33.9841H5.58589L5.75817 33.9455H5.82485L6.03603 33.885L6.2472 33.8189H6.31389L6.49172 33.7528H6.54729L6.76958 33.6592H6.82515L7.00298 33.5767L7.06411 33.5436L7.29195 33.4225L15.5444 29.0514C15.9461 28.8395 16.3953 28.7315 16.8504 28.7376C17.2758 28.7425 17.6936 28.8502 18.0674 29.0514L18.2008 29.1175L26.5366 33.4721L26.7645 33.5932L26.8311 33.6262L27.009 33.7088H27.059L27.2868 33.8024H27.3368L27.5147 33.8684H27.5814L27.7981 33.9345L28.0093 33.9951H28.076L28.2482 34.0336H28.3038L28.515 34.0721H28.5705H28.7373H28.7984H29.004H29.4875C29.5542 34.0721 29.6209 34.0721 29.682 34.0721H29.732H29.8876H29.9432L30.1321 34.0446L30.3211 34.0061H30.3711L30.5211 33.9675H30.56L30.7379 33.907H30.7712L30.9101 33.8519H30.9546C31.0671 33.8054 31.1766 33.7521 31.2825 33.6923C31.2975 33.6864 31.3108 33.6769 31.3214 33.6648C31.367 33.6444 31.41 33.6185 31.4492 33.5877H31.4825L31.5826 33.5161L31.627 33.4831L31.7493 33.3895H31.7826C31.8715 33.3124 31.9549 33.2298 32.0382 33.1473L32.066 33.1142C32.1005 33.0801 32.1321 33.0433 32.1605 33.0041L32.2717 32.8665V32.839L32.355 32.7179V32.6793C32.4161 32.5802 32.4717 32.4811 32.5273 32.371C32.5273 32.371 32.5273 32.371 32.5273 32.3325C32.5273 32.294 32.5662 32.2444 32.5884 32.1949C32.7867 31.6995 32.8816 31.1694 32.8673 30.6367C32.853 30.104 32.7297 29.5797 32.5051 29.0955Z" fill="url(#paint1_linear_23762_25735)"/>
<path d="M26.8796 15.8542L25.7348 13.2173L23.6119 8.42773C19.0328 11.3519 13.7457 13.0059 8.30177 13.2173L6.30673 17.8306L5.37312 19.9611L4.62845 21.6842L4.56733 21.8329L4.11719 22.9339C8.1962 23.3178 12.3115 22.8892 16.2208 21.6734C20.13 20.4575 23.7541 18.4789 26.8796 15.8542Z" fill="url(#paint2_linear_23762_25735)"/>
<defs>
<linearGradient id="paint0_linear_23762_25735" x1="6.50085" y1="14.8149" x2="34.2701" y2="-8.10594" gradientUnits="userSpaceOnUse">
<stop stop-color="#319DA0"/>
<stop offset="1" stop-color="#25F5A8"/>
</linearGradient>
<linearGradient id="paint1_linear_23762_25735" x1="5.56366" y1="2.07598" x2="27.8978" y2="59.2531" gradientUnits="userSpaceOnUse">
<stop offset="0.17" stop-color="#439A97"/>
<stop offset="0.29" stop-color="#5CAEA7"/>
<stop offset="0.47" stop-color="#7CC8BC"/>
<stop offset="0.62" stop-color="#90D8C9"/>
<stop offset="0.72" stop-color="#97DECE"/>
</linearGradient>
<linearGradient id="paint2_linear_23762_25735" x1="10.5358" y1="-1.49812" x2="20.0726" y2="39.3849" gradientUnits="userSpaceOnUse">
<stop offset="0.32" stop-color="#10A19D"/>
<stop offset="0.37" stop-color="#21ABAB"/>
<stop offset="0.44" stop-color="#32B5BA"/>
<stop offset="0.53" stop-color="#3DBDC4"/>
<stop offset="0.65" stop-color="#44C1C9"/>
<stop offset="1" stop-color="#46C2CB"/>
</linearGradient>
</defs>
</svg>
