<svg width="99" height="45" viewBox="0 0 99 45" fill="none" xmlns="http://www.w3.org/2000/svg">
<path d="M23.3146 8.7101L25.893 6.13168L23.9577 4.19335C23.2791 3.53306 22.3679 3.16648 21.4211 3.17294C20.4744 3.17939 19.5682 3.55835 18.8987 4.22783C18.2293 4.89731 17.8503 5.80346 17.8438 6.75023C17.8374 7.69699 18.204 8.60822 18.8642 9.28677L22.9493 13.3657C22.4472 12.6728 22.2083 11.8238 22.2752 10.9707C22.3422 10.1176 22.7106 9.31625 23.3146 8.7101Z" fill="#65CDF0"/>
<path d="M32.9103 4.19342C32.2349 3.51807 31.3188 3.13867 30.3636 3.13867C29.4084 3.13867 28.4924 3.51807 27.8169 4.19342L25.8906 6.13175L28.4721 8.71016C29.077 9.31556 29.4465 10.1165 29.5146 10.9696C29.5826 11.8227 29.3447 12.6722 28.8434 13.3658L32.9103 9.28684C33.5857 8.61136 33.9651 7.6953 33.9651 6.74013C33.9651 5.78495 33.5857 4.86889 32.9103 4.19342Z" fill="#F7B923"/>
<path d="M28.4759 8.71025L25.8945 6.13184L23.316 8.71025C22.7121 9.3164 22.3436 10.1178 22.2767 10.9708C22.2097 11.8239 22.4487 12.6729 22.9507 13.3659L23.3885 13.8037C23.7165 14.1375 24.1076 14.4027 24.5392 14.5837C24.9707 14.7647 25.434 14.8579 25.902 14.8579C26.37 14.8579 26.8333 14.7647 27.2648 14.5837C27.6964 14.4027 28.0876 14.1375 28.4155 13.8037L28.8533 13.3659C29.3538 12.6716 29.5907 11.8217 29.5215 10.9686C29.4524 10.1155 29.0817 9.31489 28.4759 8.71025Z" fill="#EE2E7E"/>
<path d="M0.931231 3.57137C1.53287 2.46931 2.43274 1.55899 3.52777 0.944648C4.68277 0.305812 5.98509 -0.0189885 7.30482 0.00265209C8.88997 -0.0402888 10.4452 0.439238 11.731 1.36734C12.9616 2.28336 13.8323 3.60166 14.1917 5.09305H10.3029C10.0432 4.51723 9.6147 4.03394 9.07409 3.70723C8.52541 3.38511 7.89871 3.22008 7.26255 3.2302C6.7646 3.21313 6.26902 3.30632 5.81128 3.50309C5.35353 3.69987 4.94493 3.99536 4.61469 4.36844C3.93838 5.12526 3.60023 6.13871 3.60023 7.40879C3.60023 8.67988 3.93838 9.69132 4.61469 10.4522C4.94508 10.8249 5.35379 11.1199 5.81155 11.3162C6.26931 11.5124 6.7648 11.605 7.26255 11.5874C7.89845 11.5986 8.52517 11.4346 9.07409 11.1134C9.6147 10.7867 10.0432 10.3034 10.3029 9.72755H14.1917C13.8337 11.2171 12.9612 12.5323 11.728 13.4412C10.4413 14.3642 8.88772 14.8404 7.30482 14.7968C5.98537 14.8194 4.68305 14.4956 3.52777 13.8578C2.43447 13.2453 1.53489 12.3384 0.931231 11.2402C0.297067 10.0642 -0.0232136 8.74462 0.00130949 7.40879C-0.0219459 6.07118 0.298227 4.74995 0.931231 3.57137Z" fill="#4E132C"/>
<path d="M43.7809 3.57119C44.4068 3.20429 45.1206 3.01435 45.8461 3.02169V6.76552H44.8739C43.9923 6.76552 43.3311 6.95472 42.8903 7.33313C42.4495 7.71154 42.228 8.37677 42.226 9.32883V14.691H38.6875V3.1485H42.226V5.07174C42.6204 4.45725 43.1528 3.9434 43.7809 3.57119Z" fill="#4E132C"/>
<path d="M62.4997 9.76675H54.4957C54.5076 10.3834 54.755 10.9721 55.1871 11.4122C55.5955 11.7935 56.1383 11.9976 56.6967 11.9798C57.0813 12.008 57.4652 11.9159 57.7951 11.7163C58.1251 11.5167 58.3848 11.2195 58.5384 10.8657H62.3034C62.1135 11.6179 61.7564 12.3176 61.2588 12.9128C60.7444 13.5264 60.097 14.0148 59.3657 14.3409C58.5643 14.6941 57.6962 14.8702 56.8205 14.8572C55.7688 14.8766 54.7296 14.6272 53.8013 14.1325C52.9243 13.6633 52.2018 12.9502 51.721 12.0795C51.2085 11.1116 50.9528 10.0284 50.9783 8.93345C50.9532 7.8406 51.2056 6.75922 51.712 5.79044C52.1808 4.91411 52.8968 4.19492 53.7711 3.72228C54.7064 3.22614 55.7529 2.97674 56.8115 2.99767C57.8438 2.97433 58.8655 3.21105 59.7824 3.68605C60.6407 4.14397 61.3484 4.84015 61.8203 5.69081C62.3253 6.62425 62.5781 7.6732 62.554 8.73418C62.5561 9.07914 62.538 9.42392 62.4997 9.76675ZM58.943 7.80124C58.9567 7.52692 58.9078 7.25309 58.8 7.00045C58.6923 6.74781 58.5285 6.52298 58.3211 6.34296C57.8852 5.98015 57.3297 5.79284 56.7631 5.81762C56.2135 5.79805 55.676 5.98188 55.2535 6.3339C54.8273 6.71183 54.5572 7.23494 54.4957 7.80124H58.943Z" fill="#4E132C"/>
<path d="M58.2359 33.5379L60.8143 30.9595L58.876 29.0242C58.2001 28.3487 57.2837 27.9694 56.3282 27.9697C55.3727 27.97 54.4564 28.3498 53.781 29.0257C53.1056 29.7015 52.7263 30.618 52.7266 31.5735C52.7268 32.5289 53.1067 33.4452 53.7825 34.1206L57.8645 38.2026C57.3614 37.508 57.1224 36.6568 57.1905 35.8018C57.2585 34.9468 57.6292 34.1441 58.2359 33.5379Z" fill="#65CDF0"/>
<path d="M67.8443 29.0225C67.1688 28.3472 66.2527 27.9678 65.2976 27.9678C64.3424 27.9678 63.4263 28.3472 62.7508 29.0225L60.8125 30.9578L63.3909 33.5362C63.996 34.1421 64.3657 34.9436 64.4338 35.7972C64.5018 36.6508 64.2638 37.5008 63.7623 38.1949L67.8443 34.119C68.1791 33.7844 68.4448 33.3872 68.626 32.95C68.8073 32.5127 68.9005 32.0441 68.9005 31.5707C68.9005 31.0974 68.8073 30.6287 68.626 30.1915C68.4448 29.7543 68.1791 29.357 67.8443 29.0225Z" fill="#F7B923"/>
<path d="M63.4064 33.5374L60.828 30.959L58.2496 33.5374C57.6444 34.1433 57.2748 34.9448 57.2067 35.7984C57.1387 36.652 57.3767 37.5019 57.8782 38.196L58.313 38.6308C58.6414 38.9644 59.0329 39.2293 59.4647 39.4101C59.8964 39.5909 60.3599 39.684 60.828 39.684C61.2961 39.684 61.7595 39.5909 62.1913 39.4101C62.6231 39.2293 63.0146 38.9644 63.343 38.6308L63.7778 38.196C64.2793 37.5019 64.5173 36.652 64.4492 35.7984C64.3812 34.9448 64.0115 34.1433 63.4064 33.5374Z" fill="#EE2E7E"/>
<path d="M3.53853 36.7892H8.17305V39.5065H0V24.9961H3.53853V36.7892Z" fill="#4E132C"/>
<path d="M14.2682 26.2279C14.0752 26.0593 13.9213 25.8507 13.817 25.6166C13.7127 25.3825 13.6606 25.1285 13.6644 24.8723C13.6596 24.6132 13.7112 24.3563 13.8154 24.1191C13.9197 23.8819 14.0742 23.6702 14.2682 23.4985C14.6812 23.1266 15.2224 22.9296 15.7778 22.949C16.3337 22.9263 16.8762 23.1238 17.2874 23.4985C17.4804 23.6711 17.6341 23.883 17.7383 24.1199C17.8425 24.3569 17.8946 24.6134 17.8913 24.8723C17.8944 25.1284 17.842 25.3822 17.7378 25.6162C17.6336 25.8502 17.4799 26.0589 17.2874 26.2279C16.8762 26.6026 16.3337 26.8001 15.7778 26.7774C15.2224 26.7968 14.6812 26.5998 14.2682 26.2279ZM17.5471 27.976V39.5215H14.0086V27.976H17.5471Z" fill="#4E132C"/>
<path d="M29.2136 28.308C29.8716 27.9672 30.6043 27.796 31.3452 27.8098C32.2592 27.7993 33.1571 28.0508 33.9327 28.5345C34.7232 29.04 35.3569 29.7563 35.7623 30.6026C36.2062 31.5862 36.4357 32.6529 36.4357 33.732C36.4357 34.8111 36.2062 35.8779 35.7623 36.8615C35.3573 37.7137 34.724 38.4369 33.9327 38.9508C33.1591 39.44 32.2604 39.6948 31.3452 39.6844C30.6057 39.7019 29.8733 39.536 29.2136 39.2014C28.632 38.9002 28.1381 38.4541 27.7795 37.9061V39.5214H24.25V24.2109H27.7795V29.6093C28.1315 29.0542 28.627 28.6046 29.2136 28.308ZM32.1 31.6473C31.8671 31.4024 31.5857 31.2089 31.2738 31.0789C30.9619 30.9489 30.6263 30.8854 30.2885 30.8925C29.9529 30.8873 29.62 30.953 29.3115 31.0851C29.003 31.2172 28.7258 31.4129 28.4981 31.6593C28.0232 32.2522 27.7645 32.9891 27.7645 33.7486C27.7645 34.5082 28.0232 35.2451 28.4981 35.8379C28.7296 36.081 29.008 36.2745 29.3166 36.4068C29.6251 36.539 29.9573 36.6072 30.293 36.6072C30.6287 36.6072 30.9608 36.539 31.2694 36.4068C31.5779 36.2745 31.8564 36.081 32.0879 35.8379C32.3453 35.5523 32.5435 35.2184 32.671 34.8556C32.7985 34.4928 32.8527 34.1084 32.8306 33.7245C32.852 33.3472 32.7985 32.9693 32.6731 32.6128C32.5477 32.2563 32.3529 31.9281 32.1 31.6473Z" fill="#4E132C"/>
<path d="M47.5249 28.4013C48.1527 28.0336 48.8686 27.8437 49.5961 27.8518V31.5956H48.6148C47.7292 31.5956 47.067 31.7859 46.6282 32.1663C46.1844 32.5437 45.964 33.2109 45.964 34.162V39.5211H42.4375V27.9756H45.973V29.8928C46.3673 29.2817 46.8987 28.7711 47.5249 28.4013Z" fill="#4E132C"/>
<path d="M78.6998 28.4013C79.3264 28.0336 80.0414 27.8436 80.768 27.8518V31.5956H79.7958C78.9101 31.5956 78.2479 31.7859 77.8091 32.1663C77.3683 32.5437 77.1479 33.2109 77.1479 34.162V39.5211H73.6094V27.9756H77.1479V29.8928C77.5414 29.2811 78.073 28.7703 78.6998 28.4013Z" fill="#4E132C"/>
<path d="M98.3943 27.9746L91.1481 45H87.3469L89.9948 39.1246L85.2969 27.9746H89.249L91.918 35.1936L94.5659 27.9746H98.3943Z" fill="#4E132C"/>
</svg>
