<svg width="199" height="29" viewBox="0 0 199 29" fill="none" xmlns="http://www.w3.org/2000/svg">
<path d="M45.12 9.11429C46.4963 9.11429 47.7418 9.43102 48.8566 10.0645C49.9852 10.6844 50.8729 11.5537 51.5197 12.6724C52.1666 13.7775 52.49 15.031 52.49 16.4326C52.49 17.8343 52.1597 19.0944 51.4991 20.2131C50.8522 21.3317 49.9645 22.2078 48.836 22.8412C47.7212 23.4612 46.4825 23.7712 45.12 23.7712C43.7575 23.7712 42.5119 23.4612 41.3834 22.8412C40.2686 22.2078 39.3809 21.3317 38.7203 20.2131C38.0734 19.0944 37.75 17.8343 37.75 16.4326C37.75 15.031 38.0734 13.7775 38.7203 12.6724C39.3809 11.5537 40.2686 10.6844 41.3834 10.0645C42.5119 9.43102 43.7575 9.11429 45.12 9.11429ZM45.12 12.3287C43.9639 12.3287 43.0418 12.6993 42.3537 13.4406C41.6793 14.1684 41.3421 15.1657 41.3421 16.4326C41.3421 17.686 41.6793 18.6834 42.3537 19.4246C43.0418 20.1659 43.9639 20.5365 45.12 20.5365C46.2623 20.5365 47.1775 20.1659 47.8657 19.4246C48.5538 18.6834 48.8979 17.686 48.8979 16.4326C48.8979 15.1792 48.5538 14.1819 47.8657 13.4406C47.1913 12.6993 46.2761 12.3287 45.12 12.3287Z" fill="#2C2A2E"/>
<path d="M69.3989 12.2276C70.8165 12.2276 71.9313 12.6589 72.7433 13.5215C73.5553 14.3705 73.9613 15.5566 73.9613 17.0795V23.6296H70.4518V17.4839C70.4518 16.7696 70.2522 16.217 69.8531 15.8261C69.4678 15.4218 68.9379 15.2196 68.2635 15.2196C67.5616 15.2196 67.0042 15.4353 66.5913 15.8666C66.1922 16.2844 65.9926 16.8774 65.9926 17.6456V23.6296H62.4625V17.4839C62.4625 16.7696 62.2698 16.217 61.8844 15.8261C61.4991 15.4218 60.9692 15.2196 60.2948 15.2196C59.5929 15.2196 59.0355 15.4285 58.6226 15.8463C58.2097 16.2641 58.0033 16.8639 58.0033 17.6456V23.6296H54.4731V12.3489H58.0033V14.2695C58.3061 13.636 58.7671 13.1374 59.3865 12.7735C60.0196 12.4096 60.7559 12.2276 61.5954 12.2276C62.4762 12.2276 63.2538 12.4298 63.9282 12.8341C64.6026 13.225 65.1118 13.791 65.4559 14.5323C65.855 13.8314 66.3986 13.2721 67.0868 12.8543C67.7887 12.4365 68.5594 12.2276 69.3989 12.2276Z" fill="#2C2A2E"/>
<path d="M83.6149 12.2276C84.9362 12.2276 85.9821 12.6589 86.7529 13.5215C87.5373 14.384 87.9296 15.5701 87.9296 17.0795V23.6296H84.3994V17.4839C84.3994 16.7291 84.193 16.1428 83.7801 15.725C83.381 15.2938 82.8442 15.0781 82.1698 15.0781C81.4542 15.0781 80.883 15.3005 80.4564 15.7453C80.0435 16.19 79.837 16.8235 79.837 17.6456V23.6296H76.3069V12.3489H79.837V14.411C80.1673 13.7371 80.6559 13.2047 81.3028 12.8139C81.9634 12.423 82.7341 12.2276 83.6149 12.2276Z" fill="#2C2A2E"/>
<path d="M89.9276 9.17494C89.9276 8.64932 90.1202 8.21803 90.5056 7.88109C90.891 7.53068 91.4002 7.35547 92.0333 7.35547C92.6664 7.35547 93.1756 7.53068 93.5609 7.88109C93.9463 8.21803 94.139 8.64932 94.139 9.17494C94.139 9.68709 93.9463 10.1184 93.5609 10.4688C93.1756 10.8057 92.6664 10.9742 92.0333 10.9742C91.4002 10.9742 90.891 10.8057 90.5056 10.4688C90.1202 10.1184 89.9276 9.68709 89.9276 9.17494ZM93.788 12.3489V23.6296H90.2579V12.3489H93.788Z" fill="#2C2A2E"/>
<path d="M107.026 9.19516C108.884 9.19516 110.419 9.67361 111.63 10.6305C112.855 11.5874 113.646 12.8813 114.004 14.5121H110.267C109.992 13.8517 109.566 13.3328 108.988 12.9554C108.423 12.578 107.749 12.3893 106.964 12.3893C105.932 12.3893 105.1 12.76 104.466 13.5012C103.833 14.2425 103.517 15.2331 103.517 16.4731C103.517 17.713 103.833 18.7036 104.466 19.4449C105.1 20.1726 105.932 20.5365 106.964 20.5365C107.749 20.5365 108.423 20.3479 108.988 19.9705C109.566 19.5931 109.992 19.081 110.267 18.434H114.004C113.646 20.0513 112.855 21.3452 111.63 22.3156C110.419 23.2725 108.884 23.7509 107.026 23.7509C105.609 23.7509 104.363 23.4477 103.29 22.8412C102.216 22.2212 101.384 21.3587 100.792 20.2535C100.214 19.1483 99.9247 17.8882 99.9247 16.4731C99.9247 15.0579 100.214 13.7978 100.792 12.6926C101.384 11.5874 102.216 10.7316 103.29 10.1251C104.363 9.50514 105.609 9.19516 107.026 9.19516Z" fill="#2C2A2E"/>
<path d="M123.291 12.2276C124.612 12.2276 125.658 12.6589 126.429 13.5215C127.213 14.384 127.605 15.5701 127.605 17.0795V23.6296H124.075V17.4839C124.075 16.7291 123.869 16.1428 123.456 15.725C123.057 15.2938 122.52 15.0781 121.846 15.0781C121.13 15.0781 120.559 15.3005 120.132 15.7453C119.719 16.19 119.513 16.8235 119.513 17.6456V23.6296H115.983V8.66953H119.513V14.411C119.843 13.7371 120.332 13.2047 120.978 12.8139C121.639 12.423 122.41 12.2276 123.291 12.2276Z" fill="#2C2A2E"/>
<path d="M129.603 9.17494C129.603 8.64932 129.796 8.21803 130.181 7.88109C130.567 7.53068 131.076 7.35547 131.709 7.35547C132.342 7.35547 132.851 7.53068 133.237 7.88109C133.622 8.21803 133.815 8.64932 133.815 9.17494C133.815 9.68709 133.622 10.1184 133.237 10.4688C132.851 10.8057 132.342 10.9742 131.709 10.9742C131.076 10.9742 130.567 10.8057 130.181 10.4688C129.796 10.1184 129.603 9.68709 129.603 9.17494ZM133.464 12.3489V23.6296H129.934V12.3489H133.464Z" fill="#2C2A2E"/>
<path d="M142.425 20.6578V23.6296H140.835C139.486 23.6296 138.433 23.3062 137.676 22.6593C136.933 21.9989 136.562 20.9139 136.562 19.4044V15.2601H135.013V12.3489H136.562V9.57927H140.092V12.3489H142.404V15.2601H140.092V19.4651C140.092 19.9098 140.181 20.2198 140.36 20.395C140.553 20.5702 140.869 20.6578 141.31 20.6578H142.425Z" fill="#2C2A2E"/>
<path d="M155.21 9.19516C157.068 9.19516 158.602 9.67361 159.813 10.6305C161.038 11.5874 161.83 12.8813 162.187 14.5121H158.451C158.176 13.8517 157.749 13.3328 157.171 12.9554C156.607 12.578 155.932 12.3893 155.148 12.3893C154.116 12.3893 153.283 12.76 152.65 13.5012C152.017 14.2425 151.7 15.2331 151.7 16.4731C151.7 17.713 152.017 18.7036 152.65 19.4449C153.283 20.1726 154.116 20.5365 155.148 20.5365C155.932 20.5365 156.607 20.3479 157.171 19.9705C157.749 19.5931 158.176 19.081 158.451 18.434H162.187C161.83 20.0513 161.038 21.3452 159.813 22.3156C158.602 23.2725 157.068 23.7509 155.21 23.7509C153.792 23.7509 152.547 23.4477 151.473 22.8412C150.4 22.2212 149.567 21.3587 148.975 20.2535C148.397 19.1483 148.108 17.8882 148.108 16.4731C148.108 15.0579 148.397 13.7978 148.975 12.6926C149.567 11.5874 150.4 10.7316 151.473 10.1251C152.547 9.50514 153.792 9.19516 155.21 9.19516Z" fill="#2C2A2E"/>
<path d="M171.474 12.2276C172.795 12.2276 173.841 12.6589 174.612 13.5215C175.396 14.384 175.789 15.5701 175.789 17.0795V23.6296H172.258V17.4839C172.258 16.7291 172.052 16.1428 171.639 15.725C171.24 15.2938 170.703 15.0781 170.029 15.0781C169.313 15.0781 168.742 15.3005 168.315 15.7453C167.903 16.19 167.696 16.8235 167.696 17.6456V23.6296H164.166V8.66953H167.696V14.411C168.026 13.7371 168.515 13.2047 169.162 12.8139C169.822 12.423 170.593 12.2276 171.474 12.2276Z" fill="#2C2A2E"/>
<path d="M182.493 12.2074C183.374 12.2074 184.131 12.4028 184.764 12.7937C185.397 13.1845 185.865 13.7169 186.168 14.3908V12.3489H189.678V23.6296H186.168V21.5878C185.865 22.2617 185.397 22.794 184.764 23.1849C184.131 23.5757 183.374 23.7712 182.493 23.7712C181.544 23.7712 180.691 23.542 179.934 23.0838C179.19 22.6121 178.599 21.9382 178.158 21.0622C177.732 20.1861 177.518 19.1618 177.518 17.9893C177.518 16.8033 177.732 15.779 178.158 14.9164C178.599 14.0403 179.19 13.3732 179.934 12.915C180.691 12.4433 181.544 12.2074 182.493 12.2074ZM183.629 15.2399C182.872 15.2399 182.26 15.4824 181.792 15.9676C181.337 16.4528 181.11 17.1267 181.11 17.9893C181.11 18.8518 181.337 19.5257 181.792 20.0109C182.26 20.4961 182.872 20.7387 183.629 20.7387C184.372 20.7387 184.978 20.4894 185.446 19.9907C185.927 19.492 186.168 18.8249 186.168 17.9893C186.168 17.1402 185.927 16.4731 185.446 15.9879C184.978 15.4892 184.372 15.2399 183.629 15.2399Z" fill="#2C2A2E"/>
<path d="M198.632 20.6578V23.6296H197.042C195.693 23.6296 194.641 23.3062 193.884 22.6593C193.14 21.9989 192.769 20.9139 192.769 19.4044V15.2601H191.221V12.3489H192.769V9.57927H196.299V12.3489H198.611V15.2601H196.299V19.4651C196.299 19.9098 196.388 20.2198 196.567 20.395C196.76 20.5702 197.077 20.6578 197.517 20.6578H198.632Z" fill="#2C2A2E"/>
<path d="M22.676 15.8119C22.1359 15.8119 21.6844 16.2021 21.6211 16.7143C21.1569 20.515 17.8021 23.462 13.7341 23.462C9.34547 23.462 5.79233 20.0353 5.79233 15.8119C5.79233 11.8933 8.85173 8.66174 12.7973 8.2146C13.3332 8.15363 13.7341 7.71868 13.7341 7.19838V4.12533C13.7341 3.52779 13.2024 3.05626 12.5821 3.10503C5.80922 3.66599 0.492188 9.1414 0.492188 15.8119C0.492188 22.8563 6.42109 28.5634 13.7299 28.5634C20.6547 28.5634 26.3389 23.4417 26.9212 16.9175C26.9761 16.32 26.4824 15.8078 25.862 15.8078H22.676V15.8119Z" fill="#D8515D"/>
<path d="M29.2139 1.60008V11.1526C29.2139 11.7989 28.6695 12.3192 28.0028 12.3192H24.9307C24.3695 12.3192 23.8758 11.9452 23.7492 11.4168C23.171 9.01038 21.4156 7.03891 19.1031 6.09585C18.6896 5.92513 18.2549 5.79098 17.8118 5.69342C17.2632 5.57148 16.875 5.09588 16.875 4.55525V1.60415C16.875 0.957832 17.4194 0.437523 18.0861 0.437523H28.0028C28.6695 0.433459 29.2139 0.957828 29.2139 1.60008Z" fill="#F8AB2E"/>
<path d="M18.8463 8.22917L16.6518 10.0584C16.4957 10.1884 16.2509 10.1722 16.1159 10.0218L16.099 10.0055C15.9639 9.85513 15.9808 9.61936 16.137 9.48929L18.3315 7.66009C18.4876 7.53001 18.7324 7.54627 18.8674 7.69667L18.8843 7.71293C19.0194 7.8674 19.0025 8.09909 18.8463 8.22917Z" fill="#F8AB2E"/>
<path d="M21.4122 8.75066L16.3315 12.9863C16.1753 13.1163 15.9306 13.1001 15.7955 12.9497L15.7787 12.9334C15.6436 12.783 15.6605 12.5473 15.8166 12.4172L20.8974 8.18157C21.0535 8.05149 21.2983 8.06775 21.4333 8.21815L21.4502 8.23441C21.5852 8.38481 21.5683 8.61651 21.4122 8.75066Z" fill="#F8AB2E"/>
<path d="M21.6276 11.3307L19.4331 13.1599C19.2769 13.29 19.0322 13.2737 18.8971 13.1233L18.8802 13.1071C18.7452 12.9567 18.7621 12.7209 18.9182 12.5908L21.1127 10.7616C21.2689 10.6316 21.5136 10.6478 21.6487 10.7982L21.6656 10.8145C21.8048 10.969 21.7837 11.2007 21.6276 11.3307Z" fill="#F8AB2E"/>
</svg>
