<svg width="194" height="45" viewBox="0 0 194 45" fill="none" xmlns="http://www.w3.org/2000/svg">
<g clip-path="url(#clip0_23762_25693)">
<g filter="url(#filter0_d_23762_25693)">
<path d="M39.4337 23.2008C38.4299 21.2885 36.0374 20.4935 33.3815 20.9579C33.9085 20.4767 34.4104 19.9285 34.8705 19.305C37.4595 15.7817 37.5432 11.5929 35.0587 9.76434C32.8838 8.16167 29.5627 8.98184 27.0322 11.5762C27.5467 7.99004 26.1748 4.85584 23.5816 4.10681C22.0842 3.67168 20.407 4.13617 18.9807 5.38316C17.6966 6.50456 16.6844 8.16578 16.1323 10.0698C15.9232 10.7979 15.7894 11.5344 15.7308 12.2583C14.4802 9.86895 12.3931 8.45452 10.2641 8.82279C7.34468 9.32494 5.61302 12.9529 6.32825 17.0747C6.65032 18.9368 7.43247 20.6231 8.53668 21.8241C9.18919 22.5354 9.93369 23.0376 10.7075 23.3221C7.54122 24.544 5.4792 26.4521 4.99815 28.6658C4.64263 30.2978 5.17801 31.8921 6.46627 33.0387C8.0766 34.4739 10.1177 34.4279 11.9204 34.3902C13.2505 34.361 14.5094 34.3316 15.5259 34.8589L15.6095 34.9007C16.6259 35.3778 17.3704 36.3946 18.1567 37.47C19.1982 38.8927 20.3735 40.4996 22.4063 40.9474C22.4523 40.9558 22.4983 40.9683 22.5485 40.9767C24.2424 41.2989 25.8361 40.7549 26.9109 39.4786C28.3706 37.7462 28.63 34.9551 27.668 31.6996C28.1615 32.0134 28.7262 32.2436 29.3494 32.3816C31.0852 32.7624 33.2309 32.4486 35.2887 31.3648C38.9945 29.4065 40.814 25.8245 39.4337 23.2008Z" fill="white"/>
</g>
<path d="M22.0302 21.7329C18.7636 20.2264 16.5301 22.8795 12.2595 24.1934C5.99818 26.1225 5.0906 30.0183 7.35335 32.0394C9.6162 34.0605 13.3052 32.1984 16.1201 33.6588C16.1285 33.6629 16.1369 33.6671 16.1452 33.6713C16.1536 33.6755 16.162 33.6797 16.1704 33.6839C19.0396 35.0313 19.8134 39.0861 22.7914 39.6552C25.7694 40.2243 28.3083 37.1277 26.0204 30.9849C24.4687 26.7962 25.2132 23.4109 22.0302 21.7329Z" fill="url(#paint0_linear_23762_25693)"/>
<path d="M15.4263 15.5022C16.0035 18.8373 14.7278 21.8376 12.5779 22.21C10.428 22.5825 8.22381 20.1805 7.64659 16.8455C7.06945 13.5104 8.34514 10.5101 10.4949 10.1377C12.6448 9.76523 14.8533 12.1672 15.4263 15.5022Z" fill="url(#paint1_linear_23762_25693)"/>
<path d="M34.6708 30.1716C37.6641 28.5973 39.2681 25.7557 38.2534 23.8248C37.2387 21.8938 33.9897 21.6046 30.9964 23.1789C28.0032 24.7533 26.3992 27.5948 27.4139 29.5258C28.4285 31.4567 31.6775 31.7459 34.6708 30.1716Z" fill="url(#paint2_linear_23762_25693)"/>
<path d="M25.4138 12.7523C24.4225 16.1794 21.8293 18.439 19.6209 17.7988C17.4125 17.1586 16.4253 13.8612 17.4167 10.4341C18.4079 7.01112 21.0011 4.75144 23.2095 5.39167C25.418 6.03199 26.405 9.32515 25.4138 12.7523Z" fill="url(#paint3_linear_23762_25693)"/>
<path d="M33.7917 18.5134C35.9049 15.6388 36.117 12.2039 34.2653 10.8415C32.4137 9.47911 29.1996 10.7049 27.0863 13.5795C24.9731 16.4541 24.761 19.8889 26.6127 21.2513C28.4643 22.6138 31.6784 21.3879 33.7917 18.5134Z" fill="url(#paint4_linear_23762_25693)"/>
<path d="M55.2988 20.4347C55.2988 21.1852 55.1265 21.8742 54.7822 22.5017C54.4379 23.1168 53.909 23.6151 53.1958 23.9965C52.4825 24.378 51.5971 24.5687 50.5395 24.5687H48.5841V29.2194H45.4297V16.2638H50.5395C51.5725 16.2638 52.4456 16.4422 53.1589 16.799C53.8721 17.1558 54.4071 17.6479 54.7638 18.2754C55.1204 18.9029 55.2988 19.6227 55.2988 20.4347ZM50.2997 22.0587C50.9022 22.0587 51.3511 21.9172 51.6463 21.6343C51.9414 21.3513 52.089 20.9514 52.089 20.4347C52.089 19.9179 51.9414 19.518 51.6463 19.2351C51.3511 18.9521 50.9022 18.8106 50.2997 18.8106H48.5841V22.0587H50.2997ZM66.644 23.9043C66.644 24.1995 66.6255 24.5072 66.5886 24.827H59.4497C59.4988 25.4668 59.7018 25.9589 60.0585 26.3034C60.4274 26.6356 60.8762 26.8017 61.4051 26.8017C62.1921 26.8017 62.7394 26.4695 63.0468 25.8052H66.4042C66.2319 26.4819 65.9184 27.0909 65.4634 27.6322C65.0207 28.1735 64.4611 28.598 63.7847 28.9056C63.1083 29.2132 62.352 29.367 61.5158 29.367C60.5073 29.367 59.6095 29.1517 58.8225 28.7211C58.0354 28.2905 57.4206 27.6753 56.9778 26.8756C56.5351 26.0759 56.3137 25.1408 56.3137 24.0704C56.3137 23 56.5289 22.0649 56.9594 21.2652C57.4021 20.4655 58.017 19.8502 58.8041 19.4196C59.5911 18.9891 60.495 18.7737 61.5158 18.7737C62.5119 18.7737 63.3973 18.9828 64.1721 19.4012C64.9469 19.8195 65.5494 20.4162 65.9799 21.1913C66.4226 21.9665 66.644 22.8708 66.644 23.9043ZM63.4158 23.0738C63.4158 22.5325 63.2313 22.1018 62.8624 21.7819C62.4934 21.462 62.0323 21.3021 61.4789 21.3021C60.95 21.3021 60.5012 21.4558 60.1322 21.7635C59.7756 22.0711 59.5542 22.5078 59.4682 23.0738H63.4158ZM74.045 26.5434V29.2194H72.4402C71.2964 29.2194 70.4049 28.9425 69.7654 28.3889C69.1258 27.8229 68.8061 26.9063 68.8061 25.6391V21.542H67.5517V18.9214H68.8061V16.4114H71.9605V18.9214H74.0266V21.542H71.9605V25.676C71.9605 25.9836 72.0343 26.205 72.1819 26.3404C72.3295 26.4757 72.5754 26.5434 72.9198 26.5434H74.045ZM79.9896 29.367C79.0916 29.367 78.2925 29.2132 77.5915 28.9056C76.8905 28.598 76.3371 28.1798 75.9313 27.6507C75.5255 27.1094 75.2979 26.5065 75.2487 25.8421H78.3663C78.4032 26.1988 78.5692 26.488 78.8644 26.7095C79.1595 26.9309 79.5226 27.0417 79.9527 27.0417C80.346 27.0417 80.6478 26.9678 80.8566 26.8202C81.078 26.6602 81.1887 26.4572 81.1887 26.2112C81.1887 25.9159 81.0352 25.7005 80.7275 25.5652C80.4198 25.4176 79.9217 25.2576 79.2333 25.0854C78.4954 24.9132 77.8808 24.7347 77.3886 24.5502C76.8964 24.3533 76.4721 24.0519 76.1158 23.6459C75.7594 23.2275 75.5808 22.6678 75.5808 21.9665C75.5808 21.3759 75.741 20.8407 76.0604 20.3609C76.3925 19.8687 76.8721 19.4811 77.4993 19.1982C78.1391 18.9152 78.8954 18.7737 79.7682 18.7737C81.0595 18.7737 82.0741 19.0936 82.812 19.7334C83.5624 20.3732 83.9926 21.2221 84.1033 22.2802H81.1887C81.1392 21.9234 80.9799 21.6404 80.709 21.4313C80.4508 21.2221 80.1062 21.1175 79.676 21.1175C79.3071 21.1175 79.0245 21.1913 78.8275 21.339C78.6304 21.4743 78.5323 21.6651 78.5323 21.9111C78.5323 22.2064 78.6858 22.4278 78.9935 22.5755C79.313 22.7231 79.8051 22.8708 80.4692 23.0184C81.2314 23.2153 81.8527 23.4121 82.3324 23.609C82.812 23.7935 83.2304 24.1011 83.5868 24.5317C83.9557 24.9501 84.146 25.516 84.1586 26.2296C84.1586 26.8325 83.9867 27.3738 83.6421 27.8537C83.31 28.3212 82.8246 28.6903 82.1848 28.961C81.5576 29.2317 80.8256 29.367 79.9896 29.367ZM96.3251 18.8106C97.5057 18.8106 98.4524 19.2043 99.166 19.9918C99.8787 20.7669 100.236 21.8373 100.236 23.203V29.2194H97.0999V23.6274C97.0999 22.9385 96.9213 22.4033 96.5649 22.0218C96.2077 21.6404 95.7281 21.4497 95.1261 21.4497C94.5232 21.4497 94.0436 21.6404 93.6872 22.0218C93.33 22.4033 93.1523 22.9385 93.1523 23.6274V29.2194H89.9979V15.5625H93.1523V20.3055C93.4717 19.8502 93.9086 19.4873 94.462 19.2166C95.0154 18.9459 95.6359 18.8106 96.3251 18.8106ZM112.131 23.9043C112.131 24.1995 112.112 24.5072 112.075 24.827H104.936C104.985 25.4668 105.188 25.9589 105.545 26.3034C105.914 26.6356 106.363 26.8017 106.892 26.8017C107.678 26.8017 108.226 26.4695 108.534 25.8052H111.891C111.718 26.4819 111.405 27.0909 110.95 27.6322C110.507 28.1735 109.947 28.598 109.271 28.9056C108.595 29.2132 107.838 29.367 107.003 29.367C105.994 29.367 105.096 29.1517 104.309 28.7211C103.522 28.2905 102.907 27.6753 102.465 26.8756C102.022 26.0759 101.8 25.1408 101.8 24.0704C101.8 23 102.015 22.0649 102.446 21.2652C102.889 20.4655 103.503 19.8502 104.291 19.4196C105.077 18.9891 105.981 18.7737 107.003 18.7737C107.999 18.7737 108.884 18.9828 109.659 19.4012C110.434 19.8195 111.036 20.4162 111.467 21.1913C111.909 21.9665 112.131 22.8708 112.131 23.9043ZM108.903 23.0738C108.903 22.5325 108.718 22.1018 108.349 21.7819C107.98 21.462 107.519 21.3021 106.966 21.3021C106.437 21.3021 105.988 21.4558 105.619 21.7635C105.262 22.0711 105.04 22.5078 104.955 23.0738H108.903ZM116.949 15.5625V29.2194H113.794V15.5625H116.949ZM122.39 20.3793C122.697 19.8995 123.121 19.5119 123.663 19.2166C124.203 18.9214 124.836 18.7737 125.563 18.7737C126.411 18.7737 127.179 18.9891 127.868 19.4196C128.557 19.8502 129.098 20.4655 129.492 21.2652C129.898 22.0649 130.1 22.9938 130.1 24.0519C130.1 25.11 129.898 26.0451 129.492 26.8571C129.098 27.6568 128.557 28.2782 127.868 28.7211C127.179 29.1517 126.411 29.367 125.563 29.367C124.849 29.367 124.216 29.2194 123.663 28.9241C123.121 28.6288 122.697 28.2474 122.39 27.7799V34.1285H119.235V18.9214H122.39V20.3793ZM126.891 24.0519C126.891 23.2645 126.669 22.6493 126.227 22.2064C125.796 21.7511 125.261 21.5235 124.622 21.5235C123.995 21.5235 123.46 21.7511 123.017 22.2064C122.586 22.6616 122.371 23.2829 122.371 24.0704C122.371 24.8578 122.586 25.4791 123.017 25.9343C123.46 26.3896 123.995 26.6172 124.622 26.6172C125.249 26.6172 125.784 26.3896 126.227 25.9343C126.669 25.4668 126.891 24.8394 126.891 24.0519ZM139.851 29.367C138.954 29.367 138.154 29.2132 137.453 28.9056C136.752 28.598 136.199 28.1798 135.793 27.6507C135.387 27.1094 135.16 26.5065 135.11 25.8421H138.228C138.265 26.1988 138.431 26.488 138.726 26.7095C139.021 26.9309 139.384 27.0417 139.814 27.0417C140.209 27.0417 140.51 26.9678 140.718 26.8202C140.94 26.6602 141.05 26.4572 141.05 26.2112C141.05 25.9159 140.897 25.7005 140.589 25.5652C140.282 25.4176 139.784 25.2576 139.095 25.0854C138.357 24.9132 137.743 24.7347 137.25 24.5502C136.759 24.3533 136.335 24.0519 135.977 23.6459C135.621 23.2275 135.443 22.6678 135.443 21.9665C135.443 21.3759 135.603 20.8407 135.922 20.3609C136.254 19.8687 136.734 19.4811 137.361 19.1982C138.001 18.9152 138.757 18.7737 139.63 18.7737C140.921 18.7737 141.936 19.0936 142.674 19.7334C143.424 20.3732 143.854 21.2221 143.965 22.2802H141.05C141.002 21.9234 140.842 21.6404 140.571 21.4313C140.312 21.2221 139.969 21.1175 139.538 21.1175C139.169 21.1175 138.886 21.1913 138.689 21.339C138.493 21.4743 138.394 21.6651 138.394 21.9111C138.394 22.2064 138.548 22.4278 138.855 22.5755C139.175 22.7231 139.667 22.8708 140.331 23.0184C141.094 23.2153 141.714 23.4121 142.194 23.609C142.674 23.7935 143.092 24.1011 143.448 24.5317C143.817 24.9501 144.009 25.516 144.02 26.2296C144.02 26.8325 143.848 27.3738 143.504 27.8537C143.172 28.3212 142.686 28.6903 142.047 28.961C141.419 29.2317 140.688 29.367 139.851 29.367ZM145.323 24.0888C145.323 23.0677 145.532 22.1571 145.951 21.3574C146.381 20.5577 146.953 19.9364 147.666 19.4935C148.391 19.0382 149.179 18.8106 150.027 18.8106C150.679 18.8106 151.263 18.9275 151.78 19.1613C152.296 19.3827 152.715 19.6965 153.034 20.1025V18.9214H156.189V34.1285H153.034V27.9275C152.678 28.3581 152.241 28.7026 151.724 28.961C151.22 29.2194 150.642 29.3486 149.99 29.3486C149.154 29.3486 148.38 29.1271 147.666 28.6842C146.953 28.2412 146.381 27.6199 145.951 26.8202C145.532 26.0205 145.323 25.11 145.323 24.0888ZM153.034 24.0704C153.034 23.5167 152.923 23.0553 152.702 22.6862C152.493 22.3048 152.217 22.0218 151.872 21.8373C151.527 21.6404 151.165 21.542 150.784 21.542C150.415 21.542 150.058 21.6404 149.714 21.8373C149.369 22.0218 149.086 22.3048 148.865 22.6862C148.644 23.0677 148.533 23.5352 148.533 24.0888C148.533 24.6425 148.644 25.11 148.865 25.4914C149.086 25.8605 149.369 26.1435 149.714 26.3404C150.058 26.5249 150.415 26.6172 150.784 26.6172C151.153 26.6172 151.509 26.5249 151.854 26.3404C152.21 26.1435 152.493 25.8544 152.702 25.473C152.923 25.0915 153.034 24.624 153.034 24.0704ZM168.635 18.9214V29.2194H165.481V27.8168C165.16 28.272 164.724 28.6411 164.171 28.9241C163.629 29.1948 163.027 29.3301 162.363 29.3301C161.576 29.3301 160.881 29.1579 160.279 28.8134C159.676 28.4566 159.209 27.946 158.877 27.2816C158.545 26.6172 158.379 25.8359 158.379 24.9378V18.9214H161.515V24.5133C161.515 25.2023 161.692 25.7375 162.05 26.1189C162.406 26.5003 162.886 26.691 163.488 26.691C164.103 26.691 164.589 26.5003 164.946 26.1189C165.302 25.7375 165.481 25.2023 165.481 24.5133V18.9214H168.635ZM170.274 24.0519C170.274 22.9938 170.471 22.0649 170.864 21.2652C171.27 20.4655 171.817 19.8502 172.506 19.4196C173.194 18.9891 173.963 18.7737 174.811 18.7737C175.537 18.7737 176.171 18.9214 176.711 19.2166C177.265 19.5119 177.689 19.8995 177.984 20.3793V18.9214H181.139V29.2194H177.984V27.7614C177.677 28.2412 177.246 28.6288 176.693 28.9241C176.152 29.2194 175.518 29.367 174.793 29.367C173.957 29.367 173.194 29.1517 172.506 28.7211C171.817 28.2782 171.27 27.6568 170.864 26.8571C170.471 26.0451 170.274 25.11 170.274 24.0519ZM177.984 24.0704C177.984 23.2829 177.763 22.6616 177.32 22.2064C176.89 21.7511 176.361 21.5235 175.734 21.5235C175.107 21.5235 174.572 21.7511 174.129 22.2064C173.699 22.6493 173.483 23.2645 173.483 24.0519C173.483 24.8394 173.699 25.4668 174.129 25.9343C174.572 26.3896 175.107 26.6172 175.734 26.6172C176.361 26.6172 176.89 26.3896 177.32 25.9343C177.763 25.4791 177.984 24.8578 177.984 24.0704ZM182.794 24.0519C182.794 22.9938 182.99 22.0649 183.384 21.2652C183.79 20.4655 184.337 19.8502 185.026 19.4196C185.714 18.9891 186.483 18.7737 187.332 18.7737C188.008 18.7737 188.623 18.9152 189.177 19.1982C189.742 19.4811 190.184 19.8626 190.505 20.3424V15.5625H193.659V29.2194H190.505V27.743C190.21 28.2351 189.785 28.6288 189.232 28.9241C188.69 29.2194 188.057 29.367 187.332 29.367C186.483 29.367 185.714 29.1517 185.026 28.7211C184.337 28.2782 183.79 27.6568 183.384 26.8571C182.99 26.0451 182.794 25.11 182.794 24.0519ZM190.505 24.0704C190.505 23.2829 190.283 22.6616 189.841 22.2064C189.41 21.7511 188.881 21.5235 188.254 21.5235C187.627 21.5235 187.092 21.7511 186.649 22.2064C186.218 22.6493 186.004 23.2645 186.004 24.0519C186.004 24.8394 186.218 25.4668 186.649 25.9343C187.092 26.3896 187.627 26.6172 188.254 26.6172C188.881 26.6172 189.41 26.3896 189.841 25.9343C190.283 25.4791 190.505 24.8578 190.505 24.0704Z" fill="#000958"/>
</g>
<defs>
<filter id="filter0_d_23762_25693" x="1.13893" y="0.195573" width="42.5034" height="44.6235" filterUnits="userSpaceOnUse" color-interpolation-filters="sRGB">
<feFlood flood-opacity="0" result="BackgroundImageFix"/>
<feColorMatrix in="SourceAlpha" type="matrix" values="0 0 0 0 0 0 0 0 0 0 0 0 0 0 0 0 0 0 127 0" result="hardAlpha"/>
<feOffset/>
<feGaussianBlur stdDeviation="1.87585"/>
<feColorMatrix type="matrix" values="0 0 0 0 0.703125 0 0 0 0 0.710106 0 0 0 0 0.75 0 0 0 0.42 0"/>
<feBlend mode="normal" in2="BackgroundImageFix" result="effect1_dropShadow_23762_25693"/>
<feBlend mode="normal" in="SourceGraphic" in2="effect1_dropShadow_23762_25693" result="shape"/>
</filter>
<linearGradient id="paint0_linear_23762_25693" x1="6.93251" y1="23.9042" x2="25.8444" y2="40.2076" gradientUnits="userSpaceOnUse">
<stop offset="0.15" stop-color="#F69A21"/>
<stop offset="0.82" stop-color="#F22747"/>
</linearGradient>
<linearGradient id="paint1_linear_23762_25693" x1="7.78293" y1="11.8265" x2="17.9785" y2="17.0245" gradientUnits="userSpaceOnUse">
<stop offset="0.15" stop-color="#F69A21"/>
<stop offset="0.82" stop-color="#F22747"/>
</linearGradient>
<linearGradient id="paint2_linear_23762_25693" x1="26.469" y1="26.8288" x2="38.0812" y2="31.584" gradientUnits="userSpaceOnUse">
<stop offset="0.15" stop-color="#F69A21"/>
<stop offset="0.82" stop-color="#F22747"/>
</linearGradient>
<linearGradient id="paint3_linear_23762_25693" x1="17.3306" y1="7.07773" x2="28.2085" y2="12.8855" gradientUnits="userSpaceOnUse">
<stop offset="0.15" stop-color="#F69A21"/>
<stop offset="0.82" stop-color="#F22747"/>
</linearGradient>
<linearGradient id="paint4_linear_23762_25693" x1="24.4744" y1="19.1304" x2="37.6771" y2="18.2907" gradientUnits="userSpaceOnUse">
<stop offset="0.15" stop-color="#F69A21"/>
<stop offset="0.82" stop-color="#F22747"/>
</linearGradient>
<clipPath id="clip0_23762_25693">
<rect width="192.919" height="45" fill="white" transform="translate(0.945312)"/>
</clipPath>
</defs>
</svg>
