<svg width="80" height="26" viewBox="0 0 80 26" fill="none" xmlns="http://www.w3.org/2000/svg">
<g clip-path="url(#clip0_22207_2214)">
<path d="M42.1618 6.84776C42.1618 7.7473 41.437 8.47163 40.5375 8.47163C39.638 8.47163 38.9136 7.7473 38.9136 6.84776C38.9136 5.94821 39.6132 5.22389 40.5375 5.22389C41.4625 5.24885 42.1618 5.97342 42.1618 6.84776ZM35.4657 10.121V10.5208C35.4657 10.5208 34.6915 9.52092 33.0424 9.52092C30.3193 9.52092 28.1953 11.5948 28.1953 14.4679C28.1953 17.3163 30.2944 19.4149 33.0424 19.4149C34.7164 19.4149 35.4657 18.3905 35.4657 18.3905V18.8151C35.4657 19.015 35.616 19.1645 35.8157 19.1645H37.8391V9.77002H35.8157C35.616 9.77077 35.4657 9.94598 35.4657 10.121ZM35.4657 16.1419C35.0913 16.6918 34.3416 17.1665 33.4423 17.1665C31.8434 17.1665 30.6189 16.1671 30.6189 14.4679C30.6189 12.7689 31.8434 11.7695 33.4423 11.7695C34.3168 11.7695 35.1163 12.2692 35.4657 12.7939V16.1419ZM39.3384 9.77077H41.7368V19.1653H39.3384V9.77077ZM75.1665 9.52068C73.5174 9.52068 72.7427 10.5205 72.7427 10.5205V5.24885H70.3443V19.1653H72.3683C72.5682 19.1653 72.7177 18.9903 72.7177 18.8153V18.3908C72.7177 18.3908 73.4925 19.4151 75.141 19.4151C77.8646 19.4151 79.9882 17.317 79.9882 14.4686C79.9882 11.6203 77.8646 9.52068 75.1665 9.52068ZM74.7666 17.1413C73.8419 17.1413 73.1176 16.6671 72.7427 16.117V12.7689C73.1176 12.2692 73.917 11.7446 74.7666 11.7446C76.3656 11.7446 77.5898 12.7439 77.5898 14.4429C77.5898 16.1419 76.3658 17.1413 74.7666 17.1413ZM69.0954 13.5938V19.1902H66.6965V13.8684C66.6965 12.3196 66.1968 11.6946 64.8485 11.6946C64.1242 11.6946 63.3744 12.0695 62.8989 12.6194V19.1655H60.5011V9.77102H62.3992C62.5992 9.77102 62.7492 9.94598 62.7492 10.121V10.5208C63.4488 9.79598 64.373 9.52092 65.2973 9.52092C66.3468 9.52092 67.2214 9.82119 67.921 10.4207C68.7701 11.1203 69.0954 12.0196 69.0954 13.5938ZM54.6788 9.52068C53.0302 9.52068 52.2555 10.5205 52.2555 10.5205V5.24885H49.8571V19.1653H51.8806C52.0805 19.1653 52.2305 18.9903 52.2305 18.8153V18.3908C52.2305 18.3908 53.0052 19.4151 54.6538 19.4151C57.3774 19.4151 59.5009 17.317 59.5009 14.4686C59.5259 11.62 57.4024 9.52068 54.6788 9.52068ZM54.2789 17.1413C53.3547 17.1413 52.6304 16.6671 52.2555 16.117V12.7689C52.6304 12.2692 53.4298 11.7446 54.2789 11.7446C55.8783 11.7446 57.1023 12.7439 57.1023 14.4429C57.1023 16.1419 55.8783 17.1413 54.2789 17.1413ZM47.7832 9.52068C48.5075 9.52068 48.8824 9.64597 48.8824 9.64597V11.8694C48.8824 11.8694 46.8837 11.1947 45.6347 12.6191V19.19H43.2359V9.77077H45.2598C45.4598 9.77077 45.6092 9.94573 45.6092 10.1207V10.5205C46.0595 9.99565 47.0339 9.52068 47.7832 9.52068ZM22.8739 18.3157C22.7491 18.0159 22.6241 17.6912 22.4993 17.4161C22.2991 16.9666 22.0992 16.5415 21.9247 16.1419L21.8998 16.117C20.1756 12.3691 18.3271 8.57171 16.378 4.82429L16.3031 4.67403C16.0981 4.28527 15.8983 3.89379 15.7038 3.49968C15.4537 3.04966 15.2041 2.57543 14.8043 2.12541C14.0048 1.12603 12.8554 0.576172 11.6314 0.576172C10.382 0.576172 9.25779 1.12603 8.43363 2.07524C8.05874 2.52477 7.78369 2.9995 7.53409 3.44952C7.3391 3.84338 7.13932 4.23486 6.93481 4.62386L6.85969 4.77411C4.93581 8.52154 3.0621 12.3191 1.33815 16.0668L1.31295 16.1165C1.13823 16.5168 0.938055 16.9414 0.73813 17.3907C0.613333 17.6657 0.488535 17.9655 0.363738 18.2902C0.0387659 19.2145 -0.0613264 20.089 0.0639701 20.9888C0.338774 22.8628 1.58775 24.4362 3.31195 25.1364C3.96164 25.4114 4.63629 25.5362 5.33566 25.5362C5.53558 25.5362 5.78519 25.5112 5.98536 25.486C6.81002 25.3862 7.65939 25.1116 8.48405 24.6369C9.50839 24.0621 10.4828 23.2379 11.582 22.0386C12.6812 23.2379 13.6806 24.0621 14.68 24.6369C15.5049 25.1116 16.354 25.3862 17.1784 25.486C17.3783 25.5115 17.6284 25.5362 17.8284 25.5362C18.528 25.5362 19.2274 25.4114 19.8518 25.1364C21.601 24.4362 22.825 22.8378 23.1001 20.9888C23.2985 20.1145 23.1986 19.2404 22.8739 18.3157ZM11.6062 19.6148C10.2569 17.9158 9.38234 16.3169 9.08282 14.9681C8.95803 14.3933 8.93282 13.8936 9.00795 13.4438C9.05762 13.044 9.20787 12.694 9.4078 12.3943C9.88253 11.7201 10.682 11.295 11.6065 11.295C12.5312 11.295 13.3556 11.6949 13.8054 12.3943C14.0053 12.694 14.1551 13.0442 14.2055 13.4438C14.2801 13.8938 14.2552 14.4182 14.1304 14.9681C13.8296 16.2919 12.955 17.8911 11.6062 19.6148ZM21.5745 20.7892C21.3998 22.0883 20.5252 23.213 19.3012 23.7127C18.7017 23.9622 18.0518 24.0374 17.4026 23.9622C16.7781 23.8871 16.1531 23.6872 15.5039 23.3128C14.6044 22.8126 13.7051 22.0386 12.6555 20.889C14.3043 18.8655 15.3037 17.0163 15.6786 15.3677C15.8536 14.5929 15.8788 13.8936 15.8034 13.2436C15.7038 12.6191 15.4787 12.0443 15.129 11.5446C14.354 10.42 13.0546 9.77077 11.606 9.77077C10.1573 9.77077 8.85794 10.4454 8.08345 11.5446C7.73377 12.0443 7.50863 12.6191 7.40879 13.2436C7.30895 13.8936 7.33366 14.6179 7.53359 15.3677C7.90823 17.0163 8.93257 18.8902 10.5564 20.914C9.5321 22.0633 8.6076 22.8381 7.70806 23.3378C7.05836 23.7127 6.43413 23.9126 5.80964 23.9872C5.13524 24.0623 4.48529 23.9623 3.91073 23.7376C2.68671 23.2379 1.81213 22.1133 1.63742 20.8141C1.56254 20.1896 1.61221 19.5651 1.8623 18.8655C1.93693 18.6154 2.06223 18.3658 2.18703 18.0661C2.36199 17.6662 2.56142 17.2412 2.76159 16.8166L2.7868 16.7669C4.51051 13.044 6.35925 9.24636 8.28313 5.54886L8.358 5.39861C8.55818 5.02421 8.75811 4.62436 8.95778 4.24947C9.15771 3.84962 9.38234 3.47472 9.65739 3.14975C10.182 2.55072 10.8814 2.2255 11.6561 2.2255C12.4309 2.2255 13.1303 2.55072 13.6549 3.14975C13.93 3.47547 14.1546 3.85037 14.3545 4.24947C14.5547 4.62436 14.7546 5.02421 14.954 5.39861L15.0292 5.54886C16.9237 9.26173 18.7479 13.0101 20.5008 16.7919V16.8168C20.701 17.2172 20.8757 17.6665 21.0756 18.0668C21.2004 18.3661 21.3254 18.6157 21.4003 18.8658C21.5997 19.5147 21.6746 20.1397 21.5745 20.7892Z" fill="#FF5A5F"/>
</g>
<defs>
<clipPath id="clip0_22207_2214">
<rect width="80" height="24.96" fill="white" transform="translate(0 0.576172)"/>
</clipPath>
</defs>
</svg>
