<svg width="78" height="16" viewBox="0 0 78 16" fill="none" xmlns="http://www.w3.org/2000/svg">
<path d="M41.1858 7.83375C40.5252 7.83375 40.0491 8.05036 39.5662 8.27104V13.2645C40.0287 13.3086 40.2938 13.3086 40.7326 13.3086C42.3181 13.3086 42.5354 12.5825 42.5354 11.5687V9.18376C42.5354 8.43507 42.287 7.83375 41.1858 7.83375ZM30.656 7.56123C29.5559 7.56123 29.3049 8.16514 29.3049 8.91309V9.33335H32.0056V8.91309C32.0056 8.16514 31.7546 7.56123 30.656 7.56123ZM10.2577 12.7587C10.2577 13.3504 10.5368 13.6578 11.153 13.6578C11.8139 13.6578 12.2053 13.4423 12.6878 13.2208V12.0363H11.2426C10.5583 12.0363 10.2577 12.1637 10.2577 12.7587ZM51.4287 7.83375C50.3267 7.83375 49.945 8.43507 49.945 9.18376V11.916C49.945 12.6665 50.3267 13.2697 51.4287 13.2697C52.5276 13.2697 52.9123 12.6665 52.9123 11.916V9.18376C52.912 8.43507 52.5273 7.83375 51.4287 7.83375ZM4.85761 15.8224H1.61846V7.98223H0V5.28072H1.61883V3.65818C1.61883 1.45395 2.53229 0.143555 5.12865 0.143555H7.2903V2.8458H5.93917C4.92833 2.8458 4.86168 3.22348 4.86168 3.92811L4.85761 5.28035H7.30511L7.01889 7.98186H4.85761V15.8224ZM15.9276 15.8427H13.228L13.1114 15.16C11.8787 15.8427 10.7786 15.9535 10.0529 15.9535C8.07305 15.9535 7.01926 14.6308 7.01926 12.8017C7.01926 10.6437 8.24893 9.87358 10.4487 9.87358H12.6878V9.40704C12.6878 8.30548 12.5615 7.98223 10.8675 7.98223H8.09786L8.36853 5.28072H11.3959C15.1127 5.28072 15.9276 6.45485 15.9276 9.42888V15.8427ZM25.1078 8.18032C23.4279 7.89225 22.9454 7.82893 22.1371 7.82893C20.6853 7.82893 20.2465 8.14922 20.2465 9.38223V11.7146C20.2465 12.9476 20.6853 13.2694 22.1371 13.2694C22.9454 13.2694 23.4279 13.2049 25.1078 12.9157V15.551C23.6364 15.8809 22.6777 15.9675 21.8676 15.9675C18.39 15.9675 17.0077 14.1388 17.0077 11.4969V9.60439C17.0077 6.96027 18.39 5.12817 21.8676 5.12817C22.6777 5.12817 23.6364 5.21518 25.1078 5.54657V8.18032ZM35.2444 11.4969H29.3045V11.7146C29.3045 12.9476 29.7436 13.2694 31.1951 13.2694C32.4999 13.2694 33.2964 13.2049 34.9734 12.9157V15.551C33.356 15.8809 32.5133 15.9675 30.9267 15.9675C27.4487 15.9675 26.0657 14.1388 26.0657 11.4969V9.33298C26.0657 7.02137 27.0917 5.12817 30.6556 5.12817C34.2195 5.12817 35.2444 6.99952 35.2444 9.33298V11.4969ZM45.7738 11.5468C45.7738 14.1002 45.044 15.9627 40.623 15.9627C39.0264 15.9627 38.0899 15.8224 36.3278 15.5513V0.955193L39.5658 0.414965V5.52065C40.2657 5.26072 41.1714 5.12854 41.9956 5.12854C45.234 5.12854 45.7735 6.58038 45.7735 8.91346L45.7738 11.5468ZM56.1537 11.6024C56.1537 13.8051 55.2443 15.9416 51.4394 15.9416C47.6326 15.9416 46.7062 13.8051 46.7062 11.6024V9.47554C46.7062 7.27167 47.6326 5.13483 51.4394 5.13483C55.2443 5.13483 56.1537 7.27167 56.1537 9.47554V11.6024ZM66.5265 11.6024C66.5265 13.8051 65.616 15.9416 61.8118 15.9416C58.0051 15.9416 57.0786 13.8051 57.0786 11.6024V9.47554C57.0786 7.27167 58.0051 5.13483 61.8118 5.13483C65.616 5.13483 66.5265 7.27167 66.5265 9.47554V11.6024ZM77.1715 15.8224H73.6617L70.6932 10.867V15.8224H67.454V0.954822L70.6932 0.414594V9.98577L73.6617 5.28072H77.1715L73.9308 10.4153L77.1715 15.8224ZM61.8007 7.83375C60.7006 7.83375 60.3189 8.43507 60.3189 9.18376V11.916C60.3189 12.6665 60.7006 13.2697 61.8007 13.2697C62.8993 13.2697 63.2881 12.6665 63.2881 11.916V9.18376C63.2881 8.43507 62.8993 7.83375 61.8007 7.83375Z" fill="#3B5998"/>
</svg>
