<svg width="80" height="27" viewBox="0 0 80 27" fill="none" xmlns="http://www.w3.org/2000/svg">
<g clip-path="url(#clip0_22207_2207)">
<path d="M9.85261 0.00292969H10.563C13.0334 0.0573298 15.4622 1.04933 17.2062 2.80933C16.563 3.46853 15.9038 4.09894 15.2734 4.75494C14.2942 3.86854 13.1134 3.18373 11.8238 2.94373C9.91661 2.54053 7.86541 2.90213 6.26541 3.99014C4.52141 5.13254 3.34061 7.06534 3.08461 9.13254C2.80301 11.1741 3.37901 13.3213 4.71021 14.9054C5.98381 16.4478 7.93261 17.4142 9.94541 17.4814C11.8238 17.5902 13.7854 17.011 15.155 15.6958C16.2302 14.771 16.7262 13.3597 16.8862 11.9901C14.659 11.9901 12.4286 12.0029 10.2014 11.9901V9.22534H19.5838C20.067 12.1917 19.3694 15.5326 17.1134 17.6542C15.6094 19.1582 13.5294 20.0446 11.4078 20.2174C9.35341 20.419 7.23181 20.0286 5.40781 19.0366C3.21901 17.8686 1.47501 15.8942 0.617408 13.5741C-0.188992 11.4397 -0.201791 9.02374 0.550209 6.87334C1.23501 4.91494 2.55021 3.18373 4.24301 1.97413C5.86541 0.780531 7.83981 0.12133 9.85261 0.00292969Z" fill="#3780FF"/>
<path d="M63.6768 0.701172H66.5504V19.8692C65.5968 19.8692 64.6304 19.882 63.6768 19.8564C63.6928 13.4788 63.6768 7.08838 63.6768 0.701172Z" fill="#38B137"/>
<path d="M25.9743 7.34368C27.7439 7.00769 29.6639 7.38528 31.1263 8.44448C32.4542 9.38528 33.3822 10.8605 33.6638 12.4701C34.0254 14.3357 33.571 16.3773 32.3614 17.8525C31.0591 19.5037 28.9247 20.3901 26.8447 20.2557C24.9375 20.1469 23.0879 19.1965 21.9584 17.6381C20.6848 15.9197 20.3744 13.5581 21.072 11.5453C21.7728 9.38528 23.7439 7.73408 25.9743 7.34368ZM26.3743 9.89408C25.6479 10.0829 24.9791 10.4989 24.4959 11.0877C23.1935 12.6461 23.2735 15.1805 24.7103 16.6301C25.5295 17.4621 26.7647 17.8525 27.9039 17.6221C28.9631 17.4333 29.8911 16.7229 30.3999 15.7821C31.2863 14.1853 31.0303 11.9837 29.6735 10.7357C28.8063 9.93568 27.5295 9.59968 26.3743 9.89408Z" fill="#FA3913"/>
<path d="M40.2017 7.34399C42.2273 6.95359 44.4449 7.51999 45.9585 8.94079C48.4289 11.1552 48.6977 15.3024 46.5889 17.8528C45.3153 19.4624 43.2481 20.3488 41.2065 20.256C39.2609 20.2016 37.3409 19.2352 36.1857 17.6384C34.8833 15.8816 34.6017 13.4624 35.3409 11.4112C36.0801 9.31839 38.0129 7.72159 40.2017 7.34399ZM40.6049 9.89439C39.8785 10.0832 39.2097 10.4992 38.7265 11.0752C37.4369 12.6048 37.4913 15.1008 38.8737 16.5664C39.6929 17.44 40.9665 17.8688 42.1473 17.6256C43.1937 17.424 44.1345 16.7264 44.6433 15.7856C45.5169 14.176 45.2609 11.9744 43.8913 10.7264C43.0209 9.92319 41.7441 9.59999 40.6049 9.89439Z" fill="#FCBD06"/>
<path d="M52.2687 8.12188C53.8111 7.15548 55.8655 6.88668 57.5295 7.71868C58.0543 7.94588 58.4831 8.33628 58.8991 8.72668C58.9119 8.36508 58.8991 7.98748 58.9119 7.61308C59.8111 7.62588 60.7103 7.61308 61.6223 7.62588V19.4659C61.6095 21.2515 61.1519 23.1427 59.8655 24.4451C58.4575 25.8819 56.2943 26.3235 54.3487 26.0291C52.2687 25.7219 50.4574 24.2051 49.651 22.2851C50.4574 21.8947 51.3023 21.5875 52.1343 21.2259C52.6047 22.3267 53.5583 23.2675 54.7519 23.4819C55.9455 23.6963 57.3279 23.4019 58.1087 22.4067C58.9407 21.3859 58.9407 19.9907 58.8991 18.7427C58.2815 19.3475 57.5711 19.8851 56.7103 20.0835C54.8447 20.6083 52.7903 19.9619 51.3535 18.7011C49.9038 17.4403 49.0462 15.4915 49.1262 13.5587C49.1678 11.3731 50.403 9.26428 52.2687 8.12188ZM55.0463 9.84027C54.2271 9.97467 53.4623 10.4323 52.9375 11.0627C51.6767 12.5667 51.6767 14.9699 52.9503 16.4451C53.6767 17.3187 54.8415 17.8019 55.9711 17.6803C57.0303 17.5715 58.0127 16.9027 58.5343 15.9747C59.4207 14.4035 59.2735 12.2691 58.0767 10.8995C57.3407 10.0579 56.1599 9.63867 55.0463 9.84027Z" fill="#3780FF"/>
<path d="M69.9996 8.80596C71.6092 7.30196 74.0924 6.79316 76.1596 7.58356C78.118 8.32276 79.3692 10.1884 79.9996 12.1084C77.0876 13.318 74.1884 14.5116 71.2732 15.718C71.6764 16.4828 72.294 17.1803 73.126 17.4619C74.294 17.8779 75.6892 17.7307 76.6684 16.9531C77.0588 16.6587 77.366 16.2684 77.6604 15.894C78.3996 16.39 79.1356 16.8731 79.8748 17.3691C78.8284 18.9403 77.0684 20.0411 75.1772 20.2139C73.0844 20.4699 70.854 19.6635 69.5004 18.0251C67.2732 15.4524 67.4908 11.1292 69.9996 8.80596ZM71.4364 11.2892C70.9788 11.9484 70.7932 12.7516 70.806 13.5452C72.7516 12.7388 74.6972 11.9356 76.646 11.1164C76.3228 10.3644 75.5452 9.90676 74.7548 9.78836C73.4748 9.55796 72.1468 10.2428 71.4364 11.2892Z" fill="#FA3913"/>
</g>
<defs>
<clipPath id="clip0_22207_2207">
<rect width="80" height="26.112" fill="white"/>
</clipPath>
</defs>
</svg>
