<svg width="81" height="24" viewBox="0 0 81 24" fill="none" xmlns="http://www.w3.org/2000/svg">
<g clip-path="url(#clip0_22207_2218)">
<path d="M0.181152 4.74023H2.97053V10.9374H8.85349V4.74023H11.6465V19.9524H8.85349V13.6251H2.97053V19.9524H0.181152V4.74023ZM20.4832 14.9976C20.4832 16.271 19.4457 17.3073 18.1726 17.3073C16.899 17.3073 15.8621 16.271 15.8621 14.9976V8.4482H13.2168V14.9976C13.2168 17.7299 15.4401 19.9524 18.1726 19.9524C20.9044 19.9524 23.1276 17.7299 23.1276 14.9976V8.4482H20.4832V14.9976ZM30.5122 8.52492C29.2001 8.52492 28.2841 8.9057 27.3996 9.77398V4.74023H24.7457V14.0691C24.7457 17.561 27.2704 19.9524 30.1068 19.9524C33.2601 19.9524 36.0229 17.5184 36.0229 14.2388C36.0229 11.0009 33.4752 8.52492 30.5122 8.52492ZM30.5782 17.4973C28.7799 17.4973 27.4047 15.9954 27.4047 14.2388C27.4047 12.482 28.7799 10.9796 30.5782 10.9796C32.1019 10.9796 33.4779 12.482 33.4779 14.2388C33.4779 15.9954 32.1019 17.4973 30.5782 17.4973ZM40.4802 9.19352C40.4802 7.85945 41.3691 7.43648 42.3422 7.43648C43.1257 7.43648 44.1624 8.02898 44.839 8.74867L46.5738 6.71727C45.7068 5.55352 43.9507 4.74914 42.5116 4.74914C39.6333 4.74914 37.5594 6.42102 37.5594 9.19352C37.5594 14.3357 43.8871 12.7057 43.8871 15.5845C43.8871 16.4723 43.0197 17.256 42.0257 17.256C40.4591 17.256 39.951 16.4941 39.2318 15.6898L37.3057 17.6787C38.5338 19.1813 40.0569 19.9435 41.8771 19.9435C44.6068 19.9435 46.8077 18.2505 46.8077 15.6049C46.8077 9.89148 40.4802 11.6693 40.4802 9.19352ZM53.7943 8.37586C50.9582 8.37586 48.4332 10.7659 48.4332 14.2585V23.6115H51.0869V18.5538C51.9716 19.4215 52.8871 19.8029 54.1997 19.8029C57.1626 19.8029 59.7105 17.3273 59.7105 14.0893C59.7105 10.8093 56.9469 8.37586 53.7943 8.37586ZM54.2658 17.3485C52.4677 17.3485 51.0924 15.8446 51.0924 14.0893C51.0924 12.3324 52.4677 10.8301 54.2658 10.8301C55.7893 10.8301 57.1654 12.3324 57.1654 14.0893C57.1654 15.8446 55.7893 17.3485 54.2658 17.3485ZM79.245 17.4973C77.6797 17.4973 77.2354 16.8204 77.2354 15.783V11.1912H79.6685V8.86367H77.2354V5.79492L74.5486 7.00086V16.3545C74.5486 18.746 76.1986 19.9524 78.4619 19.9524C78.8005 19.9524 79.2666 19.9305 79.5208 19.8679L80.1769 17.4557C79.8807 17.4762 79.5422 17.4973 79.245 17.4973Z" fill="#45535E"/>
<path d="M72.2463 11.3268C71.7375 10.4515 71.0219 9.74977 70.1272 9.22148C69.4586 8.83227 68.7653 8.58523 67.9841 8.47914V5.69789C68.7653 5.36617 69.2502 4.63195 69.2502 3.77539C69.2502 2.60789 68.3139 1.6618 67.1474 1.6618C65.9799 1.6618 65.0272 2.60789 65.0272 3.77539C65.0272 4.63195 65.4841 5.36617 66.2653 5.69789V8.48039C65.6403 8.5707 64.9922 8.76555 64.4003 9.06492C63.1914 8.1468 59.2274 5.13477 56.9085 3.37555C56.9635 3.17727 57.0058 2.97289 57.0058 2.75727C57.0058 1.46414 55.9586 0.416016 54.665 0.416016C53.3714 0.416016 52.3247 1.46414 52.3247 2.75727C52.3247 4.05023 53.3725 5.09867 54.6661 5.09867C55.1074 5.09867 55.5155 4.96961 55.8677 4.75742L56.3571 5.12867L63.0814 9.97367C62.726 10.3001 62.3949 10.6713 62.13 11.0879C61.5933 11.9371 61.2653 12.8715 61.2653 13.8907V14.1034C61.2653 14.8188 61.4013 15.4943 61.6328 16.1288C61.8367 16.6829 62.1349 17.1866 62.5041 17.6421L60.2724 19.8793C59.9489 19.7589 59.5977 19.7342 59.2606 19.8081C58.9235 19.8821 58.6148 20.0515 58.3714 20.2962C58.2029 20.4639 58.0694 20.6633 57.9785 20.883C57.8876 21.1026 57.8412 21.3381 57.8421 21.5759C57.8422 22.0591 58.0305 22.5134 58.3724 22.8551C58.5399 23.0237 58.7393 23.1574 58.9589 23.2484C59.1785 23.3395 59.414 23.386 59.6517 23.3854C59.8895 23.386 60.1251 23.3394 60.3448 23.2484C60.5645 23.1574 60.7639 23.0237 60.9316 22.8551C61.1 22.6874 61.2335 22.488 61.3244 22.2685C61.4153 22.0489 61.4618 21.8135 61.4613 21.5759C61.4613 21.3888 61.4324 21.2063 61.378 21.0329L63.6847 18.7259C64.001 18.9443 64.3425 19.1282 64.7097 19.2868C65.4339 19.5999 66.2333 19.7907 67.1081 19.7907H67.2685C68.2356 19.7907 69.148 19.5635 70.0056 19.0988C70.9094 18.6077 71.6167 17.9362 72.1511 17.0788C72.6883 16.2191 72.9841 15.2693 72.9841 14.2243V14.1721C72.9841 13.1441 72.7461 12.1957 72.2463 11.3268ZM69.4278 16.1663C68.8017 16.8621 68.0821 17.2907 67.2685 17.2907H67.1344C66.6697 17.2907 66.2152 17.1623 65.7702 16.9287C65.2686 16.6715 64.8874 16.3046 64.5753 15.8401C64.2528 15.3841 64.0778 14.8863 64.0778 14.3585V14.1982C64.0778 13.6793 64.1774 13.1873 64.4283 12.7226C64.6966 12.2146 65.0589 11.8196 65.5408 11.5055C66.0139 11.1937 66.5192 11.0407 67.082 11.0407H67.1344C67.6447 11.0407 68.1278 11.1413 68.5838 11.3746C69.0483 11.6234 69.4278 11.9632 69.722 12.4102C70.0078 12.8574 70.1778 13.3398 70.2325 13.8652C70.2411 13.9745 70.2455 14.0863 70.2455 14.1932C70.2455 14.9063 69.973 15.5668 69.4278 16.1663Z" fill="#F8761F"/>
</g>
<defs>
<clipPath id="clip0_22207_2218">
<rect width="80" height="23.296" fill="white" transform="translate(0.171387 0.408203)"/>
</clipPath>
</defs>
</svg>
