<svg width="208" height="138" viewBox="0 0 208 138" fill="none" xmlns="http://www.w3.org/2000/svg">
<g clip-path="url(#clip0_23826_17725)">
<path d="M203.507 0.620117H4.04688V133.751H203.507V0.620117Z" fill="#FAFAFA"/>
<path d="M203.507 0.620117H4.04688V9.12954H203.507V0.620117Z" fill="#263238"/>
<path d="M203.507 9.12853C203.507 8.95553 203.507 6.44343 203.482 0.6191L203.507 0.644329L4.07552 0.712806L4.16912 0.6191V9.12853L4.07552 9.03482L203.536 9.12853L4.04672 9.22584H3.95312V0.525391H4.05752L203.507 0.593871H203.532V0.6191C203.514 6.44343 203.507 8.95553 203.507 9.12853Z" fill="#263238"/>
<path d="M10.5556 4.62221C10.5556 4.8938 10.4751 5.15929 10.3244 5.38511C10.1737 5.61093 9.95952 5.78693 9.70891 5.89087C9.45829 5.9948 9.18252 6.02199 8.91647 5.96901C8.65041 5.91602 8.40603 5.78524 8.21422 5.5932C8.0224 5.40115 7.89178 5.15647 7.83885 4.8901C7.78593 4.62373 7.81309 4.34763 7.9169 4.09671C8.02071 3.8458 8.19651 3.63133 8.42205 3.48045C8.6476 3.32956 8.91278 3.24902 9.18404 3.24902C9.5478 3.24902 9.89665 3.3937 10.1539 3.65122C10.4111 3.90874 10.5556 4.25802 10.5556 4.62221Z" fill="#E0E0E0"/>
<path d="M14.8134 4.62221C14.8134 4.8938 14.733 5.15929 14.5822 5.38511C14.4315 5.61093 14.2173 5.78694 13.9667 5.89087C13.7161 5.9948 13.4403 6.022 13.1743 5.96901C12.9082 5.91603 12.6638 5.78524 12.472 5.5932C12.2802 5.40116 12.1496 5.15648 12.0967 4.89011C12.0437 4.62374 12.0709 4.34763 12.1747 4.09672C12.2785 3.8458 12.4543 3.63134 12.6799 3.48045C12.9054 3.32956 13.1706 3.24903 13.4419 3.24903C13.6221 3.24855 13.8007 3.28375 13.9673 3.35259C14.1339 3.42143 14.2853 3.52256 14.4127 3.65016C14.5402 3.77777 14.6412 3.92934 14.71 4.09615C14.7787 4.26297 14.8139 4.44175 14.8134 4.62221Z" fill="#E0E0E0"/>
<path d="M19.04 4.62221C19.04 4.8938 18.9595 5.15929 18.8088 5.38511C18.6581 5.61093 18.4439 5.78693 18.1933 5.89087C17.9427 5.9948 17.6669 6.02199 17.4008 5.96901C17.1348 5.91602 16.8904 5.78524 16.6986 5.5932C16.5068 5.40115 16.3762 5.15647 16.3232 4.8901C16.2703 4.62373 16.2975 4.34763 16.4013 4.09671C16.5051 3.8458 16.6809 3.63133 16.9064 3.48045C17.132 3.32956 17.3972 3.24902 17.6684 3.24902C18.0322 3.24902 18.381 3.3937 18.6382 3.65122C18.8955 3.90874 19.04 4.25802 19.04 4.62221Z" fill="#E0E0E0"/>
<path d="M60.0481 33.7364H52.1285L50.6165 37.3982H46.5703L54.1732 20.3145H58.0754L65.7035 37.3982H61.5601L60.0481 33.7364ZM58.8062 30.7341L56.0991 24.1925L53.3956 30.7341H58.8062Z" fill="#455A64"/>
<path d="M81.4987 30.8176C81.4987 34.9443 78.644 37.579 74.965 37.579C73.2083 37.579 71.7935 37.0167 70.8432 35.8706V37.3843H67.2109V19.2734H71.016V25.6456C71.9915 24.5643 73.3307 24.0598 74.9758 24.0598C78.644 24.0598 81.4987 26.6944 81.4987 30.8176ZM77.6469 30.8176C77.6469 28.5505 76.2069 27.181 74.3062 27.181C72.4055 27.181 70.9656 28.5505 70.9656 30.8176C70.9656 33.0846 72.4055 34.4542 74.3062 34.4542C76.2069 34.4542 77.6469 33.0882 77.6469 30.8176Z" fill="#455A64"/>
<path d="M83.0469 30.8164C83.0469 26.8518 86.0923 24.0586 90.2466 24.0586C94.4008 24.0586 97.4463 26.8626 97.4463 30.8164C97.4463 34.7702 94.4224 37.5778 90.2466 37.5778C86.0707 37.5778 83.0469 34.7702 83.0469 30.8164ZM93.6016 30.8164C93.6016 28.5494 92.1617 27.1798 90.261 27.1798C88.3602 27.1798 86.8987 28.5494 86.8987 30.8164C86.8987 33.0834 88.3602 34.4566 90.261 34.4566C92.1617 34.4566 93.616 33.087 93.616 30.8164H93.6016Z" fill="#455A64"/>
<path d="M113.206 24.2533V37.3833H109.606V35.8227C109.095 36.3917 108.466 36.8433 107.764 37.1462C107.062 37.4492 106.303 37.5965 105.538 37.5779C102.244 37.5779 99.9297 35.7254 99.9297 31.6707V24.2533H103.731V31.1012C103.731 33.2961 104.707 34.2729 106.391 34.2729C108.145 34.2729 109.412 33.1484 109.412 30.7336V24.2461L113.206 24.2533Z" fill="#455A64"/>
<path d="M125.206 36.7463C124.281 37.3286 123.202 37.6176 122.11 37.5752C119.014 37.5752 117.211 35.9894 117.211 32.8646V27.4584H115.188V24.5426H117.211V21.3457H121.016V24.5426H124.281V27.4728H121.016V32.8177C121.016 33.9386 121.624 34.5477 122.646 34.5477C123.198 34.5553 123.737 34.3847 124.184 34.0612L125.206 36.7463Z" fill="#455A64"/>
<path d="M147.452 24.2533V37.3833H143.852V35.8227C143.34 36.3916 142.711 36.8431 142.008 37.146C141.305 37.4489 140.545 37.5963 139.78 37.5779C136.49 37.5779 134.172 35.7253 134.172 31.6707V24.2533H137.977V31.1012C137.977 33.2961 138.952 34.2729 140.634 34.2729C142.39 34.2729 143.657 33.1484 143.657 30.7336V24.2461L147.452 24.2533Z" fill="#455A64"/>
<path d="M149.727 36.1614L150.994 33.4294C152.369 34.2514 153.939 34.6894 155.54 34.6981C157.297 34.6981 157.956 34.2331 157.956 33.5015C157.956 31.339 150.036 33.552 150.036 28.3043C150.036 25.8138 152.279 24.0586 156.105 24.0586C157.905 24.0586 159.911 24.4731 161.145 25.2047L159.878 27.9151C158.726 27.2614 157.422 26.9244 156.098 26.9383C154.392 26.9383 153.661 27.4753 153.661 28.1565C153.661 30.4019 161.581 28.2322 161.581 33.4042C161.581 35.8442 159.313 37.5778 155.389 37.5778C153.19 37.5778 150.943 36.9795 149.727 36.1614Z" fill="#455A64"/>
<path d="M180.477 133.738C172.781 125.64 161.481 121.675 150.303 121.754C142.139 121.808 133.622 124.248 126.037 121.235C119.014 118.446 114.557 111.674 109.096 106.458C100.592 98.4045 89.3535 93.8787 77.6477 93.7933C69.7928 93.7681 61.146 95.5738 54.6663 91.1262C50.2961 88.124 48.0606 82.952 44.9899 78.6234C35.9903 65.9331 18.6642 60.6422 4.16406 66.2503V133.648L180.477 133.738Z" fill="#EBEBEB"/>
<path d="M203.511 133.75C203.511 133.137 203.482 81.7817 203.435 0.619543L203.511 0.69523H4.0792L4.17279 0.601521C4.17279 48.0107 4.17279 93.1059 4.17279 133.732L4.0864 133.646L203.547 133.732L4.0864 133.819H4V133.732C4 93.1059 4 48.0107 4 0.601521V0.507812H4.11159H203.543H203.619V0.5835C203.539 81.7816 203.511 133.137 203.511 133.75Z" fill="#263238"/>
<path d="M29.0252 29.7392C29.0252 29.8724 28.0461 29.984 26.8329 29.984C25.6198 29.984 24.6406 29.8724 24.6406 29.7392C24.6406 29.606 25.6234 29.498 26.8329 29.498C28.0425 29.498 29.0252 29.606 29.0252 29.7392Z" fill="#263238"/>
<path d="M31.374 23.7715C31.5072 23.7715 31.6152 24.7662 31.6152 25.9989C31.6152 27.2315 31.5072 28.2262 31.374 28.2262C31.2408 28.2262 31.1328 27.2279 31.1328 25.9989C31.1328 24.7698 31.2408 23.7715 31.374 23.7715Z" fill="#263238"/>
<path d="M33.8359 29.6003C33.8359 29.4635 34.8151 29.3555 36.0246 29.3555C37.2342 29.3555 38.2169 29.4635 38.2169 29.6003C38.2169 29.7371 37.2378 29.8415 36.0246 29.8415C34.8115 29.8415 33.8359 29.7335 33.8359 29.6003Z" fill="#263238"/>
<path d="M31.5224 35.57C31.3892 35.57 31.2812 34.5716 31.2812 33.3426C31.2812 32.1136 31.3892 31.1152 31.5224 31.1152C31.6556 31.1152 31.7636 32.1136 31.7636 33.3426C31.7636 34.5716 31.6556 35.57 31.5224 35.57Z" fill="#263238"/>
<path d="M35.049 33.0134C34.9482 33.0963 34.5162 32.7503 34.0842 32.2313C33.6523 31.7123 33.3895 31.2294 33.4903 31.1501C33.5911 31.0708 34.0266 31.4132 34.455 31.9286C34.8834 32.444 35.1534 32.9233 35.049 33.0134Z" fill="#263238"/>
<path d="M34.8529 26.2375C34.9501 26.3313 34.6621 26.7746 34.2157 27.2251C33.7693 27.6756 33.3302 27.9675 33.2366 27.8738C33.143 27.7801 33.4274 27.3368 33.8737 26.8827C34.3201 26.4286 34.7593 26.1438 34.8529 26.2375Z" fill="#263238"/>
<path d="M29.8213 27.9666C29.7385 28.0675 29.3245 27.8657 28.8961 27.5089C28.4677 27.1521 28.1977 26.788 28.2805 26.6799C28.3633 26.5718 28.7809 26.7808 29.2093 27.1376C29.6377 27.4945 29.9005 27.8585 29.8213 27.9666Z" fill="#263238"/>
<path d="M29.6306 30.9433C29.7278 31.037 29.4794 31.4695 29.0727 31.9164C28.6659 32.3633 28.2591 32.6373 28.1619 32.558C28.0647 32.4787 28.3095 32.0354 28.7163 31.5884C29.123 31.1415 29.5442 30.8496 29.6306 30.9433Z" fill="#263238"/>
<path d="M152.725 18.1886C152.725 18.2641 152.167 18.3253 151.48 18.3253C150.792 18.3253 150.234 18.2641 150.234 18.1886C150.234 18.113 150.792 18.0518 151.48 18.0518C152.167 18.0518 152.725 18.113 152.725 18.1886Z" fill="#263238"/>
<path d="M154.059 14.8018C154.134 14.8018 154.195 15.3676 154.195 16.0632C154.195 16.7588 154.134 17.3283 154.059 17.3283C153.983 17.3283 153.922 16.7624 153.922 16.0632C153.922 15.364 153.983 14.8018 154.059 14.8018Z" fill="#263238"/>
<path d="M155.461 18.1055C155.461 18.0299 156.019 17.9688 156.706 17.9688C157.394 17.9688 157.948 18.0299 157.948 18.1055C157.948 18.1811 157.394 18.2459 156.706 18.2459C156.019 18.2459 155.461 18.1847 155.461 18.1055Z" fill="#263238"/>
<path d="M154.137 21.4979C154.061 21.4979 154 20.932 154 20.2328C154 19.5336 154.061 18.9678 154.137 18.9678C154.212 18.9678 154.274 19.5336 154.274 20.2328C154.274 20.932 154.212 21.4979 154.137 21.4979Z" fill="#263238"/>
<path d="M156.14 20.0387C156.079 20.0856 155.834 19.8874 155.589 19.5954C155.345 19.3035 155.197 19.026 155.255 18.9755C155.312 18.9251 155.557 19.1269 155.802 19.4188C156.047 19.7108 156.198 19.9955 156.14 20.0387Z" fill="#263238"/>
<path d="M156.022 16.1998C156.076 16.2539 155.914 16.5062 155.662 16.7621C155.41 17.018 155.158 17.1802 155.104 17.1225C155.05 17.0648 155.212 16.8198 155.464 16.5639C155.716 16.308 155.968 16.1458 156.022 16.1998Z" fill="#263238"/>
<path d="M153.173 17.1798C153.122 17.2374 152.888 17.1222 152.647 16.9206C152.406 16.719 152.248 16.5102 152.287 16.4526C152.327 16.395 152.572 16.5066 152.813 16.7082C153.054 16.9098 153.22 17.1222 153.173 17.1798Z" fill="#263238"/>
<path d="M153.067 18.8746C153.121 18.925 152.98 19.1701 152.75 19.426C152.519 19.6819 152.289 19.8405 152.231 19.7864C152.174 19.7324 152.318 19.4873 152.548 19.235C152.779 18.9827 153.023 18.8241 153.067 18.8746Z" fill="#263238"/>
<path d="M96.2048 46.5397C95.5764 46.6789 94.9252 46.6789 94.2969 46.5397C94.9247 46.3956 95.577 46.3956 96.2048 46.5397Z" fill="#263238"/>
<path d="M97.2173 43.9424C97.3566 44.58 97.3566 45.2402 97.2173 45.8778C97.0734 45.2407 97.0734 44.5795 97.2173 43.9424Z" fill="#263238"/>
<path d="M98.2891 46.4745C98.9174 46.3353 99.5686 46.3353 100.197 46.4745C99.5692 46.6186 98.9169 46.6186 98.2891 46.4745Z" fill="#263238"/>
<path d="M97.2607 49.0758C97.1214 48.4369 97.1214 47.7756 97.2607 47.1367C97.3999 47.7756 97.3999 48.4369 97.2607 49.0758Z" fill="#263238"/>
<path d="M98.8042 47.9604C98.761 47.9964 98.5738 47.8452 98.3866 47.622C98.1994 47.3988 98.0806 47.1864 98.1274 47.1468C98.1742 47.1072 98.3614 47.262 98.5486 47.4852C98.7358 47.7084 98.851 47.9244 98.8042 47.9604Z" fill="#263238"/>
<path d="M98.713 45.012C98.7526 45.0552 98.6302 45.246 98.4358 45.444C98.2414 45.642 98.047 45.7644 98.0074 45.7248C97.9678 45.6852 98.0902 45.4908 98.2846 45.2964C98.479 45.102 98.6698 44.9724 98.713 45.012Z" fill="#263238"/>
<path d="M96.5287 45.7654C96.4927 45.8086 96.3128 45.7222 96.1256 45.5674C95.9384 45.4126 95.8196 45.2506 95.8592 45.2074C95.8988 45.1642 96.0752 45.2506 96.2624 45.4054C96.4495 45.5602 96.5647 45.7186 96.5287 45.7654Z" fill="#263238"/>
<path d="M96.4491 47.07C96.4923 47.1096 96.3843 47.2967 96.2079 47.4911C96.0315 47.6855 95.8479 47.8115 95.8119 47.7719C95.7759 47.7323 95.8767 47.5451 96.0531 47.3507C96.2295 47.1563 96.4059 47.0232 96.4491 47.07Z" fill="#263238"/>
<path d="M146.874 50.5798C146.874 50.6554 146.316 50.7166 145.628 50.7166C144.941 50.7166 144.383 50.6734 144.383 50.5798C144.383 50.4863 144.937 50.4395 145.625 50.4395C146.312 50.4395 146.874 50.5043 146.874 50.5798Z" fill="#E0E0E0"/>
<path d="M148.184 47.1895C148.259 47.1895 148.32 47.7553 148.32 48.4545C148.32 49.1537 148.259 49.7196 148.184 49.7196C148.108 49.7196 148.047 49.1537 148.047 48.4545C148.047 47.7553 148.108 47.1895 148.184 47.1895Z" fill="#E0E0E0"/>
<path d="M149.594 50.4991C149.594 50.4235 150.152 50.3623 150.839 50.3623C151.527 50.3623 152.081 50.4235 152.081 50.4991C152.081 50.5747 151.527 50.6359 150.839 50.6359C150.152 50.6359 149.594 50.5747 149.594 50.4991Z" fill="#E0E0E0"/>
<path d="M148.262 53.8905C148.186 53.8905 148.125 53.321 148.125 52.6254C148.125 51.9298 148.186 51.3604 148.262 51.3604C148.337 51.3604 148.399 51.9262 148.399 52.6254C148.399 53.3246 148.323 53.8905 148.262 53.8905Z" fill="#E0E0E0"/>
<path d="M150.289 52.4328C150.227 52.4832 149.983 52.285 149.738 51.9931C149.493 51.7011 149.345 51.42 149.403 51.3732C149.461 51.3263 149.705 51.5209 149.95 51.8129C150.195 52.1048 150.346 52.3859 150.289 52.4328Z" fill="#E0E0E0"/>
<path d="M150.171 48.59C150.225 48.6441 150.063 48.8928 149.811 49.1487C149.559 49.4045 149.307 49.5703 149.253 49.5091C149.199 49.4478 149.361 49.2063 149.613 48.9468C149.865 48.6873 150.117 48.5359 150.171 48.59Z" fill="#E0E0E0"/>
<path d="M147.314 49.5652C147.263 49.6264 147.029 49.5112 146.788 49.3097C146.547 49.1081 146.388 48.8957 146.428 48.8381C146.468 48.7805 146.712 48.8957 146.954 49.0973C147.195 49.2989 147.36 49.5076 147.314 49.5652Z" fill="#E0E0E0"/>
<path d="M147.199 51.2593C147.253 51.3134 147.113 51.5585 146.883 51.8108C146.652 52.0631 146.422 52.2289 146.364 52.1712C146.307 52.1135 146.451 51.8721 146.681 51.6198C146.911 51.3675 147.142 51.2089 147.199 51.2593Z" fill="#E0E0E0"/>
<path d="M81.2659 18.4102L81.4279 18.7994C81.5685 19.1349 81.7737 19.4394 82.0319 19.6954C82.2901 19.9515 82.5962 20.154 82.9326 20.2915L83.3574 20.4645L82.9506 20.6267C82.6088 20.766 82.2984 20.9728 82.038 21.2347C81.7777 21.4966 81.5726 21.8083 81.4351 22.1513L81.3199 22.4324L81.1471 22.072C80.8378 21.4228 80.2856 20.9217 79.61 20.6772L79.25 20.5402L79.7324 20.3096C80.3404 20.0098 80.817 19.4967 81.0715 18.8679L81.2659 18.4102Z" fill="#E0E0E0"/>
<path d="M18.0146 47.5752L18.1226 47.8347C18.2156 48.058 18.3519 48.2606 18.5237 48.4308C18.6955 48.6009 18.8993 48.7352 19.1234 48.8258L19.4042 48.9412L19.1342 49.0493C18.9072 49.1423 18.7011 49.2798 18.528 49.4538C18.3549 49.6277 18.2183 49.8345 18.1262 50.0621L18.0506 50.2495L17.9354 50.0152C17.73 49.5841 17.3644 49.2504 16.9167 49.0853L16.6719 48.9988L16.9923 48.8439C17.3921 48.6459 17.7076 48.3108 17.8814 47.8996L18.0146 47.5752Z" fill="#E0E0E0"/>
<path d="M177.339 22.4316L177.443 22.6911C177.633 23.1418 177.992 23.4992 178.444 23.6859L178.724 23.7976L178.458 23.9093C178.23 24.001 178.024 24.1376 177.85 24.311C177.676 24.4844 177.539 24.691 177.447 24.9185L177.371 25.1095L177.259 24.8717C177.052 24.4414 176.685 24.1091 176.237 23.9454L175.992 23.8553L176.313 23.7003C176.716 23.507 177.033 23.1704 177.202 22.756L177.339 22.4316Z" fill="#E0E0E0"/>
<path d="M177.821 33.374L177.983 33.7633C178.122 34.0997 178.327 34.405 178.586 34.6617C178.844 34.9184 179.15 35.1214 179.487 35.259L179.912 35.4284L179.505 35.5942C179.163 35.7332 178.853 35.9394 178.592 36.2007C178.331 36.4619 178.125 36.7729 177.986 37.1151L177.875 37.3999L177.702 37.0395C177.392 36.3903 176.84 35.8892 176.165 35.6446L175.805 35.5113L176.287 35.277C176.892 34.9831 177.368 34.4781 177.626 33.857L177.821 33.374Z" fill="#263238"/>
<path d="M111.314 16.0508L111.39 16.2346C111.457 16.3933 111.555 16.5369 111.679 16.657C111.803 16.7771 111.949 16.8712 112.11 16.9338L112.308 17.0167L112.117 17.0924C111.954 17.1573 111.806 17.2547 111.683 17.3786C111.559 17.5025 111.462 17.6504 111.397 17.8132L111.343 17.9466L111.26 17.7808C111.116 17.4754 110.857 17.2395 110.54 17.1248L110.367 17.0636L110.594 16.9518C110.878 16.8141 111.102 16.5769 111.224 16.2851L111.314 16.0508Z" fill="#263238"/>
<path d="M61.1536 45.9268L61.2508 46.161C61.3345 46.3641 61.4579 46.5484 61.6137 46.7031C61.7694 46.8578 61.9545 46.9799 62.158 47.0621L62.4136 47.1666L62.1688 47.2639C61.9623 47.3473 61.7748 47.4718 61.6177 47.6297C61.4605 47.7877 61.3369 47.9759 61.2544 48.183L61.186 48.356L61.0816 48.1397C60.8931 47.7494 60.5599 47.4481 60.1529 47.2999L59.9297 47.217L60.2213 47.0765C60.586 46.8981 60.8738 46.5933 61.0312 46.2187L61.1536 45.9268Z" fill="#263238"/>
<path d="M51.5353 52.5022C51.4741 53.6591 49.9694 55.2017 50.4338 56.2613C51.2905 58.2148 50.7938 60.5539 49.685 62.3884C48.5763 64.2229 46.9167 65.6321 45.286 66.9945C45.3683 64.1462 45.1207 61.2979 44.548 58.5067C44.368 57.6345 44.0728 56.6614 43.2773 56.2649C42.2441 55.7531 40.9338 56.492 39.8754 56.0379C38.7487 55.5477 38.5219 54.0051 37.5715 53.2266C36.7112 52.5238 35.4476 52.5995 34.3929 52.9527C33.3381 53.3059 32.3697 53.9006 31.2862 54.1421C30.2026 54.3835 28.8959 54.1673 28.2947 53.2302C27.9347 52.6535 28.1903 53.0068 27.8375 52.4193C27.8375 52.4193 25.7244 52.4914 24.9973 50.0297C24.9973 50.0297 24.0037 47.2942 26.2032 46.0868C26.2032 46.0868 26.7036 41.1419 31.6678 43.3656C33.1077 44.0072 34.7852 41.9456 36.1784 42.6448C37.3375 43.2323 37.6795 44.8469 38.8387 45.438C40.1706 46.1156 41.7185 45.1064 43.2089 45.0452C44.1636 45.0452 45.0793 45.4249 45.7544 46.1008C46.4295 46.7767 46.8087 47.6934 46.8087 48.6493C46.8087 48.6493 47.0427 47.6618 48.659 48.0943C50.2754 48.5268 51.6505 50.246 51.5353 52.5022Z" fill="#263238"/>
<path d="M49.4284 60.4601C49.4594 59.9007 49.3557 59.342 49.126 58.8311C48.9172 58.4094 48.136 57.4507 47.2792 57.3894L47.4052 52.2967C47.4147 51.7914 47.2354 51.3007 46.9025 50.9207C46.5696 50.5407 46.107 50.2988 45.6053 50.2423L35.6374 49.1899C34.8226 49.1037 33.9988 49.1834 33.2157 49.4243C32.4325 49.6652 31.7061 50.0623 31.0802 50.5916C30.4543 51.1209 29.9419 51.7716 29.5737 52.5044C29.2056 53.2372 28.9894 54.037 28.938 54.8557C28.6968 58.6941 28.5529 63.3903 29.0064 66.252C29.9208 72.0187 34.327 72.7395 34.327 72.7395L34.219 76.7618C34.0498 81.0471 37.2537 83.6277 40.5583 83.6277C43.863 83.6277 46.9157 80.7696 46.8185 76.5275L47.1425 63.5525C47.7007 63.5009 48.2201 63.2441 48.6004 62.8317C49.1484 62.1644 49.4419 61.3239 49.4284 60.4601Z" fill="#FFBE9D"/>
<path d="M31.1563 57.9805C31.1552 58.1743 31.23 58.3609 31.3645 58.5003C31.499 58.6397 31.6827 58.7209 31.8762 58.7265C32.0649 58.7374 32.2503 58.6737 32.3924 58.5489C32.5345 58.4242 32.6219 58.2485 32.6358 58.0598C32.6392 57.963 32.6231 57.8665 32.5884 57.7762C32.5537 57.6858 32.5012 57.6033 32.434 57.5337C32.3668 57.464 32.2863 57.4087 32.1973 57.3709C32.1083 57.3331 32.0125 57.3136 31.9158 57.3137C31.7271 57.3028 31.5417 57.3666 31.3996 57.4913C31.2575 57.6161 31.1701 57.7918 31.1563 57.9805Z" fill="#263238"/>
<path d="M29.9397 57.2977C30.0297 57.3949 30.5877 56.9809 31.3797 56.9809C32.1716 56.9809 32.7548 57.3805 32.8412 57.2833C32.8808 57.2401 32.7872 57.0673 32.5352 56.8837C32.192 56.6453 31.7831 56.5195 31.3653 56.5237C30.9537 56.5172 30.5511 56.6434 30.2169 56.8837C29.9757 57.0817 29.8785 57.2545 29.9397 57.2977Z" fill="#263238"/>
<path d="M38.8047 58.1279C38.8028 58.322 38.8772 58.5091 39.0119 58.6487C39.1467 58.7884 39.3309 58.8693 39.5247 58.874C39.7134 58.8849 39.8988 58.8211 40.0409 58.6964C40.183 58.5716 40.2704 58.3959 40.2843 58.2072C40.2862 58.0131 40.2118 57.826 40.0771 57.6864C39.9423 57.5468 39.7581 57.4659 39.5643 57.4612C39.3756 57.4502 39.1902 57.514 39.0481 57.6388C38.906 57.7635 38.8186 57.9392 38.8047 58.1279Z" fill="#263238"/>
<path d="M37.7313 57.445C37.8213 57.5422 38.3792 57.1282 39.1712 57.1318C39.9632 57.1354 40.5463 57.5278 40.6327 57.4306C40.6723 57.3874 40.5823 57.2146 40.3268 57.031C39.9835 56.7927 39.5747 56.6669 39.1568 56.671C38.7455 56.6663 38.3434 56.7923 38.0084 57.031C37.7673 57.229 37.6845 57.4018 37.7313 57.445Z" fill="#263238"/>
<path d="M34.8539 63.3413C34.4353 63.2117 34.0026 63.133 33.5651 63.107C33.3636 63.089 33.1728 63.0458 33.1368 62.9088C33.1215 62.699 33.1691 62.4894 33.2736 62.3069L33.8711 60.7679C34.7063 58.5658 35.3111 56.7565 35.2175 56.7241C35.1239 56.6916 34.3823 58.4469 33.5507 60.649C33.3492 61.1896 33.1584 61.7086 32.9784 62.2024C32.8503 62.447 32.812 62.7289 32.8704 62.9989C32.9002 63.0703 32.9459 63.134 33.0038 63.1852C33.0618 63.2364 33.1307 63.2738 33.2052 63.2945C33.3225 63.3264 33.4435 63.3434 33.5651 63.3449C33.9931 63.3997 34.4263 63.3985 34.8539 63.3413Z" fill="#263238"/>
<path d="M34.3124 72.7445C37.021 72.7851 39.6877 72.0727 42.0161 70.6865C42.0161 70.6865 40.0218 75.0115 34.2656 74.4817L34.3124 72.7445Z" fill="#EB996E"/>
<path d="M37.371 56.0553C37.4502 56.2715 38.2422 56.1706 39.171 56.2823C40.0997 56.3941 40.8557 56.6427 40.9709 56.4553C41.0249 56.3616 40.8953 56.1598 40.5929 55.9507C40.1887 55.6896 39.7287 55.5279 39.2502 55.4786C38.7745 55.4214 38.2921 55.4783 37.8426 55.6444C37.5114 55.785 37.3386 55.9543 37.371 56.0553Z" fill="#263238"/>
<path d="M29.8249 55.4505C29.9653 55.6307 30.5089 55.4505 31.1677 55.4505C31.8265 55.4505 32.3808 55.5694 32.5104 55.382C32.568 55.2883 32.478 55.1081 32.2368 54.9387C31.9103 54.7353 31.5309 54.6333 31.1465 54.6455C30.7622 54.6577 30.39 54.7835 30.0769 55.0072C29.8393 55.1766 29.7637 55.3604 29.8249 55.4505Z" fill="#263238"/>
<path d="M35.0312 67.8372C35.0312 67.8192 35.0852 67.722 35.2472 67.6213C35.4651 67.4922 35.714 67.425 35.9672 67.4269C36.2196 67.4237 36.4682 67.4884 36.6872 67.6141C36.8492 67.7149 36.9212 67.8084 36.9068 67.8264C36.6082 67.7148 36.2957 67.6445 35.978 67.6177C35.6531 67.6421 35.3338 67.7161 35.0312 67.8372Z" fill="#EB996E"/>
<path d="M46.7578 61.9922C46.9459 61.9154 47.1286 61.8263 47.305 61.7255C47.5023 61.596 47.6657 61.4211 47.7816 61.2155C47.8974 61.0098 47.9624 60.7793 47.971 60.5433C47.9749 60.3058 47.9228 60.0708 47.819 59.8572C47.7152 59.6437 47.5625 59.4576 47.3734 59.3143C47.2102 59.2014 47.0227 59.1285 46.8262 59.1016C46.8082 59.08 47.0926 58.9827 47.449 59.2025C47.6733 59.3459 47.8573 59.5444 47.9833 59.7791C48.1093 60.0138 48.1733 60.2769 48.169 60.5433C48.1644 60.8389 48.0716 61.1263 47.9026 61.3686C47.7684 61.5639 47.591 61.7255 47.3842 61.8408C47.2014 61.9672 46.9781 62.0212 46.7578 61.9922Z" fill="#EB996E"/>
<path d="M27.8449 47.8182C26.9162 50.3051 29.1229 52.1072 30.8436 52.5036C33.2483 53.0659 35.8042 51.5449 37.4493 52.1901C38.6769 52.673 39.836 53.6317 41.1392 53.4335C41.7727 53.3398 42.3991 52.9758 43.0147 53.1416C43.803 53.3578 44.1234 54.3165 44.0946 55.1347C44.073 56.1438 43.7346 57.1458 43.8606 58.1477C43.9866 59.1497 44.8794 60.1841 45.855 59.9174C46.3133 59.7639 46.7147 59.4752 47.0063 59.0893C47.298 58.7034 47.4663 58.2383 47.4893 57.7549C47.6045 56.3673 47.3489 54.7166 47.4173 53.3254C47.4785 52.1 47.4821 50.752 46.6973 49.8041C45.9125 48.8562 44.5878 48.6003 43.3675 48.4345C38.2207 47.725 33.0234 47.4501 27.8305 47.6128" fill="#263238"/>
<path d="M24.8024 48.3473C24.7714 48.2642 24.7543 48.1765 24.752 48.0878C24.7388 47.8303 24.7908 47.5737 24.9032 47.3417C25.0812 46.9692 25.3901 46.6753 25.7708 46.5164C26.0116 46.4246 26.2718 46.396 26.5268 46.4335C26.7967 46.4587 27.0667 46.5308 27.3511 46.5452C27.6461 46.5616 27.9399 46.4968 28.2007 46.3578C28.4853 46.1989 28.75 46.0065 28.989 45.7847C29.2482 45.5613 29.511 45.3162 29.8134 45.0963C30.1282 44.8662 30.4894 44.7075 30.8718 44.6314C31.6978 44.507 32.5418 44.651 33.2801 45.0423C34.0469 45.4663 34.7621 45.9779 35.4112 46.5668C36.0418 47.1545 36.7594 47.6408 37.5387 48.0085C37.9081 48.1633 38.3098 48.2252 38.7086 48.1887C39.0866 48.1313 39.4518 48.0094 39.7886 47.8283C40.4203 47.4489 41.0914 47.1395 41.7901 46.9056C42.4184 46.7261 43.0812 46.7051 43.7196 46.8443C44.246 46.9637 44.73 47.2241 45.1199 47.5976C45.4111 47.88 45.6382 48.2217 45.7859 48.5996C45.8779 48.8378 45.9278 49.0903 45.9335 49.3456C45.9383 49.4116 45.9383 49.4779 45.9335 49.5439C45.9335 49.5871 45.9335 49.6087 45.9335 49.6087C45.9289 49.2728 45.863 48.9406 45.7391 48.6284C45.5855 48.2665 45.3573 47.941 45.0696 47.6733C44.6882 47.3223 44.2194 47.0807 43.7124 46.9741C43.096 46.8489 42.4584 46.8761 41.8549 47.0534C41.1672 47.292 40.5071 47.6037 39.8858 47.9833C39.5264 48.1714 39.1362 48.2935 38.7338 48.3437C38.3063 48.3867 37.8748 48.3236 37.4775 48.1599C36.6807 47.787 35.9462 47.2935 35.2996 46.6966C34.661 46.1169 33.958 45.6126 33.2045 45.1936C32.5025 44.818 31.6995 44.6754 30.9114 44.7864C30.159 44.9125 29.6154 45.4423 29.1114 45.8892C28.8608 46.115 28.584 46.3098 28.2871 46.4695C28.0019 46.6168 27.6822 46.684 27.3619 46.6641C27.0631 46.6425 26.7931 46.5668 26.5339 46.5344C26.2923 46.4958 26.0449 46.5181 25.814 46.5993C25.4525 46.7441 25.1549 47.0139 24.9752 47.3597C24.8584 47.5821 24.7967 47.8293 24.7952 48.0806C24.788 48.2572 24.8312 48.3437 24.8024 48.3473Z" fill="#455A64"/>
<path d="M27.5989 52.3556C27.5165 52.3787 27.4294 52.3787 27.3469 52.3556C27.2256 52.3316 27.1108 52.2819 27.0102 52.2098C26.9096 52.1377 26.8256 52.0448 26.7638 51.9376C26.5901 51.5871 26.5418 51.1876 26.627 50.8059C26.7118 50.301 26.9141 49.8232 27.2173 49.411C27.5846 48.905 28.095 48.5209 28.6825 48.3082C29.3567 48.0574 30.095 48.0384 30.7812 48.2541C31.5107 48.5267 32.1924 48.9136 32.8007 49.4002C33.4334 49.9165 34.1508 50.3189 34.921 50.5896C35.7077 50.7896 36.5366 50.7443 37.2969 50.4599C38.0158 50.2021 38.7068 49.8725 39.3596 49.4759C39.9587 49.1156 40.5777 48.7895 41.2135 48.4992C41.7727 48.2443 42.3721 48.0894 42.9847 48.0415C43.4304 48.0046 43.8789 48.0591 44.3029 48.2016C44.7269 48.3441 45.1174 48.5717 45.4506 48.8704C45.6234 49.0402 45.7669 49.2375 45.8753 49.4543C45.914 49.5297 45.943 49.6096 45.9617 49.6922C45.8227 49.4052 45.6338 49.1452 45.4038 48.9245C45.0718 48.6461 44.6881 48.4362 44.2748 48.307C43.8614 48.1777 43.4267 48.1316 42.9955 48.1712C42.3988 48.2271 41.8165 48.3869 41.2747 48.6434C40.6468 48.9359 40.0362 49.2645 39.446 49.6273C38.7845 50.0323 38.0838 50.3692 37.3545 50.6329C36.5587 50.9315 35.6907 50.9793 34.867 50.7698C34.0827 50.4905 33.3521 50.0785 32.7071 49.5516C32.1163 49.0739 31.4543 48.692 30.7452 48.4199C30.0936 48.2115 29.3917 48.2229 28.7473 48.4523C28.1856 48.6528 27.695 49.0136 27.3361 49.4903C27.0377 49.8824 26.8355 50.3392 26.7458 50.8239C26.6537 51.1848 26.688 51.5664 26.843 51.9051C26.8961 52.0085 26.9698 52.1 27.0596 52.1737C27.1493 52.2475 27.2533 52.302 27.3649 52.334C27.4422 52.3479 27.5205 52.3551 27.5989 52.3556Z" fill="#455A64"/>
<path d="M49.624 61.9615C49.624 61.9615 49.7536 61.7885 49.9444 61.4569C50.206 60.9835 50.3528 60.4551 50.3727 59.9143C50.3891 59.5487 50.3428 59.1831 50.2359 58.8331C50.1038 58.4282 49.9095 58.0464 49.66 57.7014C49.408 57.341 49.1092 56.9445 48.8464 56.512C48.5478 56.0684 48.384 55.5476 48.3748 55.0127C48.4262 54.4851 48.5907 53.9749 48.8572 53.517C49.0873 53.1099 49.225 52.657 49.2604 52.1906C49.2703 51.7969 49.1776 51.4073 48.9914 51.0603C48.8052 50.7134 48.5319 50.421 48.1984 50.2119C47.7336 49.9367 47.1883 49.8298 46.6541 49.9092C46.4594 49.9441 46.267 49.9911 46.0781 50.0497C46.1187 50.0173 46.1635 49.9906 46.2113 49.9705C46.3501 49.9104 46.4949 49.8657 46.6433 49.8371C47.1969 49.7257 47.772 49.8178 48.2632 50.0966C48.6259 50.3117 48.9252 50.6191 49.1307 50.9875C49.3362 51.3559 49.4405 51.7723 49.4332 52.1942C49.4007 52.686 49.2606 53.1647 49.0228 53.5962C48.7697 54.0312 48.6126 54.5154 48.562 55.0163C48.5709 55.5167 48.7247 56.0037 49.0048 56.4183C49.2568 56.8364 49.552 57.2184 49.804 57.6041C50.0587 57.9666 50.2555 58.3666 50.3871 58.7898C50.4936 59.1619 50.5338 59.5499 50.5059 59.936C50.475 60.4856 50.3093 61.0191 50.0236 61.4894C49.9453 61.6178 49.8549 61.7385 49.7536 61.8498C49.6636 61.9291 49.6276 61.9651 49.624 61.9615Z" fill="#455A64"/>
<path d="M34.5478 57.7535C34.5144 57.4517 34.464 57.1521 34.3966 56.856C34.2691 56.3626 34.0401 55.9012 33.7241 55.5015C33.4082 55.1018 33.0123 54.7727 32.5618 54.5351C32.1114 54.2976 31.6164 54.1569 31.1084 54.1221C30.6005 54.0873 30.0909 54.1592 29.6124 54.3331C28.9438 54.5836 28.3623 55.0231 27.9385 55.5982C27.4838 56.2171 27.2385 56.9653 27.2385 57.7337C27.2385 58.502 27.4838 59.2502 27.9385 59.8691C28.1486 60.1666 28.4065 60.4272 28.7016 60.6404C28.9778 60.8513 29.2851 61.0179 29.6124 61.1342C30.1813 61.344 30.7938 61.4078 31.3937 61.3197C31.9936 61.2315 32.5619 60.9943 33.0466 60.6296C33.7066 60.132 34.1818 59.428 34.3966 58.6293C34.4634 58.3344 34.5139 58.036 34.5478 57.7355C34.5704 58.0417 34.5437 58.3496 34.4686 58.6473C34.277 59.4915 33.7954 60.2416 33.1078 60.7666C32.608 61.1536 32.0186 61.408 31.3943 61.5063C30.7701 61.6046 30.1312 61.5435 29.5368 61.3288C29.1916 61.2096 28.8673 61.0369 28.5756 60.817C28.2673 60.5933 27.9963 60.322 27.7729 60.0133C27.2913 59.364 27.0312 58.5767 27.0312 57.7679C27.0312 56.9591 27.2913 56.1718 27.7729 55.5225C28.218 54.9182 28.8317 54.4593 29.5368 54.2034C30.1735 53.9753 30.8596 53.9218 31.5239 54.0484C32.2288 54.1859 32.8794 54.5233 33.3983 55.0204C33.9171 55.5175 34.2824 56.1534 34.4506 56.8524C34.5302 57.1458 34.563 57.4499 34.5478 57.7535Z" fill="#263238"/>
<path d="M42.9794 57.7535C42.9483 57.4514 42.8978 57.1516 42.8282 56.856C42.7012 56.3627 42.4725 55.9014 42.1569 55.5017C41.8413 55.102 41.4458 54.7729 40.9956 54.5353C40.5454 54.2977 40.0506 54.157 39.5429 54.1222C39.0353 54.0874 38.5259 54.1592 38.0476 54.3331C37.3773 54.5823 36.7943 55.022 36.3701 55.5982C35.9154 56.2171 35.6702 56.9653 35.6702 57.7337C35.6702 58.502 35.9154 59.2502 36.3701 59.8691C36.5812 60.1658 36.8389 60.4263 37.1332 60.6404C37.4111 60.8507 37.7195 61.0172 38.0476 61.1342C38.5231 61.3068 39.0293 61.3787 39.534 61.3453C40.0387 61.3119 40.531 61.174 40.9798 60.9402C41.4285 60.7064 41.8238 60.3819 42.1407 59.9873C42.4577 59.5926 42.6893 59.1363 42.821 58.6473C42.8901 58.3528 42.9406 58.0543 42.9722 57.7535C42.9971 58.0597 42.9704 58.368 42.893 58.6653C42.7059 59.4992 42.2351 60.2421 41.5611 60.7666C41.0612 61.1536 40.4718 61.408 39.8476 61.5063C39.2233 61.6046 38.5844 61.5435 37.99 61.3288C37.6448 61.2096 37.3205 61.0369 37.0288 60.817C36.7195 60.5932 36.4474 60.322 36.2225 60.0133C35.7431 59.3631 35.4844 58.5761 35.4844 57.7679C35.4844 56.9597 35.7431 56.1727 36.2225 55.5225C36.6701 54.9192 37.2846 54.4605 37.99 54.2034C38.6267 53.9753 39.3128 53.9218 39.9771 54.0484C40.6812 54.1869 41.3308 54.5247 41.8489 55.0217C42.367 55.5187 42.7319 56.1541 42.9002 56.8524C42.976 57.1464 43.0027 57.4508 42.9794 57.7535Z" fill="#263238"/>
<path d="M35.8104 57.133V57.169V57.1042V57.1762C35.612 57.2204 35.4088 57.2398 35.2056 57.2338C34.8457 57.2338 34.5469 57.1906 34.5469 57.1402C34.5469 57.0898 34.8421 57.0466 35.2056 57.0466C35.4089 57.0388 35.6123 57.0582 35.8104 57.1042V57.1762V57.1114V57.1474V57.133Z" fill="#263238"/>
<path d="M47.4433 57.9486C46.6867 57.9899 45.9281 57.967 45.1754 57.8802C44.4184 57.8582 43.6646 57.7727 42.9219 57.6246C43.6785 57.5876 44.4368 57.6105 45.1898 57.693C45.9466 57.717 46.7003 57.8025 47.4433 57.9486Z" fill="#263238"/>
<path d="M38.1634 63.1396C38.2304 63.326 38.2392 63.5284 38.1886 63.7199C38.1115 64.1994 37.8617 64.634 37.4862 64.9415C37.1108 65.2489 36.6358 65.408 36.1511 65.3886C35.9528 65.4007 35.7556 65.3517 35.5859 65.2481C35.5859 65.2193 35.8091 65.2769 36.1511 65.2481C36.5959 65.2328 37.0233 65.0718 37.3679 64.7899C37.7126 64.508 37.9553 64.1208 38.059 63.6875C38.1634 63.3595 38.1418 63.1396 38.1634 63.1396Z" fill="#263238"/>
<path d="M23.9089 89.0137C23.9135 89.052 23.9135 89.0907 23.9089 89.129V89.4678C23.9089 89.7778 23.9089 90.2175 23.9269 90.7725C23.9269 91.915 23.9269 93.5477 23.9521 95.5624C23.9521 99.6063 23.8297 105.193 23.5165 111.356C23.2034 117.519 22.8794 123.087 22.6598 127.138C22.559 129.146 22.4762 130.779 22.4186 131.921C22.3898 132.476 22.3682 132.909 22.3538 133.219C22.3538 133.359 22.3358 133.471 22.3322 133.557C22.3359 133.596 22.3359 133.634 22.3322 133.673C22.3268 133.635 22.3268 133.596 22.3322 133.557C22.3322 133.471 22.3322 133.359 22.3322 133.219C22.3322 132.909 22.3502 132.473 22.3646 131.918C22.397 130.786 22.4546 129.15 22.5446 127.131C22.7138 123.091 23.0414 117.512 23.3473 111.349C23.6533 105.186 23.8189 99.6027 23.8405 95.5588C23.8405 93.5477 23.8657 91.915 23.8729 90.7725C23.8729 90.2175 23.8729 89.7778 23.8909 89.4678V89.129C23.8922 89.09 23.8983 89.0512 23.9089 89.0137Z" fill="#263238"/>
<path d="M58.6927 82.8115C56.756 80.5733 52.9726 80.2454 51.295 81.46C49.6175 82.6746 48.6851 84.7361 48.516 86.8013C48.3468 88.8665 48.8759 90.9389 49.6607 92.8527C50.9243 95.9234 52.7926 98.4103 55.5825 101.575L62.7821 111.025L48.9047 124.591L54.6645 133.677L66.4612 124.162L76.2168 113.811" fill="#FFB647"/>
<path d="M8.52344 111.945C8.74865 111.78 9.00252 111.658 9.27221 111.585C9.91022 111.369 10.5834 111.278 11.2557 111.315C11.9295 111.351 12.5902 111.515 13.2032 111.798C13.4689 111.897 13.7132 112.046 13.9232 112.237C13.9232 112.262 13.6352 112.104 13.1672 111.92C12.5587 111.68 11.9159 111.539 11.2629 111.502C10.6104 111.47 9.9569 111.541 9.3262 111.711C8.82582 111.844 8.53784 111.974 8.52344 111.945Z" fill="#263238"/>
<path d="M60.5454 84.9315C55.7036 78.5017 50.491 79.0315 47.8343 78.9558V76.1338C45.8724 76.1338 43.1905 77.9034 41.8046 79.1685L40.4331 81.0535C40.0807 80.0213 39.4923 79.0859 38.7148 78.3218C37.9373 77.5578 36.9922 76.9862 35.9549 76.6528C35.2066 76.4149 34.4394 76.2413 33.6618 76.1338V78.6567C27.1532 78.8405 23.6722 80.621 19.3236 85.6596C19.1004 85.9191 18.6576 86.3624 18.15 86.8634L5.28417 102.001C2.65629 104.913 0.24439 108.921 0.809566 112.813C1.42514 117.196 3.97743 120.079 8.86242 123.384L22.3978 132.168L22.333 133.678H54.6345C54.6345 133.678 76.5395 117.499 77.0759 111.505C77.4935 106.769 69.9482 96.7316 60.5454 84.9315ZM22.9414 119.283L13.4702 112.208L23.701 101.608L22.9414 119.283ZM53.9577 119.845L53.7021 114.608L55.0772 100.851C57.7771 103.951 62.7737 110.103 62.7737 111.022L53.9577 119.845Z" fill="#FFB647"/>
<path d="M47.8346 78.9717C47.766 79.1217 47.684 79.2652 47.5898 79.4006C47.417 79.6673 47.1686 80.0529 46.841 80.5179C45.9976 81.737 45.0497 82.8803 44.0079 83.9346C43.7019 84.2446 43.3924 84.5365 43.09 84.814L42.9388 84.9546V84.7492C42.9215 83.5648 42.4467 82.4333 41.614 81.5919C41.3948 81.3286 41.1106 81.1273 40.7897 81.008C40.6662 80.9837 40.5382 81.0055 40.4297 81.0693C40.4719 81.0166 40.528 80.9769 40.5916 80.9546C40.6553 80.9323 40.7239 80.9283 40.7897 80.9432C41.1362 81.0404 41.4474 81.2356 41.686 81.5054C42.0759 81.8764 42.3976 82.3132 42.6364 82.7957C42.9349 83.4032 43.0971 84.0687 43.1116 84.7455L42.9604 84.6771C43.2556 84.3995 43.5652 84.1112 43.8675 83.8013C44.9002 82.7513 45.8566 81.6287 46.7294 80.4422L47.5214 79.3609C47.6123 79.2209 47.7172 79.0904 47.8346 78.9717Z" fill="#263238"/>
<path d="M33.6641 78.6719C33.7693 78.7733 33.8635 78.8856 33.9448 79.0071L34.6648 79.955C35.266 80.7623 36.0796 81.8868 36.9723 83.1338L37.5555 83.9484L37.3935 83.9736C37.5676 83.3911 37.8093 82.8311 38.1135 82.3049C38.365 81.8776 38.7236 81.5235 39.1538 81.2777C39.4376 81.1133 39.7584 81.024 40.0862 81.0182C40.2085 81.0057 40.332 81.023 40.4462 81.0686C40.4462 81.0686 40.3238 81.0686 40.0862 81.0686C39.7756 81.1001 39.4763 81.2024 39.2114 81.3678C38.8121 81.6199 38.4808 81.9665 38.2467 82.377C37.957 82.8966 37.7253 83.4465 37.5555 84.0169L37.4979 84.1862L37.3935 84.0421L36.8103 83.2275C35.9176 81.9805 35.1184 80.8452 34.546 80.0198C34.2832 79.627 34.06 79.299 33.88 79.0359C33.795 78.9228 33.7226 78.8007 33.6641 78.6719Z" fill="#263238"/>
<g opacity="0.1">
<path d="M40.4297 81.0702C40.9692 81.6619 41.3744 82.3636 41.6173 83.127C41.8603 83.8904 41.9353 84.6974 41.8372 85.4925C41.7688 86.0187 41.7076 86.7215 42.1972 86.9162C42.5392 87.0495 42.9172 86.8152 43.1944 86.5846C45.2946 84.8901 47.0226 82.7797 48.2701 80.3854C48.3909 80.1971 48.4558 79.9784 48.4573 79.7547C48.4546 79.6437 48.4094 79.538 48.331 79.4596C48.2525 79.3811 48.147 79.3357 48.0362 79.333C47.8883 79.3742 47.7604 79.4676 47.6762 79.5961C46.1786 81.3261 44.5227 83.1246 43.0252 84.851C43.0926 83.89 42.7957 82.9389 42.1936 82.1875C41.5996 81.4667 40.9517 80.7206 40.4405 81.0702" fill="black"/>
</g>
<path d="M54.2292 133.073C54.1869 133.026 54.1495 132.976 54.1176 132.921C54.0384 132.806 53.9412 132.655 53.8152 132.467L52.7101 130.752C51.7705 129.26 50.4566 127.18 48.9266 124.762L48.8906 124.7L48.941 124.653L52.3177 121.28L59.665 114C60.6009 113.084 61.3641 112.342 61.9041 111.808L62.5232 111.221C62.5925 111.149 62.6671 111.083 62.7464 111.022C62.6873 111.103 62.6211 111.178 62.5484 111.246C62.4008 111.401 62.1885 111.606 61.9581 111.862L59.7478 114.108L52.4365 121.428C51.2485 122.613 50.1038 123.749 49.0562 124.79V124.682C50.561 127.115 51.8569 129.205 52.7821 130.708C53.2284 131.429 53.5884 132.028 53.844 132.453C53.9592 132.644 54.0492 132.813 54.1212 132.921C54.1627 132.968 54.199 133.018 54.2292 133.073Z" fill="#263238"/>
<path d="M50.2836 82.6254L50.2296 82.6939L50.064 82.8885C49.9092 83.0543 49.704 83.3138 49.4449 83.6526C48.7325 84.6253 48.2601 85.7528 48.0661 86.9432C47.8367 88.7179 48.115 90.5214 48.8689 92.144C49.2786 93.1128 49.8109 94.0249 50.4528 94.8579C51.1332 95.7265 51.8531 96.5951 52.5911 97.5286C55.4962 101.194 57.9909 104.607 59.8268 107.058L61.9867 109.967C62.2351 110.298 62.4295 110.565 62.5735 110.759L62.7211 110.969L62.7679 111.041C62.7679 111.041 62.7427 111.023 62.7067 110.979L62.5447 110.781L61.9327 109.992C61.4035 109.318 60.6476 108.337 59.7188 107.108C57.8613 104.679 55.345 101.277 52.4471 97.6187C51.7272 96.6996 51.0072 95.8166 50.3088 94.9624C49.66 94.1146 49.1228 93.1867 48.7105 92.2016C47.9517 90.5486 47.683 88.7122 47.9365 86.9107C48.215 85.3776 48.9534 83.9658 50.0532 82.8633L50.2332 82.6831C50.2584 82.6434 50.28 82.6218 50.2836 82.6254Z" fill="#263238"/>
<path d="M62.4097 87.2803C62.4097 87.2983 62.2118 87.3668 61.8734 87.547C61.4002 87.8084 60.9693 88.1401 60.5954 88.5309C60.0441 89.1157 59.561 89.7614 59.1555 90.4555C58.6621 91.3233 58.1251 92.1653 57.5464 92.9785C57.003 93.7189 56.3003 94.3275 55.4902 94.7592C54.6801 95.1909 53.7835 95.4347 52.8666 95.4725C52.316 95.5002 51.7643 95.448 51.2286 95.3175C51.0833 95.2846 50.9402 95.2425 50.8002 95.1914C50.7506 95.1751 50.7024 95.1546 50.6562 95.1301C51.3771 95.3037 52.1188 95.374 52.8594 95.3392C53.6587 95.2845 54.4399 95.0752 55.1597 94.7229C56.0393 94.2902 56.8022 93.6524 57.3844 92.8631C58.0215 92.0342 58.5039 91.1475 58.9935 90.3762C59.4122 89.6757 59.9138 89.0283 60.4874 88.448C60.878 88.0568 61.3305 87.7329 61.8266 87.4893C61.962 87.4259 62.1015 87.3718 62.2442 87.3271C62.297 87.3041 62.3527 87.2883 62.4097 87.2803Z" fill="#FAFAFA"/>
<path d="M53.8162 118.969H53.7298L53.4886 118.912C53.3806 118.883 53.2474 118.865 53.089 118.84C52.9079 118.809 52.7252 118.789 52.5419 118.778C51.3668 118.724 50.1913 118.876 49.068 119.225C48.2875 119.45 47.5236 119.73 46.7821 120.061C45.9829 120.422 45.155 120.862 44.2622 121.283C43.3296 121.742 42.3557 122.111 41.3535 122.386C40.8182 122.524 40.271 122.611 39.7192 122.646C39.1488 122.673 38.5772 122.632 38.0165 122.523C36.9214 122.275 35.876 121.843 34.9242 121.247C33.9955 120.692 33.1639 120.061 32.3683 119.478C30.7952 118.295 29.2905 117.315 27.8613 116.89C27.223 116.691 26.5604 116.582 25.8922 116.565C25.3885 116.556 24.8859 116.615 24.3983 116.742C23.984 116.859 23.5833 117.019 23.2031 117.221L23.2715 117.171L23.4875 117.041C23.7706 116.888 24.0701 116.767 24.3803 116.681C24.8733 116.541 25.3834 116.47 25.8958 116.472C26.5737 116.477 27.2474 116.578 27.8973 116.771C29.3589 117.185 30.8888 118.173 32.4691 119.348C33.2683 119.932 34.0999 120.552 35.0178 121.099C35.952 121.684 36.9779 122.107 38.0525 122.35C38.5975 122.458 39.1537 122.498 39.7084 122.469C40.248 122.438 40.7833 122.355 41.3067 122.22C42.2983 121.951 43.2624 121.589 44.1866 121.139C45.0794 120.721 45.9109 120.281 46.7065 119.932C47.4561 119.602 48.2285 119.328 49.0176 119.11C50.1555 118.768 51.3458 118.635 52.5311 118.717C52.9691 118.741 53.4016 118.826 53.8162 118.969Z" fill="#FAFAFA"/>
<path d="M18.2314 115.769C18.2314 115.769 18.2494 115.812 18.2602 115.895C18.2828 116.014 18.2972 116.134 18.3034 116.255C18.3393 116.702 18.32 117.151 18.2458 117.592C18.1394 118.256 17.8833 118.887 17.497 119.438C17.0022 120.092 16.3723 120.631 15.6503 121.02C14.9303 121.463 14.1852 121.834 13.5912 122.267C13.0543 122.632 12.5843 123.087 12.2017 123.611C11.9489 123.966 11.805 124.387 11.7877 124.822C11.7877 125.132 11.8345 125.302 11.8129 125.305C11.7916 125.268 11.777 125.228 11.7697 125.186C11.7388 125.068 11.7195 124.948 11.7121 124.826C11.6975 124.37 11.8232 123.921 12.0721 123.539C12.4494 122.987 12.9239 122.508 13.4724 122.126C14.0772 121.676 14.8079 121.297 15.5351 120.861C16.2337 120.483 16.8465 119.964 17.335 119.337C17.7133 118.81 17.9725 118.208 18.0946 117.571C18.177 117.138 18.2156 116.699 18.2098 116.259C18.2054 116.095 18.2126 115.931 18.2314 115.769Z" fill="#FAFAFA"/>
<path d="M72.5595 100.851C71.8205 100.975 71.1022 101.2 70.4248 101.521C69.6997 101.875 69.0486 102.365 68.5061 102.963C68.1888 103.318 67.9156 103.71 67.6925 104.13C67.4549 104.567 67.2929 105.06 67.0589 105.547C66.8446 106.037 66.5207 106.471 66.1122 106.816C65.7279 107.129 65.2917 107.373 64.8234 107.536C64.0353 107.798 63.2034 107.901 62.3755 107.839C61.8227 107.806 61.2722 107.741 60.7268 107.644C60.5258 107.618 60.3272 107.576 60.1328 107.518C60.3356 107.519 60.5379 107.537 60.7376 107.572C61.1264 107.612 61.6843 107.688 62.3791 107.706C63.1887 107.747 63.9987 107.633 64.7658 107.371C65.2323 107.219 65.6622 106.972 66.0279 106.645C66.3936 106.318 66.6872 105.918 66.8897 105.471C67.1165 104.995 67.2821 104.498 67.5305 104.048C67.7668 103.618 68.0558 103.22 68.3909 102.862C68.9518 102.248 69.6283 101.75 70.3816 101.398C70.8839 101.16 71.417 100.992 71.9655 100.901C72.1145 100.877 72.2647 100.86 72.4155 100.851C72.4632 100.843 72.5118 100.843 72.5595 100.851Z" fill="#FAFAFA"/>
<path d="M54.6585 103.893L54.5757 103.919L54.3309 103.973C54.1149 104.019 53.7945 104.077 53.377 104.142C52.2015 104.323 51.0132 104.408 49.8239 104.394C48.0538 104.382 46.2974 104.084 44.6221 103.511C43.6408 103.154 42.6937 102.709 41.7926 102.181C40.8378 101.615 39.8385 101.126 38.8048 100.722C38.2791 100.536 37.7327 100.414 37.1777 100.361C36.6377 100.32 36.0947 100.347 35.5613 100.44C34.5556 100.646 33.5854 100.999 32.6814 101.486C30.9355 102.412 29.4668 103.443 28.1384 104.16C27.1113 104.77 25.9913 105.209 24.823 105.457C24.5071 105.525 24.185 105.56 23.8618 105.562H23.6098C23.5812 105.566 23.5521 105.566 23.5234 105.562H23.6098L23.8582 105.533C24.1785 105.514 24.4965 105.467 24.8086 105.393C25.9596 105.119 27.0611 104.668 28.0736 104.055C29.3804 103.335 30.8419 102.286 32.5986 101.342C33.52 100.837 34.5112 100.473 35.5397 100.26C36.0884 100.163 36.647 100.134 37.2028 100.174C37.7743 100.23 38.3365 100.357 38.8768 100.552C39.9203 100.96 40.9282 101.455 41.8898 102.03C42.7837 102.552 43.7207 102.995 44.6905 103.356C46.3465 103.93 48.0827 104.238 49.8347 104.268C51.0174 104.294 52.2003 104.23 53.3733 104.077C53.7909 104.023 54.1113 103.976 54.3309 103.94L54.5793 103.908C54.605 103.9 54.6316 103.895 54.6585 103.893Z" fill="#FAFAFA"/>
<path d="M19.4773 105.977C19.5124 105.793 19.505 105.603 19.4557 105.422C19.3546 105.188 19.1993 104.983 19.0027 104.821C18.8061 104.66 18.5739 104.549 18.3254 104.495C18.0122 104.402 17.6558 104.348 17.2742 104.261C16.8512 104.183 16.4542 104.001 16.1187 103.731C15.7669 103.414 15.4934 103.019 15.3195 102.578C15.1424 102.11 15.0039 101.627 14.9055 101.136C14.8121 100.659 14.6747 100.19 14.4951 99.738C14.3223 99.3211 14.096 98.9286 13.822 98.5702C13.3596 97.9568 12.7654 97.4555 12.0832 97.1033C11.6298 96.8655 11.145 96.6932 10.6433 96.5915C10.2833 96.5194 10.0781 96.505 10.0781 96.487C10.128 96.477 10.1794 96.477 10.2293 96.487C10.3716 96.4915 10.5135 96.5047 10.6541 96.5266C11.1785 96.5996 11.6878 96.7565 12.1624 96.9916C12.8682 97.3403 13.4841 97.8472 13.9624 98.4729C14.2549 98.8389 14.4971 99.2426 14.6823 99.6731C14.8687 100.139 15.0109 100.622 15.1071 101.115C15.2025 101.592 15.3361 102.061 15.5067 102.517C15.6693 102.929 15.9228 103.298 16.2483 103.598C16.5606 103.855 16.9316 104.031 17.3282 104.11C17.6882 104.204 18.0482 104.265 18.383 104.369C18.6463 104.433 18.8901 104.56 19.0928 104.739C19.2956 104.919 19.4511 105.146 19.5457 105.4C19.5823 105.543 19.5823 105.693 19.5457 105.836C19.5335 105.887 19.5101 105.935 19.4773 105.977Z" fill="#FAFAFA"/>
<path d="M47.9193 87.4908C47.5848 87.3063 47.2295 87.1623 46.861 87.0619C46.424 86.9719 45.9732 86.9719 45.5362 87.0619C44.9537 87.1767 44.3886 87.3669 43.8551 87.6277C43.2539 87.8981 42.6204 88.2513 41.9292 88.6153C41.1969 89.0235 40.4202 89.3464 39.6145 89.5776C38.708 89.7996 37.7652 89.8303 36.8462 89.6677C35.8669 89.4885 34.9171 89.1744 34.0239 88.7342C32.1844 87.8368 30.6545 86.633 29.1785 85.6959C27.9066 84.8097 26.4861 84.159 24.9847 83.7749C23.9704 83.5257 22.9123 83.5133 21.8925 83.7388C21.5265 83.8402 21.166 83.9605 20.8125 84.0993C21.1514 83.908 21.5147 83.7637 21.8925 83.6704C22.9222 83.413 23.9984 83.4056 25.0315 83.6487C26.5549 84.0182 27.9982 84.6631 29.2901 85.5517C30.7805 86.4852 32.3104 87.6854 34.1211 88.5684C34.9987 89.0011 35.9313 89.3116 36.893 89.4911C37.7877 89.6501 38.7055 89.6231 39.5893 89.4118C40.3843 89.1906 41.1513 88.8786 41.8752 88.4819C42.5664 88.1215 43.2071 87.7611 43.8191 87.5088C44.3658 87.2536 44.9429 87.0695 45.5362 86.961C45.9885 86.884 46.4517 86.9012 46.897 87.0114C47.1738 87.0883 47.4399 87.1997 47.6889 87.343C47.7684 87.3881 47.8453 87.4374 47.9193 87.4908Z" fill="#FAFAFA"/>
<path d="M45.8772 133.25L46.878 133.751H52.6377L53.8005 132.799L49.6103 125.857C49.0955 126.084 46.8348 126.438 46.104 126.694C45.4737 126.915 44.8102 127.027 44.1421 127.025C43.3973 127.042 42.6529 126.98 41.921 126.841L41.7626 126.791C41.6648 126.749 41.5595 126.727 41.453 126.726C40.8302 126.672 40.3371 127.324 40.6862 127.84C41.0354 128.355 42.7382 129.043 44.9125 128.982H45.0169C46.9248 128.982 45.1752 130.582 44.0413 131.534C43.841 131.696 43.6856 131.906 43.5898 132.146C43.494 132.385 43.461 132.644 43.4941 132.9C43.5006 132.992 43.5268 133.081 43.5709 133.162C43.615 133.243 43.676 133.313 43.7497 133.368C44.2321 133.675 45.8772 133.25 45.8772 133.25Z" fill="#FFBE9D"/>
<path d="M22.3797 132.388C22.3759 132.355 22.3759 132.321 22.3797 132.287C22.3797 132.208 22.3797 132.111 22.3797 131.988C22.3797 131.711 22.4013 131.325 22.4193 130.839C22.4625 129.829 22.5201 128.391 22.5957 126.618C22.7433 123.043 22.9557 118.127 23.1753 112.695C23.3949 107.264 23.5353 102.33 23.6361 98.7651C23.6757 96.9918 23.7045 95.5538 23.7261 94.541C23.7261 94.0544 23.7441 93.6688 23.7513 93.3913C23.7513 93.2687 23.7513 93.1714 23.7513 93.0957C23.7467 93.061 23.7467 93.0259 23.7513 92.9912C23.7567 93.0258 23.7567 93.0611 23.7513 93.0957C23.7513 93.1714 23.7513 93.2723 23.7513 93.3913C23.7513 93.6688 23.7513 94.0544 23.7513 94.541C23.7513 95.5393 23.7513 96.981 23.7225 98.7651C23.6721 102.333 23.5281 107.26 23.3157 112.702C23.1033 118.145 22.8693 123.064 22.6821 126.625C22.5813 128.395 22.5021 129.833 22.4445 130.842C22.4121 131.329 22.3869 131.714 22.3689 131.988L22.3438 132.287C22.3595 132.32 22.3716 132.353 22.3797 132.388Z" fill="#263238"/>
<path d="M38.0524 133.074C38.0468 133.029 38.0468 132.984 38.0524 132.94C38.0524 132.843 38.0344 132.713 38.02 132.547L37.9156 131.03C37.8724 130.374 37.8184 129.567 37.7896 128.63C37.7608 127.693 37.6924 126.629 37.6852 125.451C37.678 124.272 37.6348 122.978 37.6528 121.591C37.6528 120.899 37.6528 120.181 37.6528 119.428C37.6528 118.675 37.6852 117.929 37.7032 117.15C37.7932 114.033 37.9552 110.609 38.2072 107.019C38.7111 99.836 39.3519 93.3521 39.7623 88.6559C39.9639 86.3132 40.1223 84.4174 40.2447 83.091C40.2987 82.4459 40.3455 81.9377 40.3743 81.5809C40.3923 81.4151 40.4031 81.2854 40.4139 81.188C40.4247 81.0907 40.4319 81.0547 40.4319 81.0547C40.4367 81.099 40.4367 81.1437 40.4319 81.188L40.4139 81.5845C40.3887 81.9449 40.3563 82.4495 40.3167 83.0982C40.2339 84.4138 40.0863 86.3168 39.8955 88.6667C39.5175 93.3521 38.8983 99.8396 38.3944 107.03C38.1424 110.634 37.9768 114.04 37.876 117.154C37.876 117.932 37.8364 118.693 37.8184 119.432C37.8004 120.171 37.8184 120.873 37.7932 121.594C37.7716 122.978 37.7932 124.269 37.7932 125.447C37.7932 126.626 37.8472 127.693 37.8688 128.626C37.8904 129.559 37.93 130.37 37.9624 131.026C37.9948 131.682 38.0164 132.187 38.0344 132.544V132.94C38.0451 132.984 38.0511 133.029 38.0524 133.074Z" fill="#263238"/>
<path d="M40.7001 97.5646C40.6821 97.5466 40.8837 97.4637 41.1069 97.6547C41.1707 97.7113 41.22 97.7824 41.2507 97.8621C41.2814 97.9417 41.2926 98.0276 41.2833 98.1124C41.2602 98.2172 41.2062 98.3127 41.1284 98.3865C41.0506 98.4604 40.9525 98.5092 40.8467 98.5266C40.7409 98.5441 40.6324 98.5294 40.535 98.4845C40.4377 98.4396 40.356 98.3665 40.3005 98.2746C40.2644 98.198 40.2472 98.1138 40.2504 98.0292C40.2535 97.9445 40.2769 97.8618 40.3185 97.7881C40.4661 97.5322 40.6785 97.5466 40.6785 97.5718C40.6785 97.597 40.5237 97.6331 40.4409 97.8457C40.4145 97.9021 40.4009 97.9637 40.4009 98.0259C40.4009 98.0882 40.4145 98.1497 40.4409 98.2062C40.4832 98.2606 40.5394 98.3025 40.6036 98.3275C40.6677 98.3525 40.7375 98.3596 40.8054 98.3482C40.8733 98.3367 40.9368 98.3071 40.9893 98.2624C41.0417 98.2177 41.0811 98.1597 41.1033 98.0944C41.1107 98.0346 41.1056 97.9739 41.0882 97.9162C41.0709 97.8584 41.0417 97.805 41.0025 97.7592C40.8657 97.5754 40.7001 97.597 40.7001 97.5646Z" fill="#263238"/>
<path d="M39.682 113.748C39.664 113.73 39.8692 113.643 40.0924 113.838C40.1553 113.894 40.2038 113.965 40.2338 114.044C40.2639 114.123 40.2746 114.208 40.2652 114.292C40.2466 114.399 40.1943 114.497 40.1158 114.571C40.0374 114.646 39.937 114.693 39.8296 114.706C39.7239 114.727 39.6142 114.715 39.516 114.67C39.4178 114.626 39.3361 114.551 39.2824 114.458C39.2474 114.38 39.2312 114.295 39.2349 114.21C39.2387 114.125 39.2623 114.042 39.304 113.967C39.4516 113.712 39.664 113.73 39.664 113.751C39.664 113.773 39.5092 113.816 39.4264 114.025C39.399 114.081 39.3848 114.143 39.3848 114.205C39.3848 114.268 39.399 114.329 39.4264 114.386C39.4639 114.447 39.519 114.496 39.5844 114.525C39.6498 114.555 39.7226 114.565 39.7935 114.553C39.8644 114.541 39.93 114.508 39.982 114.458C40.034 114.408 40.0699 114.344 40.0852 114.274C40.0935 114.215 40.0888 114.154 40.0714 114.097C40.054 114.04 40.0243 113.987 39.9844 113.942C39.8512 113.748 39.682 113.773 39.682 113.748Z" fill="#263238"/>
<path d="M65.5249 124.868C65.3624 124.864 65.2008 124.844 65.0425 124.807C64.6075 124.714 64.183 124.578 63.7754 124.399C62.4184 123.796 61.2851 122.781 60.5355 121.498C60.1567 120.784 59.8562 120.031 59.6391 119.253C59.4612 118.628 59.1932 118.033 58.8436 117.487C58.6024 117.124 58.2915 116.813 57.9292 116.571C57.6664 116.409 57.5008 116.355 57.508 116.337C57.5501 116.34 57.5914 116.35 57.6304 116.366C57.7463 116.403 57.8583 116.452 57.9652 116.51C58.357 116.733 58.694 117.041 58.9516 117.411C59.3261 117.965 59.6139 118.572 59.8047 119.213C60.0256 119.977 60.3247 120.716 60.6975 121.419C61.4299 122.673 62.5224 123.678 63.833 124.302C64.3814 124.535 64.9471 124.724 65.5249 124.868Z" fill="#FAFAFA"/>
<path d="M102.372 133.736L96.2524 115.953L99.0818 98.8906C99.9062 94.2881 100.367 90.2406 99.1322 87.9232C95.8312 81.7492 91.8462 81.1942 86.4032 79.7778C85.28 79.4858 76.7376 79.1975 75.798 79.4173C68.386 80.2499 63.6414 84.1857 61.0387 90.5902L58.2164 101.979L54.3394 113.873C54.015 114.564 53.5395 115.173 52.9482 115.656C52.3568 116.138 51.6647 116.481 50.9231 116.659L35.9766 121.773L36.1026 124.704L35.9766 128.668L55.8837 124.916C59.8723 124.167 63.9294 122.693 65.0741 118.84L67.216 112.489C68.2636 115.178 69.4047 117.643 69.4047 117.643L67.9648 133.656L102.372 133.736Z" fill="#455A64"/>
<path d="M97.2598 102.14L91.572 121.181C91.1379 122.632 90.352 123.954 89.2843 125.028C88.2166 126.102 86.9002 126.895 85.4523 127.337L61.7797 133.651L58.6406 125.47L80.0381 117.504L85.2903 98.4384C85.2903 98.4384 86.5034 87.7773 96.133 88.3251" fill="#455A64"/>
<path d="M96.1262 88.326H95.8382C95.6474 88.326 95.3666 88.3044 94.9958 88.326C93.9118 88.3568 92.8413 88.5751 91.8316 88.9712C91.1017 89.2572 90.4148 89.6429 89.7905 90.1173C89.0503 90.6874 88.3946 91.3596 87.8429 92.114C86.5232 93.9924 85.6682 96.1579 85.3483 98.4321C83.9083 103.737 82.1084 110.232 80.1177 117.509V117.552H80.0781L58.6662 125.557L58.7202 125.438L59.2782 126.88C60.1601 129.186 61.0313 131.457 61.8557 133.609L61.7441 133.551L82.0832 128.145L84.3763 127.532C84.7363 127.431 85.1287 127.337 85.4959 127.229C85.8563 127.116 86.2097 126.981 86.5542 126.826C88.5275 125.932 90.1152 124.359 91.0288 122.393C91.3008 121.784 91.5247 121.155 91.6984 120.511C92.0776 119.252 92.4376 118.051 92.7783 116.907C94.1643 112.315 95.2766 108.617 96.0434 106.095L96.9326 103.175L97.1666 102.422C97.2206 102.252 97.2529 102.166 97.2529 102.166C97.2529 102.166 97.2313 102.256 97.1846 102.425C97.1378 102.595 97.0622 102.854 96.965 103.186C96.767 103.86 96.479 104.844 96.1082 106.116L92.8971 116.954C92.5587 118.105 92.1988 119.306 91.8172 120.558C91.6446 121.209 91.4207 121.845 91.1476 122.461C90.8575 123.101 90.4952 123.706 90.0677 124.263C89.1529 125.437 87.9703 126.374 86.619 126.995C86.267 127.153 85.9064 127.292 85.539 127.41C85.1791 127.518 84.7939 127.611 84.4159 127.716L82.1228 128.329L61.7873 133.764L61.7081 133.785L61.6793 133.71C60.8549 131.547 59.9801 129.284 59.0982 126.981L58.5402 125.539L58.5078 125.452L58.5942 125.42L79.9953 117.462L79.9413 117.52C81.9536 110.25 83.7499 103.755 85.2151 98.4573C85.5421 96.1639 86.4136 93.9825 87.7566 92.096C88.3151 91.3348 88.9808 90.6586 89.7329 90.0884C90.3656 89.6139 91.061 89.2294 91.7992 88.9459C92.8169 88.551 93.8972 88.3423 94.9886 88.3296C95.2692 88.314 95.5504 88.314 95.831 88.3296L96.1262 88.326Z" fill="#263238"/>
<path d="M81.2295 113.227C81.1362 113.248 81.0404 113.255 80.9451 113.249C80.687 113.247 80.4299 113.217 80.1783 113.159C79.3402 112.963 78.5665 112.555 77.932 111.973C77.2889 111.404 76.7883 110.692 76.4705 109.893C76.4129 109.757 76.366 109.616 76.3301 109.472C76.2975 109.366 76.2734 109.257 76.2581 109.147C76.2293 108.967 76.2185 108.866 76.2329 108.866C76.2473 108.866 76.3301 109.255 76.5929 109.839C76.9356 110.599 77.4335 111.278 78.0544 111.832C78.6717 112.394 79.4112 112.804 80.2143 113.029C80.8263 113.195 81.2295 113.188 81.2295 113.227Z" fill="#263238"/>
<path d="M67.1642 98.7451C67.1155 98.9371 67.0493 99.1241 66.9662 99.3038C66.8258 99.6642 66.6062 100.172 66.3794 100.814C65.9114 102.086 65.2526 103.892 65.1842 105.968C65.1501 106.944 65.2829 107.919 65.5766 108.851C65.8177 109.607 66.1451 110.333 66.5522 111.014C66.8263 111.476 67.1255 111.922 67.4486 112.351C67.5792 112.504 67.6994 112.665 67.8085 112.834C67.8085 112.834 67.7653 112.801 67.6933 112.726C67.6213 112.65 67.5241 112.545 67.4018 112.398C67.0506 111.983 66.7305 111.544 66.4442 111.082C66.0173 110.396 65.6729 109.662 65.4182 108.894C65.1132 107.949 64.9731 106.958 65.0043 105.964C65.1172 104.173 65.5398 102.414 66.2534 100.767C66.509 100.133 66.7394 99.6281 66.8978 99.2785C66.9725 99.094 67.0616 98.9157 67.1642 98.7451Z" fill="#263238"/>
<path d="M82.1292 120.046C81.8998 119.52 81.6072 119.024 81.258 118.569C80.8613 118.155 80.4152 117.792 79.9297 117.487C80.1045 117.502 80.2728 117.56 80.4193 117.657C81.1703 118.06 81.745 118.728 82.032 119.531C82.1062 119.692 82.1395 119.869 82.1292 120.046Z" fill="#263238"/>
<path d="M59.0849 126.608C59.0849 126.608 52.3136 127.214 52.4072 131.618L60.838 131.189L59.0849 126.608Z" fill="#FBBBA3"/>
<path d="M70.0006 52.8081C69.3815 55.8068 68.7911 58.8102 68.2295 61.8185C67.5096 65.6317 66.8616 69.6179 67.9379 73.3518C68.5283 75.399 69.6155 77.2587 70.6918 79.0969C71.2966 80.1277 71.959 81.2161 73.0317 81.7495C74.4896 82.4704 76.3328 81.9009 77.4955 80.7584C78.6583 79.6159 79.245 78.0228 79.6554 76.4334C80.4366 73.3554 80.6094 70.1586 80.7354 66.9833C80.8614 63.808 80.9262 60.5138 80.0154 57.4359C79.1046 54.3579 77.1103 51.4457 74.1405 50.2275" fill="#263238"/>
<path d="M70.4844 50.4011C71.3317 49.7415 72.3607 49.3578 73.4326 49.3019C74.2966 47.5502 76.3449 46.7465 78.26 46.3753C81.0823 45.8238 80.7799 45.7482 83.4042 46.9087C86.0285 48.0692 89.7652 51.349 90.2439 54.1891C90.6789 56.6802 91.4757 59.0941 92.609 61.3542C93.329 62.8499 94.7329 63.8771 95.5645 65.3188C96.013 66.1004 96.277 66.9745 96.3363 67.8741C96.3956 68.7736 96.2486 69.6748 95.9065 70.5087C95.2297 72.1342 93.7934 73.5687 93.9302 75.3203C94.0058 76.3403 93.9698 77.0683 94.373 78.009C95.7373 81.1951 95.0929 85.4408 92.1626 87.2789C89.2324 89.117 84.9918 88.4755 82.7275 85.8372C80.7619 83.5594 80.384 80.3085 80.5675 77.3026C80.7511 74.2967 81.4423 71.3089 81.2479 68.2922" fill="#263238"/>
<path d="M73.85 133.652L73.8068 132.614L58.5434 131.003L51.8549 111.753L23.2109 111.104L31.8758 133.652C46.0376 133.76 60.0289 133.76 73.85 133.652Z" fill="#263238"/>
<path d="M39.098 122.688C39.2457 122.945 39.4663 123.152 39.7317 123.284C39.9972 123.415 40.2957 123.465 40.5894 123.427C40.8831 123.388 41.1589 123.264 41.3818 123.068C41.6048 122.873 41.7649 122.616 41.842 122.33C41.919 122.043 41.9095 121.741 41.8147 121.46C41.7198 121.179 41.5439 120.932 41.3091 120.751C41.0744 120.571 40.7913 120.464 40.4958 120.444C40.2002 120.424 39.9055 120.492 39.6488 120.64C39.3046 120.839 39.0533 121.166 38.95 121.55C38.8467 121.934 38.8999 122.343 39.098 122.688Z" fill="white"/>
<path d="M80.7976 87.2215C84.2318 87.2215 87.3205 84.2913 87.2197 79.9375L87.8389 55.0687C87.8498 54.5481 87.6649 54.0423 87.3209 53.6518C86.9768 53.2613 86.4987 53.0144 85.9814 52.9603L75.747 51.8791C74.9107 51.7909 74.0652 51.873 73.2614 52.1205C72.4576 52.368 71.7121 52.7757 71.0697 53.3191C70.4274 53.8626 69.9015 54.5305 69.5237 55.2827C69.1459 56.0349 68.924 56.8559 68.8713 57.6962C68.6265 61.6319 68.4789 66.4507 68.9433 69.3881C69.8793 75.2953 74.4043 76.0486 74.4043 76.0486L74.2927 80.1753C74.1199 84.5724 77.4065 87.2179 80.7976 87.2179V87.2215Z" fill="#FBBBA3"/>
<path d="M71.1641 60.9043C71.162 61.1002 71.2359 61.2892 71.3701 61.4317C71.5044 61.5742 71.6886 61.659 71.8841 61.6684C71.9801 61.6762 72.0767 61.6647 72.1682 61.6344C72.2597 61.6042 72.3442 61.5559 72.4167 61.4924C72.4892 61.4289 72.5483 61.3514 72.5904 61.2646C72.6324 61.1779 72.6567 61.0835 72.6616 60.9872C72.6646 60.791 72.5911 60.6014 72.4566 60.4588C72.3222 60.3161 72.1374 60.2315 71.9417 60.2231C71.8456 60.2152 71.749 60.2268 71.6575 60.257C71.566 60.2872 71.4815 60.3355 71.409 60.3991C71.3365 60.4626 71.2775 60.54 71.2354 60.6268C71.1933 60.7136 71.1691 60.8079 71.1641 60.9043Z" fill="#263238"/>
<path d="M69.9093 60.2068C70.0029 60.304 70.5789 59.8829 71.3925 59.8829C72.206 59.8829 72.8036 60.2933 72.89 60.1925C72.9332 60.1493 72.8396 59.9729 72.5804 59.7821C72.2259 59.5418 71.8063 59.4162 71.3781 59.4221C70.9552 59.4212 70.5429 59.5549 70.2009 59.8037C69.9489 59.9837 69.8661 60.1637 69.9093 60.2068Z" fill="#263238"/>
<path d="M79.047 61.056C79.044 61.2521 79.1175 61.4417 79.252 61.5844C79.3864 61.7271 79.5712 61.8116 79.7669 61.82C79.8632 61.8284 79.9603 61.8172 80.0522 61.7872C80.1441 61.7573 80.229 61.709 80.3019 61.6455C80.3748 61.5819 80.4342 61.5043 80.4765 61.4172C80.5188 61.3302 80.5431 61.2355 80.5481 61.1388C80.5502 60.943 80.4763 60.7539 80.3421 60.6114C80.2078 60.4689 80.0236 60.3841 79.8281 60.3748C79.7318 60.3664 79.6348 60.3776 79.5429 60.4075C79.451 60.4375 79.366 60.4858 79.2931 60.5493C79.2202 60.6129 79.1608 60.6905 79.1186 60.7776C79.0763 60.8646 79.0519 60.9593 79.047 61.056Z" fill="#263238"/>
<path d="M77.9106 60.3562C78.0042 60.457 78.5766 60.0322 79.3901 60.0322C80.2037 60.0322 80.8013 60.4426 80.8913 60.3418C80.9345 60.2986 80.8409 60.1222 80.5781 59.9314C80.2245 59.6921 79.8063 59.5665 79.3793 59.5714C78.9553 59.5706 78.5419 59.7042 78.1986 59.953C77.9502 60.133 77.8638 60.313 77.9106 60.3562Z" fill="#263238"/>
<path d="M74.9706 66.4056C74.5418 66.2716 74.098 66.1917 73.6495 66.1677C73.4407 66.1461 73.2427 66.1029 73.2067 65.9623C73.1904 65.7462 73.2393 65.5303 73.3471 65.3424C73.5415 64.8414 73.7467 64.3116 73.9627 63.7602C74.8158 61.5003 75.435 59.6442 75.3414 59.6118C75.2478 59.5793 74.4847 61.3814 73.6315 63.6376C73.4263 64.1963 73.2283 64.7189 73.0411 65.2343C72.9126 65.4852 72.8744 65.7729 72.9331 66.0488C72.9635 66.1223 73.01 66.188 73.0692 66.241C73.1284 66.2941 73.1988 66.3331 73.2751 66.3551C73.3924 66.387 73.5135 66.4027 73.6351 66.402C74.0782 66.4609 74.5272 66.4621 74.9706 66.4056Z" fill="#263238"/>
<path d="M74.4141 76.0534C77.1924 76.0952 79.9278 75.364 82.3157 73.9414C82.3157 73.9414 80.397 77.9997 74.4933 77.4482L74.4141 76.0534Z" fill="#AA6550"/>
<path d="M75.2975 68.3698C75.4507 68.173 75.6523 68.0193 75.8827 67.9239C76.113 67.8286 76.3641 67.7946 76.6114 67.8255C76.7908 67.8417 76.965 67.8938 77.124 67.9786C77.2829 68.0634 77.4232 68.1792 77.5366 68.3193C77.6457 68.4553 77.7105 68.6216 77.7221 68.7957C77.7337 68.9697 77.6915 69.1432 77.6014 69.2924C77.4698 69.4415 77.2961 69.5472 77.1033 69.5954C76.9105 69.6437 76.7076 69.6323 76.5214 69.5628C76.1376 69.4258 75.7843 69.2153 75.4811 68.9428C75.3901 68.8772 75.312 68.7953 75.2507 68.7014C75.2197 68.6563 75.2031 68.6029 75.2031 68.5482C75.2031 68.4935 75.2197 68.4401 75.2507 68.395" fill="#AA6550"/>
<path d="M77.3689 66.9698C77.2357 66.9698 77.2321 67.8492 76.4762 68.4763C75.7202 69.1034 74.7806 69.0061 74.7734 69.1323C74.7734 69.1863 74.9822 69.3017 75.3818 69.3125C75.9051 69.3241 76.4154 69.1491 76.8217 68.8187C77.2064 68.5025 77.453 68.0488 77.5093 67.5536C77.5273 67.186 77.4265 66.9662 77.3689 66.9698Z" fill="#263238"/>
<path d="M77.5741 58.9316C77.6533 59.155 78.4669 59.0505 79.4244 59.1658C80.382 59.2812 81.1523 59.5263 81.2783 59.3424C81.3359 59.2451 81.1991 59.0397 80.8896 58.8234C80.4761 58.5552 80.0046 58.3896 79.5144 58.3405C79.0278 58.2837 78.5347 58.3417 78.0745 58.5099C77.7181 58.654 77.5417 58.8271 77.5741 58.9316Z" fill="#263238"/>
<path d="M70.2151 57.8446C70.3591 58.032 70.9351 57.8446 71.5975 57.8446C72.2598 57.8446 72.843 57.9671 72.9726 57.7761C73.0302 57.6824 72.9402 57.495 72.6918 57.322C72.3571 57.1101 71.9667 57.0034 71.5708 57.0156C71.175 57.0278 70.7918 57.1584 70.4707 57.3905C70.2331 57.5635 70.1539 57.7545 70.2151 57.8446Z" fill="#263238"/>
<path d="M69 56.7177C71.2211 55.4274 73.3846 54.2344 74.7598 52.0719C75.5265 54.2344 77.0241 55.3157 79.0112 56.4654C80.9983 57.6151 83.2194 58.2891 85.4189 58.9487C84.3065 60.0299 84.1589 61.7779 84.4145 63.3097C84.6701 64.8415 85.2569 66.3156 85.3541 67.8654C85.4801 69.9342 84.7241 71.9633 84.6773 74.0357C84.6125 76.8794 85.8653 79.5645 87.0928 82.127L92.4242 79.0166L91.6574 65.1586L91.7222 55.3517L83.4102 47.6172L72.8842 48.7705L69 56.7177Z" fill="#263238"/>
<path d="M67.8218 85.8575C70.5253 88.5931 70.2373 93.4695 73.2215 95.9167C75.0431 97.4161 77.7034 97.5566 79.9389 96.7997C82.1744 96.0429 84.0535 94.5111 85.7778 92.8964C87.5021 91.2818 89.1329 89.5482 91.0948 88.2399C92.9991 86.9676 96.2606 86.1855 96.7213 83.9365C97.0597 82.293 95.3318 80.3143 95.0078 78.6672C94.493 76.0506 97.3189 74.0287 97.7905 71.4048C98.7336 66.1608 95.969 60.0049 93.0891 55.5465C90.2092 51.0882 88.5821 46.0387 81.2816 45.6243C74.7479 45.3323 70.2985 48.4715 68.1242 53.0128C67.0442 55.287 66.7814 57.8604 66.569 60.3761C66.0759 66.2509 65.8023 72.4789 68.5129 77.7121C69.0745 78.7934 69.7441 80.1701 68.9881 81.1289C68.297 82.0047 66.731 81.9686 66.2918 82.9958C65.8527 84.023 67.0082 85.0322 67.8218 85.8575ZM75.9646 51.0305C76.8394 50.9945 79.4349 51.0305 82.3291 54.8906C84.0607 57.2008 84.0571 60.9419 84.0211 64.2037C83.9887 66.6293 84.0211 72.7672 84.0211 72.7672C84.0211 72.7672 84.4027 80.5197 81.7712 81.2045C78.5313 82.0479 75.7126 81.4676 73.2971 79.1646C70.8816 76.8615 69.4993 73.6286 68.9485 70.3344C68.3978 67.0402 68.0882 63.6811 68.5202 60.3689C68.7477 58.3364 69.4187 56.3788 70.4857 54.6347C71.0934 53.681 71.8957 52.8668 72.84 52.2457C73.7843 51.6245 74.8491 51.2104 75.9646 51.0305Z" fill="#FF725E"/>
<g opacity="0.3">
<path d="M96.1555 81.4025C93.9956 82.5775 92.5016 84.3255 90.7557 86.0483C89.0098 87.7711 87.0335 89.4398 84.636 90.0597C82.2385 90.6796 79.355 89.9408 78.1562 87.7819C84.9132 88.9352 92.7572 83.5326 95.0755 77.0703C94.937 77.6317 94.9296 78.2176 95.0539 78.7823C95.3666 79.6777 95.7345 80.5528 96.1555 81.4025Z" fill="black"/>
</g>
<g opacity="0.3">
<path d="M69.259 79.6211C69.4936 80.4959 69.9042 81.3135 70.4657 82.0238C71.0271 82.734 71.7276 83.3219 72.5241 83.7515C72.8938 83.9057 73.2403 84.1107 73.5536 84.3606C73.708 84.4886 73.8204 84.6602 73.8763 84.853C73.9321 85.0458 73.9288 85.2509 73.8668 85.4418C73.7527 85.6362 73.5748 85.7848 73.3634 85.8624C73.1519 85.9399 72.9202 85.9416 72.7077 85.8671C72.2934 85.6997 71.9236 85.4381 71.6277 85.103C70.4506 83.9641 69.2374 82.8108 68.9062 81.2105C69.0978 80.9774 69.2311 80.7018 69.295 80.4068C69.3115 80.1444 69.2994 79.8809 69.259 79.6211Z" fill="black"/>
</g>
<path d="M94.5093 78.3506C94.4847 78.4243 94.4509 78.4945 94.4085 78.5596C94.3329 78.693 94.2357 78.8984 94.0809 79.1435C93.6575 79.8469 93.1911 80.5233 92.6842 81.169C91.9389 82.134 91.1141 83.0346 90.2183 83.8614C89.1272 84.8881 87.8897 85.7469 86.5465 86.4095C85.8378 86.7193 85.109 86.9806 84.365 87.1916C83.6727 87.3932 82.968 87.5498 82.2555 87.6601C81.0503 87.8569 79.8253 87.9029 78.6088 87.7971C77.7906 87.7224 76.9816 87.5679 76.1933 87.3358C75.9125 87.2601 75.7037 87.1736 75.5597 87.1231C75.4842 87.1025 75.4116 87.0722 75.3438 87.033C75.3437 87.033 75.6533 87.1195 76.2149 87.2637C77.004 87.4696 77.81 87.6035 78.6232 87.6637C79.8258 87.7498 81.0343 87.6917 82.2231 87.4907C82.926 87.3764 83.6209 87.2175 84.3038 87.015C85.0401 86.8049 85.7616 86.546 86.4637 86.2401C87.7896 85.579 89.0131 84.7292 90.0959 83.7172C90.9903 82.9026 91.8185 82.018 92.5726 81.0717C93.0871 80.4368 93.5677 79.7751 94.0126 79.0894C94.1745 78.8516 94.2825 78.6533 94.3725 78.5272C94.4137 78.465 94.4594 78.4059 94.5093 78.3506Z" fill="#263238"/>
<path d="M77.9501 85.0345C77.8129 85.0905 77.6688 85.1281 77.5218 85.1463C77.125 85.2182 76.7226 85.2544 76.3194 85.2544C74.9731 85.2589 73.6512 84.895 72.4965 84.202C71.3418 83.509 70.3982 82.5132 69.7677 81.3222C69.5768 80.965 69.4189 80.591 69.2961 80.205C69.2438 80.0658 69.2099 79.9204 69.1953 79.7725C69.3995 80.2792 69.6302 80.7749 69.8865 81.2574C70.5299 82.4056 71.4614 83.366 72.589 84.0436C73.7165 84.7212 75.0011 85.0925 76.3158 85.121C77.3274 85.1499 77.9465 84.9949 77.9501 85.0345Z" fill="#263238"/>
<path d="M76.5547 93.9668C76.6214 93.9391 76.6917 93.9209 76.7635 93.9128C76.9003 93.8803 77.1235 93.8515 77.3683 93.7866C78.1081 93.6272 78.8377 93.4239 79.5534 93.1775C81.9097 92.3407 84.1268 91.1536 86.1303 89.6563C88.1303 88.1533 90.0247 86.5143 91.8 84.751L93.4344 83.1652C93.6144 82.9886 93.7655 82.848 93.8807 82.7363C93.9308 82.6837 93.9863 82.6365 94.0463 82.5957C94.0063 82.6554 93.9605 82.7109 93.9095 82.7615L93.4848 83.2156C93.1248 83.6049 92.574 84.1635 91.8936 84.8447C90.1392 86.6423 88.2497 88.3027 86.2419 89.8112C84.2246 91.3189 81.9817 92.4976 79.5966 93.3037C78.8725 93.5403 78.1327 93.7257 77.3827 93.8587C77.1199 93.9128 76.9075 93.9308 76.7671 93.9488C76.6973 93.9636 76.626 93.9697 76.5547 93.9668Z" fill="#263238"/>
<path d="M203.351 101.533L190.651 86.5397L190.622 86.5685C190.121 86.0747 189.682 85.635 189.459 85.3791C185.06 80.2756 181.565 78.5312 174.829 78.4375L161.74 78.7186C159.307 78.9205 153.785 77.8789 148.676 84.6583C139.371 96.3322 131.908 106.262 132.329 110.947C132.859 116.876 155.444 133.779 155.444 133.779L186.489 133.754L186.424 131.386L199.819 122.682C204.65 119.413 207.174 116.555 207.786 112.23C208.322 108.381 205.939 104.416 203.351 101.533ZM146.473 110.457C146.473 109.545 151.369 103.796 154.033 100.726L155.419 114L155.181 119.186L146.473 110.457ZM185.859 118.628L185.121 101.133L195.244 111.617L185.859 118.628Z" fill="#455A64"/>
<path d="M166.466 108.859L143.518 120.215C142.908 120.516 142.658 121.255 142.96 121.866L150.378 136.894C150.679 137.504 151.417 137.754 152.027 137.452L174.976 126.097C175.585 125.795 175.835 125.056 175.534 124.446L168.116 109.418C167.814 108.808 167.076 108.557 166.466 108.859Z" fill="#E0E0E0"/>
<path d="M159.133 121.747C159.373 121.6 159.651 121.528 159.932 121.539C160.213 121.551 160.485 121.645 160.712 121.811C160.939 121.977 161.113 122.206 161.21 122.47C161.307 122.735 161.323 123.022 161.257 123.296C161.191 123.569 161.046 123.817 160.839 124.008C160.632 124.199 160.374 124.324 160.096 124.368C159.818 124.412 159.534 124.372 159.278 124.254C159.023 124.136 158.808 123.944 158.662 123.704C158.465 123.382 158.404 122.995 158.493 122.628C158.581 122.261 158.812 121.944 159.133 121.747Z" fill="white"/>
<path d="M184.928 88.6836C184.932 88.7219 184.932 88.7606 184.928 88.7989C184.928 88.8854 184.928 88.9936 184.928 89.1341C184.928 89.4405 184.928 89.873 184.928 90.4208C184.928 91.5525 184.949 93.1672 184.964 95.1603C184.985 99.1609 185.14 104.682 185.45 110.781C185.759 116.879 186.076 122.397 186.245 126.394C186.332 128.391 186.389 129.998 186.422 131.13C186.422 131.678 186.443 132.11 186.45 132.416C186.45 132.557 186.45 132.665 186.45 132.752C186.454 132.79 186.454 132.829 186.45 132.867C186.447 132.829 186.447 132.79 186.45 132.752C186.45 132.665 186.45 132.557 186.429 132.416C186.429 132.11 186.389 131.696 186.364 131.13C186.306 130.002 186.224 128.387 186.126 126.401C185.907 122.393 185.608 116.879 185.277 110.788C184.946 104.697 184.831 99.1609 184.845 95.1603C184.845 93.1708 184.845 91.5561 184.87 90.4208C184.87 89.873 184.87 89.4405 184.888 89.1341C184.888 88.9936 184.888 88.8854 184.888 88.7989C184.898 88.7594 184.911 88.7208 184.928 88.6836Z" fill="#263238"/>
<path d="M152.596 80.8427C154.252 79.6353 156.178 79.9994 157.838 81.2031C159.497 82.4069 160.419 84.4469 160.584 86.4904C160.75 88.534 160.224 90.5812 159.45 92.477C158.201 95.5153 156.354 97.9733 153.593 101.102L146.48 110.455L160.214 123.876L154.522 132.865L143.024 123.599C139.097 120.279 135.756 116.884 133.305 113.374" fill="#455A64"/>
<path d="M133.305 113.386L133.387 113.494L133.629 113.818C133.841 114.103 134.158 114.539 134.586 115.065C135.819 116.606 137.141 118.073 138.546 119.459C139.446 120.356 140.472 121.318 141.617 122.342C142.761 123.365 144.05 124.378 145.418 125.477L154.562 132.823L154.436 132.844C156.203 130.051 158.122 127.016 160.12 123.852V123.967L153.035 117.047L146.39 110.56L146.333 110.506L146.379 110.441C148.899 107.143 151.282 104.008 153.5 101.092C154.855 99.5987 156.111 98.0192 157.262 96.3631C158.289 94.8541 159.12 93.2203 159.735 91.5011C160.318 89.975 160.592 88.3479 160.541 86.7147C160.481 85.3405 160.063 84.006 159.328 82.8439C158.723 81.9092 157.881 81.1528 156.887 80.6525C156.159 80.2642 155.339 80.0823 154.515 80.1263C154.004 80.1666 153.507 80.314 153.057 80.5588C152.747 80.7246 152.603 80.8364 152.6 80.8291L152.708 80.7462C152.814 80.6672 152.926 80.5962 153.043 80.5336C153.494 80.2772 153.995 80.12 154.511 80.0723C155.347 80.0174 156.182 80.1945 156.923 80.5841C157.935 81.0804 158.795 81.8412 159.411 82.7862C160.165 83.963 160.597 85.3179 160.664 86.7147C160.724 88.3436 160.465 89.9685 159.9 91.4975C159.287 93.2315 158.455 94.88 157.424 96.4027C156.273 98.0657 155.017 99.6525 153.662 101.153C151.444 104.069 149.058 107.208 146.552 110.524V110.401L153.201 116.889L160.282 123.812L160.336 123.866L160.296 123.928C158.295 127.092 156.372 130.123 154.601 132.913L154.551 132.996L154.475 132.935L145.35 125.564C143.985 124.461 142.689 123.438 141.556 122.414C140.422 121.39 139.396 120.428 138.492 119.531C137.089 118.134 135.773 116.652 134.55 115.094C134.129 114.553 133.83 114.121 133.614 113.829C133.513 113.688 133.438 113.577 133.384 113.497C133.33 113.418 133.305 113.386 133.305 113.386Z" fill="#263238"/>
<path d="M200.167 111.368C199.922 111.31 199.682 111.236 199.447 111.144C198.296 110.778 197.051 110.844 195.945 111.328C195.72 111.443 195.488 111.543 195.25 111.627C195.435 111.449 195.651 111.306 195.887 111.206C196.441 110.925 197.047 110.763 197.667 110.731C198.287 110.698 198.907 110.796 199.487 111.018C199.733 111.094 199.963 111.212 200.167 111.368Z" fill="#263238"/>
<path d="M163.023 132.447L160.525 133.69C159.919 133.992 159.238 134.112 158.565 134.037C157.892 133.962 157.255 133.693 156.731 133.265L155.172 131.992L159.492 125.191C159.999 125.411 162.087 125.707 162.807 125.963C163.431 126.181 164.087 126.291 164.747 126.287C165.485 126.303 166.222 126.242 166.947 126.107C166.994 126.089 167.059 126.074 167.102 126.056C167.2 126.016 167.305 125.997 167.411 126.002C168.027 125.945 168.516 126.593 168.171 127.084C167.825 127.574 166.141 128.273 163.988 128.212H163.887C161.997 128.212 163.732 129.794 164.852 130.735C165.05 130.895 165.204 131.103 165.299 131.34C165.393 131.576 165.425 131.833 165.392 132.086C165.386 132.177 165.361 132.266 165.317 132.347C165.274 132.427 165.213 132.497 165.14 132.551C164.65 132.868 163.023 132.447 163.023 132.447Z" fill="#A36853"/>
<path d="M168.795 84.6949C165.483 84.6949 162.506 81.8693 162.535 77.6596L161.938 53.6883H162.006C161.996 53.1851 162.176 52.6966 162.509 52.32C162.843 51.9434 163.306 51.7062 163.806 51.6556L173.677 50.6104C174.483 50.5252 175.298 50.6042 176.073 50.8427C176.848 51.0812 177.567 51.4743 178.186 51.9983C178.805 52.5222 179.312 53.1663 179.676 53.8915C180.04 54.6168 180.254 55.4083 180.304 56.2185C180.542 60.0136 180.685 64.6594 180.236 67.4923C179.321 73.1977 174.962 73.9257 174.962 73.9257L175.066 77.8903C175.235 82.1288 172.064 84.6805 168.795 84.6805V84.6949Z" fill="#A36853"/>
<path d="M178.111 59.3228C178.111 59.5109 178.037 59.6916 177.906 59.8263C177.775 59.961 177.596 60.039 177.409 60.0437C177.316 60.0515 177.222 60.0405 177.133 60.0114C177.045 59.9822 176.963 59.9354 176.893 59.8739C176.822 59.8123 176.765 59.7372 176.725 59.6531C176.684 59.5689 176.661 59.4775 176.656 59.3841C176.656 59.1929 176.732 59.0096 176.867 58.8744C177.002 58.7392 177.185 58.6633 177.376 58.6633C177.559 58.659 177.738 58.7248 177.874 58.8473C178.01 58.9699 178.095 59.14 178.111 59.3228Z" fill="#263238"/>
<path d="M179.311 58.6444C179.221 58.7416 178.67 58.3313 177.871 58.3349C177.072 58.3385 176.514 58.7272 176.431 58.6336C176.348 58.54 176.481 58.4177 176.733 58.2341C177.073 57.9987 177.476 57.8731 177.889 57.8741C178.296 57.8714 178.694 57.9973 179.026 58.2341C179.278 58.432 179.361 58.6012 179.311 58.6444Z" fill="#263238"/>
<path d="M170.527 59.468C170.53 59.5642 170.513 59.6599 170.478 59.7494C170.443 59.839 170.39 59.9206 170.323 59.9894C170.256 60.0583 170.176 60.113 170.087 60.1503C169.998 60.1877 169.903 60.2069 169.807 60.2069C169.621 60.2159 169.438 60.1522 169.298 60.0292C169.158 59.9062 169.071 59.7334 169.055 59.5473C169.053 59.4511 169.069 59.3555 169.104 59.2659C169.14 59.1764 169.192 59.0948 169.259 59.0259C169.326 58.9571 169.407 58.9023 169.495 58.865C169.584 58.8277 169.679 58.8084 169.775 58.8085C169.961 58.7994 170.144 58.8631 170.284 58.9861C170.424 59.1092 170.512 59.2819 170.527 59.468Z" fill="#263238"/>
<path d="M171.585 58.7929C171.495 58.8901 170.941 58.4797 170.145 58.4797C169.35 58.4797 168.785 58.8757 168.705 58.7785C168.662 58.7389 168.756 58.5661 169.008 58.3825C169.346 58.1455 169.75 58.0197 170.163 58.0225C170.571 58.0198 170.969 58.1458 171.301 58.3825C171.549 58.5769 171.632 58.7497 171.585 58.7929Z" fill="#263238"/>
<path d="M174.439 64.6242C174.852 64.4925 175.28 64.415 175.713 64.3935C175.915 64.3719 176.105 64.3323 176.138 64.1953C176.155 63.9881 176.108 63.7807 176.005 63.6006C175.814 63.1141 175.619 62.6059 175.411 62.0725C174.586 59.91 173.992 58.1079 174.079 58.0718C174.165 58.0358 174.907 59.7766 175.727 61.9535C175.929 62.4905 176.116 63.0023 176.296 63.4925C176.423 63.7349 176.46 64.0146 176.401 64.2818C176.371 64.3518 176.326 64.4142 176.27 64.4647C176.213 64.5152 176.146 64.5525 176.073 64.5738C175.961 64.6034 175.846 64.6191 175.731 64.6206C175.302 64.6752 174.868 64.6764 174.439 64.6242Z" fill="#263238"/>
<path d="M174.98 73.927C172.301 73.9666 169.663 73.2618 167.359 71.8906C167.359 71.8906 169.332 76.176 175.023 75.6426L174.98 73.927Z" fill="#8F5039"/>
<path d="M171.939 57.4183C171.863 57.6346 171.079 57.53 170.157 57.6418C169.236 57.7535 168.49 58.0022 168.357 57.8148C168.3 57.7211 168.429 57.5192 168.717 57.3138C169.118 57.0596 169.572 56.9005 170.043 56.8487C170.515 56.7969 170.992 56.8536 171.439 57.0147C171.802 57.1624 171.975 57.3174 171.939 57.4183Z" fill="#263238"/>
<path d="M179.017 56.3718C178.881 56.552 178.337 56.3718 177.689 56.3718C177.041 56.3718 176.487 56.4907 176.361 56.3033C176.303 56.2132 176.393 56.0366 176.631 55.8672C176.951 55.6593 177.329 55.5573 177.711 55.5753C178.093 55.5799 178.463 55.7061 178.769 55.9357C179.003 56.1015 179.078 56.2853 179.017 56.3718Z" fill="#263238"/>
<path d="M162.022 59.1364C162.99 58.9634 163.764 59.2625 164.038 60.2176C164.445 61.6413 164.168 62.3441 164.236 63.3244L165.676 62.8919C165.316 59.6085 166.133 57.1793 165.777 53.8815C167.778 54.5302 170.528 53.2904 171.382 51.2144C172.231 51.8393 173.24 52.2103 174.291 52.2843C175.342 52.3583 176.393 52.1323 177.321 51.6325C177.555 52.0582 177.918 52.3985 178.357 52.6045C178.796 52.8105 179.29 52.8715 179.766 52.7786C180.846 52.4723 181.99 50.9333 182.304 49.8412C182.865 47.877 182.592 45.0585 181 43.779C179.409 42.4995 176.22 42.8059 174.981 44.4314C174.492 45.0729 174.434 46.2587 173.646 46.4209C172.944 46.565 172.307 46.0605 171.666 45.7289C169.668 44.7377 166.907 46.0533 166.414 48.2302C164.744 47.2318 162.72 46.5795 160.852 47.1165C158.984 47.6535 157.493 49.7295 158.131 51.5676C158.393 52.3389 158.987 53.0093 159.052 53.813C159.178 55.3808 157.299 56.8009 157.9 58.2533C158.235 59.0679 159.218 59.4283 159.661 60.1888C160.157 61.0394 159.848 62.1134 159.891 63.0973C159.956 64.7408 160.798 67.1736 162.371 67.6422" fill="#263238"/>
<path d="M162.163 59.1172C161.922 59.1515 161.694 59.2503 161.504 59.4032C161.314 59.556 161.169 59.7573 161.083 59.9858C160.874 60.4225 160.774 60.9037 160.792 61.3878C160.76 62.1445 161.003 62.8871 161.476 63.4782C161.718 63.7655 162.044 63.9696 162.408 64.0621C162.772 64.1545 163.156 64.1305 163.506 63.9936" fill="#A36853"/>
<path d="M163.143 62.7597C163.143 62.7777 162.93 62.857 162.595 62.738C162.402 62.6637 162.232 62.5393 162.102 62.3776C161.946 62.1681 161.855 61.9176 161.839 61.6568C161.821 61.4075 161.873 61.1581 161.987 60.936C162.084 60.7537 162.222 60.5968 162.39 60.4782C162.685 60.2836 162.916 60.2944 162.912 60.316C162.759 60.3943 162.612 60.4847 162.473 60.5863C162.317 60.7169 162.194 60.8835 162.117 61.0718C162.039 61.2602 162.008 61.4646 162.027 61.6676C162.037 61.8677 162.1 62.0616 162.209 62.2294C162.318 62.3973 162.47 62.533 162.649 62.6227C162.81 62.681 162.975 62.7268 163.143 62.7597Z" fill="#8F5039"/>
<path d="M171.941 67.4073C172.661 67.9011 174.022 67.6416 174.533 66.9099C173.435 66.3103 172.423 65.5647 171.524 64.6934C171.524 64.6934 170.502 66.3945 171.941 67.4073Z" fill="#FAFAFA"/>
<path d="M174.243 69.0736C173.95 68.9571 173.642 68.8843 173.328 68.8577C173.016 68.8838 172.708 68.9528 172.414 69.0628C172.414 69.0628 172.468 68.9512 172.63 68.8541C172.843 68.7315 173.085 68.667 173.33 68.667C173.576 68.667 173.817 68.7315 174.03 68.8541C174.192 68.9584 174.264 69.0556 174.243 69.0736Z" fill="#AA6550"/>
<path d="M165.479 92.1509C166.999 89.9066 168.38 87.5715 169.616 85.1588C171.102 82.3187 170.85 82.1745 170.494 82.0484C169.536 81.706 167.69 86.9392 167.445 85.5697C167.2 84.2001 170.433 79.4426 169.418 79.1398C168.093 78.729 166.261 84.2469 166.073 84.7011C165.886 85.1552 165.227 84.8777 165.422 84.4776C165.699 83.9045 168.456 77.7811 167.157 77.3666C166.437 77.1395 166.178 78.4875 166.178 78.4875C166.178 78.4875 164.018 84.4163 163.409 84.2001C162.801 83.9838 163.949 80.4554 164.421 79.2948C164.893 78.1343 164.54 77.4459 163.867 77.6477C163.406 77.7847 161.876 81.3023 161.437 82.4593C160.998 83.6162 159.846 86.8203 159.147 84.7479C159.147 84.7155 159.122 84.6866 159.108 84.6542C158.478 82.5926 157.308 81.2158 156.699 81.05C156.091 80.8843 155.648 81.5546 155.9 82.1313C155.933 82.2319 155.987 82.3242 156.059 82.4016C156.091 82.4376 156.123 82.4917 156.156 82.5314C156.517 83.1748 156.811 83.8535 157.034 84.5569C157.247 85.1833 157.353 85.8414 157.347 86.5031C157.347 87.2708 157.707 89.5054 157.679 90.0568" fill="#FFAD9D"/>
<path d="M157.324 89.237L148.616 106.537C148.616 106.537 143.692 92.2753 141.035 86.6024C140.024 84.4399 137.993 82.9406 136.046 81.9458V81.9062L135.639 81.744C134.241 81.0752 132.773 80.5662 131.262 80.2266C122.075 77.592 113.421 78.5111 103.402 82.0287C103.402 82.0287 98.2006 83.4271 95.6771 90.221C93.4092 96.348 90.8641 105.719 90.4285 107.377C87.3075 117.894 91.7641 123.75 97.9666 123.03C100.522 122.626 102.697 120.507 103.658 119.685L106.937 116.6L107.009 118.989L103.327 133.748L141.032 133.669L134.228 116.193L135.74 108.181L138.328 114.336C139.141 116.272 140.501 117.928 142.24 119.101C143.98 120.275 146.023 120.914 148.121 120.941C150.218 120.968 152.277 120.382 154.046 119.254C155.816 118.127 157.218 116.506 158.08 114.592L166.896 92.3691L157.324 89.237Z" fill="#00BCBC"/>
<path d="M111.922 110.806C111.822 110.977 111.709 111.139 111.584 111.292C111.357 111.595 111.015 112.031 110.579 112.554C109.712 113.602 108.463 115.012 107.012 116.5C105.561 117.989 104.179 119.268 103.142 120.151C102.627 120.598 102.199 120.944 101.896 121.175C101.748 121.31 101.586 121.431 101.414 121.535C101.548 121.39 101.694 121.257 101.85 121.135C102.138 120.887 102.552 120.522 103.056 120.054C104.064 119.142 105.428 117.852 106.875 116.367C108.322 114.882 109.589 113.484 110.475 112.467C110.925 111.955 111.278 111.534 111.522 111.245C111.643 111.087 111.776 110.94 111.922 110.806Z" fill="#263238"/>
<path d="M134.344 115.63C134.342 115.562 134.348 115.494 134.362 115.428C134.391 115.277 134.42 115.089 134.46 114.859L134.852 112.761C135.183 110.992 135.637 108.548 135.997 105.827C136.088 105.147 136.17 104.485 136.242 103.841C136.33 103.229 136.365 102.61 136.346 101.992C136.279 100.944 136.124 99.9033 135.882 98.8815C135.687 98.0021 135.522 97.2957 135.41 96.8019C135.36 96.5533 135.331 96.3586 135.316 96.2289C135.308 96.1607 135.308 96.0916 135.316 96.0234C135.339 96.0874 135.354 96.154 135.36 96.2217C135.385 96.3514 135.428 96.5424 135.489 96.7875C135.608 97.2741 135.806 97.9733 136.018 98.8527C136.282 99.8792 136.452 100.927 136.526 101.985C136.548 102.611 136.516 103.238 136.432 103.859C136.364 104.504 136.281 105.171 136.191 105.852C135.831 108.58 135.352 111.024 134.989 112.786C134.802 113.648 134.65 114.354 134.539 114.873C134.485 115.1 134.442 115.288 134.409 115.439C134.394 115.505 134.372 115.569 134.344 115.63Z" fill="#263238"/>
<path d="M147.852 110.767C147.989 109.346 148.25 107.94 148.633 106.564C148.593 107.283 148.491 107.997 148.327 108.698C148.227 109.4 148.068 110.092 147.852 110.767Z" fill="#263238"/>
<path d="M149.199 111.281C149.019 110.48 148.898 109.667 148.839 108.848C148.713 108.036 148.649 107.215 148.648 106.394C148.829 107.194 148.949 108.008 149.008 108.826C149.135 109.638 149.198 110.459 149.199 111.281Z" fill="#263238"/>
<path d="M121.367 133.669C121.317 133.669 121.273 127.873 121.273 120.73C121.273 113.586 121.317 107.787 121.367 107.787C121.417 107.787 121.461 113.579 121.461 120.73C121.461 127.88 121.417 133.669 121.367 133.669Z" fill="#263238"/>
<g opacity="0.2">
<path d="M135.523 97.0693C137.291 100.461 138.828 103.834 138.968 107.658C139.076 110.632 137.889 113.111 139.116 115.822C139.055 115.869 138.007 113.533 137.543 112.437C136.589 110.181 135.743 108.167 135.743 108.167C135.743 108.167 136.398 103.074 136.463 102.205C136.528 101.337 135.523 97.0693 135.523 97.0693Z" fill="black"/>
</g>
<g opacity="0.2">
<path d="M91.7475 114.301C91.7475 116.002 90.6928 110.387 91.6791 109.007C92.3739 108.037 93.5619 107.565 94.7138 107.28C95.8658 106.996 97.0717 106.805 98.0941 106.199C99.4152 105.417 100.254 104.037 101.179 102.826C102.104 101.615 103.339 96.4281 104.865 96.3164V103.885C101.21 106.254 97.4081 108.389 93.4827 110.275C92.9238 110.784 92.4798 111.406 92.1806 112.101C91.8813 112.795 91.7337 113.545 91.7475 114.301Z" fill="black"/>
</g>
<g opacity="0.2">
<path d="M106.914 116.603C109.38 115.215 111.18 113.359 113.966 112.88C116.648 112.404 119.409 112.879 122.123 112.692C121.977 111.32 121.827 109.946 121.673 108.569L113.909 108.482L106.914 116.603Z" fill="black"/>
</g>
<path d="M104.88 96.2295C104.93 96.2295 104.973 97.9126 104.973 99.9886C104.973 102.065 104.93 103.751 104.88 103.751C104.785 102.5 104.753 101.244 104.786 99.9886C104.753 98.7348 104.785 97.4801 104.88 96.2295Z" fill="#263238"/>
<path d="M91.7613 114.26C91.703 114.041 91.6883 113.813 91.7181 113.589C91.7544 113.046 91.8835 112.514 92.0997 112.014C92.313 111.515 92.6114 111.056 92.9817 110.659C93.1235 110.484 93.2969 110.337 93.4928 110.227C93.0078 110.793 92.5977 111.419 92.2725 112.09C92.0039 112.786 91.8319 113.516 91.7613 114.26Z" fill="#263238"/>
<path d="M93.2969 110.344C93.491 110.293 93.6801 110.224 93.862 110.139C94.222 109.995 94.7404 109.778 95.3704 109.479C96.6303 108.903 98.3475 108.038 100.169 106.956C101.99 105.875 103.578 104.812 104.69 103.997C105.248 103.586 105.695 103.248 105.994 103.006C106.155 102.888 106.307 102.757 106.447 102.613C106.27 102.71 106.102 102.821 105.943 102.945L104.608 103.882C103.474 104.668 101.883 105.716 100.065 106.787C98.2467 107.857 96.5475 108.73 95.3056 109.339L93.8296 110.059C93.644 110.138 93.4657 110.234 93.2969 110.344Z" fill="#263238"/>
<path d="M140.621 63.9424C140.002 63.1314 139.019 62.5007 138.821 61.5096C138.572 60.1796 139.901 58.9326 139.66 57.5991C139.501 56.6872 138.662 56.0457 137.806 55.6924C136.949 55.3392 136.006 55.1698 135.221 54.6977C134.279 54.0927 133.556 53.2007 133.158 52.1532C133.041 51.8669 132.939 51.5745 132.852 51.2773C132.772 50.6404 132.626 50.0136 132.417 49.4068C132.384 49.2482 132.356 49.0896 132.327 48.931L132.366 49.2915C132.247 48.9915 132.09 48.7081 131.898 48.4481C131.24 47.5687 129.922 47.0785 129.018 47.6948L129.45 47.4065C128.904 46.0838 128.027 44.9245 126.902 44.0406C125.778 43.1567 124.445 42.5781 123.032 42.3607C122.493 42.285 121.948 42.2669 121.405 42.3066C119.465 42.2057 116.66 42.7715 115.476 43.5248C113.964 44.4835 112.416 45.799 111.656 47.4245C111.25 48.3003 110.972 49.3131 110.217 49.897C109.187 50.6755 107.743 50.3727 106.458 50.5169C104.342 50.7584 102.498 52.3838 101.778 54.3914C101.443 55.4075 101.323 56.4823 101.424 57.5476C101.526 58.6129 101.848 59.6454 102.369 60.5797C102.592 60.9942 102.855 61.4735 102.678 61.9096C102.496 62.2334 102.211 62.487 101.868 62.6305C101.005 63.0762 100.316 63.798 99.9102 64.6812C99.5502 65.5787 99.687 66.714 100.414 67.3483C100.719 67.5917 101.083 67.7491 101.469 67.8042C101.856 67.8594 102.249 67.8102 102.61 67.6619C102.395 68.2049 102.282 68.7827 102.275 69.3666C102.26 70.0047 102.416 70.6352 102.727 71.1924C103.038 71.7496 103.492 72.2132 104.043 72.5347C105.17 73.1222 106.746 72.8122 107.409 71.7274C107.404 72.5273 107.616 73.3134 108.022 74.0024C108.428 74.6914 109.012 75.2577 109.714 75.6412C110.415 76.0247 111.206 76.2111 112.005 76.1807C112.803 76.1503 113.578 75.9042 114.248 75.4685C114.781 75.1081 115.328 74.6323 115.958 74.7477C116.588 74.863 116.945 75.4685 117.377 75.9082C118.529 77.1084 120.494 77.2453 122.01 76.5641C123.525 75.883 124.641 74.5206 125.444 73.0645C125.724 73.4838 126.116 73.8156 126.576 74.0218C127.035 74.2279 127.544 74.3002 128.042 74.2302C128.541 74.1602 129.01 73.9508 129.396 73.626C129.781 73.3013 130.067 72.8743 130.221 72.3941C130.782 73.1209 131.553 73.6575 132.428 73.9315C133.304 74.2055 134.243 74.2035 135.117 73.9259C135.992 73.6483 136.76 73.1085 137.318 72.3794C137.876 71.6504 138.197 70.7673 138.238 69.8496C138.871 69.7559 139.469 69.4984 139.972 69.1026C140.475 68.7069 140.867 68.1865 141.108 67.5928C141.349 66.9992 141.431 66.3529 141.346 65.7178C141.261 65.0826 141.013 64.4806 140.624 63.9712L140.621 63.9424ZM104.417 65.0561C104.417 65.0561 104.417 65.0561 104.417 65.0344L104.453 65.0164L104.417 65.0561Z" fill="#263238"/>
<path d="M127.253 74.0983C127.253 74.0983 131.865 73.3342 132.819 67.3117C133.294 64.3166 133.143 59.4077 132.891 55.3963C132.837 54.54 132.611 53.7035 132.226 52.9369C131.841 52.1704 131.306 51.4897 130.651 50.9358C129.997 50.3819 129.237 49.9663 128.418 49.714C127.599 49.4617 126.738 49.3778 125.885 49.4675L115.446 50.5739C114.916 50.6299 114.427 50.8836 114.077 51.2844C113.726 51.6852 113.538 52.2036 113.552 52.7364L114.65 78.8954C113.891 79.0576 112.166 79.4325 111.32 79.6775C111.32 79.6775 119.391 97.738 121.367 97.5289C123.344 97.3199 131.242 80.229 131.242 80.229C129.866 79.8139 128.47 79.471 127.059 79.2018C127.036 77.4984 127.101 75.795 127.253 74.0983Z" fill="#FFAD9D"/>
<path d="M130.553 58.6765C130.555 58.8774 130.478 59.0711 130.34 59.2165C130.201 59.3619 130.012 59.4475 129.811 59.455C129.713 59.4654 129.613 59.4554 129.518 59.4255C129.424 59.3956 129.336 59.3464 129.262 59.2811C129.187 59.2158 129.127 59.1357 129.084 59.046C129.042 58.9562 129.019 58.8586 129.016 58.7594C129.014 58.5585 129.09 58.3647 129.229 58.2193C129.367 58.0739 129.557 57.9884 129.757 57.9809C129.855 57.973 129.954 57.9849 130.047 58.0158C130.141 58.0467 130.227 58.096 130.301 58.1609C130.376 58.2257 130.436 58.3047 130.479 58.3932C130.522 58.4818 130.547 58.5781 130.553 58.6765Z" fill="#263238"/>
<path d="M131.823 57.963C131.726 58.0638 131.143 57.6318 130.311 57.6354C129.48 57.639 128.871 58.053 128.785 57.9522C128.738 57.9054 128.835 57.7254 129.102 57.531C129.464 57.286 129.892 57.1567 130.329 57.1602C130.761 57.1596 131.182 57.2957 131.531 57.549C131.769 57.7362 131.87 57.9198 131.823 57.963Z" fill="#263238"/>
<path d="M122.541 58.8308C122.543 59.0323 122.466 59.2265 122.327 59.372C122.187 59.5175 121.997 59.6027 121.796 59.6093C121.697 59.6197 121.597 59.6097 121.503 59.5798C121.408 59.5498 121.321 59.5007 121.246 59.4354C121.171 59.3701 121.111 59.29 121.069 59.2002C121.026 59.1105 121.003 59.0129 121 58.9137C120.998 58.7121 121.075 58.5179 121.214 58.3724C121.353 58.2269 121.544 58.1417 121.745 58.1352C121.843 58.1273 121.942 58.1392 122.035 58.1701C122.129 58.201 122.215 58.2503 122.289 58.3151C122.363 58.38 122.424 58.459 122.467 58.5475C122.51 58.6361 122.535 58.7324 122.541 58.8308Z" fill="#263238"/>
<path d="M123.658 58.1157C123.564 58.2165 122.977 57.7845 122.149 57.7881C121.321 57.7917 120.709 58.2057 120.619 58.1049C120.576 58.0581 120.673 57.8781 120.94 57.6837C121.299 57.4356 121.727 57.3036 122.164 57.3057C122.595 57.3056 123.016 57.4416 123.366 57.6945C123.618 57.8781 123.704 58.0725 123.658 58.1157Z" fill="#263238"/>
<path d="M126.684 64.2825C127.122 64.1453 127.576 64.0641 128.034 64.041C128.243 64.0194 128.444 63.9762 128.48 63.832C128.499 63.6123 128.45 63.3923 128.34 63.2013C128.138 62.6895 127.933 62.1488 127.714 61.5866C126.842 59.2871 126.212 57.395 126.306 57.3589C126.4 57.3229 127.177 59.161 128.048 61.4641L128.65 63.0895C128.784 63.3453 128.822 63.6406 128.758 63.9221C128.726 63.9984 128.677 64.0662 128.615 64.1201C128.552 64.1739 128.478 64.2123 128.398 64.2321C128.28 64.2626 128.159 64.2795 128.038 64.2825C127.588 64.3384 127.134 64.3384 126.684 64.2825Z" fill="#263238"/>
<path d="M127.24 74.098C124.408 74.1379 121.62 73.3892 119.188 71.9355C119.188 71.9355 121.142 76.0695 127.161 75.5073L127.24 74.098Z" fill="#ED9482"/>
<path d="M124.346 65.5824C124.529 65.454 124.736 65.3644 124.955 65.3193C125.065 65.2991 125.179 65.314 125.28 65.3618C125.381 65.4096 125.465 65.4881 125.52 65.586C125.543 65.658 125.571 65.728 125.606 65.7951C125.728 65.9609 125.984 65.8996 126.178 65.9573C126.252 65.9883 126.318 66.0336 126.374 66.0905C126.43 66.1474 126.474 66.2148 126.504 66.2888C126.534 66.3629 126.549 66.442 126.548 66.5218C126.547 66.6016 126.53 66.6805 126.499 66.7538C126.426 66.9002 126.325 67.0305 126.202 67.137C126.078 67.2435 125.934 67.324 125.779 67.3737C125.371 67.5418 124.928 67.6026 124.49 67.5503C124.337 67.5445 124.187 67.5062 124.05 67.4378C123.913 67.3695 123.791 67.2727 123.695 67.1539C123.604 66.9947 123.561 66.8124 123.572 66.6294C123.583 66.4463 123.647 66.2704 123.756 66.1231C123.979 65.8299 124.26 65.5847 124.58 65.4022" fill="#ED9482"/>
<path d="M124.219 64.8566C124.352 64.8566 124.356 65.7504 125.126 66.3884C125.896 67.0263 126.854 66.929 126.861 67.0551C126.861 67.1128 126.649 67.2318 126.242 67.2426C125.718 67.2477 125.209 67.0692 124.802 66.738C124.405 66.4187 124.146 65.9574 124.082 65.4513C124.057 65.0873 124.158 64.8494 124.219 64.8566Z" fill="#263238"/>
<path d="M124.043 56.6646C123.96 56.888 123.133 56.7835 122.161 56.8989C121.189 57.0142 120.397 57.2845 120.271 57.0791C120.213 56.9854 120.35 56.7727 120.667 56.5529C121.091 56.2847 121.571 56.1168 122.07 56.0619C122.569 56.0069 123.074 56.0663 123.547 56.2357C123.899 56.3799 124.079 56.5565 124.043 56.6646Z" fill="#263238"/>
<path d="M131.513 56.0776C131.366 56.2686 130.794 56.0776 130.106 56.0776C129.418 56.0776 128.839 56.2037 128.706 56.0055C128.644 55.9118 128.738 55.7208 128.99 55.5442C129.332 55.33 129.729 55.2221 130.133 55.2343C130.536 55.2465 130.926 55.3782 131.254 55.6127C131.499 55.8001 131.578 55.9947 131.513 56.0776Z" fill="#263238"/>
<path d="M129.341 48.5886C129.116 49.6555 128.681 50.6666 128.06 51.5622C127.438 52.4578 126.644 53.2198 125.724 53.8032C124.804 54.3867 123.777 54.7798 122.703 54.9595C121.629 55.1391 120.53 55.1015 119.47 54.8491C119.296 56.1719 118.784 57.4274 117.984 58.4944C117.184 59.5613 116.122 60.4037 114.902 60.9401C116.567 63.9613 117.245 67.4284 116.842 70.8551C116.666 72.2968 116.245 73.8358 115.15 74.8197C113.48 76.319 110.665 75.955 109.059 74.3908C107.519 72.8879 106.975 70.538 107.411 68.4295C107.846 66.3211 109.167 64.465 110.827 63.1098C110.128 62.99 109.476 62.6772 108.945 62.2068C108.413 61.7363 108.024 61.1268 107.82 60.4467C107.615 59.7666 107.605 59.043 107.789 58.3572C107.973 57.6714 108.344 57.0506 108.861 56.5646C109.333 56.1177 109.941 55.7861 110.301 55.2419C110.661 54.6977 110.719 54.0922 110.924 53.5119C111.461 51.9946 112.814 50.9458 114.103 49.9798C115.183 49.1653 116.392 48.3147 117.753 48.3183C118.473 48.3183 119.193 48.5706 119.913 48.4733C120.903 48.34 121.677 47.5867 122.494 47.0316C123.631 46.1845 125.045 45.7984 126.454 45.9504C127.847 46.1702 129.147 47.2119 129.409 48.5958" fill="#263238"/>
<path d="M128.836 49.1845C128.624 50.3487 129.196 51.5417 130.067 52.3562C130.938 53.1707 132.015 53.6753 133.091 54.1583C132.716 53.0132 132.192 51.9226 131.532 50.9145C131.2 50.4082 130.77 49.973 130.268 49.634C129.767 49.2949 129.203 49.0589 128.609 48.9395" fill="#263238"/>
<path d="M102.386 63.0693C102.345 62.9476 102.333 62.8178 102.353 62.6909C102.407 62.3228 102.6 61.9896 102.893 61.761C103.367 61.4155 103.951 61.2565 104.535 61.3141C105.208 61.3141 105.953 61.5376 106.778 61.4871C107.224 61.4496 107.654 61.3069 108.035 61.0707C108.415 60.8346 108.734 60.5116 108.966 60.1283C109.223 59.6998 109.365 59.2117 109.377 58.7119C109.413 58.1965 109.377 57.6559 109.395 57.0936C109.4 56.5041 109.583 55.93 109.92 55.4465C110.295 54.9637 110.792 54.5903 111.36 54.3653C112.494 53.8499 113.786 53.8427 115.025 53.612C115.639 53.5117 116.231 53.3044 116.774 52.9993C117.283 52.6749 117.724 52.2551 118.074 51.7631C118.776 50.7972 119.247 49.7195 119.892 48.8004C120.666 47.6463 121.806 46.7861 123.127 46.358C124.448 45.9299 125.875 45.9586 127.178 46.4397C127.718 46.6351 128.228 46.9056 128.693 47.2434C129.097 47.521 129.455 47.8589 129.755 48.2454C129.729 48.2265 129.705 48.2047 129.683 48.1805L129.485 47.9823C129.226 47.7351 128.948 47.5085 128.654 47.3047C127.562 46.5511 126.261 46.1614 124.935 46.191C123.962 46.2242 123.01 46.4869 122.158 46.9579C121.305 47.4288 120.576 48.0947 120.029 48.9014C119.399 49.8024 118.931 50.88 118.229 51.8748C117.866 52.387 117.406 52.8229 116.875 53.1579C116.318 53.4759 115.708 53.6919 115.075 53.7958C113.808 54.0301 112.555 54.0373 111.447 54.5166C110.908 54.7312 110.437 55.0843 110.079 55.5402C109.76 55.9943 109.586 56.5349 109.582 57.09C109.549 57.6342 109.582 58.1713 109.557 58.7083C109.539 59.2342 109.386 59.7468 109.114 60.1968C108.868 60.5981 108.53 60.9349 108.128 61.1794C107.726 61.4238 107.272 61.5689 106.803 61.6024C105.942 61.6457 105.201 61.4222 104.542 61.4042C103.981 61.3383 103.415 61.4806 102.951 61.8043C102.666 62.0194 102.471 62.3328 102.404 62.6837C102.382 62.811 102.375 62.9405 102.386 63.0693Z" fill="#FAFAFA"/>
<path d="M111.32 90.8857L111.702 100.487L112.667 109.678L122.865 109.242L122.131 91.0948L111.32 90.8857Z" fill="#263238"/>
<path d="M109.828 90.8555L110.21 100.489L111.174 109.68L121.373 109.244L120.638 91.0681L109.828 90.8555Z" fill="#455A64"/>
<path d="M108.888 110.806C111.594 110.683 114.291 110.394 116.962 109.941C120.123 109.433 120.09 109.148 119.979 108.784C119.676 107.811 114.385 109.462 115.335 108.446C116.285 107.429 122.02 107.184 121.66 106.182C121.195 104.874 115.684 106.705 115.209 106.824C114.734 106.943 114.561 106.254 114.996 106.168C115.623 106.045 122.171 104.596 121.725 103.306C121.48 102.585 120.245 103.191 120.245 103.191C120.245 103.191 114.205 104.993 114.014 104.391C113.823 103.789 117.336 102.589 118.546 102.264C119.755 101.94 120.097 101.252 119.532 100.823C119.147 100.538 115.418 101.414 114.23 101.756C113.042 102.099 109.787 103.086 111.026 101.284C111.047 101.255 111.062 101.226 111.08 101.198C112.351 99.4604 112.75 97.698 112.52 97.1069C112.289 96.5158 111.487 96.5699 111.181 97.1069C111.12 97.1935 111.079 97.2917 111.058 97.3952C111.058 97.4421 111.026 97.5033 111.011 97.5538C110.717 98.2268 110.355 98.8681 109.931 99.4676C109.559 100.015 109.095 100.494 108.56 100.884C107.944 101.335 106.4 102.985 105.914 103.277" fill="#FFAD9D"/>
<path d="M106.527 102.744L111.919 110.803L103.031 119.878L103.334 105.159L106.527 102.744Z" fill="#00BCBC"/>
</g>
<defs>
<clipPath id="clip0_23826_17725">
<rect width="208" height="138" fill="white"/>
</clipPath>
</defs>
</svg>
