<svg width="148" height="160" viewBox="0 0 148 160" fill="none" xmlns="http://www.w3.org/2000/svg">
<path d="M35.5038 4.29785L36.3153 4.33208C40.2503 4.48699 43.9835 6.13514 46.7726 8.94877C49.5616 11.7624 51.2021 15.5354 51.3678 19.5173C51.6818 27.198 51.933 35.6853 51.7253 39.792C51.2953 48.294 42.8416 49.2865 42.8416 49.2865L42.8078 52.7577C42.7595 58.4876 41.8899 64.7846 36.2284 64.7015L32.4459 63.0295C29.7547 62.9947 27.1857 61.8866 25.2971 59.9459C23.4085 58.0052 22.3528 55.3887 22.3594 52.6648L22.3884 20.9645C21.9874 12.1007 26.7409 4.47386 35.5038 4.29785Z" fill="#FFBF9D"/>
<path d="M42.8806 49.285C38.9761 49.1347 35.1965 47.8518 31.9922 45.5889C31.9922 45.5889 34.3496 51.8126 42.7647 51.3774L42.8806 49.285Z" fill="#FF9A6C"/>
<path d="M48.2629 27.1596C48.2541 27.476 48.1233 27.7763 47.8986 27.9965C47.6739 28.2166 47.373 28.3391 47.0602 28.3377C46.9071 28.3442 46.7542 28.3196 46.6107 28.2652C46.4671 28.2109 46.3358 28.1279 46.2246 28.0212C46.1133 27.9145 46.0243 27.7863 45.9629 27.6442C45.9016 27.5021 45.869 27.3489 45.8672 27.1938C45.876 26.8774 46.0068 26.577 46.2315 26.3569C46.4562 26.1367 46.7571 26.0143 47.0699 26.0157C47.223 26.0091 47.3759 26.0338 47.5194 26.0881C47.663 26.1425 47.7943 26.2255 47.9056 26.3322C48.0168 26.4388 48.1058 26.567 48.1672 26.7092C48.2286 26.8513 48.2611 27.0045 48.2629 27.1596Z" fill="#263238"/>
<path d="M49.397 23.614C49.2424 23.7655 48.3585 23.0469 47.0689 23.0029C45.7792 22.959 44.8035 23.57 44.6538 23.4038C44.591 23.3305 44.7504 23.0518 45.1755 22.7634C45.7509 22.3923 46.426 22.2113 47.1075 22.2452C47.7789 22.2684 48.4255 22.5082 48.9526 22.9296C49.339 23.2523 49.4646 23.5456 49.397 23.614Z" fill="#263238"/>
<path d="M37.1115 26.8534C37.1027 27.1698 36.9719 27.4702 36.7472 27.6903C36.5225 27.9104 36.2216 28.0329 35.9088 28.0315C35.7554 28.038 35.6023 28.0134 35.4585 27.9591C35.3147 27.9048 35.1831 27.8219 35.0714 27.7153C34.9598 27.6087 34.8704 27.4805 34.8085 27.3384C34.7465 27.1962 34.7134 27.0429 34.7109 26.8876C34.7258 26.5767 34.8577 26.2834 35.0795 26.0679C35.3014 25.8525 35.5965 25.7312 35.904 25.729C36.0565 25.7212 36.2091 25.7442 36.3528 25.7966C36.4965 25.8491 36.6284 25.9301 36.7409 26.0348C36.8533 26.1394 36.944 26.2658 37.0076 26.4063C37.0713 26.5469 37.1066 26.6989 37.1115 26.8534Z" fill="#263238"/>
<path d="M36.6611 23.359C36.5066 23.5154 35.6227 22.7968 34.3282 22.7479C33.0337 22.699 32.0677 23.3199 31.9131 23.1537C31.8455 23.0803 32.0097 22.7968 32.4348 22.5133C33.0093 22.1396 33.6847 21.9567 34.3668 21.9902C35.0383 22.0171 35.6842 22.2584 36.2119 22.6795C36.6128 23.0021 36.7336 23.2905 36.6611 23.359Z" fill="#263238"/>
<path d="M41.0609 33.2379C41.0609 33.1646 41.8677 33.057 43.1719 32.9397C43.5053 32.9397 43.8193 32.8615 43.8821 32.6366C43.9206 32.2999 43.8583 31.9592 43.7033 31.6588C43.4231 30.8374 43.1301 29.977 42.8241 29.0774C41.6068 25.4057 40.7421 22.3892 40.8919 22.3452C41.0416 22.3012 42.143 25.2297 43.3603 28.9063C43.6502 29.8107 43.9304 30.6712 44.1961 31.4974C44.3886 31.9076 44.4314 32.3735 44.3168 32.8126C44.2677 32.9328 44.1914 33.0396 44.0941 33.1245C43.9968 33.2094 43.8811 33.27 43.7565 33.3015C43.5712 33.345 43.3813 33.3647 43.1913 33.3601C41.8773 33.3406 41.0609 33.3113 41.0609 33.2379Z" fill="#263238"/>
<path d="M37.2265 18.246C37.0864 18.598 35.8064 18.378 34.285 18.5051C32.7635 18.6322 31.5173 18.994 31.3289 18.6713C31.2468 18.5149 31.4738 18.1825 31.981 17.8648C32.6567 17.4701 33.4121 17.236 34.1903 17.1801C34.9685 17.1242 35.749 17.248 36.473 17.5421C37.0188 17.7914 37.2893 18.0798 37.2265 18.246Z" fill="#263238"/>
<path d="M49.0851 19.8093C48.8436 20.0977 47.9693 19.7555 46.897 19.6969C45.8248 19.6382 44.9167 19.8191 44.7187 19.5014C44.6317 19.3449 44.7863 19.0565 45.2017 18.7876C45.7472 18.4723 46.3729 18.3277 46.9996 18.3721C47.6263 18.4165 48.226 18.6478 48.7228 19.037C49.0754 19.3596 49.1914 19.6676 49.0851 19.8093Z" fill="#263238"/>
<path d="M50.7003 15.6077C50.7003 15.6077 48.6859 10.1907 46.1981 8.84618C43.1838 7.22303 41.7297 10.5818 38.8313 9.6382C35.9329 8.69462 33.0586 7.13503 29.9766 9.31063C26.5951 11.6867 28.0733 13.5054 27.7255 17.2748C26.3149 32.5432 23.3779 36.7624 22.8948 29.5267C22.8368 28.7298 20.6968 28.016 20.4795 24.667C20.2283 20.3256 20.2669 15.065 21.3393 12.0338C22.2427 9.47686 23.7547 7.74616 26.4599 5.87856C30.7061 2.94515 36.3773 3.08693 40.2129 3.62961C44.0485 4.17229 51.3042 8.93418 50.7003 15.6077Z" fill="#263238"/>
<path d="M23.4032 29.2911C23.4048 28.9784 23.3436 28.6687 23.2233 28.3807C23.1031 28.0927 22.9262 27.8324 22.7035 27.6157C22.4808 27.399 22.2169 27.2304 21.9278 27.1201C21.6388 27.0098 21.3306 26.9601 21.0219 26.974C19.4522 27.062 17.6698 27.893 17.6409 31.1731C17.5974 36.9952 23.3839 35.8367 23.3935 35.6704C23.4032 35.5042 23.408 31.7353 23.4032 29.2911Z" fill="#FFBF9D"/>
<path d="M22.1686 33.4772C22.1445 33.4772 22.0672 33.5457 21.8981 33.6239C21.7796 33.6743 21.6524 33.7003 21.5238 33.7003C21.3953 33.7003 21.268 33.6743 21.1495 33.6239C20.5457 33.3941 20.0386 32.4165 20.0192 31.3655C20.0045 30.8607 20.1036 30.3591 20.309 29.8989C20.3651 29.7181 20.4632 29.5536 20.5952 29.4192C20.7271 29.2848 20.8891 29.1844 21.0674 29.1266C21.1829 29.0961 21.3053 29.1078 21.413 29.1597C21.5208 29.2115 21.6071 29.3002 21.6566 29.4101C21.7339 29.5714 21.6953 29.6887 21.7243 29.6985C21.7532 29.7083 21.8499 29.6007 21.8064 29.3612C21.7743 29.2164 21.6942 29.087 21.5794 28.9946C21.4219 28.8744 21.2247 28.8201 21.0287 28.843C20.7926 28.8893 20.5719 28.9957 20.3877 29.1522C20.2035 29.3088 20.0617 29.5102 19.9758 29.7376C19.7266 30.2406 19.6038 30.7981 19.6183 31.3606C19.6473 32.5338 20.2318 33.6337 21.0674 33.883C21.2214 33.9301 21.3839 33.9414 21.5428 33.916C21.7017 33.8906 21.8529 33.8292 21.9851 33.7363C22.159 33.619 22.188 33.487 22.1686 33.4772Z" fill="#FF9A6C"/>
<path d="M52.4846 9.44711C51.6731 8.69421 50.4751 8.46931 49.6635 7.7213C48.2143 6.33282 48.3979 3.52653 46.6008 2.61229C45.5381 2.06961 44.2435 2.48517 43.0744 2.24561C41.1904 1.85938 40.5914 0.32912 37.693 0.0357794C33.9347 -0.340674 32.4517 2.37762 32.4517 2.37762C31.7908 1.99143 31.041 1.78811 30.2779 1.78811C29.5147 1.78811 28.765 1.99143 28.1041 2.37762C26.2877 3.35542 25.9544 5.70214 25.9544 5.70214C25.9544 5.70214 25.3892 5.34035 23.4424 6.6066C22.2058 7.41329 21.0802 9.30533 20.544 10.684C19.7228 12.7374 20.4184 15.0841 21.114 17.1669C21.4956 18.3011 21.9739 19.5625 23.0463 20.0514C24.3651 20.6527 25.9689 19.7189 26.6307 18.4184C27.2925 17.118 28.2683 15.837 29.046 14.5952C30.389 12.449 31.7416 10.4543 30.9349 8.91421C32.2797 8.60451 33.6869 8.73461 34.954 9.28578C36.2245 9.85291 37.2872 10.8112 38.5432 11.4076C39.7992 12.0041 41.4416 12.1312 42.4368 11.1485C42.5862 11.5499 42.8235 11.912 43.1307 12.2076C43.438 12.5031 43.8073 12.7246 44.211 12.8553C44.6148 12.986 45.0425 13.0226 45.4622 12.9624C45.8819 12.9022 46.2827 12.7467 46.6347 12.5076C47.4945 14.3117 49.8326 15.3335 51.6151 14.4632C53.3976 13.593 53.9435 10.8014 52.4846 9.44711Z" fill="#263238"/>
<path d="M20.6484 15.7393C20.873 16.1825 21.0527 16.6477 21.1846 17.1276C21.3404 17.6167 21.6261 18.053 22.0105 18.3888C22.5287 18.7299 23.153 18.8657 23.7639 18.7701C24.392 18.7162 25.0006 18.5226 25.5462 18.203C25.9869 17.9245 26.3952 17.5965 26.7634 17.2253C27.0877 16.8513 27.4433 16.5063 27.826 16.1939C27.5901 16.637 27.2906 17.0422 26.9373 17.3964C26.5765 17.8109 26.1622 18.1743 25.7056 18.4768C25.1202 18.8401 24.4581 19.0578 23.7735 19.1123C23.0774 19.2135 22.3695 19.0383 21.798 18.6234C21.3789 18.2427 21.0785 17.7467 20.9334 17.196C20.7781 16.7245 20.6824 16.2351 20.6484 15.7393Z" fill="#455A64"/>
<path d="M20.4549 20.2236C20.7756 20.5216 21.1367 20.7718 21.5272 20.9667C21.955 21.1481 22.4161 21.2347 22.8797 21.2209C23.4462 21.1903 23.9997 21.0369 24.5026 20.7711C25.4221 20.2435 26.2284 19.5356 26.8742 18.6887C27.1303 18.3188 27.4251 17.9779 27.7532 17.6719C27.5822 18.0942 27.3494 18.488 27.0625 18.8402C26.4433 19.7688 25.6157 20.536 24.6475 21.0791C24.098 21.3691 23.4896 21.5264 22.87 21.5386C22.367 21.5372 21.8712 21.4185 21.421 21.1915C20.6433 20.776 20.4308 20.2285 20.4549 20.2236Z" fill="#455A64"/>
<path d="M20.3466 23.5607C20.6801 23.7968 21.04 23.992 21.4189 24.1424C21.8833 24.2813 22.3712 24.3213 22.8517 24.2599C23.3322 24.1984 23.7949 24.037 24.2107 23.7856C25.0555 23.2635 25.8 22.5911 26.4084 21.8009C26.6485 21.4521 26.929 21.1338 27.244 20.8525C27.0869 21.2488 26.8702 21.6182 26.6016 21.9475C26.0253 22.8194 25.2647 23.5508 24.3749 24.0887C23.8673 24.3702 23.3053 24.537 22.7278 24.5775C22.2533 24.61 21.7777 24.5331 21.3368 24.3526C20.5784 24.0496 20.3128 23.5705 20.3466 23.5607Z" fill="#455A64"/>
<path d="M37.1284 35.0088C36.874 35.6212 36.7033 36.2659 36.6212 36.9251C36.5717 37.2371 36.5893 37.5562 36.6726 37.8607C36.756 38.1652 36.9032 38.448 37.1042 38.6898C37.3051 38.9846 37.5676 39.2311 37.8731 39.4118C38.1786 39.5926 38.5196 39.7032 38.872 39.7359C39.51 39.7976 40.1488 39.6259 40.6725 39.2519C41.1962 38.8779 41.5702 38.3265 41.7266 37.6974L42.0889 36.2847C40.7751 35.786 37.2201 35.1114 37.1284 35.0088Z" fill="#FF9A6C"/>
<path d="M40.2589 39.4497C40.2589 39.4203 40.0898 39.4497 39.7759 39.4497C39.3703 39.4767 38.963 39.4404 38.5683 39.3421C37.9976 39.1918 37.5032 38.8308 37.1821 38.3302C36.8977 37.8391 36.7505 37.279 36.7565 36.7099C36.7625 36.1407 36.9212 35.5838 37.2159 35.099L37.0324 35.1723C38.2979 35.4901 39.4039 35.7589 40.1961 35.9349C40.6146 36.0579 41.0457 36.1317 41.4809 36.1549C41.0922 35.9558 40.6799 35.808 40.254 35.7149C39.4764 35.4803 38.3751 35.1723 37.1145 34.835L36.9985 34.8008L36.9309 34.9083C36.5933 35.447 36.4141 36.0718 36.4141 36.7097C36.4141 37.3476 36.5933 37.9724 36.9309 38.5111C37.3076 39.064 37.8801 39.4491 38.5297 39.5865C38.9525 39.669 39.3869 39.669 39.8097 39.5865C40.1091 39.5621 40.2637 39.4692 40.2589 39.4497Z" fill="#263238"/>
<path d="M127.267 22.1719C129.199 20.9838 129.682 18.1678 128.677 16.1388C127.673 14.1099 125.523 12.8485 123.315 12.4574C121.711 12.1848 120.066 12.3005 118.514 12.7951C116.963 13.2897 115.549 14.149 114.388 15.3028C113.147 16.5593 112.137 18.202 110.471 18.7642C109.021 19.2531 107.408 18.7642 105.877 18.9451C103.823 19.1847 102.046 20.6318 100.969 22.4163C99.8913 24.2008 99.4275 26.2933 99.157 28.3662C98.9058 30.2681 98.7271 32.3557 97.4035 33.7441C96.0799 35.1326 94.0944 35.3428 92.4955 36.2815C89.4908 38.0318 88.457 42.4955 90.3845 45.4289C90.998 46.3627 91.8868 47.2231 91.9399 48.3623C91.9931 49.3841 91.3264 50.2836 91.0076 51.2566C90.1816 53.7597 92.1718 56.7762 94.7756 56.9669C96.0847 57.0647 97.5001 56.566 98.6691 57.1771C99.8381 57.7883 100.249 59.2208 100.978 60.3159C101.73 61.3771 102.82 62.1443 104.064 62.4888C105.309 62.8334 106.633 62.7342 107.814 62.2079C108.78 61.7435 109.712 60.9661 110.785 61.0541C111.857 61.1421 112.683 62.0808 113.736 62.3057C115.113 62.5942 116.436 61.587 117.277 60.443C118.118 59.299 118.726 57.9447 119.77 57.0207C121.161 55.8033 123.098 55.5247 124.847 54.9478C126.785 54.3036 128.563 53.2459 130.063 51.8462C131.562 50.4465 132.747 48.7373 133.537 46.8343C134.328 44.9312 134.705 42.8786 134.644 40.8151C134.583 38.7517 134.086 36.7255 133.185 34.8735" fill="#263238"/>
<path d="M106.903 46.9001C106.487 46.4349 105.967 46.0778 105.386 45.8589H105.502C105.394 45.8318 105.284 45.8122 105.174 45.8002C104.975 45.7381 104.766 45.7178 104.559 45.7404C104.352 45.7631 104.152 45.8284 103.971 45.9322C103.3 46.1661 102.74 46.6457 102.401 47.2765C102.135 47.8371 102.026 48.4611 102.087 49.0801C102.147 49.6991 102.375 50.2894 102.744 50.7864C103.01 51.2384 103.405 51.5983 103.876 51.8186C104.348 52.0389 104.875 52.1092 105.387 52.0202C105.9 51.9313 106.373 51.6873 106.745 51.3204C107.118 50.9535 107.371 50.4809 107.473 49.9651C107.642 49.4471 107.678 48.8943 107.578 48.3583C107.478 47.8223 107.246 47.3206 106.903 46.9001Z" fill="#455A64"/>
<path d="M131.551 68.2546L134.102 30.932C134.151 30.1393 133.904 29.357 133.41 28.7397C132.916 28.1224 132.212 27.7149 131.436 27.5977L115.011 22.6207C109.697 21.8238 105.896 28.2968 105.35 33.6845C104.717 39.6735 104.186 47.007 104.698 51.5196C105.693 60.5838 113.002 62.0505 113.002 62.0505C113.002 62.0505 112.919 71.2712 112.818 74.5468L110.639 84.6719L131.551 68.2546Z" fill="#DC8669"/>
<path d="M107.056 40.3858C107.04 40.6863 107.141 40.9813 107.337 41.2078C107.533 41.4342 107.808 41.5743 108.104 41.5981C108.248 41.6158 108.394 41.6045 108.534 41.5649C108.673 41.5252 108.803 41.458 108.917 41.3671C109.031 41.2762 109.125 41.1634 109.196 41.0353C109.266 40.9071 109.31 40.7661 109.327 40.6204C109.341 40.3202 109.24 40.026 109.045 39.7997C108.849 39.5735 108.574 39.4331 108.278 39.4081C108.134 39.3897 107.988 39.4006 107.849 39.4399C107.709 39.4793 107.578 39.5465 107.465 39.6375C107.351 39.7285 107.256 39.8416 107.186 39.9701C107.116 40.0985 107.072 40.2399 107.056 40.3858Z" fill="#263238"/>
<path d="M106.773 36.9681C106.908 37.1245 107.801 36.5183 109.028 36.5721C110.255 36.6259 111.129 37.2907 111.269 37.1441C111.342 37.0805 111.207 36.8019 110.825 36.4939C110.311 36.0992 109.688 35.8755 109.043 35.8535C108.404 35.8168 107.771 35.9881 107.236 36.3424C106.845 36.6308 106.71 36.8996 106.773 36.9681Z" fill="#263238"/>
<path d="M118.103 41.254C118.088 41.5549 118.19 41.8499 118.387 42.0762C118.583 42.3026 118.859 42.4425 119.156 42.4663C119.299 42.484 119.445 42.4726 119.584 42.4329C119.723 42.3932 119.853 42.3259 119.966 42.235C120.08 42.144 120.174 42.0312 120.244 41.9031C120.314 41.7749 120.358 41.6341 120.373 41.4886C120.389 41.1881 120.289 40.8931 120.093 40.6666C119.897 40.4401 119.621 40.3001 119.325 40.2763C119.181 40.2579 119.035 40.2687 118.895 40.3081C118.756 40.3475 118.625 40.4147 118.511 40.5057C118.398 40.5967 118.303 40.7097 118.233 40.8382C118.163 40.9667 118.119 41.108 118.103 41.254Z" fill="#263238"/>
<path d="M118.798 37.7288C118.933 37.8901 119.826 37.2791 121.053 37.3328C122.28 37.3866 123.154 38.0514 123.294 37.9048C123.362 37.8412 123.232 37.5626 122.85 37.2546C122.333 36.861 121.709 36.6375 121.063 36.6142C120.426 36.5775 119.795 36.7489 119.261 37.1031C118.87 37.3915 118.73 37.6604 118.798 37.7288Z" fill="#263238"/>
<path d="M113.958 46.7513C113.958 46.6829 113.209 46.5167 111.978 46.3015C111.664 46.2575 111.369 46.1793 111.326 45.9593C111.314 45.631 111.402 45.3071 111.577 45.0304L112.606 42.6543C114.055 39.2663 115.093 36.4795 114.958 36.4209C114.823 36.3622 113.552 39.0609 112.118 42.4441C111.77 43.2785 111.448 44.077 111.152 44.8397C110.936 45.2128 110.859 45.6513 110.934 46.0766C110.973 46.1898 111.037 46.2926 111.12 46.3773C111.204 46.4619 111.305 46.5263 111.417 46.5655C111.589 46.6178 111.765 46.6506 111.944 46.6633C113.161 46.7856 113.949 46.8247 113.958 46.7513Z" fill="#263238"/>
<path d="M112.915 62.0503C112.915 62.0503 118.349 62.6664 124.436 59.3174C124.436 59.3174 121.765 65.9811 112.891 64.7491L112.915 62.0503Z" fill="#6F4439"/>
<path d="M114.046 49.7189C114.34 49.3201 114.725 49 115.169 48.7861C115.612 48.5723 116.101 48.4713 116.592 48.4919C116.915 48.508 117.229 48.606 117.505 48.7768C117.78 48.9476 118.01 49.1858 118.171 49.4696C118.356 49.7908 118.44 50.1618 118.411 50.5327C118.382 50.9036 118.242 51.2566 118.009 51.5445C117.776 51.8324 117.462 52.0412 117.108 52.143C116.755 52.2449 116.379 52.2348 116.031 52.1142C115.358 51.86 114.755 51.4459 114.273 50.9067C114.116 50.7723 113.989 50.6057 113.901 50.4179C113.858 50.3152 113.843 50.2028 113.856 50.0921C113.87 49.9814 113.912 49.8763 113.978 49.7873" fill="#6F4439"/>
<path d="M117.562 47.7705C117.364 47.7705 117.306 49.1002 116.113 50.0094C114.92 50.9186 113.519 50.7084 113.5 50.8942C113.5 50.9773 113.804 51.1728 114.403 51.212C115.184 51.2589 115.955 51.0252 116.582 50.552C117.184 50.0962 117.587 49.4213 117.707 48.67C117.789 48.1078 117.654 47.7705 117.562 47.7705Z" fill="#263238"/>
<path d="M118.496 32.5851C118.602 32.9273 119.839 32.8197 121.268 33.0739C122.698 33.3281 123.852 33.7632 124.055 33.465C124.147 33.3232 123.959 32.9762 123.505 32.6486C122.893 32.2225 122.195 31.9418 121.461 31.8275C120.728 31.7132 119.978 31.7683 119.269 31.9887C118.732 32.1696 118.457 32.4238 118.496 32.5851Z" fill="#263238"/>
<path d="M107.359 32.7202C107.562 33.0135 108.421 32.7593 109.436 32.7886C110.45 32.8179 111.31 33.0575 111.517 32.7886C111.614 32.6468 111.489 32.3584 111.121 32.0749C110.633 31.7253 110.049 31.5374 109.45 31.5372C108.854 31.5211 108.267 31.6918 107.769 32.026C107.393 32.2851 107.262 32.5686 107.359 32.7202Z" fill="#263238"/>
<path d="M99.3396 31.0957C99.7358 29.7228 100.589 28.5309 101.755 27.7223C102.439 27.3774 103.105 26.9972 103.75 26.5832C105.054 25.5516 105.378 23.728 106.194 22.2711C106.73 21.3342 107.479 20.5402 108.379 19.9552C109.279 19.3701 110.303 19.0109 111.368 18.9075C113.136 18.751 114.943 19.3132 116.682 18.9075C117.957 18.5994 119.097 17.783 120.373 17.5532C122.885 17.1083 125.203 18.9612 126.981 20.8044C126.981 22.6231 125.532 23.816 124.121 24.96C123.418 25.5292 122.601 25.9376 121.728 26.157C120.854 26.3764 119.943 26.4017 119.059 26.2312C117.696 25.9574 116.204 25.2534 115.006 25.9574C113.808 26.6614 113.668 28.617 112.547 29.5753C110.948 30.9393 108.45 29.5997 106.436 30.1717C104.88 30.6117 103.89 32.098 102.842 33.3447C101.794 34.5914 100.233 35.7892 98.6875 35.3003C98.7446 33.8781 98.9634 32.4672 99.3396 31.0957Z" fill="#263238"/>
<path d="M118.303 23.6999C119.433 23.387 121.743 22.6879 122.361 21.7101C123.699 19.5833 126.032 18.1558 128.39 18.3171C129.614 18.4295 130.77 18.9412 131.683 19.7752C132.596 20.6092 133.217 21.7205 133.452 22.9421C135.106 23.0439 136.692 23.6446 138.006 24.6666C139.32 25.6887 140.301 27.0854 140.824 28.6769C141.256 29.4791 141.511 30.3672 141.569 31.2792C141.627 32.1911 141.488 33.105 141.162 33.957C140.761 34.9788 140.08 36.1131 140.587 37.086C141.094 38.0589 142.447 38.1273 143.486 38.5087C144.384 38.8669 145.129 39.5333 145.591 40.3912C146.052 41.2492 146.202 42.2442 146.012 43.2021C145.857 43.8866 145.529 44.5662 145.655 45.2506C145.78 45.9351 146.389 46.4778 146.843 47.04C147.411 47.7446 147.786 48.5879 147.931 49.4854C148.076 50.383 147.986 51.3033 147.669 52.1543C147.352 53.0053 146.82 53.7571 146.125 54.3345C145.431 54.9118 144.599 55.2945 143.713 55.4442C142.911 55.5811 142.046 55.5322 141.346 55.9331C140.544 56.422 140.186 57.3998 139.611 58.1234C139.051 58.8383 138.287 59.3622 137.424 59.6245C136.56 59.8867 135.637 59.8747 134.781 59.5901C134.438 59.473 134.113 59.3085 133.814 59.1012C133.264 59.8443 132.418 60.343 130.979 60.3234L131.583 41.3248C131.477 41.5561 131.317 41.7577 131.117 41.912C130.916 42.0662 130.681 42.1685 130.433 42.2097C127.409 42.855 127.051 36.5678 127.757 34.8762C126.633 33.9201 125.634 32.8244 124.781 31.6152C123.969 30.3587 123.284 26.956 123.482 25.4306C122.409 25.4502 117.806 23.8319 118.303 23.6999Z" fill="#263238"/>
<path d="M130.746 42.8314C130.871 40.9005 133.209 40.5241 134.851 41.5164C135.75 42.059 136.431 43.1394 136.301 45.1876C136.001 50.6479 130.644 49.2156 130.64 49.0592C130.635 48.9028 130.601 45.0898 130.746 42.8314Z" fill="#DC8669"/>
<path d="M132.436 47.0853C132.46 47.0853 132.523 47.1537 132.677 47.2368C132.897 47.3459 133.149 47.3669 133.383 47.2955C133.962 47.1146 134.493 46.2249 134.576 45.2423C134.613 44.7744 134.548 44.304 134.387 43.8638C134.346 43.6901 134.264 43.5291 134.148 43.3946C134.032 43.2601 133.885 43.1561 133.721 43.0914C133.614 43.057 133.499 43.0611 133.395 43.103C133.291 43.1449 133.205 43.222 133.151 43.3212C133.069 43.4727 133.098 43.5803 133.069 43.59C133.04 43.5998 132.957 43.4923 133.015 43.2674C133.05 43.1345 133.131 43.0185 133.242 42.9399C133.319 42.8863 133.406 42.8488 133.497 42.8295C133.588 42.8102 133.682 42.8095 133.774 42.8275C133.993 42.8846 134.193 42.9979 134.357 43.1562C134.52 43.3146 134.64 43.5128 134.706 43.7318C134.912 44.2168 134.995 44.746 134.947 45.2717C134.856 46.3715 134.242 47.3688 133.45 47.5546C133.302 47.5898 133.149 47.5905 133 47.5566C132.852 47.5228 132.714 47.4552 132.595 47.359C132.436 47.2172 132.417 47.095 132.436 47.0853Z" fill="#6F4439"/>
<path d="M125.789 22.3311C126.206 22.5585 126.569 22.8756 126.852 23.26C127.378 24.0129 127.557 25.4453 127.195 27.0489L127.166 27.1858L127.296 27.2201C128.071 27.443 128.785 27.844 129.381 28.3918C129.978 28.9396 130.441 29.6195 130.736 30.3784C130.893 30.8061 130.981 31.2568 130.997 31.7131C130.975 32.1987 130.911 32.6815 130.803 33.1553C130.691 33.6674 130.615 34.187 130.576 34.71C130.53 35.2801 130.672 35.8497 130.982 36.3283C131.639 37.3745 132.711 37.8976 133.634 38.4061C134.549 38.8302 135.388 39.4051 136.117 40.1075C137.314 41.342 138.004 42.9892 138.049 44.7178C138.072 45.887 137.81 47.0439 137.286 48.0863C136.919 48.8295 136.61 49.1815 136.644 49.201C136.677 49.2206 136.731 49.1277 136.876 48.9615C137.079 48.7106 137.26 48.4423 137.417 48.1597C138.01 47.1102 138.321 45.9219 138.32 44.7129C138.314 42.9021 137.618 41.1634 136.378 39.8581C135.629 39.123 134.763 38.5198 133.818 38.0736C132.895 37.5847 131.885 37.047 131.315 36.118C130.726 35.282 131.011 34.2016 131.18 33.2238C131.291 32.7259 131.354 32.2183 131.369 31.7082C131.355 31.2057 131.255 30.7095 131.074 30.2415C130.757 29.4357 130.258 28.7167 129.616 28.1425C128.974 27.5684 128.207 27.1552 127.378 26.9365L127.48 27.1076C127.823 25.4258 127.591 23.9444 126.997 23.1622C126.78 22.859 126.493 22.614 126.161 22.4484C126.044 22.3895 125.918 22.3499 125.789 22.3311Z" fill="#455A64"/>
<path d="M134.419 49.1622C134.001 48.6964 133.48 48.3393 132.897 48.121H133.018C132.91 48.0909 132.8 48.0696 132.689 48.0574C132.491 47.995 132.281 47.9746 132.074 47.9973C131.868 48.02 131.668 48.0854 131.487 48.1894C130.815 48.4217 130.254 48.9017 129.917 49.5337C129.651 50.0944 129.542 50.7183 129.602 51.3373C129.663 51.9563 129.89 52.5466 130.26 53.0436C130.525 53.4957 130.92 53.8556 131.392 54.0758C131.864 54.2961 132.391 54.3664 132.903 54.2775C133.415 54.1885 133.889 53.9445 134.261 53.5776C134.633 53.2107 134.887 52.7382 134.988 52.2224C135.155 51.7049 135.19 51.1533 135.09 50.6185C134.991 50.0837 134.76 49.5828 134.419 49.1622Z" fill="#455A64"/>
<path d="M70.3516 98.4033C70.3516 98.4033 71.8008 97.6358 73.1244 97.9144C74.448 98.1931 79.1579 101.337 79.1579 101.337L85.7325 103.547L82.8631 115.984L78.2449 113.877L70.3516 117.734V98.4033Z" fill="#DC8669"/>
<path d="M58.2958 101.338C58.2958 101.338 61.8899 100.878 63.1942 100.218C64.4985 99.5579 67.5998 96.7712 68.2471 96.825C68.8944 96.8788 72.6962 97.8566 72.6962 97.8566L70.2808 100.218C70.2808 100.218 74.9859 103.107 76.3917 104.168C77.7974 105.229 82.1885 109.996 82.3962 111.164C82.6039 112.333 82.2465 113.697 81.6958 114.152C81.1451 114.606 79.1452 113.697 79.1452 113.697C79.223 114.056 79.2226 114.428 79.1442 114.786C79.0658 115.145 78.9112 115.483 78.6911 115.775C77.9423 116.787 76.1888 116.435 76.1888 116.435C76.1888 116.435 76.039 118.107 75.2226 118.39C74.4062 118.674 72.6189 117.779 72.6189 117.779C72.6189 117.779 72.0778 119.202 71.4209 119.354C70.7639 119.505 68.9137 118.376 68.9137 118.376C68.9137 118.376 60.9044 112.548 59.1026 111.688C57.3007 110.827 56.75 110.773 56.75 110.773L58.2958 101.338Z" fill="#FFBF9D"/>
<path d="M72.6797 117.789C72.6459 117.789 72.6217 117.647 72.5396 117.437C72.4228 117.157 72.2872 116.886 72.1339 116.625C71.8786 116.27 71.6707 115.882 71.5156 115.472C71.8688 115.743 72.1521 116.097 72.3416 116.503C72.5089 116.776 72.6313 117.075 72.7038 117.388C72.7521 117.642 72.7135 117.789 72.6797 117.789Z" fill="#FF9A6C"/>
<path d="M76.0018 116.812C75.6319 116.325 75.2947 115.814 74.9923 115.282C74.4465 114.436 73.8572 113.874 73.9007 113.815C74.4384 114.134 74.8833 114.591 75.1903 115.14C75.5642 115.64 75.8397 116.207 76.0018 116.812Z" fill="#FF9A6C"/>
<path d="M79.1957 113.877C79.1233 113.877 78.9011 113.017 78.3456 112.073C77.7902 111.13 77.1574 110.494 77.2057 110.44C77.7781 110.813 78.243 111.333 78.5533 111.946C78.9304 112.522 79.1519 113.188 79.1957 113.877Z" fill="#FF9A6C"/>
<path d="M76.8769 107.564C77.0718 107.989 77.163 108.455 77.143 108.923C77.2044 109.388 77.1546 109.861 76.9979 110.302C76.9178 109.85 76.887 109.391 76.9059 108.933C76.845 108.48 76.8352 108.02 76.8769 107.564Z" fill="#FF9A6C"/>
<path d="M65.2578 103.001C65.2578 103.001 66.5088 98.9485 66.958 98.4401C67.4072 97.9317 72.7541 97.8535 72.7541 97.8535L72.8894 100.215L71.962 101.192L69.9575 101.06C69.9575 101.06 68.7113 104.419 65.2578 103.001Z" fill="#DC8669"/>
<path d="M59.2844 111.681C59.2844 111.681 58.7675 112.087 59.2844 113.05C59.8013 114.013 61.2167 113.324 61.6611 113.05C61.6611 113.05 60.98 114.654 61.8447 115.157C62.4297 115.466 63.0913 115.596 63.748 115.529C63.748 115.529 63.6997 116.507 64.9267 117.132C66.1537 117.758 66.4677 117.132 66.4677 117.132C66.4677 117.132 66.6029 118.716 68.0087 118.873C68.5145 118.981 69.0409 118.928 69.5159 118.721L68.9748 118.408C68.9748 118.408 70.0907 115.896 69.4579 115.157C69.2397 114.936 68.9772 114.764 68.6881 114.654C68.3991 114.543 68.09 114.497 67.7816 114.517C67.7816 114.517 68.057 113.026 67.2503 112.61C67.0693 112.497 66.8666 112.425 66.6558 112.398C66.445 112.371 66.2309 112.39 66.0279 112.453C65.8249 112.517 65.6375 112.623 65.4784 112.766C65.3194 112.908 65.1922 113.084 65.1054 113.28C65.1054 113.28 65.0136 111.647 63.8349 111.681C63.155 111.691 62.5055 111.968 62.0234 112.454L59.2844 111.681Z" fill="#DC8669"/>
<path d="M65.0909 113.278C64.9895 113.717 64.8059 114.132 64.55 114.5C64.3581 114.907 64.0889 115.27 63.7578 115.571C63.9057 115.151 64.1088 114.753 64.3616 114.388C64.5538 113.986 64.7991 113.613 65.0909 113.278Z" fill="#6F4439"/>
<path d="M67.7936 114.56C67.5803 115.492 67.1037 116.341 66.4219 117.004C66.6086 116.575 66.8333 116.164 67.0933 115.777C67.2887 115.35 67.5231 114.942 67.7936 114.56Z" fill="#6F4439"/>
<path d="M52.0631 133.064H44.4692L42.6094 159.856L50.3627 159.705C51.6621 155.451 53.5896 133.949 53.5896 133.949L52.0631 133.064Z" fill="#263238"/>
<path d="M9.07445 133.064C9.07445 133.064 4.21476 144.598 4.69783 149.267C5.1809 153.936 7.48998 159.856 7.48998 159.856L45.8265 159.798C46.5108 157.015 47.0318 154.194 47.3868 151.349C48.1984 145.58 50.3818 133.064 50.3818 133.064H9.07445Z" fill="#263238"/>
<path d="M44.1789 61.5615C44.1789 61.5615 48.8405 80.7851 49.4926 85.2585C50.7051 93.4623 55.2895 128.013 54.647 131.054C54.0045 134.095 53.6132 137.268 53.6132 137.268C53.6132 137.268 15.3927 134.823 11.2866 135.2C7.18047 135.576 5.43658 135.444 4.44146 130.692C3.44633 125.94 4.47044 101.265 3.59609 95.3005C2.72173 89.3359 2.7169 86.4417 2.38358 77.5779C2.08891 69.8973 3.83279 63.7322 7.42683 59.2881C11.0209 54.844 19.0205 50.3412 19.0205 50.3412L21.8513 46.1562L42.3915 56.5454L42.7393 53.3431L43.5895 58.2565L44.1789 61.5615Z" fill="#455A64"/>
<g opacity="0.3">
<path d="M53.5538 114.791C53.2157 113.931 52.1336 113.715 51.2254 113.613C42.7282 112.635 33.8784 110.508 27.6709 104.558C25.2555 102.231 23.3233 99.4151 21.4828 96.5893C17.4491 90.4194 13.657 84.0881 9.86491 77.7568L6.9375 78.8862C8.73935 87.8233 10.5171 94.2914 13.459 101.615C16.4009 108.939 18.6809 116.048 26.1347 118.448C30.9654 119.998 40.1003 118.81 45.1436 118.409C47.2525 118.31 49.3449 117.982 51.3848 117.431C52.0074 117.278 52.5863 116.98 53.0756 116.561C53.3146 116.343 53.4867 116.061 53.5715 115.747C53.6563 115.433 53.6502 115.101 53.5538 114.791Z" fill="black"/>
</g>
<path d="M11.458 57.3945C4.8303 58.4212 0.033409 68.033 0.758015 73.8216C0.815983 74.2714 -2.39644 114.537 4.66123 117.749C10.2504 120.292 30.6456 118.37 40.109 117.823C42.7213 117.671 45.2847 117.04 47.6738 115.96L53.6059 113.281C53.6059 113.315 58.625 112.171 58.625 112.171C58.625 112.171 60.3255 108.103 58.2676 100.667L48.6062 101.083H24.5347C24.2254 100.583 23.7628 100.199 23.2177 99.9894C22.6726 99.7802 22.0748 99.7572 21.5156 99.924L24.0903 73.0345" fill="#455A64"/>
<path d="M24.0834 73.0188C24.0834 73.0188 24.0834 73.1802 24.0544 73.5077C24.0254 73.8353 23.9867 74.2802 23.9336 74.8815C23.8225 76.0989 23.6583 77.8883 23.4505 80.1959C23.0158 84.8258 22.3878 91.5482 21.6004 99.9279L21.4989 99.835C22.059 99.7019 22.6438 99.7205 23.1945 99.8888C23.7803 100.098 24.2791 100.501 24.6099 101.033L24.5326 100.989H40.1551C42.9811 100.989 45.9133 100.989 48.9325 100.989L58.251 100.588H58.3427L58.3717 100.681C58.8877 102.522 59.2116 104.413 59.3379 106.323C59.5158 108.325 59.3057 110.342 58.7195 112.263V112.322H58.6519L55.9902 112.898L54.6521 113.197L53.9758 113.343L53.628 113.412C53.6022 113.414 53.5765 113.407 53.5542 113.394C53.5318 113.381 53.5138 113.362 53.5024 113.338C53.493 113.32 53.4882 113.3 53.4882 113.28C53.4882 113.259 53.493 113.239 53.5024 113.221H53.4637L53.3816 113.26L53.2222 113.329C52.3523 113.707 51.5039 114.135 50.6812 114.61C50.3096 114.852 49.9205 115.067 49.517 115.25L48.2611 115.822C46.5318 116.652 44.7034 117.252 42.8217 117.607C41.8642 117.785 40.8958 117.898 39.9233 117.944L37.0248 118.13C30.2618 118.589 23.6776 119.064 17.2914 119.137C14.1543 119.218 11.0156 119.066 7.90049 118.682C7.13802 118.573 6.38414 118.41 5.64455 118.193C5.27407 118.086 4.9123 117.951 4.56247 117.787C4.21341 117.608 3.89922 117.366 3.63497 117.074C3.14045 116.489 2.73948 115.829 2.44662 115.118C2.1555 114.427 1.91177 113.716 1.71718 112.991C1.02019 110.179 0.575566 107.309 0.388738 104.416C0.161695 101.61 0.0650838 98.8768 0.0216074 96.2367C-0.0556839 90.9615 0.0844107 86.0432 0.28247 81.5697C0.379084 79.3257 0.499847 77.1941 0.625446 75.1749C0.649599 74.686 0.707567 74.1629 0.693075 73.7082C0.641428 73.2212 0.623672 72.731 0.639937 72.2415C0.673195 71.3141 0.796165 70.3921 1.00708 69.489C1.70486 66.4998 3.08649 63.7183 5.04071 61.3683C6.25078 59.8608 7.80165 58.6702 9.56225 57.8972C10.0219 57.7082 10.4971 57.561 10.9825 57.4571L11.4656 57.374L10.9825 57.4816C10.5024 57.5983 10.0324 57.7536 9.57675 57.946C7.83471 58.7321 6.30291 59.9271 5.10834 61.4319C3.16058 63.7797 1.78548 66.5581 1.09402 69.5428C0.886714 70.4364 0.766974 71.3485 0.73655 72.2659C0.72229 72.7442 0.741667 73.2229 0.794523 73.6984C0.794523 74.2167 0.751045 74.6762 0.731722 75.2042C0.612564 77.2218 0.503072 79.3517 0.403237 81.5942C0.219671 86.0774 0.0892408 90.9908 0.176194 96.2612C0.224501 98.8964 0.325945 101.639 0.552988 104.421C0.746839 107.299 1.19302 110.154 1.88626 112.952C2.29204 114.355 2.78477 115.817 3.75574 116.932C4.0001 117.205 4.29147 117.43 4.61561 117.597C4.95225 117.755 5.30127 117.884 5.65904 117.983C6.38751 118.198 7.13006 118.362 7.88117 118.472C10.9853 118.851 14.1127 118.999 17.2382 118.917C23.6148 118.839 30.2039 118.364 36.9572 117.905C38.8895 117.748 40.8507 117.748 42.7251 117.387C44.5932 117.035 46.4086 116.44 48.1258 115.617L49.4494 115.025C49.9041 114.824 50.3703 114.651 50.8455 114.507C51.7123 114.221 52.5609 113.881 53.3864 113.49L53.5458 113.422L53.6231 113.387H53.6618C53.6183 113.358 53.7584 113.451 53.57 113.319C53.5942 113.319 53.657 113.358 53.6763 113.27C53.6706 113.246 53.6568 113.225 53.6373 113.211C53.6179 113.197 53.594 113.19 53.57 113.192L53.9033 113.123L54.5748 112.982L55.9129 112.683L58.5601 112.087L58.4732 112.16C59.0432 110.275 59.2483 108.296 59.077 106.333C58.9499 104.439 58.626 102.564 58.1109 100.74L58.2268 100.823L48.918 101.165C45.8988 101.189 42.9666 101.165 40.1406 101.165H24.5133H24.465L24.4408 101.121C24.1325 100.623 23.6682 100.244 23.1221 100.045C22.5991 99.888 22.0447 99.8712 21.5134 99.9964L21.3975 100.021V99.9035C22.2139 91.5237 22.8709 84.8062 23.3298 80.1764C23.5616 77.8687 23.7404 76.0842 23.8612 74.8669L24.0061 73.4931C24.064 73.1753 24.0834 73.0188 24.0834 73.0188Z" fill="#263238"/>
<path d="M42.4587 58.139C42.3007 58.0695 42.1474 57.9895 41.9998 57.8995L40.7342 57.1612L40.8259 57.1221C40.5747 58.403 40.3429 60.2853 39.9081 62.544L39.8791 62.6907L39.7535 62.6125C37.8889 61.4244 35.6522 60.0653 33.2707 58.6084C31.493 57.5279 29.8313 56.4425 28.2999 55.5039C26.7686 54.5652 25.358 53.7634 24.1745 53.0936L21.3679 51.5144L20.6046 51.0793C20.5127 51.0323 20.4253 50.9767 20.3438 50.9131C20.4423 50.9447 20.5377 50.9857 20.6288 51.0353L21.4113 51.4264C22.0876 51.7784 23.0634 52.2918 24.2566 52.942C25.4498 53.5923 26.8652 54.4087 28.4159 55.3083L33.3963 58.3982C35.7779 59.8649 38.0096 61.224 39.8646 62.4316L39.7052 62.5C40.1496 60.2609 40.4202 58.3737 40.71 57.0977V57.0146L40.7776 57.0586L42.0143 57.8359C42.1709 57.9236 42.3196 58.025 42.4587 58.139Z" fill="#263238"/>
<g opacity="0.3">
<path d="M23.1016 52.4287L33.5697 60.3245C35.8739 62.06 38.2313 63.8299 40.9655 64.7246C40.9172 62.2703 40.8673 59.816 40.8158 57.3617L39.7433 62.5441L23.1016 52.4287Z" fill="black"/>
</g>
<path d="M53.134 113.606C53.0954 113.446 53.0791 113.281 53.0856 113.117C53.0856 112.74 53.0567 112.291 53.0373 111.763C52.9987 110.623 52.9552 109.044 52.8103 107.314C52.6654 105.583 52.448 104.023 52.2451 102.913C52.0422 101.804 51.8731 101.109 51.9118 101.1C51.9904 101.245 52.0474 101.402 52.0809 101.564C52.1775 101.872 52.2886 102.322 52.419 102.879C52.7327 104.339 52.9474 105.819 53.0615 107.309C53.2064 109.049 53.2257 110.633 53.2161 111.777C53.2161 112.349 53.2161 112.809 53.1823 113.131C53.1874 113.291 53.1712 113.451 53.134 113.606Z" fill="#263238"/>
<path d="M19.6425 68.0979C19.599 68.0979 19.4155 67.4917 19.0001 66.5483C17.913 64.0744 16.2002 61.9346 14.0347 60.3449C13.2088 59.7387 12.6485 59.4258 12.6726 59.3672C12.8173 59.4074 12.9555 59.4683 13.0832 59.5481C13.4492 59.7415 13.8026 59.9587 14.141 60.1982C16.4017 61.7342 18.1536 63.9229 19.1691 66.4798C19.3229 66.862 19.452 67.2539 19.5555 67.653C19.6027 67.7971 19.6319 67.9465 19.6425 68.0979Z" fill="#263238"/>
<path d="M85.9209 102.399C83.9306 101.959 110.258 108.984 110.48 109.023L122.982 104.965L112.243 127.455L82.4766 117.423L85.9209 102.399Z" fill="#F4A261"/>
<g opacity="0.3">
<path d="M97.776 105.631L95.5249 105.024L92.9453 120.923L97.4137 122.429L97.776 105.631Z" fill="black"/>
</g>
<path d="M111.156 78.6529L111.968 68.3127L132.349 60.4561L133.073 64.3135L119.19 70.8403L111.156 78.6529Z" fill="#E0E0E0"/>
<path d="M134.12 66.1253C134.12 66.1253 139.323 74.3779 140.922 80.5821C142.641 87.2654 141.154 99.0723 141.154 99.0723L135.284 125.742C136.066 126.777 136.583 127.991 136.791 129.277C137.023 131.203 134.936 133.349 134.936 133.349C134.936 133.349 134.023 132.797 137.506 139.118C140.989 145.44 141.173 159.862 141.173 159.862H89.3828C91.8465 147.64 96.8897 128.206 96.8897 127.883C96.8897 127.561 96.9139 114.409 96.9139 114.409C96.9139 114.409 96.6868 101.663 97.8462 97.0532C99.0056 92.4428 109.836 75.5415 115.048 71.2588C120.584 66.7022 133.072 62.0332 133.072 62.0332L134.12 66.1253Z" fill="#F4A261"/>
<path d="M99.7702 140.666C99.6108 140.109 103.635 133.523 103.635 133.523L126.648 137.097L128.252 143.072L99.7702 140.666Z" fill="#F4A261"/>
<path d="M99.7656 140.664C99.8138 140.66 99.8623 140.66 99.9105 140.664L100.34 140.694L101.968 140.816L107.987 141.305L128.247 142.977L128.136 143.094C127.745 141.628 127.339 140.132 126.924 138.582C126.789 138.093 126.658 137.604 126.533 137.115L126.62 137.193L103.606 133.59L103.683 133.556C102.35 135.736 101.321 137.496 100.654 138.723C100.316 139.335 100.075 139.814 99.925 140.146C99.8674 140.269 99.8205 140.396 99.785 140.528C99.7773 140.573 99.7773 140.619 99.785 140.664C99.785 140.664 99.7608 140.464 99.9105 140.132C100.06 139.799 100.278 139.31 100.601 138.689C101.253 137.452 102.258 135.683 103.577 133.492L103.601 133.453H103.65L126.673 136.993H126.74V137.056C126.866 137.545 126.996 138.034 127.132 138.523C127.547 140.068 127.953 141.588 128.339 143.036L128.373 143.168H128.228L107.915 141.412L101.92 140.875L100.311 140.723L99.9009 140.684L99.7656 140.664Z" fill="#263238"/>
<path d="M134.128 66.1221L133.988 66.1661L133.562 66.2687C133.195 66.3568 132.645 66.4887 131.944 66.6745C130.543 67.0412 128.514 67.5937 126.099 68.4835C125.495 68.7084 124.867 68.9724 124.23 69.2413C123.906 69.3782 123.582 69.5248 123.263 69.6911C123.104 69.7693 122.935 69.8475 122.78 69.9355C122.626 70.0235 122.462 70.1164 122.297 70.224C121.052 71.1686 119.899 72.2311 118.853 73.3969C116.602 75.8023 114.302 78.589 111.945 81.5469C109.588 84.5047 107.419 87.3795 105.472 90.0049C104.506 91.32 103.583 92.5765 102.738 93.7596C101.935 94.8307 101.205 95.9562 100.554 97.1282C99.6547 98.8261 98.8891 100.593 98.2645 102.413C98.0423 103.054 97.8829 103.552 97.7814 103.88C97.7331 104.041 97.6945 104.168 97.6607 104.266C97.6491 104.311 97.6345 104.355 97.6172 104.398C97.6197 104.352 97.6278 104.306 97.6413 104.261C97.6655 104.163 97.6993 104.031 97.7428 103.87C97.8346 103.523 97.9843 103.019 98.1969 102.374C98.7894 100.538 99.5361 98.757 100.429 97.0499C101.074 95.8687 101.799 94.7335 102.598 93.6521C103.438 92.4689 104.346 91.2076 105.317 89.8875C107.25 87.2573 109.428 84.3825 111.781 81.4149C114.133 78.4473 116.447 75.6703 118.713 73.26C119.773 72.088 120.943 71.0221 122.205 70.0773C122.355 69.9648 122.529 69.8768 122.689 69.7791C122.848 69.6813 123.022 69.6177 123.172 69.5346C123.5 69.3733 123.829 69.2266 124.138 69.0897C124.785 68.8061 125.413 68.5617 126.022 68.3417C127.951 67.6504 129.915 67.0645 131.906 66.5865C132.606 66.4105 133.162 66.2932 133.533 66.215L133.963 66.1319L134.128 66.1221Z" fill="#263238"/>
<path d="M130.899 131.069C130.68 130.974 130.469 130.863 130.266 130.736C129.861 130.516 129.3 130.169 128.6 129.724C126.818 128.564 125.134 127.256 123.566 125.813C122.022 124.395 120.6 122.846 119.315 121.183C118.832 120.553 118.455 120.025 118.214 119.653C118.076 119.469 117.954 119.273 117.852 119.066C118.006 119.24 118.149 119.423 118.281 119.614C118.547 119.971 118.938 120.484 119.441 121.105C120.752 122.734 122.181 124.262 123.716 125.676C125.28 127.097 126.941 128.404 128.687 129.588C129.363 130.047 129.919 130.409 130.31 130.648C130.516 130.774 130.713 130.914 130.899 131.069Z" fill="#263238"/>
<g opacity="0.3">
<path d="M100.469 140.731L101.164 143.073L127.226 142.99L100.469 140.731Z" fill="black"/>
</g>
<path d="M112.627 85.515L113.11 123.649L106.719 159.828H123.515C123.515 159.828 130.93 132.572 132.693 126.646C134.399 120.887 136.949 91.9343 137.176 90.492C137.268 89.9347 139.065 79.9318 133.795 75.209" fill="#F4A261"/>
<path d="M133.759 75.2539L134.073 75.5668C134.18 75.6695 134.31 75.8015 134.46 75.9579C134.537 76.0361 134.624 76.1144 134.706 76.2121L134.948 76.5397C135.972 77.8861 136.683 79.4485 137.03 81.1109C137.612 83.728 137.746 86.4268 137.426 89.0898C137.353 89.872 137.199 90.6689 137.126 91.4952C137.054 92.3214 136.962 93.1819 136.875 94.0668L136.324 99.6549C135.933 103.566 135.494 107.868 134.962 112.474C134.697 114.777 134.407 117.158 134.064 119.607C133.899 120.834 133.706 122.076 133.499 123.327C133.392 123.958 133.267 124.589 133.146 125.22C133.025 125.85 132.856 126.491 132.663 127.116C129.885 137.178 126.827 148.257 123.615 159.907L123.586 160H106.562L106.591 159.853C108.954 146.511 111.137 134.196 113.002 123.675C112.867 112.122 112.76 102.588 112.683 95.9344C112.654 92.6148 112.625 90.0187 112.611 88.2391C112.611 87.3591 112.611 86.6844 112.611 86.2199C112.611 85.7555 112.611 85.5306 112.611 85.5306C112.611 85.5306 112.611 85.7653 112.635 86.2199C112.659 86.6746 112.659 87.3591 112.678 88.2391C112.707 90.0187 112.751 92.6148 112.804 95.9344C112.905 102.588 113.04 112.122 113.214 123.675C111.359 134.215 109.195 146.531 106.843 159.878L106.722 159.731H123.518L123.398 159.824C126.624 148.173 129.677 137.095 132.47 127.038C132.643 126.408 132.793 125.787 132.953 125.161C133.112 124.535 133.199 123.904 133.305 123.279C133.513 122.022 133.706 120.785 133.875 119.563C134.223 117.118 134.513 114.738 134.788 112.435C135.325 107.829 135.779 103.537 136.18 99.6207L136.745 94.0326C136.837 93.1526 136.923 92.297 137.01 91.4659C137.097 90.6347 137.242 89.8329 137.32 89.0605C137.645 86.411 137.526 83.7251 136.967 81.1158C136.63 79.463 135.937 77.9057 134.938 76.5544L134.701 76.2268C134.624 76.129 134.537 76.0459 134.465 75.9677L134.088 75.5668C133.856 75.3615 133.759 75.2539 133.759 75.2539Z" fill="#263238"/>
<path d="M129.275 74.1382C129.275 74.1871 128.473 73.9915 127.179 73.9817C125.49 73.9652 123.819 74.3347 122.291 75.0627C120.763 75.7907 119.417 76.8584 118.353 78.1863C117.537 79.2032 117.179 79.9463 117.141 79.9219C117.193 79.7357 117.271 79.558 117.373 79.3939C117.618 78.9319 117.899 78.4905 118.213 78.0738C119.261 76.6828 120.623 75.5672 122.186 74.821C123.749 74.0747 125.466 73.7198 127.193 73.7862C127.712 73.8066 128.229 73.8671 128.739 73.9671C128.924 74.0022 129.104 74.0597 129.275 74.1382Z" fill="#263238"/>
</svg>
