<svg width="169" height="161" viewBox="0 0 169 161" fill="none" xmlns="http://www.w3.org/2000/svg">
<path d="M131.92 53.4857C140.684 45.5822 150.102 35.6701 150.233 29.7472C146.162 29.6538 145.23 29.7472 142.568 31.7698C140.2 33.5728 130.479 45.8998 127.183 48.0345C122.819 49.1322 114.968 50.4121 111.187 50.4822C110.518 50.4893 109.869 50.2499 109.364 49.8095C107.998 48.6324 106.935 48.6698 105.448 47.9411C104.283 47.3619 103.83 46.6986 103.583 46.9041C103.336 47.1097 102.861 47.9645 103.509 48.9127C103.934 49.4682 104.435 49.9618 104.996 50.3794C103.589 50.2188 102.211 49.8619 100.902 49.3191C97.7649 48.0579 96.203 48.4503 97.4572 52.5889C98.2404 55.1766 100.474 56.7415 106.781 56.9049C109.1 57.0113 111.423 56.9505 113.733 56.7228C118.348 56.1202 123.654 56.0268 127.421 55.5503C129.094 55.3342 130.663 54.6143 131.92 53.4857Z" fill="#FFB3B2"/>
<path d="M150.663 29.4919C147.651 28.936 144.052 29.7254 141.651 32.0563C139.25 34.3872 134.047 40.4643 134.047 40.4643C134.047 40.4643 136.55 45.1681 140.317 46.0976L144.047 42.0197L150.663 29.4919Z" fill="#FFB647"/>
<path opacity="0.1" d="M150.663 29.4919C147.651 28.936 144.052 29.7254 141.651 32.0563C139.25 34.3872 134.047 40.4643 134.047 40.4643C134.047 40.4643 136.55 45.1681 140.317 46.0976L144.047 42.0197L150.663 29.4919Z" fill="black"/>
<path d="M167.441 141.328H162.094V149.129H167.441V141.328Z" fill="#FFB3B2"/>
<path d="M148.633 131.673L143.289 131.857L143.557 139.654L148.901 139.469L148.633 131.673Z" fill="#FFB3B2"/>
<path d="M167.088 65.165C167.088 70.3032 167.75 103.375 167.75 103.375C167.876 104.851 169.252 107.579 168.953 113.217C168.548 120.896 167.886 142.233 167.886 142.233C167.886 142.233 165.377 144.723 161.825 142.233C161.825 142.233 156.985 113.245 156.025 105.631C155.191 98.9885 153.769 80.944 153.769 80.944L151.046 102.604C151.046 102.604 151.918 107.597 152.114 111.124C152.309 114.651 148.971 134.582 148.971 134.582C148.106 135.126 147.113 135.432 146.092 135.472C145.071 135.511 144.058 135.282 143.153 134.806C143.153 134.806 141.102 105.5 140.565 102.3C140.029 99.1006 142.095 65.165 142.095 65.165H167.088Z" fill="#37474F"/>
<path d="M159.031 29.7341C159.432 29.8322 161.731 30.3741 163.917 30.9533C164.824 31.1928 165.626 31.7265 166.198 32.4711C166.77 33.2156 167.079 34.129 167.078 35.0685V65.1644C163.348 69.2516 150.257 71.1574 142.07 65.1644V39.0483C142.07 34.877 144.401 29.8649 150.775 29.4912L159.031 29.7341Z" fill="#EBEBEB"/>
<path d="M160.847 8.37885C161.278 8.32817 161.714 8.37673 162.123 8.52084C162.532 8.66494 162.902 8.90077 163.206 9.2103C164.218 10.2473 164.008 12.1671 163.206 16.5813L160.078 16.941L160.847 8.37885Z" fill="#263238"/>
<path d="M142.593 7.1048C141.92 7.10765 141.253 6.97087 140.635 6.70308C139.675 6.15189 139.423 7.24493 139.95 8.19783C140.299 8.87799 140.816 9.45737 141.452 9.88088C142.087 10.3044 142.821 10.5579 143.582 10.6175C143.61 10.482 144.481 8.16981 144.481 8.16981L142.593 7.1048Z" fill="#263238"/>
<path d="M147.471 17.8795C150.847 17.8795 153.583 15.1377 153.583 11.7556C153.583 8.37356 150.847 5.63184 147.471 5.63184C144.096 5.63184 141.359 8.37356 141.359 11.7556C141.359 15.1377 144.096 17.8795 147.471 17.8795Z" fill="#263238"/>
<path d="M159.37 16.9407C159.836 17.221 160.498 16.3241 161.072 15.7262C161.645 15.1283 163.515 14.3249 164.447 16.2727C165.379 18.2206 163.622 20.9438 162.149 21.411C159.612 22.2097 159.23 20.5795 159.23 20.5795L159.039 29.7489C159.039 29.7489 157.375 33.8221 152.876 34.42C148.377 35.0179 149.304 31.3137 150.782 29.4919V26.6893C150.782 26.6893 148.484 27.0396 147.365 26.8621C145.5 26.5725 144.321 25.1011 143.756 23.0739C142.847 19.8041 142.502 17.1976 143.29 10.8076C144.139 3.80091 152.274 3.72617 156.666 6.49613C161.058 9.2661 159.37 16.9407 159.37 16.9407Z" fill="#FFB3B2"/>
<path d="M159.132 18.2399C159.351 18.1558 160.489 16.2546 161.067 15.7268C161.869 14.9934 160.834 8.37917 160.834 8.37917C160.834 8.37917 161.645 5.87079 160.06 4.20788C158.475 2.54497 155.398 2.80655 153.165 2.74115C150.834 2.65707 148.325 2.51694 145.141 1.12962C141.957 -0.257692 141.715 -0.42118 141.318 0.980149C140.922 2.38148 140.773 5.59519 142.675 7.74857L144.26 8.32779C144.26 8.32779 145.113 9.08917 148.088 9.45352C150.322 9.69749 152.576 9.69749 154.81 9.45352C155.673 9.33674 156.591 9.92063 156.88 12.6672C157.095 14.6571 157.808 18.7397 159.132 18.2399Z" fill="#263238"/>
<path d="M160.828 8.89294L163.626 7.38417C163.536 7.19399 163.409 7.02404 163.252 6.88466C163.094 6.74529 162.911 6.63939 162.711 6.57342C162.512 6.50744 162.301 6.48276 162.092 6.50089C161.883 6.51901 161.68 6.57955 161.495 6.67883C161.121 6.8916 160.844 7.24015 160.72 7.65232C160.596 8.06448 160.635 8.50869 160.828 8.89294Z" fill="#263238"/>
<path d="M150.773 26.7043C150.773 26.7043 154.941 25.8635 156.396 25.0881C157.253 24.64 157.955 23.9432 158.41 23.0889C158.189 23.9362 157.801 24.7304 157.268 25.4244C156.2 26.7884 150.773 27.7927 150.773 27.7927V26.7043Z" fill="#F59595"/>
<path d="M150.773 15.8989C150.78 16.0638 150.835 16.2233 150.931 16.3572C151.027 16.4912 151.161 16.5939 151.315 16.6524C151.469 16.7109 151.637 16.7227 151.797 16.6863C151.958 16.6498 152.104 16.5668 152.218 16.4476C152.332 16.3283 152.409 16.1781 152.438 16.0157C152.467 15.8532 152.448 15.6858 152.383 15.5341C152.318 15.3825 152.21 15.2533 152.072 15.1629C151.934 15.0724 151.773 15.0246 151.608 15.0254C151.383 15.0327 151.169 15.1283 151.013 15.2916C150.857 15.4548 150.771 15.6729 150.773 15.8989Z" fill="#263238"/>
<path d="M151.578 18.0855C151.578 18.1165 151.59 18.1462 151.612 18.1681C151.634 18.19 151.664 18.2023 151.695 18.2023C151.726 18.2023 151.756 18.19 151.777 18.1681C151.799 18.1462 151.812 18.1165 151.812 18.0855C151.812 18.0546 151.799 18.0249 151.777 18.003C151.756 17.9811 151.726 17.9688 151.695 17.9688C151.664 17.9688 151.634 17.9811 151.612 18.003C151.59 18.0249 151.578 18.0546 151.578 18.0855Z" fill="#F59595"/>
<path d="M152.518 17.5524C152.517 17.5681 152.52 17.5838 152.525 17.5985C152.531 17.6132 152.54 17.6266 152.55 17.638C152.561 17.6493 152.574 17.6584 152.589 17.6645C152.603 17.6707 152.619 17.6738 152.635 17.6738C152.667 17.6738 152.698 17.661 152.721 17.6383C152.743 17.6155 152.756 17.5846 152.756 17.5524C152.76 17.5348 152.759 17.5166 152.755 17.4992C152.751 17.4818 152.742 17.4655 152.731 17.4516C152.72 17.4377 152.705 17.4266 152.689 17.4189C152.673 17.4112 152.655 17.4072 152.637 17.4072C152.619 17.4072 152.601 17.4112 152.585 17.4189C152.569 17.4266 152.555 17.4377 152.543 17.4516C152.532 17.4655 152.524 17.4818 152.519 17.4992C152.515 17.5166 152.514 17.5348 152.518 17.5524Z" fill="#F59595"/>
<path d="M152.985 18.4867C152.983 18.5026 152.985 18.5186 152.991 18.5336C152.996 18.5486 153.005 18.5623 153.016 18.5738C153.027 18.5853 153.04 18.5943 153.055 18.6003C153.07 18.6062 153.086 18.6089 153.102 18.6081C153.134 18.6081 153.165 18.5953 153.187 18.5726C153.21 18.5498 153.223 18.5189 153.223 18.4867C153.223 18.4545 153.21 18.4236 153.187 18.4008C153.165 18.378 153.134 18.3652 153.102 18.3652C153.07 18.3664 153.04 18.3798 153.019 18.4024C152.997 18.4251 152.985 18.4553 152.985 18.4867Z" fill="#F59595"/>
<path d="M153.766 17.6839C153.766 17.7166 153.778 17.748 153.801 17.7715C153.824 17.795 153.854 17.8089 153.887 17.8101C153.903 17.8095 153.919 17.8057 153.933 17.7991C153.948 17.7924 153.961 17.7829 153.972 17.7712C153.982 17.7595 153.991 17.7458 153.996 17.7308C154.002 17.7158 154.004 17.6999 154.004 17.6839C154.004 17.6525 153.992 17.6223 153.97 17.5997C153.948 17.577 153.918 17.5637 153.887 17.5625C153.855 17.5625 153.824 17.5753 153.801 17.5981C153.778 17.6208 153.766 17.6517 153.766 17.6839Z" fill="#F59595"/>
<path d="M150.258 17.4322C150.258 17.4632 150.27 17.4929 150.292 17.5148C150.314 17.5367 150.344 17.549 150.375 17.549C150.406 17.549 150.435 17.5367 150.457 17.5148C150.479 17.4929 150.491 17.4632 150.491 17.4322C150.491 17.4012 150.479 17.3715 150.457 17.3496C150.435 17.3277 150.406 17.3154 150.375 17.3154C150.344 17.3154 150.314 17.3277 150.292 17.3496C150.27 17.3715 150.258 17.4012 150.258 17.4322Z" fill="#F59595"/>
<path d="M150.532 18.4869C150.53 18.5028 150.532 18.5188 150.538 18.5338C150.543 18.5488 150.551 18.5626 150.563 18.5741C150.574 18.5855 150.587 18.5946 150.602 18.6005C150.617 18.6064 150.632 18.6091 150.648 18.6083C150.664 18.6084 150.68 18.6052 150.694 18.599C150.709 18.5929 150.722 18.5838 150.733 18.5725C150.744 18.5612 150.752 18.5477 150.758 18.533C150.763 18.5183 150.766 18.5026 150.765 18.4869C150.765 18.4559 150.753 18.4262 150.731 18.4043C150.709 18.3824 150.679 18.3701 150.648 18.3701C150.617 18.3701 150.588 18.3824 150.566 18.4043C150.544 18.4262 150.532 18.4559 150.532 18.4869Z" fill="#F59595"/>
<path d="M149.227 17.8013C149.227 17.8323 149.239 17.862 149.261 17.8839C149.283 17.9058 149.312 17.9181 149.343 17.9181C149.374 17.9181 149.404 17.9058 149.426 17.8839C149.448 17.862 149.46 17.8323 149.46 17.8013C149.46 17.7704 149.448 17.7407 149.426 17.7188C149.404 17.6969 149.374 17.6846 149.343 17.6846C149.312 17.6846 149.283 17.6969 149.261 17.7188C149.239 17.7407 149.227 17.7704 149.227 17.8013Z" fill="#F59595"/>
<path d="M145.594 17.3859C145.594 17.4173 145.606 17.4475 145.628 17.4702C145.65 17.4928 145.679 17.5061 145.711 17.5073C145.727 17.5067 145.742 17.503 145.757 17.4963C145.771 17.4897 145.784 17.4802 145.795 17.4685C145.806 17.4568 145.814 17.443 145.82 17.4281C145.826 17.4131 145.828 17.3972 145.827 17.3812C145.827 17.3498 145.815 17.3196 145.794 17.2969C145.772 17.2743 145.742 17.261 145.711 17.2598C145.695 17.2604 145.679 17.2641 145.664 17.2708C145.65 17.2774 145.637 17.2869 145.626 17.2986C145.615 17.3103 145.607 17.3241 145.601 17.339C145.596 17.354 145.593 17.3699 145.594 17.3859Z" fill="#F59595"/>
<path d="M144.774 17.9605C144.773 17.9763 144.775 17.9919 144.781 18.0067C144.787 18.0214 144.795 18.0348 144.806 18.0461C144.817 18.0575 144.83 18.0665 144.845 18.0727C144.859 18.0788 144.875 18.082 144.89 18.082C144.922 18.0808 144.951 18.0674 144.973 18.0448C144.995 18.0221 145.007 17.9919 145.007 17.9605C145.007 17.9296 144.995 17.8999 144.973 17.878C144.951 17.8561 144.921 17.8438 144.89 17.8438C144.859 17.8438 144.83 17.8561 144.808 17.878C144.786 17.8999 144.774 17.9296 144.774 17.9605Z" fill="#F59595"/>
<path d="M144.141 17.3431C144.14 17.3591 144.143 17.375 144.148 17.39C144.154 17.4049 144.162 17.4187 144.173 17.4304C144.184 17.4421 144.197 17.4516 144.211 17.4582C144.226 17.4649 144.242 17.4686 144.257 17.4692C144.286 17.4636 144.312 17.4482 144.331 17.4256C144.349 17.4031 144.359 17.3747 144.359 17.3455C144.359 17.3162 144.349 17.2879 144.331 17.2653C144.312 17.2427 144.286 17.2273 144.257 17.2217C144.226 17.2229 144.196 17.2362 144.175 17.2589C144.153 17.2815 144.141 17.3117 144.141 17.3431Z" fill="#F59595"/>
<path d="M143.362 17.6273C143.358 17.6449 143.359 17.6631 143.363 17.6805C143.367 17.6979 143.376 17.7142 143.387 17.7281C143.398 17.7419 143.413 17.7531 143.429 17.7608C143.445 17.7685 143.463 17.7725 143.481 17.7725C143.499 17.7725 143.517 17.7685 143.533 17.7608C143.549 17.7531 143.563 17.7419 143.575 17.7281C143.586 17.7142 143.594 17.6979 143.599 17.6805C143.603 17.6631 143.603 17.6449 143.6 17.6273C143.6 17.5959 143.588 17.5657 143.566 17.543C143.544 17.5204 143.515 17.5071 143.483 17.5059C143.451 17.5059 143.42 17.5187 143.397 17.5414C143.375 17.5642 143.362 17.5951 143.362 17.6273Z" fill="#F59595"/>
<path d="M143.227 16.7113C143.226 16.7272 143.229 16.7432 143.234 16.7581C143.24 16.7731 143.248 16.7868 143.259 16.7986C143.27 16.8103 143.283 16.8197 143.297 16.8264C143.312 16.8331 143.327 16.8368 143.343 16.8374C143.372 16.8318 143.398 16.8164 143.417 16.7938C143.435 16.7712 143.445 16.7429 143.445 16.7136C143.445 16.6844 143.435 16.656 143.417 16.6334C143.398 16.6109 143.372 16.5954 143.343 16.5898C143.312 16.5911 143.282 16.6044 143.261 16.627C143.239 16.6497 143.227 16.6799 143.227 16.7113Z" fill="#F59595"/>
<path d="M151.664 12.7424L153.45 13.728C153.571 13.4853 153.595 13.2055 153.518 12.9453C153.441 12.6851 153.268 12.464 153.035 12.3267C152.918 12.2618 152.789 12.221 152.657 12.2068C152.524 12.1926 152.389 12.2053 152.262 12.244C152.134 12.2828 152.015 12.3469 151.912 12.4325C151.81 12.5181 151.725 12.6235 151.664 12.7424Z" fill="#263238"/>
<path d="M151.165 21.6777L149.258 22.3924C149.3 22.5204 149.367 22.6387 149.455 22.7404C149.544 22.842 149.651 22.9248 149.772 22.984C149.893 23.0432 150.024 23.0776 150.159 23.0851C150.293 23.0926 150.427 23.0731 150.554 23.0277C150.811 22.9262 151.018 22.7286 151.132 22.4766C151.246 22.2247 151.258 21.9382 151.165 21.6777Z" fill="#F59595"/>
<path d="M143.863 13.4384L145.495 12.1819C145.418 12.0746 145.321 11.9837 145.209 11.9145C145.096 11.8452 144.972 11.799 144.841 11.7786C144.711 11.7582 144.578 11.7639 144.45 11.7954C144.323 11.827 144.202 11.8837 144.096 11.9624C143.876 12.1314 143.729 12.3789 143.685 12.6537C143.642 12.9285 143.706 13.2095 143.863 13.4384Z" fill="#263238"/>
<path d="M144.359 15.6606C144.367 15.8242 144.422 15.982 144.518 16.1145C144.614 16.247 144.747 16.3483 144.9 16.4059C145.053 16.4635 145.219 16.4748 145.378 16.4385C145.538 16.4021 145.683 16.3197 145.796 16.2014C145.909 16.0831 145.985 15.9342 146.014 15.7731C146.043 15.612 146.025 15.4458 145.961 15.2952C145.897 15.1446 145.79 15.0162 145.654 14.9258C145.517 14.8355 145.357 14.7873 145.194 14.7871C144.968 14.7932 144.754 14.8884 144.598 15.052C144.441 15.2155 144.356 15.4342 144.359 15.6606Z" fill="#263238"/>
<path d="M148.083 14.8662L147.808 19.897L145.188 19.0001L148.083 14.8662Z" fill="#F59595"/>
<path d="M162.091 146.485V145.719C161.578 145.943 160.389 150.488 158.268 152.426C156.58 153.968 154.282 155.748 153.694 157.467C153.107 159.186 156.897 160.241 158.473 159.961C160.305 159.634 163.48 158.345 164.277 157.158C165.074 155.972 165.443 154.197 166.091 153.319C166.739 152.44 168.231 151.45 168.58 150.446C168.776 149.89 168.548 148.666 168.277 147.643C168.025 146.709 167.76 145.653 167.438 145.742C167.438 145.859 167.438 146.326 167.438 146.326C167.046 146.76 165.974 147.185 164.762 147.232C163.979 147.242 162.081 147.073 162.091 146.485Z" fill="#263238"/>
<path d="M143.498 138.002C143.218 138.002 142.995 138.404 142.379 139.067C141.464 139.993 140.402 140.76 139.237 141.337C137.232 142.342 133.339 143.883 131.577 144.682C130.477 145.177 130.528 146.508 131.666 147.265C132.803 148.022 135.549 148.573 138.85 147.83C140.645 147.428 142.985 145.766 144.444 145.854C145.904 145.943 148.696 145.924 149.792 145.172C150.888 144.42 150.445 142.804 150.137 141.435C149.801 139.927 149.316 137.614 148.818 137.699V138.166C148.174 139.137 144.901 139.539 143.489 138.82L143.498 138.002Z" fill="#263238"/>
<path d="M153.772 80.9457C151.003 80.0839 148.456 78.6233 146.312 76.667C146.312 76.667 147.753 79.3622 152.024 81.8706L151.791 96.6032L153.772 80.9457Z" fill="#263238"/>
<path d="M55.9691 53.4837C47.1996 45.5802 37.7635 35.6682 37.6562 29.7452C41.7216 29.6518 42.6587 29.7452 45.3161 31.7678C47.6845 33.5709 57.4051 45.8979 60.7012 48.0326C65.0649 49.1303 72.9206 50.4102 76.697 50.4802C77.3663 50.4873 78.015 50.248 78.5199 49.8076C79.8859 48.6305 80.9488 48.6678 82.4361 47.9392C83.6063 47.3599 84.0538 46.6966 84.3009 46.9022C84.6226 47.1638 85.0235 47.9625 84.3755 48.9107C83.9499 49.4662 83.4494 49.9599 82.8883 50.3775C84.2954 50.2168 85.6732 49.8599 86.9816 49.3171C90.1193 48.0559 91.6811 48.4483 90.4316 52.5869C89.6484 55.1747 87.4105 56.7395 81.1073 56.903C78.7889 57.0094 76.4658 56.9485 74.1561 56.7208C69.5406 56.1182 64.2397 56.0248 60.4727 55.5484C58.7969 55.3349 57.2259 54.6147 55.9691 53.4837Z" fill="#FEA7AA"/>
<path d="M32.646 2.80719H34.0027C37.0939 2.80719 40.0585 4.03752 42.2443 6.22753C44.4301 8.41753 45.658 11.3878 45.658 14.4849V28.3207H31.2054C29.864 28.3195 28.536 28.0536 27.2971 27.5381C26.0583 27.0226 24.9329 26.2678 23.9852 25.3165C23.0376 24.3653 22.2862 23.2364 21.774 21.9942C21.2618 20.7521 20.9988 19.421 21 18.077V14.4756C21 11.3785 22.228 8.40818 24.4138 6.21818C26.5996 4.02818 29.5642 2.79785 32.6553 2.79785L32.646 2.80719Z" fill="#263238"/>
<path d="M9.86076 138.404L10.4202 137.824C9.9913 138.726 8.21036 142.682 8.39219 145.709C8.53671 148.115 8.97029 151.156 8.14976 152.884C7.30125 154.687 3.95384 152.333 2.99344 150.96C1.84655 149.367 0.816221 146.835 1.00737 144.686C1.14257 143.177 1.67405 141.748 1.8279 140.608C1.98175 139.469 1.57615 137.628 2.05635 136.605C2.31743 136.04 3.38972 135.288 4.35012 134.704C5.23126 134.172 6.21497 133.583 6.37815 133.887L5.94923 134.326C5.92592 134.938 6.41545 136.054 7.30591 136.979C7.87469 137.581 9.42252 138.861 9.86076 138.404Z" fill="#F87060"/>
<path opacity="0.1" d="M9.86076 138.404L10.4202 137.824C9.9913 138.726 8.21036 142.682 8.39219 145.709C8.53671 148.115 8.97029 151.156 8.14976 152.884C7.30125 154.687 3.95384 152.333 2.99344 150.96C1.84655 149.367 0.816221 146.835 1.00737 144.686C1.14257 143.177 1.67405 141.748 1.8279 140.608C1.98175 139.469 1.57615 137.628 2.05635 136.605C2.31743 136.04 3.38972 135.288 4.35012 134.704C5.23126 134.172 6.21497 133.583 6.37815 133.887L5.94923 134.326C5.92592 134.938 6.41545 136.054 7.30591 136.979C7.87469 137.581 9.42252 138.861 9.86076 138.404Z" fill="black"/>
<path d="M8.55515 147.859C8.50387 147.121 8.4386 146.387 8.39664 145.705C8.27076 143.589 9.10062 141.034 9.76264 139.357C10.1403 138.423 13.6602 133.392 13.6602 133.392L8.7463 129.188L5.94902 134.327L5.85111 134.425V134.457C5.23105 135.485 4.91869 139.53 4.55038 142.02C4.30795 143.688 4.44315 146.224 5.83713 148.013C7.17982 149.699 8.41995 149.975 8.55515 147.859Z" fill="#FEA7AA"/>
<path d="M39.6393 140.604C39.5631 140.625 39.4955 140.67 39.4461 140.732C39.3968 140.794 39.3681 140.87 39.3642 140.949C39.2989 141.416 39.2244 142.266 39.0845 143.051C38.8933 144.097 38.7022 145.602 38.8887 146.433C39.0752 147.265 41.0286 148.446 42.3433 148.619C43.658 148.792 45.9192 150.02 46.9775 150.955C48.2736 152.094 51.0195 153.01 52.8658 153.033C55.029 153.057 56.726 152.566 57.2202 150.978C57.4253 150.319 56.8845 149.516 54.0919 148.236C54.0919 148.236 52.6933 147.526 51.8774 147.04C47.8353 144.597 46.446 143.191 45.2385 140.646L39.6393 140.604Z" fill="#F87060"/>
<path opacity="0.1" d="M39.6393 140.604C39.5631 140.625 39.4955 140.67 39.4461 140.732C39.3968 140.794 39.3681 140.87 39.3642 140.949C39.2989 141.416 39.2244 142.266 39.0845 143.051C38.8933 144.097 38.7022 145.602 38.8887 146.433C39.0752 147.265 41.0286 148.446 42.3433 148.619C43.658 148.792 45.9192 150.02 46.9775 150.955C48.2736 152.094 51.0195 153.01 52.8658 153.033C55.029 153.057 56.726 152.566 57.2202 150.978C57.4253 150.319 56.8845 149.516 54.0919 148.236C54.0919 148.236 52.6933 147.526 51.8774 147.04C47.8353 144.597 46.446 143.191 45.2385 140.646L39.6393 140.604Z" fill="black"/>
<path d="M46.7704 142.725C46.0902 141.659 45.7056 140.43 45.6562 139.166L45.5676 135.714H39.6094V140.6V141.347C39.945 143.72 42.1782 144 44.0431 145.313C44.9755 145.967 48.6026 148.76 51.0363 149.213C53.0223 149.578 53.7636 148.793 54.0294 148.232C51.4057 146.684 48.9698 144.835 46.7704 142.725Z" fill="#FEA7AA"/>
<path d="M20.38 104.628C17.73 106.983 15.6563 109.917 14.3192 113.204C12.4823 117.889 7.21875 131.617 7.21875 131.617C7.21875 131.617 9.52185 135.667 12.6548 135.943C12.6548 135.943 27.5317 114.021 29.2427 108.897C30.977 106.281 33.1449 93.3983 34.716 84.4859L34.772 84.584L37.448 103.493C36.7557 105.711 36.255 107.985 35.9515 110.289C35.4853 114.927 39.4061 137.381 39.4061 137.381C39.4061 137.381 42.0682 138.783 45.7513 137.545C45.7513 137.545 46.3434 108.266 46.763 102.675C47.4623 93.2909 47.8026 66.8244 46.087 61.2705L21.5408 62.6438C19.5035 68.5387 19.345 72.3036 19.606 78.7684C19.8485 85.4481 20.38 104.628 20.38 104.628Z" fill="#37474F"/>
<path d="M34.7578 84.5843L36.1565 75.8541C36.1565 75.8541 42.0541 74.6256 44.7301 72.1172C44.7301 72.1172 41.9328 75.6158 37.7369 76.7603L36.1704 83.482L37.2381 102.04L34.7578 84.5843Z" fill="#263238"/>
<path d="M29.0994 29.9969C23.5934 30.3752 21.8638 32.636 21.8265 35.9572C21.849 38.6097 22.2944 41.2416 23.1459 43.7533L25.6448 52.2453C25.6448 52.2453 23.5748 56.9538 21.5234 62.6712C31.1554 68.057 43.1791 65.2263 46.0789 61.2979C46.2001 60.4618 45.4542 53.9456 44.9973 49.6856C46.6943 45.4255 47.1419 42.7209 46.4239 39.9043C45.0952 34.6726 39.9389 29.5765 37.6591 29.7586L29.0994 29.9969Z" fill="#F87060"/>
<path opacity="0.1" d="M29.0994 29.9969C23.5934 30.3752 21.8638 32.636 21.8265 35.9572C21.849 38.6097 22.2944 41.2416 23.1459 43.7533L25.6448 52.2453C25.6448 52.2453 23.5748 56.9538 21.5234 62.6712C31.1554 68.057 43.1791 65.2263 46.0789 61.2979C46.2001 60.4618 45.4542 53.9456 44.9973 49.6856C46.6943 45.4255 47.1419 42.7209 46.4239 39.9043C45.0952 34.6726 39.9389 29.5765 37.6591 29.7586L29.0994 29.9969Z" fill="black"/>
<path d="M41.3235 64.3253L32.8338 55.156L21.999 38.667C22.2078 40.3972 22.592 42.1017 23.1459 43.7538L25.6448 52.2459C25.6448 52.2459 23.5748 56.9543 21.5234 62.6718C28.2695 66.432 36.1905 66.1704 41.3235 64.3253Z" fill="#F87060"/>
<path opacity="0.1" d="M41.3235 64.3253L32.8338 55.156L21.999 38.667C22.2078 40.3972 22.592 42.1017 23.1459 43.7538L25.6448 52.2459C25.6448 52.2459 23.5748 56.9543 21.5234 62.6718C28.2695 66.432 36.1905 66.1704 41.3235 64.3253Z" fill="black"/>
<path d="M20.7292 6.77246L22.3982 9.45367C22.2268 9.57166 22.0331 9.65337 21.8291 9.6938C21.625 9.73423 21.4149 9.73253 21.2116 9.68881C21.0082 9.64508 20.8159 9.56025 20.6464 9.43951C20.4768 9.31876 20.3337 9.16464 20.2257 8.98656C20.0138 8.6223 19.948 8.19103 20.0415 7.77999C20.135 7.36895 20.3808 7.00883 20.7292 6.77246Z" fill="#263238"/>
<path d="M18.9062 9.83234L22.0299 9.36523C22.0727 9.5721 22.0725 9.78559 22.0293 9.99237C21.9861 10.1992 21.9008 10.3948 21.7787 10.5671C21.6567 10.7393 21.5005 10.8845 21.3199 10.9936C21.1393 11.1027 20.9382 11.1733 20.7291 11.201C20.3082 11.2501 19.8845 11.1355 19.5453 10.8809C19.2062 10.6262 18.9774 10.2509 18.9062 9.83234Z" fill="#263238"/>
<path d="M41.5964 7.80078C42.8972 8.57151 44.5056 11.8553 44.3471 18.7312C44.2119 24.5607 42.3284 25.9994 41.382 26.4151C40.4356 26.8308 38.608 26.5786 36.8317 26.2796V29.7783C36.8317 29.7783 39.2887 32.637 39.1302 34.2392C38.9717 35.8414 35.5869 36.2244 33.2932 34.6549C31.8035 33.5834 30.5261 32.2433 29.5262 30.7032V22.2485C29.5262 22.2485 28.328 23.8507 26.3652 22.5474C24.4025 21.2442 24.3326 18.0118 25.4701 16.8534C26.6077 15.6949 29.0646 16.0593 29.5262 17.6615C29.5262 17.6615 32.3561 17.7642 36.1278 15.6903C37.5943 14.8987 38.8538 13.7717 39.804 12.4009C40.7542 11.0301 41.3683 9.45404 41.5964 7.80078Z" fill="#FEA7AA"/>
<path d="M37.1904 17.2644C37.1921 17.4082 37.1515 17.5493 37.0737 17.6702C36.9959 17.7911 36.8844 17.8864 36.753 17.9442C36.6216 18.0021 36.4761 18.0199 36.3346 17.9956C36.1932 17.9713 36.062 17.9058 35.9574 17.8073C35.8528 17.7089 35.7793 17.5818 35.7463 17.4418C35.7132 17.3019 35.7219 17.1553 35.7713 17.0203C35.8208 16.8853 35.9087 16.7678 36.0243 16.6825C36.1398 16.5972 36.2778 16.5478 36.4212 16.5404C36.5191 16.5373 36.6168 16.5536 36.7085 16.5883C36.8002 16.623 36.8841 16.6755 36.9556 16.7427C37.027 16.8099 37.0845 16.8906 37.1248 16.9801C37.1651 17.0697 37.1874 17.1663 37.1904 17.2644Z" fill="#263238"/>
<path d="M38.0553 22.2061L39.7523 22.7526C39.7213 22.8662 39.6678 22.9724 39.5949 23.0649C39.5221 23.1574 39.4314 23.2343 39.3283 23.291C39.2252 23.3476 39.1118 23.3829 38.9948 23.3947C38.8778 23.4066 38.7597 23.3947 38.6473 23.3598C38.4187 23.2818 38.2293 23.1179 38.1188 22.9027C38.0084 22.6875 37.9856 22.4378 38.0553 22.2061Z" fill="#7D3336"/>
<path d="M43.1935 15.0176L41.7109 13.9853C41.7737 13.886 41.8558 13.8004 41.9523 13.7337C42.0489 13.6669 42.1579 13.6204 42.2728 13.5968C42.3877 13.5733 42.5062 13.5732 42.6211 13.5966C42.7361 13.62 42.8451 13.6664 42.9417 13.733C43.1433 13.8714 43.2826 14.0835 43.3297 14.3237C43.3768 14.564 43.3279 14.8131 43.1935 15.0176Z" fill="#263238"/>
<path d="M42.8623 16.7459C42.8639 16.8897 42.8234 17.0308 42.7456 17.1517C42.6678 17.2725 42.5563 17.3678 42.4249 17.4257C42.2935 17.4835 42.148 17.5014 42.0065 17.4771C41.8651 17.4527 41.7339 17.3872 41.6292 17.2888C41.5246 17.1903 41.4512 17.0632 41.4181 16.9233C41.3851 16.7833 41.3938 16.6367 41.4432 16.5017C41.4926 16.3667 41.5806 16.2492 41.6961 16.1639C41.8117 16.0786 41.9497 16.0292 42.0931 16.0219C42.191 16.0187 42.2886 16.035 42.3803 16.0697C42.472 16.1044 42.556 16.1569 42.6274 16.2241C42.6989 16.2914 42.7564 16.3721 42.7967 16.4616C42.837 16.5511 42.8593 16.6477 42.8623 16.7459Z" fill="#263238"/>
<path d="M39.2812 16.3164L39.3978 20.7306L41.7149 20.0112L39.2812 16.3164Z" fill="#7D3336"/>
<path d="M36.825 26.2788C34.9601 26.0359 31.1046 24.9288 30.5078 23.4014C30.7461 24.1741 31.2166 24.8544 31.8552 25.3492C33.0067 26.3348 36.825 27.4465 36.825 27.4465V26.2788Z" fill="#7D3336"/>
<path d="M93.9289 107.561L58.0678 86.7935V55.0441L57.3125 54.6097V44.0156L93.9289 65.199V107.561Z" fill="#F87060"/>
<path opacity="0.1" d="M93.9289 107.561L58.0678 86.7935V55.0441L57.3125 54.6097V44.0156L93.9289 65.199V107.561Z" fill="black"/>
<path opacity="0.15" d="M93.9236 75.7883L81.0841 68.3612L81.0795 57.7532L80.1983 57.258L80.1937 67.8474L58.0625 55.0439V56.5667L80.1937 69.3655L80.189 99.6156L81.0888 100.134L81.0841 69.8793L93.9236 77.3064V75.7883Z" fill="black"/>
<path d="M93.9219 107.561L129.587 86.943V55.1562L130.538 54.6097V44.0156L93.9219 65.199V107.561Z" fill="#F87060"/>
<path opacity="0.1" d="M129.587 55.1572L107.652 67.8486L107.647 57.2592L106.766 57.7544V68.3624L93.9219 75.7895V77.3076L106.761 69.8852L106.757 100.135L107.657 99.6167L107.652 69.376L129.587 56.6987V55.1572Z" fill="black"/>
<path d="M130.545 44.0157L93.9289 22.8369L57.3125 44.0157L93.9289 65.1991L130.545 44.0157Z" fill="#F87060"/>
<path opacity="0.2" d="M130.545 44.0157L93.9289 22.8369L57.3125 44.0157L93.9289 65.1991L130.545 44.0157Z" fill="white"/>
<path opacity="0.15" d="M87.7595 44.4365L70.2578 36.5423L71.0364 36.0752L88.6872 44.0207" fill="black"/>
<path opacity="0.15" d="M100.089 44.4365L117.59 36.5423L116.807 36.0752L99.1562 44.0207" fill="black"/>
<path opacity="0.15" d="M107.647 57.2587L94.6541 47.5942V47.5895L93.9222 47.043L93.9175 47.0476V47.043L93.1809 47.5895L93.1855 47.5942L80.1875 57.2587L81.0733 57.7538L93.9175 48.1407L106.766 57.7538L107.647 57.2587Z" fill="black"/>
<path d="M116.817 51.9619V95.3751L107.666 100.672L107.656 57.2589L116.817 51.9619Z" fill="#37474F"/>
<path d="M107.665 100.672L106.766 100.135L107.665 99.6162V100.672Z" fill="#263238"/>
<path d="M71.0469 51.9619V95.3751L80.1986 100.672L80.208 57.2589L71.0469 51.9619Z" fill="#263238"/>
<path d="M80.1875 100.672L81.0873 100.135L80.1875 99.6162V100.672Z" fill="black"/>
<path d="M80.208 57.2578L93.938 47.0468L99.1735 44.0152L116.82 36.0744L107.668 30.7773L93.938 40.9884L88.707 44.0199L71.0469 51.9608L80.208 57.2578Z" fill="#455A64"/>
<path d="M88.6981 44.0215L87.7656 44.4372L90.8473 45.8058L93.1923 47.5902L93.929 47.0437L91.6399 45.3434L88.6981 44.0215Z" fill="#263238"/>
<path d="M107.659 57.2578L91.6488 45.3418L71.0469 36.0744L80.2033 30.7773L96.2271 42.6933L116.82 51.9608L107.659 57.2578Z" fill="#455A64"/>
<path d="M91.06 42.2783C91.06 42.2783 80.3044 51.2235 62.7422 49.1869C62.7422 49.1869 70.2016 54.0775 79.3207 52.9705C79.3207 52.9705 78.0107 56.3056 70.3275 60.3648C70.3275 60.3648 89.5215 60.5423 94.482 44.5765L91.06 42.2783Z" fill="#37474F"/>
<path d="M80.9375 58.3195C86.2523 56.3203 92.052 52.3779 94.4577 44.5911L91.0357 42.293C88.9563 43.8723 86.6827 45.1769 84.2709 46.1746C84.2709 46.1746 88.0006 47.8095 91.8049 46.8006C90.9427 49.3991 89.5229 51.7769 87.6455 53.7669C85.768 55.7569 83.4784 57.3108 80.9375 58.3195Z" fill="#263238"/>
<path d="M67.2148 30.5773C67.2148 30.5773 69.3501 28.0735 75.9004 29.2039C79.8539 29.8906 86.5674 34.5056 89.8868 42.1943C90.3064 43.1659 91.2481 43.4928 91.7516 44.1468C91.8686 44.2932 91.9964 44.4306 92.1339 44.5578L94.2086 44.5812C94.2086 37.3971 90.1852 30.1475 86.3809 25.9529C82.5766 21.7582 76.3106 19.7076 71.8443 19.5488C70.2605 19.4755 68.6819 19.7796 67.2381 20.4363C66.0213 23.8322 65.5178 27.2 67.2148 30.5773Z" fill="#37474F"/>
<path d="M89.4219 41.2271C89.4219 41.2271 93.1516 39.9659 91.6177 33.9775C93.2271 37.2867 94.1034 40.9054 94.1866 44.5856L92.1119 44.5622C91.9744 44.435 91.8466 44.2976 91.7296 44.1512C91.2261 43.4972 90.2844 43.1703 89.8648 42.1987C89.7296 41.8624 89.5757 41.5447 89.4219 41.2271Z" fill="#263238"/>
<path d="M71.0288 35.1788C69.4574 33.9178 68.1569 32.3511 67.2059 30.5731C65.5042 27.1959 66.0077 23.8281 67.2059 20.4229C63.3643 22.1231 61.0705 27.1259 60.2127 31.1664C59.7465 33.4272 59.6905 35.3704 60.0728 36.3046C61.1498 38.8457 67.4576 49.1127 94.4747 44.5911L94.4467 41.7464C87.682 41.326 75.8681 39.2614 71.0288 35.1788Z" fill="#37474F"/>
<path d="M67.2148 30.5773C67.2148 30.5773 66.8931 22.6644 71.8443 19.5488C70.2605 19.4755 68.6819 19.7796 67.2381 20.4363C66.0213 23.8322 65.5178 27.2001 67.2148 30.5773Z" fill="#263238"/>
<path d="M96.797 42.2783C96.797 42.2783 107.553 51.2235 125.115 49.1869C125.115 49.1869 117.655 54.0775 108.536 52.9705C108.536 52.9705 109.846 56.3056 117.53 60.3648C117.53 60.3648 98.3355 60.5423 93.375 44.5765L96.797 42.2783Z" fill="#37474F"/>
<path d="M96.0464 46.792C99.8321 47.801 103.58 46.1661 103.58 46.1661L102.876 45.8484L102.769 45.8017L102.144 45.5075L102.005 45.4421L101.436 45.1571C101.388 45.135 101.341 45.1101 101.296 45.0824C101.114 44.9936 100.942 44.9002 100.769 44.8115L100.629 44.7367L100.163 44.4705L100.028 44.3957L99.5896 44.1435L99.4684 44.0734L99.0581 43.8399L98.9463 43.7745L98.5919 43.5503L98.4894 43.4849L98.177 43.2793L98.0838 43.2186L97.8133 43.0364L97.7341 42.9804L97.5057 42.8216L97.4357 42.7702L97.2539 42.6394L97.1933 42.5927L97.0581 42.4899L96.9975 42.4432L96.9136 42.3825L96.8576 42.3404L96.8296 42.3124L96.797 42.2891L95.6781 43.0411L93.375 44.5872C98.3308 60.5531 117.525 60.3756 117.53 60.3756C107.655 59.9084 97.2819 52.402 96.0464 46.792Z" fill="#263238"/>
<path d="M120.642 30.5773C120.642 30.5773 118.507 28.0735 111.957 29.2039C108.003 29.8906 101.29 34.5056 97.9702 42.1943C97.5506 43.1659 96.6089 43.4928 96.1054 44.1468C95.9884 44.2932 95.8606 44.4306 95.7231 44.5578L93.6484 44.5812C93.6484 37.3971 97.6719 30.1475 101.476 25.9529C105.28 21.7582 111.546 19.7076 116.013 19.5488C117.597 19.4755 119.175 19.7796 120.619 20.4363C121.836 23.8322 122.363 27.2 120.642 30.5773Z" fill="#37474F"/>
<path d="M98.4288 41.2271C98.4288 41.2271 94.6991 39.9659 96.2329 33.9775C94.6235 37.2867 93.7472 40.9054 93.6641 44.5856L95.7387 44.5622C95.8763 44.435 96.0041 44.2976 96.121 44.1512C96.6245 43.4972 97.5663 43.1703 97.9859 42.1987C98.1211 41.8624 98.2749 41.5447 98.4288 41.2271Z" fill="#263238"/>
<path d="M116.821 35.1788C118.392 33.9178 119.693 32.3511 120.644 30.5731C122.346 27.1959 121.842 23.8281 120.644 20.4229C124.485 22.1231 126.779 27.1259 127.637 31.1664C128.103 33.4272 128.159 35.3704 127.777 36.3046C126.7 38.8457 120.392 49.1127 93.375 44.5911L93.403 41.7464C100.168 41.326 111.982 39.2614 116.821 35.1788Z" fill="#37474F"/>
<path d="M120.661 30.5773C120.661 30.5773 120.982 22.6644 116.031 19.5488C117.615 19.4755 119.194 19.7796 120.637 20.4363C121.854 23.8322 122.381 27.2001 120.661 30.5773Z" fill="#263238"/>
<path d="M97.6643 42.7032C97.6347 42.4283 97.5328 42.1663 97.369 41.9439C97.2051 41.7214 96.9853 41.5466 96.7318 41.4373C95.8345 41.1217 94.8842 40.9852 93.9346 41.0356C92.9581 40.9852 91.9821 41.1445 91.072 41.5027C90.8388 41.6151 90.6386 41.786 90.4907 41.9988C90.3429 42.2116 90.2524 42.4591 90.2282 42.7172C90.1303 43.5673 90.0697 45.006 90.6291 45.8235C91.5508 46.6145 92.7305 47.0384 93.9439 47.0146C95.152 47.0409 96.3268 46.6163 97.24 45.8235C97.7948 44.992 97.7389 43.5533 97.6643 42.7032Z" fill="#455A64"/>
<path d="M31.8207 58.2919C22.1934 43.7414 17.5405 31.7787 25.3403 30.7324C27.7226 31.2883 29.401 34.0396 31.4803 40.1727C31.4803 40.1727 35.7462 49.4308 37.6623 53.3919C41.2522 56.274 48.1661 62.7341 51.6487 64.1962C52.2688 64.4484 53.1779 63.9066 53.8073 63.6823C55.5043 63.0891 56.4833 63.5048 58.1384 63.36C59.4345 63.2479 60.0965 62.7948 60.255 63.0751C60.4476 63.3962 60.5066 63.7802 60.4194 64.1445C60.3322 64.5088 60.1058 64.8243 59.7888 65.0229C59.2899 65.4047 58.6969 65.6436 58.0731 65.7143C58.0731 65.7143 58.8564 66.3075 61.8681 66.2982C65.2482 66.2982 66.5629 67.1997 63.8961 70.6002C62.2224 72.7256 59.5743 73.3702 53.6395 71.2308C51.4424 70.4857 49.3017 69.5834 47.2337 68.5309C43.1543 66.2888 44.5996 67.2277 41.392 65.1911C38.7952 63.5422 32.7578 59.7213 31.8207 58.2919Z" fill="#FEA7AA"/>
<path d="M156.068 58.2921C167.518 42.6719 171.751 31.9985 163.947 30.9521C161.569 31.508 159.886 34.264 157.807 40.3971C157.807 40.3971 152.142 49.4357 150.231 53.3968C146.636 56.2788 139.722 62.739 136.244 64.201C135.629 64.4533 134.715 63.9114 134.086 63.6872C132.389 63.094 131.41 63.5097 129.755 63.3649C128.459 63.2528 127.797 62.7997 127.638 63.08C127.445 63.4011 127.386 63.7851 127.474 64.1494C127.561 64.5137 127.787 64.8291 128.104 65.0278C128.603 65.4095 129.196 65.6485 129.82 65.7191C129.82 65.7191 129.037 66.3124 126.025 66.303C122.65 66.303 121.335 67.2045 123.997 70.6051C125.671 72.7304 128.319 73.375 134.254 71.2357C136.451 70.4905 138.591 69.5883 140.659 68.5358C144.743 66.2937 143.293 67.2326 146.501 65.196C149.098 63.5424 155.065 59.6607 156.068 58.2921Z" fill="#FFB3B2"/>
<path d="M162.936 30.6904C162.936 30.6904 165.701 30.6904 167.095 32.0544C168.489 33.4183 169.011 35.9267 167.603 39.7804C166.195 43.634 162.349 49.94 162.349 49.94C162.349 49.94 157.817 50.1876 153.789 46.0957L157.808 38.5939C157.808 38.5939 159.36 32.9466 162.936 30.6904Z" fill="#FFB647"/>
<path opacity="0.1" d="M162.936 30.6904C162.936 30.6904 165.701 30.6904 167.095 32.0544C168.489 33.4183 169.011 35.9267 167.603 39.7804C166.195 43.634 162.349 49.94 162.349 49.94C162.349 49.94 157.817 50.1876 153.789 46.0957L157.808 38.5939C157.808 38.5939 159.36 32.9466 162.936 30.6904Z" fill="black"/>
</svg>
