<svg width="30" height="30" viewBox="0 0 30 30" fill="none" xmlns="http://www.w3.org/2000/svg">
<g id="Component 25" clip-path="url(#clip0_22390_1444)">
<path id="Vector" d="M24.6341 29.4864C18.2178 30.1712 11.7821 30.1712 5.3659 29.4864C2.80746 29.2133 0.786666 27.1925 0.51361 24.6338C-0.171203 18.2176 -0.171203 11.7821 0.51361 5.3659C0.786666 2.80746 2.80746 0.786666 5.3659 0.51361C11.7821 -0.171203 18.2176 -0.171203 24.6338 0.51361C27.1925 0.786666 29.2133 2.80746 29.4864 5.3659C30.1712 11.7821 30.1712 18.2176 29.4864 24.6338C29.2133 27.1925 27.1927 29.2133 24.6341 29.4864Z" fill="url(#paint0_linear_22390_1444)"/>
<path id="Vector_2" d="M15.4376 29.9984C17.1856 29.99 18.9333 29.9307 20.6804 29.8208V17.6409H24.1589L24.5792 13.264H20.6804V10.4847C20.6804 9.87082 21.178 9.37323 21.7918 9.37323H24.5792V4.99609H20.1702C17.5564 4.99609 15.4376 7.11508 15.4376 9.72891V13.264H12.8906V17.6409H15.4376V29.9984Z" fill="white"/>
</g>
<defs>
<linearGradient id="paint0_linear_22390_1444" x1="9.96058" y1="4.21794" x2="17.5484" y2="20.4524" gradientUnits="userSpaceOnUse">
<stop stop-color="#3457A0"/>
<stop offset="1" stop-color="#3B5998"/>
</linearGradient>
<clipPath id="clip0_22390_1444">
<rect width="30" height="30" fill="white"/>
</clipPath>
</defs>
</svg>
