<svg width="30" height="30" viewBox="0 0 30 30" fill="none" xmlns="http://www.w3.org/2000/svg">
<g id="Component 29" clip-path="url(#clip0_22390_1460)">
<path id="Vector" d="M29.4864 5.3659C29.2133 2.80746 27.1927 0.786437 24.6341 0.51361C18.2176 -0.171203 11.7824 -0.171203 5.36613 0.51361C2.80746 0.786666 0.786666 2.80746 0.51361 5.3659C-0.171203 11.7821 -0.171203 18.2176 0.51361 24.6338C0.786666 27.1925 2.80746 29.2133 5.3659 29.4864C11.7821 30.1712 18.2176 30.1712 24.6341 29.4864C27.1927 29.2133 29.2133 27.1925 29.4864 24.6338C30.1712 18.2176 30.1712 11.7824 29.4864 5.3659Z" fill="url(#paint0_radial_22390_1460)"/>
<path id="Vector_2" d="M5.57031 11.3614C5.6328 10.9202 5.6804 10.4763 5.75983 10.0383C6.21004 7.55696 7.9667 5.86873 10.4785 5.78222C13.5027 5.6783 16.536 5.67281 19.5598 5.78176C22.2936 5.88018 24.2734 7.90441 24.3587 10.6391C24.4496 13.5429 24.4496 16.4538 24.3587 19.3576C24.2734 22.0923 22.2942 24.1163 19.56 24.215C16.5363 24.3241 13.5022 24.3269 10.4787 24.2134C7.74446 24.1106 5.85435 22.0818 5.67148 19.343C5.65569 19.1061 5.60487 18.8713 5.57031 18.6355C5.57031 16.2108 5.57031 13.786 5.57031 11.3614ZM15.0012 22.5943C16.385 22.5943 17.7702 22.6357 19.1521 22.5846C21.319 22.5043 22.6518 21.2111 22.7023 19.0464C22.765 16.349 22.765 13.648 22.7023 10.9504C22.6518 8.78606 21.3181 7.46266 19.1521 7.41666C16.4031 7.35852 13.651 7.35898 10.9019 7.41666C8.75245 7.46175 7.41579 8.75836 7.35742 10.8989C7.28326 13.6303 7.28326 16.3666 7.35742 19.0981C7.41579 21.2384 8.75245 22.505 10.9021 22.5846C12.2667 22.6355 13.6347 22.5943 15.0012 22.5943Z" fill="url(#paint1_linear_22390_1460)"/>
<g id="Group">
<path id="Vector_3" d="M5.57031 11.3614C5.6328 10.9202 5.6804 10.4763 5.75983 10.0383C6.21004 7.55696 7.9667 5.86873 10.4785 5.78222C13.5027 5.6783 16.536 5.67281 19.5598 5.78176C22.2936 5.88018 24.2734 7.90441 24.3587 10.6391C24.4496 13.5429 24.4496 16.4538 24.3587 19.3576C24.2734 22.0923 22.2942 24.1163 19.56 24.215C16.5363 24.3241 13.5022 24.3269 10.4787 24.2134C7.74446 24.1106 5.85435 22.0818 5.67148 19.343C5.65569 19.1061 5.60487 18.8713 5.57031 18.6355C5.57031 16.2108 5.57031 13.786 5.57031 11.3614ZM15.0012 22.5943C16.385 22.5943 17.7702 22.6357 19.1521 22.5846C21.319 22.5043 22.6518 21.2111 22.7023 19.0464C22.765 16.349 22.765 13.648 22.7023 10.9504C22.6518 8.78606 21.3181 7.46266 19.1521 7.41666C16.4031 7.35852 13.651 7.35898 10.9019 7.41666C8.75245 7.46175 7.41579 8.75836 7.35742 10.8989C7.28326 13.6303 7.28326 16.3666 7.35742 19.0981C7.41579 21.2384 8.75245 22.505 10.9021 22.5846C12.2667 22.6355 13.6347 22.5943 15.0012 22.5943Z" fill="white"/>
<path id="Vector_4" d="M14.9985 10.1953C12.3448 10.1953 10.1934 12.3466 10.1934 15.0002C10.1934 17.6541 12.3448 19.8054 14.9985 19.8054C17.6524 19.8054 19.8036 17.6541 19.8036 15.0002C19.8036 12.3466 17.6524 10.1953 14.9985 10.1953ZM14.9985 18.151C13.2583 18.151 11.8477 16.7404 11.8477 15.0002C11.8477 13.26 13.2583 11.8494 14.9985 11.8494C16.7387 11.8494 18.1493 13.26 18.1493 15.0002C18.1493 16.7404 16.7387 18.151 14.9985 18.151Z" fill="white"/>
<path id="Vector_5" d="M21.2277 9.9753C21.2277 10.6066 20.7159 11.1183 20.0847 11.1183C19.4534 11.1183 18.9414 10.6066 18.9414 9.9753C18.9414 9.34381 19.4534 8.83203 20.0847 8.83203C20.7159 8.83203 21.2277 9.34381 21.2277 9.9753Z" fill="white"/>
</g>
</g>
<defs>
<radialGradient id="paint0_radial_22390_1460" cx="0" cy="0" r="1" gradientUnits="userSpaceOnUse" gradientTransform="translate(6.14983 26.2176) scale(33.0847)">
<stop stop-color="#FAE100"/>
<stop offset="0.0544" stop-color="#FADC04"/>
<stop offset="0.1167" stop-color="#FBCE0E"/>
<stop offset="0.1829" stop-color="#FCB720"/>
<stop offset="0.2514" stop-color="#FE9838"/>
<stop offset="0.3054" stop-color="#FF7950"/>
<stop offset="0.4922" stop-color="#FF1C74"/>
<stop offset="1" stop-color="#6C1CD1"/>
</radialGradient>
<linearGradient id="paint1_linear_22390_1460" x1="20.9552" y1="9.0849" x2="8.8195" y2="21.2206" gradientUnits="userSpaceOnUse">
<stop stop-color="#833AB4"/>
<stop offset="0.0922" stop-color="#9C3495"/>
<stop offset="0.2927" stop-color="#DC2546"/>
<stop offset="0.392" stop-color="#FD1D1D"/>
<stop offset="0.5589" stop-color="#FC6831"/>
<stop offset="0.6887" stop-color="#FC9B40"/>
<stop offset="0.7521" stop-color="#FCAF45"/>
<stop offset="0.7806" stop-color="#FDB750"/>
<stop offset="0.8656" stop-color="#FECB6A"/>
<stop offset="0.9415" stop-color="#FFD87A"/>
<stop offset="1" stop-color="#FFDC80"/>
</linearGradient>
<clipPath id="clip0_22390_1460">
<rect width="30" height="30" fill="white"/>
</clipPath>
</defs>
</svg>
