<svg width="30" height="30" viewBox="0 0 30 30" fill="none" xmlns="http://www.w3.org/2000/svg">
<g id="Component 27" clip-path="url(#clip0_22390_1450)">
<path id="Vector" d="M24.6341 29.4864C18.2178 30.1712 11.7821 30.1712 5.3659 29.4864C2.80746 29.2133 0.786666 27.1925 0.51361 24.6338C-0.171203 18.2176 -0.171203 11.7821 0.51361 5.3659C0.786666 2.80746 2.80746 0.786666 5.3659 0.51361C11.7821 -0.171203 18.2176 -0.171203 24.6338 0.51361C27.1925 0.786666 29.2133 2.80746 29.4864 5.3659C30.1712 11.7821 30.1712 18.2176 29.4864 24.6338C29.2133 27.1925 27.1927 29.2133 24.6341 29.4864Z" fill="url(#paint0_linear_22390_1450)"/>
<g id="Group">
<path id="Vector_2" d="M5.93945 11.9824H9.91192V24.2976H5.93945V11.9824Z" fill="white"/>
<path id="Vector_3" d="M20.4671 11.7178C17.556 11.7178 16.2772 13.3357 15.9554 13.8283V11.9828H12.2949V24.298H16.2676V18.112C16.2676 16.3245 17.0905 14.934 18.6512 14.934C20.2117 14.934 20.4671 16.6648 20.4671 18.7932V24.298H24.4398V15.6905C24.4398 13.4964 22.6612 11.7178 20.4671 11.7178Z" fill="white"/>
<path id="Vector_4" d="M10.2899 8.06695C10.2899 9.37295 9.23135 10.4315 7.92535 10.4315C6.61935 10.4315 5.56055 9.37295 5.56055 8.06695C5.56055 6.76095 6.61935 5.70215 7.92535 5.70215C9.23135 5.70215 10.2899 6.76095 10.2899 8.06695Z" fill="white"/>
</g>
</g>
<defs>
<linearGradient id="paint0_linear_22390_1450" x1="9.96058" y1="4.21794" x2="17.5484" y2="20.4524" gradientUnits="userSpaceOnUse">
<stop stop-color="#0077B5"/>
<stop offset="1" stop-color="#0066B2"/>
</linearGradient>
<clipPath id="clip0_22390_1450">
<rect width="30" height="30" fill="white"/>
</clipPath>
</defs>
</svg>
