<svg width="30" height="30" viewBox="0 0 30 30" fill="none" xmlns="http://www.w3.org/2000/svg">
<g id="Component 26" clip-path="url(#clip0_22390_1447)">
<path id="Vector" d="M24.6341 29.4864C18.2178 30.1712 11.7821 30.1712 5.3659 29.4864C2.80746 29.2133 0.786666 27.1925 0.51361 24.6338C-0.171203 18.2176 -0.171203 11.7821 0.51361 5.3659C0.786666 2.80746 2.80746 0.786666 5.3659 0.51361C11.7821 -0.171203 18.2176 -0.171203 24.6338 0.51361C27.1925 0.786666 29.2133 2.80746 29.4864 5.3659C30.1712 11.7821 30.1712 18.2176 29.4864 24.6338C29.2133 27.1925 27.1927 29.2133 24.6341 29.4864Z" fill="url(#paint0_linear_22390_1447)"/>
<path id="Vector_2" d="M24.2969 9.22101C23.6331 9.56822 22.6334 9.72867 22.302 9.7749C22.2992 9.75888 22.2965 9.74354 22.2937 9.72821C23.4205 9.03126 23.7654 7.71909 23.7654 7.71909C23.0676 8.11803 22.4526 8.33935 21.9893 8.46204C21.7288 8.53184 21.5162 8.56961 21.3633 8.59067C20.6611 7.87061 19.6806 7.42383 18.5952 7.42383C16.4598 7.42383 14.7283 9.15486 14.7283 11.291C14.7283 11.3679 14.7303 11.4444 14.7354 11.5201C14.7457 11.7053 14.7692 11.8872 14.8056 12.0642C13.772 12.0488 10.041 11.7318 6.94926 8.14046C6.94926 8.14046 5.22762 11.1443 8.12205 13.1962C8.12205 13.1962 6.94926 13.1596 6.32671 12.7199C6.32671 12.7199 6.1436 15.6144 9.47726 16.5299C9.47726 16.5299 8.30516 16.8233 7.71853 16.5667C7.71853 16.5667 8.30493 19.0579 11.2358 19.2414C11.2358 19.2414 9.13371 21.1659 5.70117 20.8889C7.3894 21.9578 9.39097 22.5765 11.537 22.5765C17.571 22.5765 22.4626 17.6851 22.4626 11.651C22.4626 11.5757 22.4619 11.5004 22.4603 11.4251C22.4619 11.3805 22.4626 11.3361 22.4626 11.291C22.4626 11.2597 22.4619 11.2283 22.4615 11.1969C23.5771 10.4535 24.2969 9.22101 24.2969 9.22101Z" fill="white"/>
</g>
<defs>
<linearGradient id="paint0_linear_22390_1447" x1="9.96058" y1="4.21794" x2="17.5484" y2="20.4524" gradientUnits="userSpaceOnUse">
<stop stop-color="#00C3FF"/>
<stop offset="1" stop-color="#00B0ED"/>
</linearGradient>
<clipPath id="clip0_22390_1447">
<rect width="30" height="30" fill="white"/>
</clipPath>
</defs>
</svg>
