<svg width="30" height="30" viewBox="0 0 30 30" fill="none" xmlns="http://www.w3.org/2000/svg">
<g id="Component 28" clip-path="url(#clip0_22390_1456)">
<path id="Vector" d="M24.6341 29.4864C18.2178 30.1712 11.7821 30.1712 5.3659 29.4864C2.80746 29.2133 0.786666 27.1925 0.51361 24.6338C-0.171203 18.2176 -0.171203 11.7821 0.51361 5.3659C0.786666 2.80746 2.80746 0.786666 5.3659 0.51361C11.7821 -0.171203 18.2176 -0.171203 24.6338 0.51361C27.1925 0.786666 29.2133 2.80746 29.4864 5.3659C30.1712 11.7821 30.1712 18.2176 29.4864 24.6338C29.2133 27.1925 27.1927 29.2133 24.6341 29.4864Z" fill="url(#paint0_linear_22390_1456)"/>
<path id="Vector_2" d="M15.515 21.4574C13.0934 21.3761 11.2191 21.3299 9.34711 21.2406C8.77582 21.2131 8.18782 21.1355 7.64675 20.9598C6.65088 20.6366 6.0828 19.9083 5.93517 18.8566C5.64266 16.7726 5.66761 14.6815 5.78731 12.5893C5.82027 12.0148 5.92556 11.4449 5.98621 10.8718C6.10408 9.75647 7.20706 8.93799 8.25031 8.81714C10.67 8.53607 13.0994 8.52806 15.5287 8.55118C17.1831 8.56697 18.8372 8.629 20.4904 8.69423C21.0075 8.7146 21.5273 8.78258 22.0354 8.88168C23.1551 9.10026 23.8028 9.80064 24.0001 10.9256C24.267 12.4477 24.3368 13.9844 24.2807 15.5218C24.2384 16.6854 24.1184 17.8472 23.9978 19.0063C23.8646 20.2855 22.7571 21.0431 21.7596 21.1088C19.4989 21.2578 17.2357 21.3635 15.515 21.4574Z" fill="url(#paint1_linear_22390_1456)"/>
<path id="Vector_3" d="M13.2305 17.8305C14.7937 16.8708 16.3188 15.934 17.8896 14.9695C16.322 14.0062 14.7972 13.0691 13.2305 12.1064V17.8305Z" fill="white"/>
</g>
<defs>
<linearGradient id="paint0_linear_22390_1456" x1="6.82455" y1="-0.750288" x2="28.4411" y2="40.8947" gradientUnits="userSpaceOnUse">
<stop stop-color="#FFFCF8"/>
<stop offset="0.1875" stop-color="#FAF8F6"/>
<stop offset="0.4041" stop-color="#ECEEF2"/>
<stop offset="0.6353" stop-color="#D5DCEA"/>
<stop offset="0.875" stop-color="#B5C4DF"/>
<stop offset="1" stop-color="#A1B5D8"/>
</linearGradient>
<linearGradient id="paint1_linear_22390_1456" x1="13.8664" y1="11.7125" x2="16.6214" y2="19.7345" gradientUnits="userSpaceOnUse">
<stop stop-color="#E52D27"/>
<stop offset="1" stop-color="#B31217"/>
</linearGradient>
<clipPath id="clip0_22390_1456">
<rect width="30" height="30" fill="white"/>
</clipPath>
</defs>
</svg>
