<svg width="50" height="50" viewBox="0 0 50 50" fill="none" xmlns="http://www.w3.org/2000/svg">
<path d="M34.6235 0C34.7399 0 34.8562 0 34.9792 0C35.2646 3.52611 33.9187 6.1608 32.283 8.06877C30.678 9.96355 28.4803 11.8013 24.9256 11.5224C24.6885 8.04681 26.0366 5.60752 27.6701 3.70395C29.185 1.92992 31.9625 0.351293 34.6235 0Z" fill="white"/>
<path d="M45.3804 36.7014C45.3804 36.7366 45.3804 36.7673 45.3804 36.8002C44.3814 39.8258 42.9564 42.4187 41.2175 44.8251C39.6301 47.0097 37.6849 49.9496 34.2114 49.9496C31.2101 49.9496 29.2165 48.0197 26.1405 47.967C22.8866 47.9143 21.0972 49.5807 18.1222 50.0001C17.7819 50.0001 17.4416 50.0001 17.1079 50.0001C14.9233 49.6839 13.1602 47.9538 11.8758 46.3949C8.0884 41.7886 5.16169 35.8386 4.61719 28.2243C4.61719 27.4778 4.61719 26.7335 4.61719 25.987C4.84772 20.5376 7.4956 16.1069 11.0151 13.9596C12.8726 12.8179 15.426 11.8453 18.2693 12.28C19.4879 12.4688 20.7328 12.886 21.824 13.2987C22.8581 13.6961 24.1513 14.4009 25.3764 14.3636C26.2063 14.3394 27.0319 13.9069 27.8684 13.6017C30.3187 12.7169 32.7206 11.7025 35.8867 12.179C39.6916 12.7542 42.3922 14.4448 44.0608 17.0532C40.8421 19.1017 38.2974 22.1886 38.7321 27.4602C39.1186 32.2488 41.9026 35.0504 45.3804 36.7014Z" fill="white"/>
</svg>
