<svg width="118" height="32" viewBox="0 0 118 32" fill="none" xmlns="http://www.w3.org/2000/svg">
<path d="M18.959 15.1518C18.9279 11.6992 21.7868 10.0194 21.9175 9.94123C20.2984 7.58127 17.7889 7.25883 16.907 7.23312C14.7993 7.01137 12.7548 8.49398 11.6811 8.49398C10.586 8.49398 8.93267 7.25454 7.15071 7.29097C4.85763 7.32632 2.71242 8.65359 1.53588 10.7147C-0.892208 14.9172 0.918681 21.0929 3.24498 24.4899C4.40866 26.1546 5.76843 28.011 7.54825 27.9457C9.28949 27.875 9.93991 26.837 12.0412 26.837C14.1232 26.837 14.7339 27.9457 16.5491 27.9039C18.4179 27.875 19.5944 26.2328 20.7174 24.5541C22.0621 22.6484 22.6022 20.7694 22.6236 20.673C22.5808 20.658 18.9954 19.2889 18.959 15.1518ZM15.5301 4.9985C16.4666 3.82762 17.1074 2.23468 16.9295 0.618164C15.574 0.678154 13.8789 1.55551 12.9027 2.70067C12.039 3.70979 11.2675 5.36379 11.4668 6.91924C12.9895 7.0328 14.5528 6.15116 15.5301 4.9985Z" fill="#344054"/>
<path d="M44.1793 27.7074H41.7458L40.4129 23.5199H35.7795L34.5098 27.7074H32.1406L36.7321 13.4513H39.5674L44.1793 27.7074ZM40.011 21.7631L38.8056 18.0405C38.678 17.6602 38.438 16.7646 38.0866 15.3549H38.0437C37.9022 15.9612 37.6762 16.8568 37.3665 18.0405L36.1814 21.7631H40.011ZM55.964 22.4412C55.964 24.1895 55.4893 25.5714 54.5389 26.5858C53.6881 27.4889 52.6305 27.9399 51.3693 27.9399C50.0073 27.9399 49.028 27.4546 48.4333 26.4819V31.8757H46.1488V20.8065C46.1488 19.7084 46.1198 18.5825 46.0641 17.4277H48.0732L48.2007 19.0571H48.2436C49.0055 17.8295 50.1616 17.2156 51.7132 17.2156C52.9262 17.2156 53.9388 17.6945 54.7489 18.6532C55.5579 19.6142 55.964 20.8761 55.964 22.4412ZM53.6366 22.5247C53.6366 21.5242 53.4116 20.6993 52.9594 20.0491C52.4654 19.3731 51.8022 19.0346 50.9706 19.0346C50.407 19.0346 49.8948 19.2232 49.4373 19.5949C48.9787 19.9698 48.6786 20.4594 48.5383 21.0657C48.4756 21.2925 48.44 21.5258 48.4322 21.7609V23.476C48.4322 24.2227 48.6615 24.8536 49.1201 25.37C49.5787 25.8842 50.1745 26.1423 50.9074 26.1423C51.7679 26.1423 52.4376 25.8092 52.9166 25.1482C53.3966 24.4851 53.6366 23.611 53.6366 22.5247ZM67.7905 22.4412C67.7905 24.1895 67.3158 25.5714 66.3653 26.5858C65.5135 27.4889 64.457 27.9399 63.1947 27.9399C61.8328 27.9399 60.8534 27.4546 60.2587 26.4819V31.8757H57.9742V20.8065C57.9742 19.7084 57.9452 18.5825 57.8895 17.4277H59.8987L60.0262 19.0571H60.069C60.8298 17.8295 61.986 17.2156 63.5386 17.2156C64.7505 17.2156 65.7631 17.6945 66.5754 18.6532C67.3833 19.6142 67.7905 20.8761 67.7905 22.4412ZM65.462 22.5247C65.462 21.5242 65.2359 20.6993 64.7838 20.0491C64.2898 19.3731 63.6287 19.0346 62.7971 19.0346C62.2335 19.0346 61.7213 19.2232 61.2616 19.5949C60.803 19.9698 60.5041 20.4594 60.3637 21.0657C60.294 21.3485 60.2565 21.5788 60.2565 21.7609V23.476C60.2565 24.2227 60.4869 24.8536 60.9434 25.37C61.402 25.8831 61.9978 26.1423 62.7329 26.1423C63.5944 26.1423 64.2641 25.8092 64.742 25.1482C65.222 24.4851 65.462 23.611 65.462 22.5247ZM81.0132 23.7085C81.0132 24.9222 80.5889 25.9088 79.7456 26.6705C78.8176 27.5018 77.5221 27.9185 75.8613 27.9185C74.3268 27.9185 73.0967 27.6228 72.1688 27.0304L72.697 25.1268C73.6989 25.7203 74.7994 26.0159 75.9973 26.0159C76.8589 26.0159 77.5286 25.821 78.0065 25.4342C78.4854 25.0465 78.7276 24.528 78.7276 23.8809C78.7276 23.3014 78.5272 22.8161 78.134 22.4208C77.7386 22.0266 77.0849 21.6592 76.1666 21.3217C73.67 20.3908 72.4206 19.0293 72.4206 17.2381C72.4206 16.0683 72.862 15.1106 73.7428 14.3618C74.6236 13.6141 75.7916 13.2402 77.2446 13.2402C78.5422 13.2402 79.6234 13.4663 80.4817 13.9173L79.9084 15.7791C79.1005 15.342 78.1886 15.1235 77.1685 15.1235C76.3627 15.1235 75.7305 15.3217 75.2783 15.7159C74.898 16.0683 74.7051 16.4979 74.7051 17.0078C74.7051 17.5702 74.9247 18.0373 75.3619 18.4036C75.7412 18.7411 76.4335 19.1085 77.4343 19.5027C78.6622 19.9977 79.5645 20.574 80.142 21.236C80.7239 21.8981 81.0132 22.724 81.0132 23.7085ZM88.5857 19.1417H86.0676V24.1327C86.0676 25.4021 86.5112 26.0352 87.4006 26.0352C87.8088 26.0352 88.1474 26.0009 88.4153 25.9292L88.4785 27.6635C88.0285 27.8317 87.4359 27.9163 86.7019 27.9163C85.7997 27.9163 85.0946 27.641 84.5857 27.0904C84.0788 26.5398 83.8238 25.6174 83.8238 24.3191V19.1375H82.3237V17.4235H83.8238V15.5413L86.0676 14.8642V17.4235H88.5857V19.1417ZM99.9246 22.483C99.9246 24.0631 99.4725 25.3603 98.5702 26.3748C97.6262 27.4193 96.3704 27.9399 94.8049 27.9399C93.294 27.9399 92.0928 27.4396 91.197 26.4401C90.3012 25.4385 89.8533 24.1766 89.8533 22.6544C89.8533 21.0614 90.3162 19.7566 91.2388 18.7422C92.1635 17.7266 93.4087 17.2188 94.9742 17.2188C96.4829 17.2188 97.6948 17.7202 98.612 18.7207C99.4885 19.6913 99.9246 20.9446 99.9246 22.483ZM97.5566 22.5355C97.5566 21.5938 97.353 20.7861 96.9447 20.1101C96.4657 19.2939 95.78 18.8857 94.8917 18.8857C93.9766 18.8857 93.2747 19.2939 92.7968 20.1101C92.3875 20.7861 92.1839 21.6077 92.1839 22.5783C92.1839 23.521 92.3875 24.3309 92.7968 25.0047C93.2908 25.821 93.9798 26.2291 94.8724 26.2291C95.7457 26.2291 96.4304 25.8124 96.9254 24.9843C97.3455 24.2923 97.5566 23.4792 97.5566 22.5355ZM107.354 19.4363C107.116 19.3934 106.875 19.3723 106.634 19.3731C105.83 19.3731 105.208 19.6752 104.771 20.2837C104.392 20.8193 104.201 21.4963 104.201 22.3137V27.7074H101.917V20.6651C101.919 19.5859 101.897 18.5069 101.85 17.4288H103.84L103.924 19.3956H103.987C104.229 18.7197 104.608 18.1744 105.129 17.7663C105.606 17.4096 106.185 17.2165 106.78 17.2156C106.991 17.2156 107.182 17.2306 107.351 17.2574L107.354 19.4363ZM117.571 22.0812C117.576 22.4284 117.548 22.7754 117.487 23.1171H110.634C110.659 24.1327 110.991 24.9104 111.628 25.446C112.205 25.9238 112.952 26.1638 113.87 26.1638C114.884 26.1638 115.81 26.0031 116.643 25.6785L117.001 27.2629C116.028 27.6871 114.879 27.8981 113.553 27.8981C111.959 27.8981 110.707 27.4289 109.797 26.4926C108.888 25.5553 108.433 24.2955 108.433 22.7176C108.433 21.1685 108.856 19.8777 109.703 18.8482C110.591 17.7491 111.79 17.1996 113.298 17.1996C114.78 17.1996 115.902 17.7491 116.664 18.8482C117.267 19.7191 117.571 20.799 117.571 22.0812ZM115.392 21.4888C115.408 20.8107 115.258 20.2269 114.949 19.7331C114.553 19.0967 113.945 18.7797 113.129 18.7797C112.382 18.7797 111.774 19.0892 111.311 19.7106C110.93 20.2044 110.704 20.7979 110.635 21.4867L115.392 21.4888Z" fill="#344054"/>
<path d="M35.1192 8.41083C34.4838 8.41083 33.9341 8.37977 33.4766 8.32728V1.43487C34.1165 1.33604 34.7632 1.28733 35.4107 1.28918C38.0306 1.28918 39.2371 2.57789 39.2371 4.67861C39.2371 7.10177 37.812 8.41083 35.1192 8.41083ZM35.5028 2.17296C35.1492 2.17296 34.8481 2.19438 34.5985 2.2458V7.48528C34.7335 7.5067 34.9928 7.51634 35.3571 7.51634C37.0737 7.51634 38.0509 6.53936 38.0509 4.70967C38.0509 3.07816 37.1669 2.17296 35.5028 2.17296ZM42.9971 8.46332C41.5205 8.46332 40.5637 7.36101 40.5637 5.86448C40.5637 4.30474 41.5409 3.19279 43.0807 3.19279C44.5358 3.19279 45.5141 4.24261 45.5141 5.78199C45.5141 7.36101 44.5058 8.46332 42.9971 8.46332ZM43.04 4.01336C42.2288 4.01336 41.7091 4.7718 41.7091 5.83234C41.7091 6.87252 42.2395 7.63096 43.0293 7.63096C43.819 7.63096 44.3494 6.82003 44.3494 5.81092C44.3494 4.78252 43.8297 4.01336 43.04 4.01336ZM53.9342 3.2967L52.3537 8.3487H51.324L50.6693 6.15479C50.5065 5.61814 50.371 5.07361 50.2632 4.52328H50.2417C50.1592 5.0739 50.0028 5.62559 49.8367 6.15479L49.1402 8.3487H48.0998L46.6125 3.2967H47.7665L48.3387 5.69843C48.4737 6.27048 48.5873 6.81039 48.6816 7.3203H48.703C48.7855 6.89502 48.9205 6.36368 49.1188 5.70915L49.8367 3.29777H50.7518L51.4386 5.65773C51.6047 6.22977 51.7397 6.79111 51.8448 7.32137H51.8748C51.9476 6.80182 52.0623 6.25013 52.2176 5.65773L52.8316 3.29777L53.9342 3.2967ZM59.7527 8.3487H58.6297V5.44776C58.6297 4.55434 58.2868 4.10656 57.6107 4.10656C56.9452 4.10656 56.4877 4.67861 56.4877 5.34385V8.3487H55.3647V4.74074C55.3647 4.29403 55.354 3.81518 55.3229 3.29562H56.3109L56.3634 4.07549H56.3945C56.6967 3.53558 57.3096 3.19279 57.9964 3.19279C59.0572 3.19279 59.7537 4.00372 59.7537 5.3235L59.7527 8.3487ZM62.8494 8.3487H61.7253V0.978516H62.8494V8.3487ZM66.9437 8.46332C65.4682 8.46332 64.5103 7.36101 64.5103 5.86448C64.5103 4.30474 65.4875 3.19279 67.0262 3.19279C68.4824 3.19279 69.4597 4.24261 69.4597 5.78199C69.4607 7.36101 68.4514 8.46332 66.9437 8.46332ZM66.9855 4.01336C66.1743 4.01336 65.6547 4.7718 65.6547 5.83234C65.6547 6.87252 66.1861 7.63096 66.9737 7.63096C67.7645 7.63096 68.2938 6.82003 68.2938 5.81092C68.2949 4.78252 67.7763 4.01336 66.9855 4.01336ZM73.8872 8.3487L73.8058 7.76701H73.7758C73.4329 8.23515 72.9325 8.46332 72.2981 8.46332C71.3927 8.46332 70.7498 7.82915 70.7498 6.97643C70.7498 5.7295 71.831 5.08461 73.7029 5.08461V4.99141C73.7029 4.32617 73.3504 3.99301 72.6539 3.99301C72.1556 3.99301 71.7185 4.11834 71.3338 4.36794L71.1055 3.62985C71.5727 3.33847 72.1556 3.19279 72.8403 3.19279C74.1605 3.19279 74.827 3.8891 74.827 5.28279V7.14355C74.827 7.65346 74.8495 8.04875 74.8998 8.34977L73.8872 8.3487ZM73.7329 5.83234C72.4857 5.83234 71.8599 6.13443 71.8599 6.8511C71.8599 7.38136 72.1824 7.64061 72.6303 7.64061C73.2015 7.64061 73.7329 7.20461 73.7329 6.61221V5.83234ZM80.28 8.3487L80.2275 7.53777H80.1964C79.8739 8.15052 79.3317 8.46332 78.5741 8.46332C77.3558 8.46332 76.4536 7.39208 76.4536 5.88483C76.4536 4.30474 77.389 3.19171 78.6663 3.19171C79.3424 3.19171 79.8214 3.41989 80.0914 3.87838H80.1139V0.978516H81.2379V6.98715C81.2379 7.47563 81.2497 7.93306 81.2797 8.3487H80.28ZM80.1139 5.37599C80.1139 4.66896 79.6456 4.06585 78.9309 4.06585C78.0983 4.06585 77.5894 4.80394 77.5894 5.84305C77.5894 6.86181 78.1176 7.55919 78.9084 7.55919C79.6146 7.55919 80.1139 6.94537 80.1139 6.21799V5.37599ZM88.3647 8.46332C86.8892 8.46332 85.9323 7.36101 85.9323 5.86448C85.9323 4.30474 86.9096 3.19279 88.4483 3.19279C89.9045 3.19279 90.8817 4.24261 90.8817 5.78199C90.8828 7.36101 89.8745 8.46332 88.3647 8.46332ZM88.4065 4.01336C87.5964 4.01336 87.0767 4.7718 87.0767 5.83234C87.0767 6.87252 87.6071 7.63096 88.3958 7.63096C89.1866 7.63096 89.7159 6.82003 89.7159 5.81092C89.718 4.78252 89.1983 4.01336 88.4065 4.01336ZM96.9209 8.3487H95.7968V5.44776C95.7968 4.55434 95.4539 4.10656 94.7778 4.10656C94.1124 4.10656 93.6559 4.67861 93.6559 5.34385V8.3487H92.5319V4.74074C92.5319 4.29403 92.5212 3.81518 92.4901 3.29562H93.478L93.5305 4.07549H93.5616C93.8627 3.53558 94.4767 3.19171 95.1625 3.19171C96.2233 3.19171 96.9209 4.00265 96.9209 5.32243V8.3487ZM104.476 4.1387H103.241V6.59186C103.241 7.21639 103.457 7.52813 103.894 7.52813C104.093 7.52813 104.259 7.5067 104.393 7.47563L104.424 8.32835C104.206 8.4119 103.915 8.45368 103.553 8.45368C102.667 8.45368 102.138 7.96519 102.138 6.68612V4.1387H101.401V3.2967H102.138V2.37114L103.241 2.03798V3.29562H104.476V4.1387ZM110.421 8.3487H109.299V5.46919C109.299 4.56505 108.957 4.10763 108.28 4.10763C107.698 4.10763 107.156 4.50292 107.156 5.30314V8.3487H106.034V0.978516H107.156V4.01336H107.179C107.532 3.46274 108.044 3.19171 108.698 3.19171C109.767 3.19171 110.421 4.023 110.421 5.34385V8.3487ZM116.512 6.09265H113.142C113.163 7.04928 113.796 7.58919 114.734 7.58919C115.232 7.58919 115.691 7.50563 116.096 7.3503L116.271 8.13017C115.793 8.33799 115.23 8.4419 114.575 8.4419C112.995 8.4419 112.059 7.4435 112.059 5.89554C112.059 4.34652 113.017 3.18207 114.449 3.18207C115.74 3.18207 116.55 4.1387 116.55 5.58381C116.558 5.75435 116.545 5.92515 116.512 6.09265ZM115.482 5.29243C115.482 4.51256 115.089 3.96194 114.371 3.96194C113.726 3.96194 113.216 4.52327 113.143 5.29243H115.482Z" fill="#344054"/>
</svg>
