<svg width="263" height="82" viewBox="0 0 263 82" fill="none" xmlns="http://www.w3.org/2000/svg">
<path d="M16.8879 81.9957C16.2084 81.9957 15.5452 81.9874 14.871 81.9728C13.4743 81.9553 12.0809 81.8384 10.7021 81.6231C9.41655 81.4103 8.17114 81.0145 7.00702 80.4486C5.85357 79.8875 4.80153 79.1516 3.8912 78.2694C2.9677 77.3975 2.19884 76.3862 1.61509 75.2757C1.02492 74.158 0.616479 72.9599 0.404008 71.7232C0.174558 70.3944 0.050416 69.0507 0.0326526 67.7038C0.0185121 67.2517 0 65.7464 0 65.7464V16.2262C0 16.2262 0.0197165 14.7441 0.0327641 14.3086C0.0497725 12.9639 0.173193 11.6223 0.401956 10.2955C0.614819 9.05544 1.02357 7.8539 1.61407 6.7325C2.19567 5.62275 2.96026 4.61075 3.8782 3.73575C4.79511 2.85243 5.85051 2.11282 7.00593 1.5439C8.16738 0.979862 9.41042 0.586795 10.6934 0.377866C12.0767 0.160425 13.475 0.0428652 14.8765 0.0261743L16.889 0H246.1L248.137 0.0272248C249.525 0.0430863 250.911 0.159597 252.282 0.375765C253.578 0.587315 254.834 0.983124 256.008 1.55018C258.323 2.69672 260.206 4.51065 261.395 6.73773C261.976 7.85139 262.378 9.04312 262.588 10.2725C262.82 11.6101 262.949 12.9623 262.976 14.3181C262.982 14.9251 262.982 15.5773 262.982 16.2262C263 17.0301 263 17.7953 263 18.5667V63.431C263 64.2098 263 64.9698 262.982 65.7359C262.982 66.433 262.982 67.0716 262.974 67.7289C262.948 69.0605 262.82 70.3885 262.593 71.7022C262.384 72.9478 261.978 74.1552 261.388 75.2821C260.8 76.3806 260.036 77.3831 259.123 78.2526C258.212 79.1397 257.158 79.8798 256.002 80.4446C254.83 81.0148 253.576 81.4121 252.282 81.6231C250.903 81.8396 249.509 81.9564 248.113 81.9728C247.459 81.9874 246.775 81.9957 246.111 81.9957L243.693 82L16.8879 81.9957Z" fill="#0B2835"/>
<path d="M54.6235 15C54.7399 15 54.8562 15 54.9792 15C55.2646 18.5261 53.9187 21.1608 52.283 23.0688C50.678 24.9636 48.4803 26.8013 44.9256 26.5224C44.6885 23.0468 46.0366 20.6075 47.6701 18.7039C49.185 16.9299 51.9625 15.3513 54.6235 15Z" fill="white"/>
<path d="M65.3804 51.7014C65.3804 51.7366 65.3804 51.7673 65.3804 51.8002C64.3814 54.8258 62.9564 57.4187 61.2175 59.8251C59.6301 62.0097 57.6849 64.9496 54.2114 64.9496C51.2101 64.9496 49.2165 63.0197 46.1405 62.967C42.8866 62.9143 41.0972 64.5807 38.1222 65.0001C37.7819 65.0001 37.4416 65.0001 37.1079 65.0001C34.9233 64.6839 33.1602 62.9538 31.8758 61.3949C28.0884 56.7886 25.1617 50.8386 24.6172 43.2243C24.6172 42.4778 24.6172 41.7335 24.6172 40.987C24.8477 35.5376 27.4956 31.1069 31.0151 28.9596C32.8726 27.8179 35.426 26.8453 38.2693 27.28C39.4879 27.4688 40.7328 27.886 41.824 28.2987C42.8581 28.6961 44.1513 29.4009 45.3764 29.3636C46.2063 29.3394 47.0319 28.9069 47.8684 28.6017C50.3187 27.7169 52.7206 26.7025 55.8867 27.179C59.6916 27.7542 62.3922 29.4448 64.0608 32.0532C60.8421 34.1017 58.2974 37.1886 58.7321 42.4602C59.1186 47.2488 61.9026 50.0504 65.3804 51.7014Z" fill="white"/>
<path d="M80.768 65L89.984 42.6H92.544L101.696 65H97.728L90.56 46.856H91.904L84.672 65H80.768ZM85.312 60.68V57.48H97.184V60.68H85.312ZM112.645 65.32C111.471 65.32 110.426 65.0747 109.509 64.584C108.591 64.072 107.866 63.3787 107.333 62.504C106.821 61.6293 106.565 60.6373 106.565 59.528V55.112C106.565 54.0027 106.831 53.0107 107.365 52.136C107.898 51.2613 108.623 50.5787 109.541 50.088C110.458 49.576 111.493 49.32 112.645 49.32C114.031 49.32 115.279 49.6827 116.389 50.408C117.519 51.112 118.405 52.072 119.045 53.288C119.706 54.4827 120.037 55.8373 120.037 57.352C120.037 58.8453 119.706 60.2 119.045 61.416C118.405 62.6107 117.519 63.56 116.389 64.264C115.279 64.968 114.031 65.32 112.645 65.32ZM104.421 71.4V49.64H107.941V53.768L107.333 57.512L107.941 61.224V71.4H104.421ZM112.069 61.992C112.922 61.992 113.669 61.8 114.309 61.416C114.97 61.0107 115.482 60.456 115.845 59.752C116.229 59.048 116.421 58.2373 116.421 57.32C116.421 56.4027 116.229 55.592 115.845 54.888C115.482 54.184 114.97 53.64 114.309 53.256C113.669 52.8507 112.922 52.648 112.069 52.648C111.215 52.648 110.458 52.8507 109.797 53.256C109.135 53.64 108.623 54.184 108.261 54.888C107.898 55.592 107.717 56.4027 107.717 57.32C107.717 58.2373 107.898 59.048 108.261 59.752C108.623 60.456 109.135 61.0107 109.797 61.416C110.458 61.8 111.215 61.992 112.069 61.992ZM131.207 65.32C130.034 65.32 128.989 65.0747 128.071 64.584C127.154 64.072 126.429 63.3787 125.895 62.504C125.383 61.6293 125.127 60.6373 125.127 59.528V55.112C125.127 54.0027 125.394 53.0107 125.927 52.136C126.461 51.2613 127.186 50.5787 128.103 50.088C129.021 49.576 130.055 49.32 131.207 49.32C132.594 49.32 133.842 49.6827 134.951 50.408C136.082 51.112 136.967 52.072 137.607 53.288C138.269 54.4827 138.599 55.8373 138.599 57.352C138.599 58.8453 138.269 60.2 137.607 61.416C136.967 62.6107 136.082 63.56 134.951 64.264C133.842 64.968 132.594 65.32 131.207 65.32ZM122.983 71.4V49.64H126.503V53.768L125.895 57.512L126.503 61.224V71.4H122.983ZM130.631 61.992C131.485 61.992 132.231 61.8 132.871 61.416C133.533 61.0107 134.045 60.456 134.407 59.752C134.791 59.048 134.983 58.2373 134.983 57.32C134.983 56.4027 134.791 55.592 134.407 54.888C134.045 54.184 133.533 53.64 132.871 53.256C132.231 52.8507 131.485 52.648 130.631 52.648C129.778 52.648 129.021 52.8507 128.359 53.256C127.698 53.64 127.186 54.184 126.823 54.888C126.461 55.592 126.279 56.4027 126.279 57.32C126.279 58.2373 126.461 59.048 126.823 59.752C127.186 60.456 127.698 61.0107 128.359 61.416C129.021 61.8 129.778 61.992 130.631 61.992ZM154.672 65.32C152.901 65.32 151.397 65 150.16 64.36C148.923 63.72 147.813 62.7813 146.832 61.544L149.328 59.048C149.947 59.944 150.683 60.648 151.536 61.16C152.389 61.6507 153.477 61.896 154.8 61.896C156.037 61.896 157.019 61.64 157.744 61.128C158.491 60.616 158.864 59.912 158.864 59.016C158.864 58.2693 158.672 57.6613 158.288 57.192C157.904 56.7227 157.392 56.3387 156.752 56.04C156.133 55.72 155.44 55.4427 154.672 55.208C153.925 54.952 153.168 54.6747 152.4 54.376C151.653 54.056 150.96 53.6613 150.32 53.192C149.701 52.7227 149.2 52.1147 148.816 51.368C148.432 50.6213 148.24 49.672 148.24 48.52C148.24 47.1973 148.56 46.0773 149.2 45.16C149.861 44.2213 150.747 43.5067 151.856 43.016C152.965 42.5253 154.203 42.28 155.568 42.28C157.04 42.28 158.352 42.568 159.504 43.144C160.677 43.72 161.627 44.456 162.352 45.352L159.856 47.848C159.216 47.1227 158.544 46.5893 157.84 46.248C157.157 45.8853 156.368 45.704 155.472 45.704C154.363 45.704 153.488 45.928 152.848 46.376C152.229 46.824 151.92 47.4533 151.92 48.264C151.92 48.9467 152.112 49.5013 152.496 49.928C152.88 50.3333 153.381 50.6853 154 50.984C154.64 51.2613 155.333 51.528 156.08 51.784C156.848 52.04 157.605 52.328 158.352 52.648C159.12 52.968 159.813 53.384 160.432 53.896C161.072 54.3867 161.584 55.0267 161.968 55.816C162.352 56.6053 162.544 57.5973 162.544 58.792C162.544 60.7973 161.829 62.3867 160.4 63.56C158.992 64.7333 157.083 65.32 154.672 65.32ZM168.069 65V43.24H171.589V65H168.069ZM164.389 52.84V49.64H175.269V52.84H164.389ZM184.43 65.32C182.936 65.32 181.582 64.968 180.366 64.264C179.15 63.5387 178.179 62.568 177.454 61.352C176.75 60.136 176.398 58.7813 176.398 57.288C176.398 55.7947 176.75 54.4507 177.454 53.256C178.179 52.0613 179.15 51.112 180.366 50.408C181.582 49.6827 182.936 49.32 184.43 49.32C185.944 49.32 187.31 49.672 188.526 50.376C189.742 51.08 190.702 52.04 191.406 53.256C192.131 54.4507 192.494 55.7947 192.494 57.288C192.494 58.7813 192.131 60.136 191.406 61.352C190.702 62.568 189.742 63.5387 188.526 64.264C187.31 64.968 185.944 65.32 184.43 65.32ZM184.43 61.928C185.304 61.928 186.072 61.736 186.734 61.352C187.416 60.9467 187.939 60.392 188.302 59.688C188.686 58.984 188.878 58.184 188.878 57.288C188.878 56.392 188.686 55.6027 188.302 54.92C187.918 54.2373 187.395 53.704 186.734 53.32C186.072 52.9147 185.304 52.712 184.43 52.712C183.576 52.712 182.808 52.9147 182.126 53.32C181.464 53.704 180.942 54.2373 180.558 54.92C180.195 55.6027 180.014 56.392 180.014 57.288C180.014 58.184 180.195 58.984 180.558 59.688C180.942 60.392 181.464 60.9467 182.126 61.352C182.808 61.736 183.576 61.928 184.43 61.928ZM195.421 65V49.64H198.941V65H195.421ZM198.941 56.456L197.725 55.848C197.725 53.9067 198.151 52.3387 199.005 51.144C199.879 49.928 201.191 49.32 202.941 49.32C203.709 49.32 204.402 49.4587 205.021 49.736C205.639 50.0133 206.215 50.4613 206.749 51.08L204.445 53.448C204.167 53.1493 203.858 52.936 203.517 52.808C203.175 52.68 202.781 52.616 202.333 52.616C201.351 52.616 200.541 52.9253 199.901 53.544C199.261 54.1627 198.941 55.1333 198.941 56.456ZM215.119 65.32C213.583 65.32 212.197 64.9787 210.959 64.296C209.743 63.592 208.773 62.632 208.047 61.416C207.343 60.2 206.991 58.8347 206.991 57.32C206.991 55.8053 207.343 54.4507 208.047 53.256C208.751 52.04 209.701 51.08 210.895 50.376C212.111 49.672 213.455 49.32 214.927 49.32C216.357 49.32 217.615 49.6507 218.703 50.312C219.813 50.9733 220.677 51.88 221.295 53.032C221.935 54.184 222.255 55.496 222.255 56.968C222.255 57.224 222.234 57.4907 222.191 57.768C222.17 58.024 222.127 58.312 222.063 58.632H209.455V55.752H220.239L218.927 56.904C218.885 55.9653 218.703 55.176 218.383 54.536C218.063 53.896 217.605 53.4053 217.007 53.064C216.431 52.7227 215.717 52.552 214.863 52.552C213.967 52.552 213.189 52.744 212.527 53.128C211.866 53.512 211.354 54.056 210.991 54.76C210.629 55.4427 210.447 56.264 210.447 57.224C210.447 58.184 210.639 59.0267 211.023 59.752C211.407 60.4773 211.951 61.0427 212.655 61.448C213.359 61.832 214.17 62.024 215.087 62.024C215.877 62.024 216.602 61.8853 217.263 61.608C217.946 61.3307 218.522 60.9253 218.991 60.392L221.231 62.664C220.485 63.5387 219.578 64.2 218.511 64.648C217.445 65.096 216.314 65.32 215.119 65.32Z" fill="white"/>
<path d="M82.592 32V30.452H86.066C86.99 30.452 87.8 30.254 88.496 29.858C89.192 29.45 89.732 28.892 90.116 28.184C90.512 27.476 90.71 26.66 90.71 25.736C90.71 24.824 90.512 24.014 90.116 23.306C89.72 22.598 89.174 22.046 88.478 21.65C87.782 21.254 86.978 21.056 86.066 21.056H82.61V19.508H86.102C87.014 19.508 87.854 19.664 88.622 19.976C89.402 20.288 90.074 20.726 90.638 21.29C91.214 21.854 91.658 22.514 91.97 23.27C92.294 24.026 92.456 24.854 92.456 25.754C92.456 26.642 92.294 27.47 91.97 28.238C91.658 28.994 91.22 29.654 90.656 30.218C90.092 30.782 89.42 31.22 88.64 31.532C87.872 31.844 87.038 32 86.138 32H82.592ZM81.476 32V19.508H83.168V32H81.476ZM98.4182 32.18C97.5782 32.18 96.8222 31.982 96.1502 31.586C95.4782 31.19 94.9442 30.656 94.5482 29.984C94.1522 29.3 93.9542 28.538 93.9542 27.698C93.9542 26.87 94.1522 26.126 94.5482 25.466C94.9442 24.794 95.4782 24.26 96.1502 23.864C96.8222 23.468 97.5782 23.27 98.4182 23.27C99.2462 23.27 99.9962 23.468 100.668 23.864C101.352 24.248 101.892 24.776 102.288 25.448C102.684 26.12 102.882 26.87 102.882 27.698C102.882 28.538 102.684 29.3 102.288 29.984C101.892 30.656 101.352 31.19 100.668 31.586C99.9962 31.982 99.2462 32.18 98.4182 32.18ZM98.4182 30.614C98.9582 30.614 99.4382 30.488 99.8582 30.236C100.278 29.984 100.608 29.642 100.848 29.21C101.088 28.766 101.208 28.262 101.208 27.698C101.208 27.146 101.082 26.654 100.83 26.222C100.59 25.79 100.26 25.454 99.8402 25.214C99.4322 24.962 98.9582 24.836 98.4182 24.836C97.8782 24.836 97.3982 24.962 96.9782 25.214C96.5582 25.454 96.2282 25.79 95.9882 26.222C95.7482 26.654 95.6282 27.146 95.6282 27.698C95.6282 28.262 95.7482 28.766 95.9882 29.21C96.2282 29.642 96.5582 29.984 96.9782 30.236C97.3982 30.488 97.8782 30.614 98.4182 30.614ZM106.909 32L103.525 23.45H105.217L107.665 30.11H107.125L109.555 23.45H110.491L112.921 30.11H112.381L114.829 23.45H116.521L113.155 32H112.201L109.735 25.538H110.329L107.845 32H106.909ZM124.009 32V27.014C124.009 26.366 123.805 25.832 123.397 25.412C122.989 24.992 122.461 24.782 121.813 24.782C121.381 24.782 120.997 24.878 120.661 25.07C120.325 25.262 120.061 25.526 119.869 25.862C119.677 26.198 119.581 26.582 119.581 27.014L118.915 26.636C118.915 25.988 119.059 25.412 119.347 24.908C119.635 24.404 120.037 24.008 120.553 23.72C121.069 23.42 121.651 23.27 122.299 23.27C122.947 23.27 123.517 23.432 124.009 23.756C124.513 24.08 124.909 24.506 125.197 25.034C125.485 25.55 125.629 26.102 125.629 26.69V32H124.009ZM117.961 32V23.45H119.581V32H117.961ZM127.823 32V19.148H129.443V32H127.823ZM135.719 32.18C134.879 32.18 134.123 31.982 133.451 31.586C132.779 31.19 132.245 30.656 131.849 29.984C131.453 29.3 131.255 28.538 131.255 27.698C131.255 26.87 131.453 26.126 131.849 25.466C132.245 24.794 132.779 24.26 133.451 23.864C134.123 23.468 134.879 23.27 135.719 23.27C136.547 23.27 137.297 23.468 137.969 23.864C138.653 24.248 139.193 24.776 139.589 25.448C139.985 26.12 140.183 26.87 140.183 27.698C140.183 28.538 139.985 29.3 139.589 29.984C139.193 30.656 138.653 31.19 137.969 31.586C137.297 31.982 136.547 32.18 135.719 32.18ZM135.719 30.614C136.259 30.614 136.739 30.488 137.159 30.236C137.579 29.984 137.909 29.642 138.149 29.21C138.389 28.766 138.509 28.262 138.509 27.698C138.509 27.146 138.383 26.654 138.131 26.222C137.891 25.79 137.561 25.454 137.141 25.214C136.733 24.962 136.259 24.836 135.719 24.836C135.179 24.836 134.699 24.962 134.279 25.214C133.859 25.454 133.529 25.79 133.289 26.222C133.049 26.654 132.929 27.146 132.929 27.698C132.929 28.262 133.049 28.766 133.289 29.21C133.529 29.642 133.859 29.984 134.279 30.236C134.699 30.488 135.179 30.614 135.719 30.614ZM145.644 32.18C144.864 32.18 144.156 31.988 143.52 31.604C142.884 31.208 142.38 30.674 142.008 30.002C141.648 29.33 141.468 28.574 141.468 27.734C141.468 26.894 141.648 26.138 142.008 25.466C142.38 24.794 142.878 24.26 143.502 23.864C144.138 23.468 144.852 23.27 145.644 23.27C146.292 23.27 146.868 23.408 147.372 23.684C147.888 23.948 148.302 24.32 148.614 24.8C148.926 25.268 149.1 25.814 149.136 26.438V29.012C149.1 29.624 148.926 30.17 148.614 30.65C148.314 31.13 147.906 31.508 147.39 31.784C146.886 32.048 146.304 32.18 145.644 32.18ZM145.914 30.65C146.718 30.65 147.366 30.38 147.858 29.84C148.35 29.288 148.596 28.586 148.596 27.734C148.596 27.146 148.482 26.636 148.254 26.204C148.038 25.76 147.726 25.418 147.318 25.178C146.91 24.926 146.436 24.8 145.896 24.8C145.356 24.8 144.876 24.926 144.456 25.178C144.048 25.43 143.724 25.778 143.484 26.222C143.256 26.654 143.142 27.152 143.142 27.716C143.142 28.292 143.256 28.802 143.484 29.246C143.724 29.678 144.054 30.02 144.474 30.272C144.894 30.524 145.374 30.65 145.914 30.65ZM148.488 32V29.696L148.794 27.608L148.488 25.538V23.45H150.126V32H148.488ZM156.103 32.18C155.311 32.18 154.603 31.988 153.979 31.604C153.355 31.208 152.857 30.674 152.485 30.002C152.125 29.33 151.945 28.574 151.945 27.734C151.945 26.894 152.125 26.138 152.485 25.466C152.857 24.794 153.355 24.26 153.979 23.864C154.603 23.468 155.311 23.27 156.103 23.27C156.739 23.27 157.315 23.408 157.831 23.684C158.347 23.948 158.761 24.32 159.073 24.8C159.397 25.268 159.577 25.814 159.613 26.438V29.012C159.577 29.624 159.403 30.17 159.091 30.65C158.779 31.13 158.365 31.508 157.849 31.784C157.333 32.048 156.751 32.18 156.103 32.18ZM156.373 30.65C156.913 30.65 157.381 30.524 157.777 30.272C158.185 30.02 158.503 29.678 158.731 29.246C158.959 28.802 159.073 28.298 159.073 27.734C159.073 27.146 158.953 26.636 158.713 26.204C158.485 25.772 158.167 25.43 157.759 25.178C157.363 24.926 156.895 24.8 156.355 24.8C155.815 24.8 155.341 24.926 154.933 25.178C154.525 25.43 154.201 25.778 153.961 26.222C153.733 26.654 153.619 27.152 153.619 27.716C153.619 28.292 153.733 28.802 153.961 29.246C154.201 29.678 154.525 30.02 154.933 30.272C155.353 30.524 155.833 30.65 156.373 30.65ZM160.603 32H158.965V29.696L159.271 27.608L158.965 25.538V19.148H160.603V32ZM170.612 32.18C169.772 32.18 169.016 31.982 168.344 31.586C167.672 31.19 167.138 30.656 166.742 29.984C166.346 29.3 166.148 28.538 166.148 27.698C166.148 26.87 166.346 26.126 166.742 25.466C167.138 24.794 167.672 24.26 168.344 23.864C169.016 23.468 169.772 23.27 170.612 23.27C171.44 23.27 172.19 23.468 172.862 23.864C173.546 24.248 174.086 24.776 174.482 25.448C174.878 26.12 175.076 26.87 175.076 27.698C175.076 28.538 174.878 29.3 174.482 29.984C174.086 30.656 173.546 31.19 172.862 31.586C172.19 31.982 171.44 32.18 170.612 32.18ZM170.612 30.614C171.152 30.614 171.632 30.488 172.052 30.236C172.472 29.984 172.802 29.642 173.042 29.21C173.282 28.766 173.402 28.262 173.402 27.698C173.402 27.146 173.276 26.654 173.024 26.222C172.784 25.79 172.454 25.454 172.034 25.214C171.626 24.962 171.152 24.836 170.612 24.836C170.072 24.836 169.592 24.962 169.172 25.214C168.752 25.454 168.422 25.79 168.182 26.222C167.942 26.654 167.822 27.146 167.822 27.698C167.822 28.262 167.942 28.766 168.182 29.21C168.422 29.642 168.752 29.984 169.172 30.236C169.592 30.488 170.072 30.614 170.612 30.614ZM182.949 32V27.014C182.949 26.366 182.745 25.832 182.337 25.412C181.929 24.992 181.401 24.782 180.753 24.782C180.321 24.782 179.937 24.878 179.601 25.07C179.265 25.262 179.001 25.526 178.809 25.862C178.617 26.198 178.521 26.582 178.521 27.014L177.855 26.636C177.855 25.988 177.999 25.412 178.287 24.908C178.575 24.404 178.977 24.008 179.493 23.72C180.009 23.42 180.591 23.27 181.239 23.27C181.887 23.27 182.457 23.432 182.949 23.756C183.453 24.08 183.849 24.506 184.137 25.034C184.425 25.55 184.569 26.102 184.569 26.69V32H182.949ZM176.901 32V23.45H178.521V32H176.901ZM191.82 32V19.868H193.44V32H191.82ZM189.714 24.926V23.45H195.546V24.926H189.714ZM203.181 32V27.014C203.181 26.366 202.977 25.832 202.569 25.412C202.161 24.992 201.633 24.782 200.985 24.782C200.553 24.782 200.169 24.878 199.833 25.07C199.497 25.262 199.233 25.526 199.041 25.862C198.849 26.198 198.753 26.582 198.753 27.014L198.087 26.636C198.087 25.988 198.231 25.412 198.519 24.908C198.807 24.404 199.209 24.008 199.725 23.72C200.241 23.42 200.823 23.27 201.471 23.27C202.119 23.27 202.689 23.414 203.181 23.702C203.685 23.99 204.081 24.392 204.369 24.908C204.657 25.424 204.801 26.018 204.801 26.69V32H203.181ZM197.133 32V19.148H198.753V32H197.133ZM210.955 32.18C210.103 32.18 209.335 31.988 208.651 31.604C207.967 31.208 207.427 30.674 207.031 30.002C206.635 29.33 206.437 28.568 206.437 27.716C206.437 26.876 206.629 26.12 207.013 25.448C207.409 24.776 207.937 24.248 208.597 23.864C209.269 23.468 210.019 23.27 210.847 23.27C211.639 23.27 212.335 23.45 212.935 23.81C213.547 24.17 214.021 24.668 214.357 25.304C214.705 25.94 214.879 26.66 214.879 27.464C214.879 27.584 214.873 27.716 214.861 27.86C214.849 27.992 214.825 28.148 214.789 28.328H207.571V26.978H213.925L213.331 27.5C213.331 26.924 213.229 26.438 213.025 26.042C212.821 25.634 212.533 25.322 212.161 25.106C211.789 24.878 211.339 24.764 210.811 24.764C210.259 24.764 209.773 24.884 209.353 25.124C208.933 25.364 208.609 25.7 208.381 26.132C208.153 26.564 208.039 27.074 208.039 27.662C208.039 28.262 208.159 28.79 208.399 29.246C208.639 29.69 208.981 30.038 209.425 30.29C209.869 30.53 210.379 30.65 210.955 30.65C211.435 30.65 211.873 30.566 212.269 30.398C212.677 30.23 213.025 29.978 213.313 29.642L214.357 30.704C213.949 31.184 213.445 31.55 212.845 31.802C212.257 32.054 211.627 32.18 210.955 32.18Z" fill="white"/>
</svg>
