<svg width="320" height="275" viewBox="0 0 320 275" fill="none" xmlns="http://www.w3.org/2000/svg">
<rect opacity="0.4" x="0.409993" y="-0.409993" width="112.084" height="110.483" rx="15.4107" transform="matrix(1 1.74846e-07 1.74845e-07 -1 1.17188 165.105)" stroke="#9672FE" stroke-width="0.819987"/>
<rect opacity="0.4" x="0.409993" y="-0.409993" width="136.118" height="81.9988" rx="15.4107" transform="matrix(1 1.74846e-07 1.74845e-07 -1 124.82 82.972)" stroke="#2CA0F1" stroke-width="0.819987"/>
<rect opacity="0.4" x="0.409993" y="-0.409993" width="115.287" height="72.8481" rx="15.4107" transform="matrix(1 1.74846e-07 1.74845e-07 -1 203.75 165.105)" stroke="#B499FF" stroke-width="0.819987"/>
<rect opacity="0.4" x="0.409993" y="-0.409993" width="153.722" height="100.073" rx="19.3658" transform="matrix(1 1.74846e-07 1.74845e-07 -1 122.883 274.005)" stroke="url(#paint0_linear_22940_6904)" stroke-width="0.819987"/>
<path opacity="0.1" fill-rule="evenodd" clip-rule="evenodd" d="M41.1797 230.998C41.1797 239.735 48.2628 246.818 57.0004 246.818L98.2342 246.818C106.972 246.818 114.055 239.735 114.055 230.998L114.055 198.938L114.065 198.949L114.065 194.055C114.065 179.719 124.961 167.928 138.924 166.512L179.687 166.512C188.425 166.512 195.508 159.429 195.508 150.691L195.508 109.457C195.508 100.719 188.425 93.6363 179.687 93.6363L138.453 93.6363C129.716 93.6363 122.633 100.719 122.633 109.457L122.633 133.216L122.496 133.075L122.496 146.256C122.496 161.547 110.1 173.942 94.8097 173.942L89.7734 173.942L89.7739 173.943L57.0004 173.943C48.2629 173.943 41.1797 181.026 41.1797 189.764L41.1797 230.998Z" fill="url(#paint1_linear_22940_6904)"/>
<path d="M226.098 209.556V203.611C226.098 200.332 223.431 197.666 220.153 197.666H181.511C176.595 197.666 172.594 201.667 172.594 206.583V242.253C172.594 248.795 177.926 251.17 181.511 251.17H226.098C229.376 251.17 232.043 248.504 232.043 245.225V215.501C232.043 212.222 229.376 209.556 226.098 209.556ZM220.153 236.308H214.208V224.418H220.153V236.308ZM181.511 209.556C180.746 209.522 180.023 209.193 179.494 208.64C178.964 208.086 178.669 207.349 178.669 206.583C178.669 205.817 178.964 205.081 179.494 204.527C180.023 203.973 180.746 203.645 181.511 203.611H220.153V209.556H181.511Z" fill="#ADDCFD"/>
<path d="M171.965 23.9316C167.437 23.9316 163.766 27.6028 163.766 32.1315V50.1713C163.766 54.6999 167.437 58.3711 171.965 58.3711H193.383C192.774 56.519 192.464 54.5812 192.465 52.6312H175.245C175.245 51.1089 174.641 49.6489 173.564 48.5725C172.488 47.4961 171.028 46.8913 169.506 46.8913V35.4115C172.691 35.4115 175.245 32.8572 175.245 29.6716H203.945C203.945 31.1939 204.55 32.6538 205.626 33.7303C206.703 34.8067 208.162 35.4115 209.685 35.4115V35.5837C211.608 35.5837 213.531 35.9281 215.425 36.5595V32.1315C215.425 27.6028 211.753 23.9316 207.225 23.9316H171.965ZM189.595 32.5415C184.716 32.6276 180.985 36.2725 180.985 41.1514C180.985 46.0303 184.716 49.5891 189.595 49.7613C190.686 49.7613 191.805 49.5317 192.867 49.1012C193.642 45.9442 194.933 42.9595 198.119 40.0321C197.775 36.2151 194.158 32.4554 189.595 32.5415ZM209.685 38.2814L216.142 44.7388L209.685 51.1963V46.8913C204.375 46.8913 200.903 52.5164 203.256 57.2806L200.128 60.4088C195.077 52.7747 200.53 42.5864 209.685 42.5864V38.2814ZM209.685 69.851L203.227 63.3936L209.685 56.9362V61.2411C214.994 61.2411 218.467 55.616 216.113 50.8519L219.242 47.7236C224.293 55.3577 218.84 65.546 209.685 65.546V69.851Z" fill="#ABD9F9"/>
<path d="M261.743 109.211C259.568 109.211 257.483 110.075 255.945 111.613C254.407 113.15 253.543 115.236 253.543 117.411C253.543 119.586 254.407 121.671 255.945 123.209C257.483 124.747 259.568 125.611 261.743 125.611C263.918 125.611 266.004 124.747 267.541 123.209C269.079 121.671 269.943 119.586 269.943 117.411C269.943 115.236 269.079 113.15 267.541 111.613C266.004 110.075 263.918 109.211 261.743 109.211ZM252.997 129.984C250.822 129.984 248.736 130.848 247.199 132.386C245.661 133.923 244.797 136.009 244.797 138.184V140.782C244.797 142.43 245.991 143.834 247.618 144.099C256.972 145.627 266.514 145.627 275.869 144.099C276.656 143.971 277.372 143.566 277.889 142.959C278.406 142.351 278.69 141.579 278.69 140.782V138.184C278.69 136.009 277.826 133.923 276.288 132.386C274.75 130.848 272.664 129.984 270.49 129.984H269.746C269.342 129.984 268.939 130.05 268.557 130.172L266.663 130.791C263.466 131.834 260.02 131.834 256.823 130.791L254.93 130.172C254.546 130.047 254.146 129.984 253.742 129.984H252.997Z" fill="#E1D6FF"/>
<path fill-rule="evenodd" clip-rule="evenodd" d="M50.8799 83.2441H64.273C76.8993 83.2441 83.2142 83.2441 87.135 87.1683C89.9609 89.9909 90.7511 94.0558 90.9721 100.823H24.1808C24.4018 94.0558 25.192 89.9909 28.0179 87.1683C31.9388 83.2441 38.2536 83.2441 50.8799 83.2441ZM64.273 136.817H50.8799C38.2536 136.817 31.9388 136.817 28.0179 132.893C24.0937 128.972 24.0938 122.657 24.0938 110.03C24.0938 108.55 24.0938 107.158 24.1004 105.845H91.0525C91.0592 107.158 91.0592 108.55 91.0592 110.03C91.0592 122.657 91.0592 128.972 87.135 132.893C83.2142 136.817 76.8993 136.817 64.273 136.817ZM37.4868 120.912C36.8208 120.912 36.1821 121.177 35.7111 121.648C35.2402 122.119 34.9756 122.758 34.9756 123.424C34.9756 124.09 35.2402 124.728 35.7111 125.199C36.1821 125.67 36.8208 125.935 37.4868 125.935H50.8799C51.5459 125.935 52.1847 125.67 52.6556 125.199C53.1266 124.728 53.3911 124.09 53.3911 123.424C53.3911 122.758 53.1266 122.119 52.6556 121.648C52.1847 121.177 51.5459 120.912 50.8799 120.912H37.4868ZM59.2506 120.912C58.5846 120.912 57.9459 121.177 57.4749 121.648C57.004 122.119 56.7394 122.758 56.7394 123.424C56.7394 124.09 57.004 124.728 57.4749 125.199C57.9459 125.67 58.5846 125.935 59.2506 125.935H64.273C64.939 125.935 65.5778 125.67 66.0487 125.199C66.5196 124.728 66.7842 124.09 66.7842 123.424C66.7842 122.758 66.5196 122.119 66.0487 121.648C65.5778 121.177 64.939 120.912 64.273 120.912H59.2506Z" fill="#D5C7FF"/>
<defs>
<linearGradient id="paint0_linear_22940_6904" x1="8.45802e-07" y1="3.00107" x2="136.391" y2="101.062" gradientUnits="userSpaceOnUse">
<stop stop-color="#35ACFE"/>
<stop offset="1" stop-color="#1887D3"/>
</linearGradient>
<linearGradient id="paint1_linear_22940_6904" x1="41.1797" y1="246.818" x2="171.213" y2="102.064" gradientUnits="userSpaceOnUse">
<stop stop-color="#F7B1FD"/>
<stop offset="1" stop-color="#9B82E1"/>
</linearGradient>
</defs>
</svg>
