<svg width="1399" height="572" viewBox="0 0 1399 572" fill="none" xmlns="http://www.w3.org/2000/svg">
<path d="M1142.86 160.998H1144.36V161.085L1144.35 161.172L1142.86 160.998ZM1094.12 212.89L1094.39 214.366L1094.2 214.4L1094.01 214.386L1094.12 212.89ZM1127.09 274.334H1125.59V270.651L1128.16 273.285L1127.09 274.334ZM1127.74 275H1129.24V278.682L1126.66 276.048L1127.74 275ZM1188 199.933L1189.07 198.886L1191.55 201.433H1188V199.933ZM1187.66 199.583L1186.58 200.63L1184.1 198.083H1187.66V199.583ZM1361.8 0.5C1382.35 0.5 1399 17.1547 1399 37.6993H1396C1396 18.8116 1380.69 3.5 1361.8 3.5V0.5ZM1178.56 0.5H1361.8V3.5H1178.56V0.5ZM1141.36 37.6993C1141.36 17.1547 1158.01 0.5 1178.56 0.5V3.5C1159.67 3.5 1144.36 18.8115 1144.36 37.6993H1141.36ZM1141.36 160.998V37.6993H1144.36V160.998H1141.36ZM1144.35 161.172C1141.22 188.044 1120.73 209.612 1094.39 214.366L1093.85 211.414C1118.9 206.893 1138.39 186.376 1141.37 160.824L1144.35 161.172ZM1091.39 211.287C1092.34 211.287 1093.29 211.323 1094.23 211.394L1094.01 214.386C1093.14 214.32 1092.27 214.287 1091.39 214.287V211.287ZM37.7013 211.287H1091.39V214.287H37.7013V211.287ZM0.501953 248.486C0.501953 227.942 17.1567 211.287 37.7013 211.287V214.287C18.8135 214.287 3.50195 229.599 3.50195 248.486H0.501953ZM0.501953 534.671V248.486H3.50195V534.671H0.501953ZM37.7013 571.87C17.1567 571.87 0.501953 555.215 0.501953 534.671H3.50195C3.50195 553.559 18.8135 568.87 37.7013 568.87V571.87ZM1091.39 571.87H37.7013V568.87H1091.39V571.87ZM1128.59 534.671C1128.59 555.216 1111.93 571.87 1091.39 571.87V568.87C1110.27 568.87 1125.59 553.559 1125.59 534.671H1128.59ZM1128.59 274.334V534.671H1125.59V274.334H1128.59ZM1128.16 273.285L1128.81 273.952L1126.66 276.048L1126.01 275.382L1128.16 273.285ZM1126.24 275V260.196H1129.24V275H1126.24ZM1126.24 260.196C1126.24 226.085 1153.89 198.433 1188 198.433V201.433C1155.55 201.433 1129.24 227.742 1129.24 260.196H1126.24ZM1186.93 200.979L1186.58 200.63L1188.73 198.536L1189.07 198.886L1186.93 200.979ZM1361.8 201.083H1187.66V198.083H1361.8V201.083ZM1399 163.884C1399 184.428 1382.35 201.083 1361.8 201.083V198.083C1380.69 198.083 1396 182.772 1396 163.884H1399ZM1399 37.6993V163.884H1396V37.6993H1399Z" fill="url(#paint0_linear_23582_11902)" fill-opacity="0.7"/>
<defs>
<linearGradient id="paint0_linear_23582_11902" x1="1397.5" y1="2" x2="857.879" y2="897.354" gradientUnits="userSpaceOnUse">
<stop stop-color="#6A35FF"/>
<stop offset="0.524793" stop-color="#F9AEFF"/>
<stop offset="1" stop-color="#F9AEFF" stop-opacity="0"/>
</linearGradient>
</defs>
</svg>
