<svg width="1399" height="572" viewBox="0 0 1399 572" fill="none" xmlns="http://www.w3.org/2000/svg">
<path d="M256.642 160.998H255.142V161.085L255.152 161.172L256.642 160.998ZM305.381 212.89L305.115 214.366L305.303 214.4L305.495 214.386L305.381 212.89ZM272.414 274.334H273.914V270.651L271.341 273.285L272.414 274.334ZM271.763 275H270.263V278.682L272.836 276.048L271.763 275ZM211.5 199.933L210.425 198.886L207.945 201.433H211.5V199.933ZM211.841 199.583L212.915 200.63L215.395 198.083H211.841V199.583ZM37.6993 0.5C17.1547 0.5 0.5 17.1547 0.5 37.6993H3.5C3.5 18.8116 18.8116 3.5 37.6993 3.5V0.5ZM220.942 0.5H37.6993V3.5H220.942V0.5ZM258.142 37.6993C258.142 17.1547 241.487 0.5 220.942 0.5V3.5C239.83 3.5 255.142 18.8115 255.142 37.6993H258.142ZM258.142 160.998V37.6993H255.142V160.998H258.142ZM255.152 161.172C258.282 188.044 278.773 209.612 305.115 214.366L305.648 211.414C280.599 206.893 261.108 186.376 258.132 160.824L255.152 161.172ZM308.113 211.287C307.156 211.287 306.208 211.323 305.268 211.394L305.495 214.386C306.359 214.32 307.232 214.287 308.113 214.287V211.287ZM1361.8 211.287H308.113V214.287H1361.8V211.287ZM1399 248.486C1399 227.942 1382.34 211.287 1361.8 211.287V214.287C1380.69 214.287 1396 229.599 1396 248.486H1399ZM1399 534.671V248.486H1396V534.671H1399ZM1361.8 571.87C1382.34 571.87 1399 555.215 1399 534.671H1396C1396 553.559 1380.69 568.87 1361.8 568.87V571.87ZM308.113 571.87H1361.8V568.87H308.113V571.87ZM270.914 534.671C270.914 555.216 287.569 571.87 308.113 571.87V568.87C289.226 568.87 273.914 553.559 273.914 534.671H270.914ZM270.914 274.334V534.671H273.914V274.334H270.914ZM271.341 273.285L270.69 273.952L272.836 276.048L273.487 275.382L271.341 273.285ZM273.263 275V260.196H270.263V275H273.263ZM273.263 260.196C273.263 226.085 245.611 198.433 211.5 198.433V201.433C243.954 201.433 270.263 227.742 270.263 260.196H273.263ZM212.575 200.979L212.915 200.63L210.766 198.536L210.425 198.886L212.575 200.979ZM37.6993 201.083H211.841V198.083H37.6993V201.083ZM0.5 163.884C0.5 184.428 17.1547 201.083 37.6993 201.083V198.083C18.8116 198.083 3.5 182.772 3.5 163.884H0.5ZM0.5 37.6993V163.884H3.5V37.6993H0.5Z" fill="url(#paint0_linear_23582_11898)" fill-opacity="0.7"/>
<defs>
<linearGradient id="paint0_linear_23582_11898" x1="2" y1="2" x2="541.621" y2="897.354" gradientUnits="userSpaceOnUse">
<stop stop-color="#6A35FF"/>
<stop offset="0.524793" stop-color="#F9AEFF"/>
<stop offset="1" stop-color="#F9AEFF" stop-opacity="0"/>
</linearGradient>
</defs>
</svg>
