<svg width="508" height="598" viewBox="0 0 508 598" fill="none" xmlns="http://www.w3.org/2000/svg">
<path d="M404.341 580.775L209.293 579.839C198.025 579.786 187.24 575.26 179.309 567.256C171.378 559.252 166.951 548.426 167 537.158L169.06 48.1915C169.084 42.6042 170.21 37.0766 172.372 31.9249C174.535 26.7731 177.692 22.0981 181.663 18.1674C185.634 14.2367 190.34 11.1274 195.514 9.01729C200.687 6.90716 206.226 5.83762 211.813 5.86985L406.804 6.71945C418.069 6.7728 428.852 11.2972 436.783 19.298C444.713 27.2988 449.142 38.1214 449.096 49.3866L447.037 538.411C447.022 543.998 445.905 549.527 443.75 554.682C441.595 559.836 438.444 564.515 434.478 568.451C430.512 572.386 425.809 575.5 420.637 577.615C415.466 579.73 409.928 580.804 404.341 580.775Z" fill="#263238"/>
<path d="M406.525 23.6539L368.769 23.4811L258.306 22.9627H245.015L211.895 22.8187C207.987 22.7998 204.113 23.551 200.496 25.0295C196.878 26.508 193.587 28.6848 190.811 31.4356C188.035 34.1863 185.828 37.4571 184.316 41.061C182.804 44.6649 182.018 48.5314 182.001 52.4395L179.985 529.771C179.968 533.678 180.72 537.55 182.2 541.166C183.679 544.782 185.856 548.071 188.607 550.845C191.357 553.62 194.627 555.826 198.23 557.337C201.833 558.847 205.699 559.634 209.605 559.651L404.279 560.544C408.187 560.557 412.06 559.8 415.675 558.316C419.291 556.832 422.578 554.651 425.35 551.896C428.123 549.141 430.325 545.867 431.831 542.261C433.338 538.655 434.119 534.788 434.13 530.879L436.146 53.5483C436.165 49.6402 435.414 45.7667 433.935 42.149C432.457 38.5313 430.28 35.2404 427.529 32.4642C424.779 29.6881 421.508 27.4811 417.904 25.9694C414.3 24.4577 410.434 23.6709 406.525 23.6539Z" fill="#FAFAFA"/>
<path d="M407.969 67.0264C407.969 67.5083 407.826 67.9794 407.558 68.3799C407.29 68.7804 406.909 69.0923 406.463 69.2761C406.018 69.4599 405.528 69.5072 405.055 69.4121C404.583 69.3171 404.149 69.0839 403.809 68.7421C403.469 68.4003 403.239 67.9653 403.147 67.4923C403.054 67.0193 403.105 66.5295 403.291 66.0851C403.477 65.6407 403.792 65.2616 404.194 64.9959C404.596 64.7303 405.068 64.59 405.55 64.5928C406.192 64.5966 406.808 64.8547 407.261 65.3107C407.714 65.7667 407.969 66.3835 407.969 67.0264Z" fill="#263238"/>
<path d="M407.937 75.8396C407.935 76.3203 407.789 76.7894 407.52 77.1877C407.251 77.586 406.87 77.8957 406.425 78.0777C405.98 78.2596 405.491 78.3058 405.02 78.2103C404.549 78.1147 404.117 77.8818 403.778 77.5409C403.439 77.2 403.209 76.7664 403.116 76.2947C403.023 75.823 403.072 75.3344 403.257 74.8906C403.442 74.4468 403.753 74.0675 404.153 73.8008C404.553 73.534 405.023 73.3916 405.504 73.3916C406.151 73.3954 406.77 73.655 407.226 74.1137C407.682 74.5723 407.938 75.1928 407.937 75.8396Z" fill="#263238"/>
<path d="M407.912 84.5518C407.914 85.0372 407.773 85.5125 407.505 85.9172C407.237 86.322 406.855 86.638 406.407 86.8251C405.959 87.0121 405.466 87.0618 404.99 86.9678C404.513 86.8738 404.076 86.6404 403.733 86.2972C403.389 85.9539 403.156 85.5164 403.062 85.0402C402.968 84.564 403.018 84.0706 403.205 83.6227C403.392 83.1748 403.708 82.7927 404.113 82.5248C404.517 82.2569 404.993 82.1154 405.478 82.1182C406.122 82.122 406.739 82.3796 407.195 82.8352C407.65 83.2907 407.908 83.9075 407.912 84.5518Z" fill="#263238"/>
<path d="M416.539 150.216H221.419C217.999 150.216 215.227 152.988 215.227 156.408V275.669C215.227 279.088 217.999 281.861 221.419 281.861H416.539C419.958 281.861 422.731 279.088 422.731 275.669V156.408C422.731 152.988 419.958 150.216 416.539 150.216Z" fill="#EBEBEB"/>
<path d="M410.835 141.662H215.715C212.296 141.662 209.523 144.434 209.523 147.854V267.115C209.523 270.535 212.296 273.307 215.715 273.307H410.835C414.255 273.307 417.027 270.535 417.027 267.115V147.854C417.027 144.434 414.255 141.662 410.835 141.662Z" fill="#E0E0E0"/>
<path d="M404.257 134.562H209.137C205.718 134.562 202.945 137.335 202.945 140.755V260.015C202.945 263.435 205.718 266.207 209.137 266.207H404.257C407.677 266.207 410.449 263.435 410.449 260.015V140.755C410.449 137.335 407.677 134.562 404.257 134.562Z" fill="#AD90FE"/>
<path d="M237.116 164.63C237.116 166.315 235.776 167.294 233.213 167.294H228.188V157.545H232.94C235.373 157.545 236.626 158.567 236.626 160.079C236.635 160.523 236.518 160.96 236.288 161.34C236.059 161.719 235.727 162.026 235.33 162.225C235.857 162.362 236.321 162.676 236.646 163.113C236.971 163.55 237.136 164.085 237.116 164.63ZM230.42 159.244V161.548H232.666C233.76 161.548 234.365 161.159 234.365 160.396C234.365 159.633 233.76 159.244 232.666 159.244H230.42ZM234.855 164.399C234.855 163.579 234.221 163.19 233.055 163.19H230.42V165.595H233.055C234.221 165.595 234.855 165.235 234.855 164.399Z" fill="white"/>
<path d="M245.235 165.206H240.714L239.85 167.294H237.531L241.851 157.545H244.083L248.403 167.294H246.042L245.235 165.206ZM244.53 163.492L242.974 159.763L241.434 163.492H244.53Z" fill="white"/>
<path d="M258.411 157.545V167.294H256.554L251.701 161.375V167.294H249.469V157.545H251.341L256.179 163.463V157.545H258.411Z" fill="white"/>
<path d="M264.258 163.464L262.948 164.904V167.366H260.773V157.617H263.02V162.168L267.34 157.617H269.845L265.813 161.937L270.133 167.337H267.498L264.258 163.464Z" fill="white"/>
<path d="M235.286 205.137H233.501V207.484H232.579V205.137H227.539V204.475L232.277 198.542H233.299L228.734 204.302H232.608V202.243H233.501V204.302H235.286V205.137Z" fill="white"/>
<path d="M241.856 204.921C241.856 206.361 240.776 207.571 238.616 207.571C237.434 207.611 236.28 207.199 235.391 206.419L235.851 205.684C236.6 206.381 237.594 206.754 238.616 206.721C240.056 206.721 240.92 206.03 240.92 204.921C240.92 203.812 240.157 203.15 238.501 203.15H237.867V202.473L240.344 199.363H235.765V198.542H241.525V199.204L239.005 202.387C240.906 202.56 241.856 203.496 241.856 204.921Z" fill="white"/>
<path d="M249.084 204.864C249.084 206.376 248.033 207.571 245.844 207.571C244.666 207.609 243.518 207.197 242.633 206.419L243.094 205.684C243.459 206.029 243.888 206.299 244.358 206.477C244.827 206.654 245.328 206.738 245.83 206.721C247.356 206.721 248.162 205.987 248.162 204.892C248.162 203.798 247.442 203.035 245.167 203.035H243.266L243.727 198.542H248.623V199.363H244.534L244.217 202.243H245.369C248.062 202.214 249.084 203.28 249.084 204.864Z" fill="white"/>
<path d="M256.975 204.821C256.97 205.207 256.886 205.588 256.727 205.94C256.568 206.292 256.338 206.607 256.051 206.865C255.764 207.124 255.427 207.32 255.061 207.441C254.694 207.563 254.306 207.607 253.922 207.571C251.546 207.571 250.25 205.915 250.25 203.093C250.25 200.054 251.906 198.47 254.34 198.47C255.076 198.439 255.808 198.608 256.456 198.96L256.082 199.694C255.559 199.39 254.958 199.245 254.354 199.277C252.424 199.277 251.186 200.515 251.186 202.949C251.186 203.15 251.186 203.395 251.186 203.669C251.446 203.178 251.843 202.772 252.328 202.501C252.814 202.23 253.367 202.106 253.922 202.142C254.303 202.093 254.69 202.126 255.057 202.238C255.425 202.35 255.764 202.539 256.053 202.793C256.342 203.046 256.573 203.358 256.732 203.707C256.891 204.057 256.974 204.437 256.975 204.821ZM256.068 204.821C256.068 203.64 255.189 202.891 253.821 202.891C253.541 202.859 253.257 202.885 252.987 202.967C252.717 203.049 252.466 203.185 252.25 203.367C252.035 203.549 251.858 203.773 251.732 204.025C251.606 204.278 251.533 204.554 251.517 204.835C251.517 205.829 252.338 206.765 253.879 206.765C254.151 206.797 254.427 206.772 254.689 206.691C254.951 206.61 255.193 206.474 255.399 206.294C255.605 206.113 255.771 205.892 255.887 205.643C256.002 205.394 256.063 205.124 256.068 204.85V204.821Z" fill="white"/>
<path d="M276.284 207.485L274.152 204.677L272.007 207.485H270.984L273.648 204.043L271.114 200.774H272.136L274.152 203.395L276.168 200.774H277.176L274.642 204L277.32 207.442L276.284 207.485Z" fill="white"/>
<path d="M283.108 207.485L280.934 204.677L278.788 207.485H277.766L280.43 204.043L277.895 200.774H278.918L280.934 203.395L282.95 200.774H283.943L281.466 204L284.145 207.442L283.108 207.485Z" fill="white"/>
<path d="M289.932 207.485L287.801 204.677L285.655 207.485H284.633L287.282 204.043L284.748 200.774H285.77L287.801 203.395L289.817 200.774H290.81L288.276 204L290.969 207.442L289.932 207.485Z" fill="white"/>
<path d="M296.772 207.485L294.641 204.677L292.452 207.485H291.43L294.094 204.043L291.559 200.774H292.582L294.598 203.395L296.614 200.774H297.622L295.102 204L297.78 207.442L296.772 207.485Z" fill="white"/>
<path d="M320.307 207.484L318.176 204.676L316.03 207.484H315.008L317.657 203.999L315.137 200.73H316.16L318.176 203.351L320.192 200.73H321.257L318.651 203.999L321.344 207.441L320.307 207.484Z" fill="white"/>
<path d="M327.112 207.485L324.98 204.677L322.835 207.485H321.812L324.476 204.043L321.942 200.774H322.964L324.98 203.395L326.996 200.774H328.004L325.47 204L328.148 207.442L327.112 207.485Z" fill="white"/>
<path d="M333.94 207.484L331.809 204.676L329.663 207.484H328.641L331.333 203.999L328.799 200.73H329.821L331.837 203.351L333.853 200.73H334.847L332.298 203.999L334.977 207.441L333.94 207.484Z" fill="white"/>
<path d="M340.768 207.485L338.637 204.677L336.491 207.485H335.469L338.118 204.043L335.656 200.774H336.678L338.709 203.395L340.725 200.774H341.718L339.112 204L341.805 207.442L340.768 207.485Z" fill="white"/>
<path d="M361.913 198.542V207.484H360.992V199.363H358.875V198.542H361.913Z" fill="white"/>
<path d="M369.95 204.921C369.95 206.361 368.87 207.571 366.71 207.571C365.527 207.611 364.374 207.199 363.484 206.419L363.945 205.684C364.315 206.031 364.75 206.301 365.224 206.479C365.699 206.657 366.204 206.739 366.71 206.721C368.15 206.721 369.014 206.03 369.014 204.921C369.014 203.812 368.251 203.15 366.595 203.15H365.961V202.473L368.438 199.363H363.859V198.542H369.619V199.204L367.099 202.387C369 202.56 369.95 203.496 369.95 204.921Z" fill="white"/>
<path d="M378.855 205.137H377.055V207.484H376.148V205.137H371.094V204.475L375.831 198.542H376.854L372.289 204.302H376.163V202.243H377.055V204.302H378.855V205.137Z" fill="white"/>
<path d="M385.747 206.678V207.485H379.469V206.88L383.184 203.237C384.192 202.243 384.394 201.638 384.394 201.034C384.394 199.997 383.659 199.363 382.291 199.363C381.837 199.333 381.381 199.407 380.96 199.579C380.538 199.751 380.161 200.017 379.858 200.357L379.195 199.795C379.597 199.363 380.089 199.024 380.637 198.802C381.184 198.581 381.774 198.482 382.363 198.514C384.178 198.514 385.33 199.435 385.33 200.933C385.312 201.476 385.174 202.009 384.925 202.492C384.676 202.975 384.322 203.397 383.89 203.726L380.851 206.722L385.747 206.678Z" fill="white"/>
<path d="M222.945 226.045C222.943 225.745 223.002 225.448 223.119 225.172C223.236 224.896 223.409 224.647 223.626 224.44C223.844 224.233 224.101 224.074 224.383 223.971C224.665 223.868 224.964 223.824 225.264 223.842C225.592 223.83 225.918 223.891 226.219 224.02C226.52 224.15 226.789 224.345 227.006 224.591L226.373 225.181C226.244 225.022 226.082 224.894 225.898 224.807C225.713 224.72 225.511 224.675 225.307 224.677C224.944 224.677 224.596 224.821 224.34 225.078C224.083 225.334 223.939 225.682 223.939 226.045C223.939 226.408 224.083 226.756 224.34 227.012C224.596 227.269 224.944 227.413 225.307 227.413C225.511 227.415 225.713 227.37 225.898 227.283C226.082 227.196 226.244 227.068 226.373 226.909L227.006 227.485C226.792 227.74 226.523 227.941 226.218 228.073C225.913 228.206 225.581 228.266 225.249 228.248C224.951 228.264 224.653 228.218 224.373 228.115C224.093 228.011 223.837 227.851 223.621 227.644C223.406 227.438 223.234 227.19 223.118 226.915C223.002 226.639 222.943 226.344 222.945 226.045Z" fill="white"/>
<path d="M230.401 227.27H228.428L228.039 228.177H227.031L228.932 223.857H229.911L231.812 228.177H230.79L230.401 227.27ZM230.098 226.521L229.422 224.88L228.745 226.521H230.098Z" fill="white"/>
<path d="M234.995 228.177L234.16 226.997H233.253V228.177H232.273V223.857H234.117C235.254 223.857 235.974 224.448 235.974 225.398C235.98 225.686 235.899 225.968 235.742 226.21C235.586 226.451 235.361 226.64 235.096 226.752L236.046 228.12L234.995 228.177ZM234.059 224.721H233.253V226.161H234.059C234.664 226.161 234.966 225.888 234.966 225.413C234.966 224.937 234.664 224.721 234.059 224.721Z" fill="white"/>
<path d="M236.422 227.76L236.753 227.011C237.174 227.307 237.678 227.464 238.193 227.457C238.783 227.457 239.014 227.27 239.014 227.011C239.014 226.204 236.537 226.752 236.537 225.168C236.537 224.448 237.127 223.843 238.337 223.843C238.842 223.839 239.338 223.968 239.777 224.217L239.475 224.966C239.114 224.761 238.709 224.647 238.294 224.635C237.703 224.635 237.473 224.851 237.473 225.124C237.473 225.902 239.964 225.369 239.964 226.924C239.964 227.644 239.359 228.249 238.15 228.249C237.538 228.261 236.936 228.091 236.422 227.76Z" fill="white"/>
<path d="M246.37 223.914V228.234H245.376V226.492H243.432V228.234H242.453V223.914H243.432V225.599H245.376V223.914H246.37Z" fill="white"/>
<path d="M247.05 226.045C247.025 225.579 247.139 225.116 247.379 224.716C247.619 224.316 247.974 223.997 248.397 223.8C248.82 223.603 249.293 223.538 249.754 223.613C250.214 223.688 250.642 223.899 250.981 224.22C251.321 224.54 251.556 224.955 251.657 225.411C251.758 225.867 251.72 226.342 251.548 226.776C251.376 227.21 251.078 227.582 250.692 227.845C250.306 228.107 249.85 228.248 249.383 228.249C249.083 228.266 248.783 228.222 248.5 228.12C248.218 228.017 247.959 227.857 247.741 227.651C247.522 227.445 247.348 227.196 247.23 226.92C247.111 226.643 247.05 226.346 247.05 226.045ZM250.722 226.045C250.717 225.782 250.633 225.526 250.483 225.309C250.332 225.093 250.121 224.926 249.876 224.829C249.631 224.732 249.363 224.709 249.105 224.764C248.847 224.819 248.611 224.949 248.427 225.137C248.242 225.326 248.117 225.564 248.068 225.823C248.019 226.082 248.047 226.35 248.149 226.593C248.251 226.836 248.423 227.044 248.642 227.19C248.862 227.335 249.12 227.413 249.383 227.413C249.56 227.414 249.736 227.378 249.898 227.308C250.061 227.239 250.208 227.137 250.331 227.009C250.453 226.882 250.549 226.73 250.611 226.565C250.673 226.399 250.701 226.222 250.694 226.045H250.722Z" fill="white"/>
<path d="M252.469 223.914H253.462V227.37H255.594V228.176H252.469V223.914Z" fill="white"/>
<path d="M256.156 223.914H258.1C258.673 223.914 259.223 224.142 259.628 224.547C260.033 224.952 260.26 225.501 260.26 226.074C260.26 226.647 260.033 227.196 259.628 227.601C259.223 228.006 258.673 228.234 258.1 228.234H256.156V223.914ZM258.057 227.37C258.408 227.37 258.745 227.23 258.994 226.982C259.242 226.734 259.382 226.397 259.382 226.045C259.382 225.694 259.242 225.357 258.994 225.108C258.745 224.86 258.408 224.72 258.057 224.72H257.15V227.37H258.057Z" fill="white"/>
<path d="M264.501 227.385V228.177H261.203V223.857H264.414V224.649H262.211V225.6H264.184V226.377H262.211V227.357L264.501 227.385Z" fill="white"/>
<path d="M267.972 228.177L267.136 226.997H266.229V228.177H265.25V223.857H267.093C268.231 223.857 268.951 224.448 268.951 225.398C268.956 225.686 268.876 225.968 268.719 226.21C268.562 226.451 268.337 226.64 268.072 226.752L269.023 228.12L267.972 228.177ZM267.036 224.721H266.229V226.161H267.036C267.64 226.161 267.943 225.888 267.943 225.413C267.943 224.937 267.684 224.721 267.079 224.721H267.036Z" fill="white"/>
<path d="M282.967 238.79H224.258C222.994 238.79 221.969 239.815 221.969 241.08V241.972C221.969 243.237 222.994 244.262 224.258 244.262H282.967C284.232 244.262 285.257 243.237 285.257 241.972V241.08C285.257 239.815 284.232 238.79 282.967 238.79Z" fill="white"/>
<path d="M387.578 238.79H356.993C355.728 238.79 354.703 239.815 354.703 241.08V241.972C354.703 243.237 355.728 244.262 356.993 244.262H387.578C388.843 244.262 389.868 243.237 389.868 241.972V241.08C389.868 239.815 388.843 238.79 387.578 238.79Z" fill="white"/>
<g opacity="0.2">
<path d="M403.581 134.563H209.829C208.005 134.562 206.257 135.286 204.966 136.573C203.676 137.861 202.949 139.608 202.945 141.431V176.193C215.185 184.732 232.005 186.273 246.923 183.119C264.505 179.447 280.432 170.447 296.805 163.075C313.177 155.702 331.192 149.798 348.889 152.836C365.608 155.716 379.849 166.098 394.969 173.802C399.928 176.365 405.115 178.457 410.464 180.052V141.431C410.46 139.608 409.733 137.861 408.443 136.573C407.152 135.286 405.404 134.562 403.581 134.563Z" fill="white"/>
</g>
<path d="M248.508 317.5H219.924C212.942 317.5 207.281 323.161 207.281 330.143V358.727C207.281 365.71 212.942 371.37 219.924 371.37H248.508C255.491 371.37 261.152 365.71 261.152 358.727V330.143C261.152 323.161 255.491 317.5 248.508 317.5Z" fill="#AD90FE"/>
<path d="M239.532 352.68H227.753C227.598 352.68 227.448 352.627 227.328 352.53C227.207 352.433 227.123 352.298 227.091 352.147L222.771 334.867H218.681C218.49 334.867 218.307 334.791 218.172 334.656C218.037 334.521 217.961 334.338 217.961 334.147C217.961 333.956 218.037 333.773 218.172 333.638C218.307 333.503 218.49 333.427 218.681 333.427H223.332C223.488 333.428 223.639 333.482 223.761 333.578C223.884 333.674 223.971 333.808 224.009 333.96L228.329 351.24H239.561C239.752 351.24 239.935 351.315 240.07 351.45C240.205 351.585 240.281 351.769 240.281 351.96C240.281 352.151 240.205 352.334 240.07 352.469C239.935 352.604 239.752 352.68 239.561 352.68H239.532Z" fill="white"/>
<path d="M229.984 358.209C231.201 358.209 232.188 357.223 232.188 356.006C232.188 354.789 231.201 353.803 229.984 353.803C228.768 353.803 227.781 354.789 227.781 356.006C227.781 357.223 228.768 358.209 229.984 358.209Z" fill="#AD90FE"/>
<path d="M229.989 358.901C229.42 358.901 228.863 358.732 228.389 358.415C227.916 358.099 227.547 357.649 227.329 357.123C227.111 356.596 227.054 356.017 227.165 355.459C227.276 354.9 227.55 354.387 227.953 353.984C228.356 353.581 228.869 353.307 229.428 353.196C229.986 353.085 230.565 353.142 231.091 353.36C231.618 353.578 232.068 353.947 232.384 354.421C232.7 354.894 232.869 355.451 232.869 356.021C232.869 356.784 232.566 357.517 232.026 358.057C231.486 358.597 230.753 358.901 229.989 358.901ZM229.989 354.494C229.708 354.495 229.432 354.578 229.197 354.733C228.962 354.888 228.778 355.109 228.667 355.368C228.556 355.627 228.524 355.913 228.574 356.19C228.624 356.467 228.754 356.723 228.948 356.927C229.143 357.131 229.392 357.274 229.667 357.337C229.941 357.401 230.228 357.382 230.492 357.284C230.756 357.186 230.986 357.013 231.152 356.786C231.319 356.559 231.415 356.288 231.429 356.006C231.426 355.618 231.276 355.246 231.008 354.966C230.741 354.685 230.377 354.516 229.989 354.494Z" fill="white"/>
<path d="M242.242 358.209C243.459 358.209 244.445 357.223 244.445 356.006C244.445 354.789 243.459 353.803 242.242 353.803C241.025 353.803 240.039 354.789 240.039 356.006C240.039 357.223 241.025 358.209 242.242 358.209Z" fill="#AD90FE"/>
<path d="M242.239 358.901C241.67 358.901 241.113 358.732 240.639 358.415C240.166 358.099 239.797 357.649 239.579 357.123C239.361 356.596 239.304 356.017 239.415 355.459C239.526 354.9 239.8 354.387 240.203 353.984C240.606 353.581 241.119 353.307 241.678 353.196C242.236 353.085 242.815 353.142 243.342 353.36C243.868 353.578 244.318 353.947 244.634 354.421C244.95 354.894 245.119 355.451 245.119 356.021C245.119 356.784 244.816 357.517 244.276 358.057C243.736 358.597 243.003 358.901 242.239 358.901ZM242.239 354.494C241.961 354.509 241.693 354.603 241.468 354.767C241.242 354.93 241.069 355.156 240.969 355.416C240.869 355.676 240.847 355.959 240.905 356.231C240.962 356.504 241.098 356.754 241.295 356.951C241.492 357.148 241.742 357.283 242.014 357.341C242.287 357.399 242.57 357.376 242.83 357.276C243.09 357.176 243.315 357.003 243.479 356.778C243.642 356.552 243.737 356.284 243.751 356.006C243.762 355.805 243.73 355.604 243.657 355.416C243.585 355.227 243.474 355.057 243.332 354.914C243.189 354.772 243.018 354.661 242.83 354.588C242.642 354.516 242.441 354.484 242.239 354.494Z" fill="white"/>
<path d="M244.122 349.439H227.36C227.268 349.441 227.177 349.425 227.091 349.391C227.006 349.357 226.928 349.306 226.862 349.242C226.797 349.178 226.744 349.101 226.709 349.016C226.673 348.931 226.655 348.84 226.655 348.748C226.659 348.563 226.735 348.388 226.866 348.258C226.998 348.129 227.176 348.057 227.36 348.057H243.488L245.332 337.674H224.236C224.045 337.674 223.862 337.599 223.726 337.464C223.591 337.328 223.516 337.145 223.516 336.954C223.516 336.763 223.591 336.58 223.726 336.445C223.862 336.31 224.045 336.234 224.236 336.234H246.224C246.325 336.236 246.425 336.258 246.517 336.3C246.609 336.342 246.691 336.403 246.757 336.479C246.823 336.558 246.871 336.651 246.896 336.751C246.921 336.85 246.923 336.955 246.901 337.055L244.813 348.82C244.795 348.991 244.715 349.148 244.587 349.263C244.459 349.377 244.294 349.44 244.122 349.439Z" fill="white"/>
<path d="M382.868 326.961H284.444C281.446 326.961 279.016 329.391 279.016 332.39V334.535C279.016 337.534 281.446 339.964 284.444 339.964H382.868C385.867 339.964 388.297 337.534 388.297 334.535V332.39C388.297 329.391 385.867 326.961 382.868 326.961Z" fill="#E0E0E0"/>
<path d="M328.825 352.521H284.444C281.446 352.521 279.016 354.952 279.016 357.95V360.096C279.016 363.094 281.446 365.525 284.444 365.525H328.825C331.823 365.525 334.254 363.094 334.254 360.096V357.95C334.254 354.952 331.823 352.521 328.825 352.521Z" fill="#E0E0E0"/>
<path d="M433.704 297.21C433.704 297.412 376.838 297.585 306.71 297.585C236.582 297.585 179.688 297.412 179.688 297.21C179.688 297.009 236.553 296.836 306.71 296.836C376.867 296.836 433.704 297.009 433.704 297.21Z" fill="#E0E0E0"/>
<path d="M248.561 393.457H367.534C380.149 393.457 390.376 403.684 390.376 416.299V425.472C390.376 438.088 380.149 448.315 367.534 448.315H248.561C235.946 448.315 225.719 438.088 225.719 425.472V416.299C225.719 403.684 235.946 393.457 248.561 393.457Z" stroke="black"/>
<path d="M300.781 419.243C300.781 422.123 298.678 423.793 295.309 423.793H293.149V427.019H289.664V414.678H295.309C298.678 414.678 300.781 416.435 300.781 419.243ZM297.267 419.243C297.267 418.105 296.533 417.428 295.093 417.428H293.149V420.999H295.093C296.533 420.999 297.267 420.38 297.267 419.243Z" fill="#263238"/>
<path d="M310.124 424.628H304.911L303.932 427.019H300.375L305.818 414.678H309.26L314.717 427.019H311.089L310.124 424.628ZM309.101 422.051L307.517 418.105L305.933 422.051H309.101Z" fill="#263238"/>
<path d="M321.569 422.598V427.019H318.084V422.54L313.375 414.678H317.061L319.941 419.588L322.821 414.678H326.205L321.569 422.598Z" fill="#263238"/>
<path d="M221.063 82.2061C222.432 76.4253 218.856 70.6287 213.076 69.259C207.295 67.8893 201.498 71.4651 200.129 77.2459C198.759 83.0267 202.335 88.8233 208.115 90.193C213.896 91.5627 219.693 87.9868 221.063 82.2061Z" fill="#AD90FE"/>
<path d="M343.03 74.1836H270.367C268.188 74.1836 266.422 75.9501 266.422 78.1292V79.67C266.422 81.8491 268.188 83.6156 270.367 83.6156H343.03C345.209 83.6156 346.975 81.8491 346.975 79.67V78.1292C346.975 75.9501 345.209 74.1836 343.03 74.1836Z" fill="#E0E0E0"/>
<path d="M398.41 464.928H233.977V475.915H398.41V464.928Z" fill="#263238"/>
<path d="M241.766 470.398C243.206 470.888 262.473 470.888 262.473 508.918C262.473 546.949 261.508 594.138 281.726 595.578C301.943 597.018 408.345 595.578 408.345 595.578V500.134C408.345 492.484 405.315 485.145 399.917 479.724C394.52 474.302 387.195 471.239 379.545 471.205L241.766 470.398Z" fill="#FAFAFA"/>
<path d="M241.762 470.398L321.74 470.643L362.319 470.787H373.436C377.285 470.631 381.14 470.819 384.956 471.349C388.939 472.111 392.718 473.703 396.047 476.02C399.376 478.337 402.181 481.328 404.28 484.798C406.502 488.368 407.922 492.377 408.442 496.549C408.658 498.658 408.744 500.779 408.701 502.899V509.278C408.701 517.832 408.701 526.558 408.701 535.486V595.966H408.327C371.117 596.413 335.736 596.744 303.567 596.485C299.549 596.485 295.589 596.384 291.672 596.312C287.756 596.24 283.911 596.211 280.052 595.678C278.152 595.264 276.371 594.427 274.839 593.23C273.386 592.009 272.125 590.577 271.095 588.982C269.176 585.849 267.721 582.453 266.775 578.902C265.001 572.222 263.854 565.391 263.348 558.498C262.757 551.902 262.498 545.538 262.354 539.475C262.037 527.336 262.354 516.363 262.138 506.744C261.922 497.125 260.468 488.845 257.501 482.768C256.21 480.068 254.467 477.608 252.346 475.496C250.751 473.996 248.916 472.774 246.917 471.882C245.238 471.227 243.496 470.745 241.719 470.442L243.087 470.658C244.421 470.883 245.726 471.26 246.975 471.781C249.007 472.661 250.877 473.878 252.504 475.381C254.662 477.495 256.44 479.965 257.76 482.682C260.799 488.787 262.325 497.154 262.556 506.773C262.786 516.392 262.556 527.379 262.887 539.504C263.045 545.552 263.319 551.902 263.924 558.498C264.446 565.347 265.598 572.134 267.365 578.773C268.295 582.256 269.721 585.588 271.599 588.666C272.594 590.201 273.812 591.579 275.213 592.755C276.672 593.877 278.357 594.668 280.152 595.074C283.839 595.563 287.77 595.534 291.672 595.664C295.575 595.794 299.549 595.808 303.567 595.837C335.708 596.053 371.103 595.693 408.312 595.246L407.938 595.621V535.458C407.938 526.558 407.938 517.803 407.938 509.25V502.856C407.992 500.765 407.915 498.673 407.708 496.592C406.967 490.609 404.347 485.016 400.224 480.617C396.102 476.217 390.691 473.24 384.768 472.112C381.01 471.59 377.213 471.398 373.421 471.536L362.348 471.464L322.028 471.147L241.762 470.398Z" fill="#263238"/>
<path d="M282.219 595.592C282.219 595.592 298.865 595.592 302.379 571.04C306.627 541.78 302.379 516.148 325.001 515.183C347.624 514.218 408.291 515.183 408.291 515.183V595.592H282.219Z" fill="#E0E0E0"/>
<path d="M322.219 515.472C322.219 515.472 340.464 513.268 340.464 543.595C340.464 573.921 340.939 593.995 361.156 596.227C381.374 598.459 505.603 596.227 505.603 596.227C505.603 596.227 485.86 586.924 484.42 559.478C482.98 532.032 477.22 515.299 457.449 514.766C437.678 514.233 322.219 515.472 322.219 515.472Z" fill="#FAFAFA"/>
<path d="M322.216 515.471H323.44H327.026L340.864 515.255L391.768 514.708L426.962 514.463H446.589C449.959 514.463 453.386 514.463 456.856 514.564C460.425 514.588 463.958 515.267 467.282 516.565C470.649 518.054 473.568 520.397 475.749 523.362C477.931 526.393 479.618 529.752 480.746 533.312C482.885 540.656 484.156 548.224 484.533 555.863C484.663 557.807 484.764 559.751 484.98 561.623L485.267 564.503L485.815 567.383L486.074 568.823L486.477 570.263L487.283 573.143C487.939 575.01 488.703 576.837 489.573 578.615C493.06 585.934 498.71 592.006 505.759 596.01L507.012 596.701H505.572H502.13C468.794 597.248 437.042 597.608 408.156 597.594C393.756 597.594 379.975 597.594 367.13 596.989C363.959 596.905 360.799 596.563 357.683 595.967C354.658 595.274 351.845 593.856 349.49 591.834C347.288 589.839 345.557 587.38 344.421 584.634C343.314 582.044 342.498 579.34 341.987 576.57C341.065 571.444 340.545 566.254 340.432 561.047C340.245 556.122 340.231 551.485 340.231 547.136C340.231 544.976 340.231 542.816 340.13 540.872C340.13 539.864 340.13 538.885 339.986 537.921C339.842 536.956 339.755 536.02 339.64 535.112L339.467 533.744C339.381 533.298 339.28 532.866 339.18 532.434C338.992 531.57 338.791 530.72 338.618 529.9L337.812 527.567L337.423 526.458L336.904 525.421C335.825 522.946 334.189 520.753 332.123 519.013C330.636 517.704 328.889 516.722 326.997 516.133C325.841 515.76 324.64 515.542 323.426 515.485C323.008 515.485 322.706 515.485 322.49 515.485H322.188C322.288 515.48 322.389 515.48 322.49 515.485C322.802 515.467 323.114 515.467 323.426 515.485C324.652 515.518 325.868 515.716 327.04 516.076C328.964 516.627 330.746 517.585 332.267 518.884C334.378 520.628 336.058 522.836 337.178 525.335C340.058 530.85 340.677 538.554 340.648 547.18C340.648 551.5 340.648 556.165 340.907 561.076C341.049 566.254 341.583 571.415 342.506 576.512C343.016 579.243 343.828 581.909 344.925 584.461C346.058 587.099 347.759 589.454 349.907 591.359C352.19 593.318 354.92 594.683 357.856 595.333C360.934 595.919 364.055 596.247 367.187 596.312C380.018 596.845 393.741 596.86 408.184 596.86C437.056 596.86 468.808 596.442 502.144 595.909L505.586 595.837L505.427 596.557C498.227 592.48 492.456 586.286 488.896 578.816C488.017 577.005 487.243 575.144 486.578 573.244L485.757 570.364L485.354 568.924L485.08 567.484L484.533 564.604L484.245 561.724C484.029 559.751 483.928 557.821 483.799 555.964C483.433 548.379 482.176 540.863 480.055 533.572C478.974 530.034 477.33 526.694 475.188 523.679C473.084 520.804 470.264 518.53 467.008 517.084C463.767 515.817 460.322 515.149 456.842 515.111C453.372 515.111 449.959 515.024 446.589 514.996H426.962L391.768 515.14L340.864 515.456L327.026 515.528H323.426L322.216 515.471Z" fill="#263238"/>
<path d="M327.012 515.428C327.012 515.514 325.572 515.428 322.98 515.73C319.334 516.237 315.941 517.886 313.289 520.439C309.905 523.592 307.371 528.762 306.089 534.738C304.807 540.714 304.649 547.583 304.404 554.711C304.309 561.45 303.528 568.161 302.071 574.741C301.339 577.598 300.341 580.379 299.09 583.05C298.064 585.415 296.743 587.64 295.159 589.674C293.822 591.342 292.174 592.736 290.307 593.778C288.871 594.513 287.339 595.041 285.756 595.348C284.762 595.52 283.755 595.612 282.747 595.621C282.397 595.653 282.045 595.653 281.695 595.621C282.04 595.542 282.393 595.498 282.747 595.492C283.715 595.429 284.678 595.294 285.627 595.088C287.161 594.744 288.639 594.187 290.019 593.432C291.825 592.392 293.41 591.008 294.684 589.357C296.203 587.339 297.47 585.144 298.457 582.82C299.656 580.169 300.62 577.417 301.337 574.597C302.739 568.054 303.492 561.388 303.583 554.696C303.886 547.597 303.987 540.728 305.34 534.623C306.694 528.517 309.3 523.29 312.843 520.079C315.586 517.492 319.101 515.874 322.85 515.471C323.428 515.39 324.01 515.347 324.593 515.341C325.02 515.319 325.448 515.319 325.875 515.341C326.256 515.33 326.637 515.359 327.012 515.428Z" fill="#263238"/>
<path d="M387.612 492.46C387.612 492.662 364.284 492.835 335.513 492.835C306.742 492.835 283.414 492.662 283.414 492.46C283.414 492.259 306.728 492.086 335.513 492.086C364.299 492.086 387.612 492.244 387.612 492.46Z" fill="#E0E0E0"/>
<path d="M389.769 507.954C389.769 508.156 367.204 508.329 339.369 508.329C311.534 508.329 288.969 508.156 288.969 507.954C288.969 507.753 311.519 507.58 339.369 507.58C367.218 507.58 389.769 507.753 389.769 507.954Z" fill="#E0E0E0"/>
<path d="M460.8 538.079C460.8 538.295 437.472 538.454 408.701 538.454C379.93 538.454 356.602 538.295 356.602 538.079C356.602 537.863 379.93 537.705 408.701 537.705C437.472 537.705 460.8 537.892 460.8 538.079Z" fill="#E0E0E0"/>
<path d="M462.103 556.18C462.103 556.382 440.704 556.554 414.309 556.554C387.914 556.554 366.516 556.382 366.516 556.18C366.516 555.978 387.914 555.806 414.309 555.806C440.704 555.806 462.103 555.978 462.103 556.18Z" fill="#E0E0E0"/>
<path d="M375.017 152.808H364.88C362.375 152.808 360.344 154.838 360.344 157.344V167.481C360.344 169.986 362.375 172.017 364.88 172.017H375.017C377.523 172.017 379.553 169.986 379.553 167.481V157.344C379.553 154.838 377.523 152.808 375.017 152.808Z" fill="white"/>
</svg>
