<svg width="1253" height="662" viewBox="0 0 1253 662" fill="none" xmlns="http://www.w3.org/2000/svg">
<path d="M969.61 425.023L881.25 325.856C877.77 321.951 873.509 318.82 868.743 316.662C863.976 314.505 858.81 313.37 853.577 313.331L562.679 311.226C557.737 311.189 552.836 312.131 548.26 313.998C543.684 315.865 539.524 318.62 536.02 322.103C532.516 325.586 529.738 329.728 527.847 334.29C525.955 338.852 524.988 343.744 525 348.682L525.49 554.458C525.501 559.371 526.481 564.234 528.375 568.768C530.27 573.303 533.04 577.419 536.529 580.882C540.018 584.346 544.156 587.087 548.707 588.951C553.258 590.814 558.132 591.762 563.05 591.742L852.941 590.523C858.295 590.51 863.583 589.349 868.449 587.117C873.315 584.885 877.644 581.636 881.144 577.588L970.034 474.316C975.959 467.446 979.183 458.658 979.105 449.59C979.026 440.522 975.652 431.791 969.61 425.023ZM920.44 460.771C918.142 466.419 914.22 471.26 909.169 474.681C904.118 478.102 898.165 479.949 892.062 479.99C885.96 480.031 879.982 478.263 874.886 474.91C869.789 471.557 865.803 466.769 863.43 461.152C861.057 455.536 860.405 449.342 861.556 443.355C862.707 437.368 865.609 431.857 869.895 427.517C874.182 423.178 879.66 420.206 885.637 418.978C891.615 417.749 897.822 418.319 903.476 420.615C911.042 423.693 917.078 429.644 920.258 437.163C923.438 444.681 923.504 453.152 920.44 460.719V460.771Z" fill="#020248"/>
<g opacity="0.4">
<path d="M969.61 425.023L881.25 325.856C877.77 321.951 873.509 318.82 868.743 316.662C863.976 314.505 858.81 313.37 853.577 313.331L562.679 311.226C557.737 311.189 552.836 312.131 548.26 313.998C543.684 315.865 539.524 318.62 536.02 322.103C532.516 325.586 529.738 329.728 527.847 334.29C525.955 338.852 524.988 343.744 525 348.682L525.49 554.458C525.501 559.371 526.481 564.234 528.375 568.768C530.27 573.303 533.04 577.419 536.529 580.882C540.018 584.346 544.156 587.087 548.707 588.951C553.258 590.814 558.132 591.762 563.05 591.742L852.941 590.523C858.295 590.51 863.583 589.349 868.449 587.117C873.315 584.885 877.644 581.636 881.144 577.588L970.034 474.316C975.959 467.446 979.183 458.658 979.105 449.59C979.026 440.522 975.652 431.791 969.61 425.023ZM920.44 460.771C918.142 466.419 914.22 471.26 909.169 474.681C904.118 478.102 898.165 479.949 892.062 479.99C885.96 480.031 879.982 478.263 874.886 474.91C869.789 471.557 865.803 466.769 863.43 461.152C861.057 455.536 860.405 449.342 861.556 443.355C862.707 437.368 865.609 431.857 869.895 427.517C874.182 423.178 879.66 420.206 885.637 418.978C891.615 417.749 897.822 418.319 903.476 420.615C911.042 423.693 917.078 429.644 920.258 437.163C923.438 444.681 923.504 453.152 920.44 460.719V460.771Z" fill="#2879B0"/>
</g>
<path d="M985.015 425.4L892.367 325.709C888.719 321.785 884.254 318.637 879.258 316.469C874.263 314.3 868.849 313.158 863.365 313.117L558.49 311.001C553.309 310.962 544.797 310.624 540 312.5C535.203 314.376 534.218 318.43 530.545 321.932C526.873 325.434 523.961 329.599 521.98 334.186C519.998 338.773 518.985 343.691 519 348.655L519.5 555.518C519.513 560.468 520.546 565.367 522.541 569.933C524.535 574.5 527.452 578.643 531.122 582.126C534.793 585.609 539.146 588.362 543.931 590.228C548.716 592.094 553.838 593.036 559.004 592.999L862.809 591.775C868.42 591.76 873.962 590.591 879.062 588.348C884.161 586.104 888.698 582.839 892.367 578.771L985.515 474.953C991.72 468.041 995.09 459.203 994.998 450.086C994.906 440.97 991.358 432.196 985.015 425.4ZM933.496 461.337C931.088 467.015 926.978 471.881 921.684 475.32C916.39 478.759 910.151 480.616 903.755 480.657C897.359 480.698 891.095 478.921 885.753 475.55C880.412 472.179 876.234 467.366 873.747 461.72C871.26 456.074 870.577 449.847 871.783 443.829C872.989 437.81 876.03 432.269 880.523 427.907C885.015 423.545 890.757 420.558 897.021 419.322C903.286 418.087 909.792 418.66 915.717 420.968C923.647 424.063 929.972 430.045 933.305 437.603C936.638 445.161 936.707 453.677 933.496 461.284V461.337Z" fill="#2BA0F0"/>
<path d="M679.002 409.776C679.179 390.181 691.267 377.835 708.216 378.002C725.166 378.168 736.857 390.555 736.68 410.306C736.503 430.057 724.562 442.247 707.623 442.091C690.684 441.935 678.815 429.371 679.002 409.776ZM720.054 410.161C720.168 397.68 715.41 391.679 708.091 391.616C700.949 391.543 695.9 397.638 695.785 409.932C695.671 422.226 700.606 428.404 707.748 428.477C715.067 428.539 719.939 422.611 720.054 410.161ZM777.513 379.999L797.295 380.186L716.764 495.634L696.982 495.447L777.513 379.999ZM757.607 465.358C757.794 445.763 769.871 433.417 786.665 433.573C803.614 433.739 815.462 446.303 815.285 465.888C815.108 485.473 803.021 497.777 786.061 497.6C769.33 497.465 757.43 484.901 757.607 465.358ZM798.492 465.732C798.606 453.449 793.848 447.26 786.529 447.198C779.387 447.125 774.348 453.054 774.234 465.514C774.119 477.974 779.044 483.985 786.186 484.058C793.505 484.079 798.377 477.974 798.481 465.68L798.492 465.732Z" fill="#73C5FD"/>
<path d="M975.239 487.232C976.295 487.794 977.271 488.493 978.142 489.311C979.957 490.754 982.608 492.925 985.961 495.798C989.314 498.672 993.396 502.22 997.982 506.496C1002.57 510.773 1007.71 515.764 1013.02 521.683C1018.87 528.097 1024.16 534.993 1028.84 542.297L1030.72 545.303L1032.49 548.441C1033.73 550.585 1034.86 552.795 1035.86 555.061C1038.09 559.865 1039.38 565.051 1039.65 570.34C1039.74 573.166 1039.32 575.984 1038.43 578.668C1037.5 581.442 1036.01 583.996 1034.06 586.175C1030.05 590.591 1024.74 593.623 1018.9 594.834C1012.97 596.004 1006.86 595.86 1000.99 594.41C995.099 592.987 989.393 590.885 983.986 588.147C973.361 582.734 963.724 575.573 955.478 566.963C951.548 562.93 947.87 558.659 944.465 554.174C941.143 549.822 937.98 545.493 934.976 541.185C923.048 523.973 913.77 507.423 907.939 492.621C906.481 488.927 905.222 485.379 904.135 481.963C903.605 480.255 903.101 478.586 902.69 476.931C902.238 475.331 901.915 473.698 901.723 472.046C901.262 468.913 902.047 465.724 903.91 463.162C905.515 461.106 907.705 459.583 910.192 458.793C911.219 458.454 912.275 458.21 913.346 458.064C914.288 457.965 915.237 457.942 916.182 457.998C917.665 458.069 919.125 458.387 920.503 458.938C921.34 459.289 922.118 459.766 922.809 460.355C923.26 460.765 923.458 460.991 923.419 461.043C923.379 461.096 923.101 460.951 922.597 460.646C921.866 460.201 921.083 459.85 920.264 459.6C918.933 459.198 917.547 459.002 916.156 459.018C915.268 459.027 914.383 459.097 913.505 459.23C912.525 459.419 911.562 459.694 910.629 460.05C908.463 460.846 906.581 462.265 905.222 464.128C903.706 466.381 903.135 469.139 903.631 471.808C903.851 473.364 904.196 474.901 904.665 476.402C905.103 477.991 905.646 479.606 906.203 481.274C907.36 484.611 908.685 488.088 910.179 491.707C916.182 506.139 925.566 522.437 937.547 539.371C940.551 543.608 943.718 547.876 947.049 552.174C950.402 556.539 954.018 560.695 957.877 564.62C965.885 572.932 975.218 579.858 985.497 585.115C990.683 587.736 996.153 589.753 1001.8 591.126C1007.18 592.473 1012.79 592.631 1018.23 591.59C1023.38 590.54 1028.08 587.901 1031.65 584.043C1034.95 580.307 1036.7 575.444 1036.52 570.459C1036.27 565.553 1035.08 560.74 1033.02 556.279C1032.08 554.088 1031.03 551.949 1029.86 549.871L1028.2 546.812L1026.4 543.82C1021.89 536.579 1016.8 529.72 1011.17 523.311C1006.05 517.38 1001.08 512.295 996.59 507.9C992.097 503.504 988.214 499.823 984.994 496.818L977.678 489.88C976.758 489.102 975.939 488.212 975.239 487.232Z" fill="#263238"/>
<path d="M837.178 281.734C836.992 281.734 833.281 255.85 828.881 223.862C824.481 191.874 821.075 165.924 821.274 165.897C821.473 165.871 825.17 191.782 829.571 223.77C833.971 255.757 837.377 281.708 837.178 281.734Z" fill="#263238"/>
<path d="M946.46 140.026C946.437 140.163 946.397 140.297 946.341 140.424L945.917 141.575L944.233 145.984L937.925 162.164C932.623 175.827 925.361 194.734 917.647 215.746C909.934 236.758 903.241 255.863 898.47 269.725C896.097 276.623 894.175 282.224 892.837 286.156C892.174 288.05 891.657 289.546 891.286 290.618C891.114 291.095 890.968 291.465 890.862 291.77C890.823 291.903 890.77 292.032 890.703 292.154C890.713 292.013 890.744 291.875 890.796 291.744L891.154 290.565C891.485 289.493 891.962 287.917 892.572 286.064C893.818 282.158 895.673 276.518 898.006 269.567C902.671 255.665 909.298 236.467 917.011 215.508C924.724 194.549 932.027 175.602 937.461 161.978C940.112 155.173 942.418 149.665 943.995 145.878L945.811 141.522C946.009 141.059 946.182 140.688 946.301 140.397L946.46 140.026Z" fill="#263238"/>
<path d="M1024.75 241.921C1024.87 242.067 1005.91 256.909 982.343 275.021C958.778 293.134 939.667 307.777 939.547 307.618C939.428 307.459 958.407 292.63 981.958 274.518C1005.51 256.406 1024.65 241.762 1024.75 241.921Z" fill="#263238"/>
<path d="M791.177 286.566C791.018 286.686 783.689 277.298 774.796 265.7C765.903 254.102 758.799 244.516 758.892 244.424C758.984 244.331 766.38 253.692 775.273 265.29C784.166 276.888 791.322 286.447 791.177 286.566Z" fill="#263238"/>
<path d="M1015.8 359.545C1015.8 359.731 1004.12 356.5 989.835 352.343C975.548 348.186 964.017 344.664 964.07 344.478C964.124 344.293 975.747 347.524 990.034 351.681C1004.32 355.838 1015.86 359.36 1015.8 359.545Z" fill="#263238"/>
<path d="M844 359.122L852.615 354.17L857.187 345.353L862.157 353.959L870.984 358.54L862.369 363.491L857.783 372.309L852.827 363.703L844 359.122Z" fill="white" fill-opacity="0.7"/>
<path d="M784.219 345.458L787.241 343.724L788.844 340.639L790.58 343.644L793.668 345.246L790.647 346.981L789.043 350.066L787.307 347.06L784.219 345.458Z" fill="white" fill-opacity="0.7"/>
<path d="M838 406.269L843.831 402.919L846.933 396.948L850.286 402.774L856.263 405.872L850.432 409.222L847.33 415.193L843.977 409.367L838 406.269Z" fill="white" fill-opacity="0.7"/>
<path d="M566.393 591.399C566.393 591.399 621.673 606.705 623.966 607.486C627.292 608.651 626.735 620.858 621.54 620.726C619.088 620.633 579.037 622.209 573.974 621.891C568.911 621.573 555.287 616.211 555.287 616.211L566.393 591.399Z" fill="#455A64"/>
<path d="M589.455 612.504C589.733 612.504 590.104 609.617 591.894 606.572C593.683 603.527 595.976 601.7 595.803 601.488C595.631 601.276 592.954 602.812 591.085 606.109C589.216 609.406 589.216 612.504 589.455 612.504Z" fill="#263238"/>
<path d="M583.672 609.856C583.951 609.856 584.507 607.287 585.978 604.401C587.449 601.515 589.199 599.489 589 599.303C588.801 599.118 586.681 600.932 585.157 603.99C583.632 607.049 583.434 609.856 583.672 609.856Z" fill="#263238"/>
<path d="M578.264 608.439C578.542 608.439 578.33 605.659 579.589 602.587C580.848 599.515 582.81 597.622 582.611 597.423C582.412 597.225 579.96 598.92 578.728 602.256C577.495 605.592 578.039 608.532 578.264 608.439Z" fill="#263238"/>
<path d="M579.257 601.289C579.742 599.978 579.945 598.58 579.854 597.185C579.831 595.653 579.631 594.129 579.257 592.644C579.05 591.768 578.776 590.909 578.436 590.075C578.263 589.563 577.957 589.105 577.548 588.751C577.272 588.541 576.93 588.435 576.583 588.451C576.236 588.468 575.907 588.607 575.653 588.844C575.226 589.259 574.963 589.814 574.91 590.406C574.878 590.891 574.878 591.378 574.91 591.863C574.926 592.755 575.041 593.644 575.255 594.511C575.624 595.99 576.194 597.411 576.951 598.734C577.568 599.987 578.413 601.114 579.443 602.057C579.562 601.978 578.635 600.733 577.535 598.43C576.887 597.125 576.402 595.747 576.09 594.325C575.909 593.494 575.815 592.647 575.812 591.796C575.812 590.949 575.812 589.89 576.328 589.479C576.418 589.377 576.544 589.313 576.68 589.3C576.815 589.288 576.951 589.328 577.057 589.413C577.339 589.679 577.549 590.011 577.667 590.38C578 591.172 578.279 591.986 578.502 592.816C578.891 594.226 579.135 595.672 579.231 597.132C579.35 599.701 579.098 601.276 579.257 601.289Z" fill="#263238"/>
<path d="M579.18 600.734C578.049 600.262 576.823 600.062 575.601 600.151C574.261 600.147 572.925 600.312 571.625 600.641C570.833 600.806 570.069 601.087 569.359 601.475C568.904 601.7 568.536 602.069 568.311 602.523C568.086 602.977 568.017 603.493 568.113 603.991C568.24 604.468 568.493 604.903 568.845 605.25C569.197 605.596 569.635 605.843 570.114 605.963C570.928 606.169 571.779 606.169 572.593 605.963C575.061 605.238 577.225 603.727 578.756 601.66C577.728 602.256 576.745 602.924 575.813 603.66C574.785 604.359 573.634 604.858 572.42 605.129C571.746 605.295 571.041 605.295 570.366 605.129C570.049 605.042 569.761 604.875 569.528 604.642C569.296 604.41 569.128 604.122 569.041 603.805C568.987 603.494 569.039 603.175 569.188 602.896C569.336 602.618 569.574 602.397 569.863 602.269C570.496 601.92 571.174 601.657 571.877 601.488C573.092 601.142 574.341 600.925 575.601 600.84C577.801 600.654 579.153 600.879 579.18 600.734Z" fill="#263238"/>
<path d="M597.949 613.086C598.227 613.086 597.949 610.69 599.049 608.108C600.149 605.526 601.925 603.99 601.699 603.779C601.474 603.567 599.3 604.864 598.134 607.751C596.968 610.637 597.723 613.192 597.949 613.086Z" fill="#263238"/>
<path d="M559.38 615.642C560.064 616.041 560.782 616.378 561.527 616.648C563.537 617.419 565.595 618.056 567.69 618.555C574.624 620.077 581.718 620.748 588.815 620.554C597.112 620.461 604.587 620.09 610.021 619.865L616.435 619.534C617.224 619.529 618.01 619.445 618.781 619.283C617.986 619.139 617.177 619.086 616.369 619.124H609.941L588.736 619.534C581.702 619.714 574.668 619.141 567.756 617.826C562.481 616.833 559.38 615.47 559.38 615.642Z" fill="#263238"/>
<path d="M557.698 616.899C559.112 616.344 560.496 615.716 561.846 615.019C565.107 613.48 568.733 612.88 572.316 613.285C576.491 613.92 579.447 616.727 581.368 618.66C582.352 619.823 583.419 620.912 584.562 621.917C583.825 620.571 582.911 619.329 581.846 618.223C580.759 616.942 579.527 615.792 578.174 614.794C576.491 613.543 574.533 612.712 572.462 612.371C568.704 611.919 564.899 612.64 561.568 614.437C560.157 615.05 558.851 615.881 557.698 616.899Z" fill="#263238"/>
<path d="M613.214 619.296C612.984 618.584 612.715 617.886 612.406 617.204C611.825 615.537 611.688 613.747 612.009 612.011C612.329 610.274 613.097 608.651 614.235 607.301C615.11 606.241 615.812 605.738 615.746 605.632C615.679 605.526 614.871 605.924 613.85 606.956C612.511 608.303 611.61 610.021 611.265 611.887C610.92 613.754 611.147 615.68 611.915 617.416C612.512 618.713 613.148 619.349 613.214 619.296Z" fill="#263238"/>
<path d="M508.643 593.041C508.643 593.041 451.866 601.66 449.573 602.177C446.114 602.945 445.226 615.125 450.395 615.549C452.847 615.748 492.434 622.076 497.497 622.368C502.56 622.659 518.438 618.502 518.438 618.502L508.643 593.041Z" fill="#455A64"/>
<path d="M483.238 611.246C482.96 611.246 482.933 608.307 481.528 605.063C480.123 601.819 478.043 599.767 478.242 599.542C478.44 599.317 480.892 601.223 482.377 604.705C483.861 608.188 483.463 611.299 483.238 611.246Z" fill="#263238"/>
<path d="M489.287 609.339C489.009 609.339 488.771 606.691 487.644 603.646C486.518 600.601 484.993 598.35 485.258 598.231C485.524 598.112 487.366 600.111 488.519 603.329C489.672 606.546 489.526 609.353 489.287 609.339Z" fill="#263238"/>
<path d="M494.82 608.532C494.555 608.532 495.085 605.765 494.236 602.574C493.388 599.383 491.586 597.278 491.851 597.079C492.116 596.881 494.25 598.88 495.124 602.375C495.999 605.871 495.032 608.651 494.82 608.532Z" fill="#263238"/>
<path d="M494.7 601.33C494.362 599.973 494.325 598.558 494.594 597.185C494.784 595.677 495.153 594.197 495.694 592.776C496.008 591.929 496.385 591.106 496.82 590.314C497.048 589.818 497.405 589.393 497.854 589.083C498.155 588.906 498.509 588.841 498.853 588.899C499.197 588.957 499.51 589.135 499.736 589.4C500.109 589.864 500.302 590.447 500.28 591.042C500.278 591.529 500.243 592.016 500.173 592.498C500.055 593.404 499.832 594.292 499.511 595.146C498.967 596.564 498.231 597.9 497.324 599.118C496.562 600.291 495.592 601.314 494.461 602.137C494.342 602.031 495.416 600.813 496.781 598.761C497.584 597.52 498.233 596.186 498.716 594.789C498.988 593.985 499.174 593.156 499.272 592.313C499.352 591.466 499.484 590.42 499.047 589.956C498.969 589.845 498.851 589.768 498.718 589.741C498.585 589.714 498.447 589.739 498.331 589.811C498.017 590.04 497.767 590.345 497.602 590.698C497.178 591.443 496.806 592.218 496.489 593.015C495.937 594.37 495.52 595.776 495.243 597.212C494.793 599.754 494.846 601.33 494.7 601.33Z" fill="#263238"/>
<path d="M494.835 600.786C495.996 600.442 497.221 600.374 498.413 600.588C499.728 600.746 501.018 601.061 502.257 601.528C503.02 601.793 503.743 602.163 504.404 602.627C504.828 602.906 505.149 603.315 505.319 603.793C505.489 604.271 505.498 604.791 505.345 605.275C505.16 605.734 504.856 606.137 504.465 606.442C504.074 606.746 503.609 606.942 503.118 607.009C502.284 607.109 501.438 607.004 500.653 606.705C498.293 605.684 496.327 603.928 495.047 601.7C495.984 602.413 496.87 603.192 497.698 604.03C498.634 604.85 499.718 605.484 500.892 605.897C501.546 606.125 502.245 606.198 502.933 606.109C503.259 606.063 503.568 605.935 503.831 605.735C504.093 605.536 504.299 605.272 504.43 604.97C504.518 604.665 504.503 604.339 504.389 604.042C504.274 603.746 504.065 603.495 503.794 603.329C503.207 602.916 502.57 602.578 501.899 602.322C500.731 601.831 499.513 601.467 498.267 601.237C496.213 600.879 494.835 600.932 494.835 600.786Z" fill="#263238"/>
<path d="M474.73 610.823C474.452 610.756 475.009 608.453 474.24 605.738C473.471 603.024 471.854 601.316 472.053 601.131C472.252 600.946 474.319 602.455 475.128 605.5C475.936 608.545 474.929 610.955 474.73 610.823Z" fill="#263238"/>
<path d="M512.766 617.945C512.042 618.269 511.287 618.517 510.513 618.687C508.43 619.219 506.313 619.609 504.177 619.852C497.114 620.541 489.993 620.367 482.972 619.336C474.742 618.25 467.373 616.992 462.019 616.132L455.684 615.033C454.902 614.939 454.134 614.762 453.391 614.503C454.177 614.477 454.963 614.535 455.737 614.675L462.111 615.483L483.091 618.409C490.054 619.421 497.105 619.688 504.124 619.203C509.492 618.753 512.726 617.8 512.766 617.945Z" fill="#263238"/>
<path d="M514.234 619.389C514.142 619.508 512.75 618.448 510.338 617.032C507.287 615.106 503.755 614.078 500.146 614.066C495.932 614.198 492.671 616.635 490.524 618.329C489.405 619.36 488.218 620.316 486.972 621.189C487.855 619.934 488.908 618.807 490.1 617.839C491.332 616.693 492.693 615.693 494.156 614.86C495.979 613.823 498.023 613.233 500.12 613.139C503.914 613.128 507.619 614.294 510.722 616.476C512.038 617.257 513.223 618.24 514.234 619.389Z" fill="#263238"/>
<path d="M332.069 360.004C332.419 359.288 333.004 358.713 333.726 358.375L332.401 355.727C332.491 354.778 332.756 353.853 333.183 353C333.845 351.861 336.165 351.954 336.165 351.954L335.807 351.199C335.565 350.665 335.464 350.077 335.515 349.493C335.566 348.909 335.767 348.347 336.098 347.863C336.204 347.717 336.31 347.572 336.443 347.413C337.246 346.633 338.268 346.116 339.372 345.93C339.372 345.93 338.047 343.388 338.643 342.315C339.263 341.433 340.128 340.753 341.132 340.357C342.136 339.962 343.233 339.869 344.289 340.091C347.825 341.478 351.257 343.116 354.56 344.99C354.869 345.157 355.21 345.256 355.56 345.279C355.91 345.302 356.262 345.248 356.589 345.122C356.917 344.997 357.213 344.801 357.458 344.55C357.702 344.298 357.89 343.997 358.006 343.666C359.185 340.284 360.88 337.105 363.029 334.239C365.521 331.247 367.853 331.485 369.218 332.015C369.371 332.074 369.509 332.166 369.623 332.285C369.736 332.403 369.823 332.545 369.876 332.7C369.929 332.855 369.947 333.02 369.93 333.182C369.912 333.345 369.86 333.503 369.775 333.643C368.437 335.773 367.233 337.984 366.17 340.263C365.521 341.998 364.845 355.052 364.845 355.052L368.423 361.858L404.512 418.803C404.512 418.803 459.05 382.088 458.851 381.175L461.422 423.278L420.337 450.552C416.817 452.887 412.829 454.424 408.651 455.055C404.474 455.685 400.209 455.395 396.156 454.204C392.103 453.013 388.36 450.95 385.19 448.16C382.02 445.37 379.5 441.92 377.807 438.054L350.147 378.077L346.794 373.178L333.766 364.837C333.766 364.837 331.605 361.103 332.069 360.004Z" fill="#FFBE9D"/>
<path d="M338.053 345.943C338.053 345.943 338.132 346.035 338.305 346.181L339.087 346.817C339.815 347.373 340.809 348.141 342.002 349.081L346.363 352.391C347.184 353 348.006 353.715 349.013 354.297C349.512 354.643 350.085 354.865 350.687 354.945C351.288 355.026 351.9 354.963 352.472 354.761C353.061 354.495 353.532 354.024 353.798 353.437C354.034 352.89 354.138 352.296 354.103 351.702C354.003 350.594 353.537 349.55 352.777 348.736C352.106 348.018 351.38 347.354 350.604 346.75L348.642 345.122L345.779 342.778L344.997 342.156C344.812 342.024 344.719 341.944 344.706 341.957L344.958 342.209L345.7 342.884L348.483 345.294L350.418 346.949C351.176 347.554 351.885 348.218 352.539 348.935C353.284 349.684 353.751 350.665 353.864 351.715C353.933 352.259 353.837 352.81 353.589 353.299C353.341 353.787 352.952 354.19 352.472 354.456C351.956 354.667 351.389 354.722 350.842 354.615C350.298 354.51 349.778 354.308 349.305 354.019C348.377 353.45 347.529 352.695 346.654 352.152L342.267 348.882L339.285 346.711L338.464 346.128L338.053 345.943Z" fill="#EB996E"/>
<path d="M335.161 352.073C335.344 352.264 335.548 352.432 335.77 352.576C336.168 352.881 336.764 353.318 337.506 353.834C338.977 354.854 341.058 356.231 343.431 357.621C344.027 357.965 344.597 358.323 345.207 358.601C345.798 358.879 346.45 359.002 347.102 358.958C347.654 358.892 348.177 358.672 348.611 358.323C349.045 357.974 349.371 357.511 349.554 356.985C349.776 356.276 349.72 355.509 349.395 354.84C349.302 354.666 349.191 354.501 349.063 354.351C348.97 354.245 348.917 354.205 348.904 354.205C348.891 354.205 349.077 354.443 349.275 354.893C349.516 355.543 349.516 356.257 349.275 356.906C349.106 357.381 348.803 357.799 348.404 358.108C348.005 358.418 347.525 358.607 347.022 358.654C346.423 358.681 345.826 358.558 345.286 358.296C344.691 358.009 344.112 357.69 343.55 357.343C341.178 355.953 339.084 354.615 337.573 353.636L335.797 352.47C335.596 352.321 335.383 352.188 335.161 352.073Z" fill="#EB996E"/>
<path d="M333.481 358.058C333.675 358.199 333.884 358.318 334.103 358.415L335.866 359.302C337.364 360.044 339.445 361.037 341.737 362.122C342.297 362.403 342.872 362.65 343.46 362.864C344.032 363.075 344.651 363.126 345.25 363.009C345.527 362.957 345.79 362.845 346.019 362.68C346.248 362.516 346.438 362.302 346.575 362.056C346.796 361.624 346.871 361.131 346.787 360.653C346.642 359.981 346.272 359.379 345.74 358.945C345.382 358.64 345.143 358.521 345.13 358.547C345.117 358.574 345.329 358.72 345.66 359.037C346.121 359.484 346.431 360.062 346.548 360.692C346.614 361.115 346.54 361.547 346.336 361.924C346.212 362.131 346.045 362.309 345.846 362.446C345.647 362.583 345.421 362.676 345.183 362.718C344.64 362.815 344.08 362.76 343.566 362.559C342.991 362.346 342.429 362.099 341.883 361.818C339.577 360.745 337.496 359.779 335.972 359.09L334.156 358.309C333.945 358.192 333.717 358.108 333.481 358.058Z" fill="#EB996E"/>
<path d="M332.54 363.592C333.214 363.826 333.905 364.007 334.607 364.135C335.933 364.426 337.682 364.81 339.657 365.207L341.102 365.498C341.557 365.61 342.024 365.663 342.493 365.657C342.942 365.657 343.377 365.503 343.726 365.22C343.879 365.093 344.001 364.933 344.084 364.752C344.166 364.571 344.207 364.373 344.203 364.174C344.18 363.899 344.097 363.631 343.96 363.391C343.822 363.151 343.634 362.944 343.408 362.784C343.259 362.654 343.074 362.571 342.877 362.546C342.877 362.546 343.063 362.652 343.328 362.89C343.521 363.054 343.678 363.256 343.787 363.484C343.897 363.713 343.957 363.961 343.964 364.214C343.964 364.375 343.927 364.534 343.855 364.679C343.784 364.823 343.681 364.95 343.553 365.048C343.249 365.279 342.875 365.4 342.493 365.392C342.046 365.385 341.602 365.327 341.168 365.22L339.723 364.916C337.748 364.519 335.959 364.174 334.66 363.936C333.963 363.772 333.254 363.657 332.54 363.592Z" fill="#EB996E"/>
<path d="M346.676 360.944C347.898 360.7 349.14 360.575 350.387 360.573C351.624 360.689 352.845 360.933 354.031 361.302C352.945 360.612 351.686 360.245 350.4 360.242C349.117 360.128 347.828 360.371 346.676 360.944Z" fill="#EB996E"/>
<path d="M541.41 348.472C541.41 348.472 559.753 333.021 555.512 322.376C551.271 311.731 539.489 306.488 533.697 287.091C529.072 271.627 501.518 241.784 468.862 264.292C468.862 264.292 457.808 262.557 451.526 267.589C445.244 272.62 443.72 282.656 441.056 294.241C436.948 312.102 434.695 325.831 442.647 334.57C450.599 343.308 453.514 345.652 453.09 355.582C452.534 368.544 446.808 366.809 451.765 376.263L479.146 367.339L479.438 359.805L482.208 366.889L498.112 361.169L541.41 348.472Z" fill="#263238"/>
<path d="M450.216 283.305C451.992 287.383 450.535 292.096 448.891 296.227C447.248 300.358 445.246 304.714 446.095 309.083C447.606 316.828 457.241 321.145 458.301 328.943C458.871 333.127 456.777 337.39 457.585 341.547C458.394 345.705 461.734 348.591 465.299 350.604C468.864 352.616 472.8 353.967 476.153 356.323C476.153 356.323 483.522 362.361 496.219 352.417" fill="#263238"/>
<path d="M502.229 273.176C503.876 272.795 505.607 273.045 507.079 273.875C508.551 274.706 509.658 276.058 510.181 277.664L536.489 364.916C539.895 375.124 527.039 386.021 516.079 389.569C504.999 393.157 502.759 387.901 499.247 378.288C493.363 362.241 491.295 356.178 491.295 356.27C491.295 356.363 476.61 358.786 467.439 341.706C462.88 333.193 458.162 318.271 454.756 305.958C451.654 294.863 454.225 279.028 465.451 276.42L502.229 273.176Z" fill="#FFBE9D"/>
<path d="M464.037 315.067C464.241 315.677 464.676 316.182 465.248 316.474C465.821 316.767 466.486 316.822 467.099 316.63C467.403 316.55 467.687 316.411 467.937 316.22C468.186 316.029 468.394 315.79 468.55 315.517C468.705 315.245 468.805 314.944 468.842 314.633C468.88 314.321 468.855 314.005 468.769 313.704C468.563 313.096 468.127 312.593 467.556 312.301C466.984 312.01 466.321 311.952 465.707 312.141C465.404 312.221 465.119 312.36 464.87 312.551C464.621 312.742 464.412 312.981 464.257 313.254C464.101 313.526 464.002 313.827 463.964 314.138C463.926 314.45 463.951 314.766 464.037 315.067Z" fill="#263238"/>
<path d="M460.404 311.956C460.789 312.155 462.101 310.248 464.605 309.387C467.11 308.527 469.377 309.136 469.536 308.739C469.629 308.553 469.138 308.103 468.21 307.799C466.867 307.428 465.442 307.479 464.128 307.944C462.825 308.397 461.697 309.25 460.908 310.38C460.285 311.175 460.205 311.824 460.404 311.956Z" fill="#263238"/>
<path d="M488.848 307.15C489.051 307.757 489.483 308.26 490.052 308.555C490.621 308.849 491.282 308.91 491.896 308.725C492.2 308.646 492.484 308.506 492.733 308.315C492.983 308.124 493.191 307.886 493.347 307.613C493.502 307.341 493.602 307.04 493.639 306.728C493.677 306.417 493.652 306.101 493.566 305.799C493.362 305.192 492.93 304.689 492.361 304.395C491.792 304.1 491.131 304.039 490.518 304.224C490.214 304.303 489.929 304.443 489.68 304.634C489.431 304.825 489.222 305.064 489.067 305.336C488.911 305.609 488.812 305.909 488.774 306.221C488.736 306.532 488.761 306.848 488.848 307.15Z" fill="#263238"/>
<path d="M485.344 304.423C485.742 304.634 487.054 302.715 489.559 301.854C492.064 300.993 494.33 301.602 494.489 301.205C494.582 301.02 494.091 300.583 493.097 300.278C491.755 299.901 490.328 299.952 489.015 300.424C487.71 300.867 486.582 301.717 485.795 302.847C485.238 303.694 485.159 304.343 485.344 304.423Z" fill="#263238"/>
<path d="M482.719 326.109C481.256 326.15 479.804 326.377 478.398 326.785C477.735 326.944 477.073 327.023 476.834 326.626C476.556 325.984 476.477 325.274 476.609 324.587C476.609 322.839 476.728 320.999 476.795 319.079C477.02 311.241 476.94 304.899 476.622 304.886C476.304 304.873 475.867 311.228 475.655 319.053C475.655 320.972 475.588 322.813 475.549 324.574C475.405 325.493 475.598 326.433 476.092 327.222C476.256 327.41 476.46 327.559 476.689 327.658C476.919 327.757 477.168 327.802 477.417 327.791C477.801 327.767 478.18 327.692 478.544 327.566C479.992 327.261 481.395 326.771 482.719 326.109Z" fill="#263238"/>
<path d="M491.283 356.27C499.862 353.442 507.485 348.284 513.297 341.375C513.297 341.375 511.508 355.939 492.781 360.56L491.283 356.27Z" fill="#EB996E"/>
<path d="M485.877 331.816C486.142 331.051 486.599 330.366 487.205 329.829C487.811 329.291 488.545 328.917 489.336 328.744C489.904 328.601 490.495 328.575 491.073 328.666C491.652 328.757 492.206 328.964 492.703 329.274C493.185 329.571 493.564 330.011 493.785 330.533C494.005 331.055 494.058 331.633 493.935 332.187C493.691 332.774 493.277 333.274 492.745 333.624C492.214 333.973 491.589 334.155 490.953 334.146C489.627 334.144 488.315 333.874 487.096 333.352C486.742 333.251 486.409 333.084 486.116 332.862C485.979 332.754 485.876 332.61 485.819 332.445C485.763 332.281 485.755 332.104 485.798 331.935" fill="#EB996E"/>
<path d="M483.488 297.273C483.873 297.935 486.404 297.101 489.532 296.889C492.66 296.677 495.271 297.035 495.562 296.333C495.682 295.989 495.125 295.406 493.998 294.916C492.518 294.309 490.913 294.068 489.32 294.214C487.722 294.32 486.172 294.806 484.801 295.631C483.767 296.293 483.303 296.955 483.488 297.273Z" fill="#263238"/>
<path d="M456.802 303.615C457.491 304.038 459.452 302.847 461.957 302.105C464.462 301.364 466.742 301.179 467.073 300.437C467.206 300.08 466.702 299.59 465.615 299.312C464.131 299.019 462.596 299.099 461.151 299.545C459.705 299.991 458.392 300.789 457.332 301.867C456.603 302.688 456.484 303.39 456.802 303.615Z" fill="#263238"/>
<path d="M532.875 330.492C527.945 313.995 523.01 297.489 518.071 280.974C517.064 277.585 515.897 273.97 513.075 271.839C510.252 269.707 506.832 269.588 503.492 269.522C489.061 269.222 474.645 270.644 460.552 273.758C459.889 277.108 462.791 280.299 466.052 281.398C469.312 282.497 472.837 282.1 476.257 282.139C479.676 282.179 483.427 282.788 485.746 285.317C488.065 287.846 488.463 292.149 490.796 294.956C494.772 299.775 503.214 298.756 507.203 303.601C510.212 307.269 509.403 312.631 510.397 317.265C511.524 322.561 511.524 322.561 515.699 330.267C518.23 335.007 511.868 344.063 518.204 355.807L530.503 352.311L525.109 334.172L532.424 351.186L532.875 330.492Z" fill="#263238"/>
<path d="M490.146 325.805C489.894 325.95 490.026 326.612 490.039 327.566C490.12 328.745 489.872 329.924 489.322 330.971C488.772 332.019 487.942 332.893 486.925 333.497C486.143 334.027 485.52 334.292 485.6 334.583C485.679 334.874 486.355 335.126 487.535 334.848C488.315 334.641 489.044 334.274 489.674 333.77C490.305 333.266 490.824 332.637 491.198 331.922C491.572 331.208 491.793 330.423 491.846 329.618C491.9 328.813 491.786 328.006 491.511 327.248C491.02 326.109 490.371 325.659 490.146 325.805Z" fill="#263238"/>
<path d="M493.805 286.005C494.014 286.167 494.247 286.296 494.494 286.389C495.163 286.715 495.814 287.078 496.443 287.475C499.323 289.26 501.783 291.645 503.656 294.467C505.53 297.289 506.771 300.481 507.297 303.826C507.614 306.186 507.614 308.577 507.297 310.936C506.905 313.512 506.75 316.118 506.833 318.721C506.918 320.079 507.199 321.417 507.668 322.693C508.165 323.889 508.754 325.045 509.431 326.149C510.796 328.092 511.743 330.297 512.214 332.623C512.471 334.756 512.413 336.915 512.042 339.032C511.763 341.057 511.406 343.004 511.273 344.685C510.902 347.463 511.32 350.289 512.479 352.841C512.837 353.51 513.283 354.129 513.804 354.681C514.189 355.039 514.401 355.211 514.414 355.184C513.752 354.437 513.186 353.61 512.731 352.722C511.71 350.206 511.376 347.465 511.763 344.778C511.936 343.057 512.32 341.19 512.625 339.164C513.031 336.981 513.107 334.749 512.85 332.544C512.333 327.672 507.628 324.097 507.549 318.748C507.466 316.185 507.613 313.619 507.986 311.082C508.318 308.666 508.318 306.216 507.986 303.8C507.334 299.704 505.6 295.856 502.963 292.652C501.207 290.506 499.062 288.709 496.641 287.356C495.992 286.981 495.314 286.658 494.614 286.389C494.366 286.219 494.093 286.09 493.805 286.005Z" fill="#263238"/>
<path d="M434.406 360.454L434.631 360.64C434.79 360.745 435.015 360.931 435.333 361.116C436.271 361.667 437.285 362.078 438.342 362.334C440.029 362.753 441.785 362.816 443.497 362.52C445.792 362.156 447.92 361.097 449.594 359.488C451.614 357.516 452.9 354.914 453.239 352.113C453.459 350.56 453.356 348.977 452.934 347.466C452.47 345.877 451.735 344.381 450.76 343.044C448.544 340.342 446.091 337.843 443.431 335.576C442.1 334.342 440.892 332.981 439.826 331.512C438.773 329.975 437.939 328.299 437.348 326.533C436.262 322.999 435.792 319.304 435.956 315.61C436.088 312.153 436.446 308.707 437.03 305.296C437.977 299.512 439.449 293.826 441.43 288.309C442.764 284.582 444.313 280.935 446.069 277.386C446.692 276.129 447.195 275.162 447.54 274.513C447.74 274.212 447.913 273.893 448.057 273.56C447.827 273.86 447.623 274.179 447.447 274.513C447.063 275.136 446.519 276.089 445.857 277.333C443.995 280.845 442.37 284.476 440.993 288.203C438.93 293.731 437.394 299.441 436.407 305.257C435.797 308.696 435.421 312.173 435.28 315.663C435.102 319.433 435.582 323.206 436.699 326.811C437.3 328.642 438.161 330.376 439.256 331.962C440.356 333.468 441.598 334.865 442.967 336.132C445.602 338.365 448.037 340.824 450.243 343.48C451.184 344.752 451.897 346.176 452.351 347.691C452.755 349.128 452.868 350.632 452.682 352.113C452.367 354.796 451.158 357.295 449.249 359.21C447.654 360.769 445.627 361.816 443.431 362.215C441.769 362.533 440.059 362.506 438.408 362.136C436.996 361.783 435.646 361.216 434.406 360.454Z" fill="#263238"/>
<path d="M547.148 342.501C545.598 342.1 544.148 341.378 542.894 340.382C539.607 337.466 537.583 333.388 537.248 329.009C536.963 326.004 536.883 322.982 537.01 319.966C537.202 316.459 536.93 312.942 536.201 309.507C535.754 307.646 535.035 305.862 534.067 304.211C533.038 302.464 531.601 300.993 529.879 299.921C526.288 297.723 521.927 297.829 517.951 296.465C516.014 295.787 514.271 294.646 512.875 293.142C511.532 291.648 510.333 290.03 509.297 288.309C507.176 284.973 505.135 281.464 501.902 279.386C500.348 278.398 498.598 277.761 496.773 277.519C495.082 277.292 493.374 277.221 491.67 277.307C488.656 277.542 485.627 277.515 482.618 277.227C478.276 276.632 474.145 274.987 470.584 272.435C469.626 271.734 468.705 270.983 467.827 270.184L467.151 269.548L466.899 269.336C467.925 270.589 469.11 271.702 470.425 272.646C473.982 275.318 478.15 277.061 482.552 277.717C485.585 278.033 488.64 278.086 491.683 277.876C494.891 277.876 498.535 277.876 501.557 279.928C504.579 281.981 506.606 285.304 508.727 288.667C509.784 290.431 511.009 292.089 512.385 293.619C513.842 295.196 515.662 296.395 517.686 297.114C521.768 298.517 526.115 298.438 529.468 300.503C532.618 302.64 534.795 305.933 535.525 309.665C536.261 313.042 536.551 316.501 536.387 319.953C536.272 322.997 536.378 326.046 536.705 329.075C537.095 333.55 539.239 337.69 542.669 340.594C543.619 341.343 544.703 341.905 545.863 342.249C546.164 342.336 546.469 342.407 546.777 342.461C546.897 342.498 547.023 342.511 547.148 342.501Z" fill="#455A64"/>
<path d="M533.867 287.661C533.003 287.964 532.117 288.198 531.217 288.362C528.767 288.661 526.284 288.252 524.06 287.184C520.817 285.48 517.915 283.196 515.498 280.445C514.04 278.962 512.516 277.373 510.793 275.877C509.026 274.283 507.006 272.995 504.816 272.064C502.589 271.196 500.221 270.747 497.831 270.74C495.64 270.734 493.449 270.854 491.271 271.097C489.203 271.296 487.295 271.508 485.413 271.521C483.712 271.549 482.012 271.411 480.337 271.111C477.908 270.73 475.622 269.716 473.71 268.171C473.053 267.556 472.43 266.906 471.842 266.225C471.938 266.441 472.058 266.645 472.199 266.834C472.353 267.077 472.526 267.307 472.716 267.523C472.965 267.828 473.24 268.111 473.538 268.37C475.447 270.043 477.782 271.156 480.284 271.587C481.986 271.928 483.717 272.096 485.453 272.09C487.321 272.09 489.296 271.905 491.377 271.733C493.529 271.504 495.693 271.398 497.858 271.415C500.164 271.412 502.451 271.834 504.604 272.66C508.991 274.474 512.145 277.956 515.087 280.855C517.568 283.639 520.56 285.922 523.901 287.581C526.209 288.648 528.786 288.999 531.296 288.587C531.973 288.46 532.631 288.251 533.258 287.965C533.47 287.884 533.675 287.782 533.867 287.661Z" fill="#455A64"/>
<path d="M437.981 324.785C437.655 323.974 437.436 323.124 437.331 322.257C437.209 319.882 437.87 317.533 439.213 315.57C440.751 312.922 443.6 310.698 446.489 307.878C448.046 306.406 449.349 304.688 450.346 302.794C451.315 300.713 451.872 298.465 451.99 296.174C452.294 291.474 451.486 287.078 451.592 283.093C451.439 279.568 452.465 276.093 454.508 273.216C455.934 271.314 458 269.993 460.326 269.495C461.204 269.369 462.093 269.347 462.977 269.429C462.762 269.333 462.534 269.27 462.301 269.244C461.645 269.154 460.981 269.154 460.326 269.244C457.882 269.653 455.681 270.967 454.163 272.924C452.109 275.294 451.049 279.054 450.996 283.093C450.943 287.131 451.645 291.553 451.34 296.134C451.234 298.35 450.703 300.526 449.776 302.542C448.825 304.381 447.575 306.05 446.079 307.481C443.269 310.288 440.366 312.644 438.842 315.425C437.484 317.485 436.871 319.947 437.106 322.402C437.19 323.059 437.378 323.698 437.663 324.296C437.748 324.471 437.855 324.636 437.981 324.785Z" fill="#455A64"/>
<path d="M555.273 332.716C555.565 332.579 555.848 332.425 556.121 332.253C556.89 331.735 557.582 331.111 558.176 330.399C559.27 329.066 560.064 327.512 560.503 325.844C560.943 324.176 561.017 322.433 560.72 320.734C560.507 319.603 560.127 318.51 559.594 317.49C558.96 316.421 558.174 315.449 557.261 314.604C555.168 312.885 552.849 311.459 550.369 310.367C547.674 309.216 545.185 307.633 543.001 305.68C540.89 303.362 539.448 300.516 538.826 297.445C538.031 294.307 537.5 291.13 536.453 288.177C535.472 285.354 534.179 282.65 532.597 280.114C529.94 275.81 526.528 272.02 522.524 268.926C519.835 266.841 516.886 265.114 513.75 263.789C512.908 263.419 512.045 263.096 511.166 262.822C510.868 262.699 510.557 262.61 510.238 262.558C510.238 262.637 511.484 263.034 513.644 264.04C516.712 265.444 519.592 267.223 522.219 269.336C526.129 272.439 529.459 276.209 532.053 280.471C533.595 282.972 534.853 285.636 535.804 288.415C536.811 291.302 537.341 294.44 538.163 297.683C538.81 300.874 540.318 303.827 542.523 306.223C544.762 308.22 547.314 309.835 550.078 311.003C552.517 312.057 554.803 313.433 556.877 315.094C557.751 315.894 558.51 316.812 559.13 317.821C559.652 318.784 560.027 319.82 560.243 320.893C560.573 322.759 560.468 324.675 559.938 326.494C559.532 327.873 558.866 329.163 557.977 330.293C557.183 331.214 556.275 332.028 555.273 332.716Z" fill="#263238"/>
<path d="M434.242 326.017C434.308 326.017 433.685 325.381 432.837 324.123C431.668 322.344 430.866 320.35 430.478 318.258C429.923 315.154 430.036 311.968 430.809 308.911C431.84 305.179 433.44 301.629 435.554 298.385C437.741 294.876 440.1 291.699 442.088 288.693C443.89 286.046 445.455 283.246 446.766 280.325C447.647 278.347 448.292 276.272 448.688 274.142C448.791 273.564 448.862 272.981 448.9 272.395C448.929 272.193 448.929 271.988 448.9 271.786C448.9 271.786 448.741 272.62 448.41 274.089C447.928 276.186 447.231 278.227 446.329 280.18C444.96 283.038 443.364 285.783 441.558 288.389C439.556 291.368 437.171 294.532 434.931 298.08C432.779 301.385 431.164 305.009 430.146 308.818C429.388 311.966 429.325 315.242 429.961 318.417C430.412 320.556 431.316 322.574 432.612 324.335C432.962 324.809 433.352 325.252 433.778 325.659C433.916 325.798 434.072 325.918 434.242 326.017Z" fill="#263238"/>
<path d="M571.905 510.556L582.786 529.476C582.786 529.476 636.873 509.708 668.535 515.468C680.583 517.652 693.465 544.94 675.917 562.47C658.807 579.563 628.205 603.739 570.779 611.564C569.347 611.749 545.823 616.794 547.281 616.621C548.738 616.449 514.306 621.917 514.306 621.917L506.222 591.386L442.089 601.435C404.29 598.867 385.789 558.485 408.558 545.483C429.763 533.368 469.709 532.389 469.709 532.389L484.181 509.722L571.905 510.556Z" fill="#263238"/>
<path d="M512.995 623.096C512.836 622.063 512.372 619.283 511.445 613.576C510.928 610.531 510.305 606.824 509.496 602.561C509.086 600.416 508.635 598.152 508.092 595.755C507.813 594.55 507.522 593.332 507.164 592.075C506.992 591.452 506.806 590.83 506.581 590.194C506.377 589.511 506.044 588.873 505.6 588.314L505.507 588.778C519.158 583.932 536.228 577.537 554.412 569.871C565.598 565.118 576.147 560.325 585.438 555.307C589.869 553 594.122 550.367 598.161 547.429C601.925 544.649 605.291 541.868 608.446 539.485C614.675 534.56 620.374 531.382 624.575 530.032C625.5 529.703 626.443 529.425 627.398 529.198C628.09 529.003 628.794 528.853 629.505 528.748L630.831 528.509L631.281 528.403C631.127 528.386 630.971 528.386 630.817 528.403L629.492 528.575C628.768 528.653 628.051 528.781 627.345 528.959C626.376 529.162 625.42 529.423 624.482 529.741C621.899 530.577 619.412 531.682 617.06 533.037C613.95 534.835 610.969 536.848 608.141 539.062C604.96 541.458 601.594 544.212 597.817 547.006C593.787 549.91 589.548 552.513 585.133 554.791C575.856 559.742 565.319 564.522 554.147 569.262C535.977 576.915 518.933 583.363 505.322 588.275L504.937 588.42L505.229 588.738C505.601 589.242 505.883 589.806 506.064 590.406C506.289 591.015 506.475 591.638 506.66 592.247C507.018 593.478 507.323 594.709 507.601 595.888C508.158 598.271 508.635 600.535 509.059 602.666C509.907 606.93 510.57 610.61 511.127 613.656C511.683 616.701 512.134 619.018 512.452 620.673C512.611 621.481 512.73 622.103 512.836 622.513C512.876 622.711 512.929 622.905 512.995 623.096Z" fill="#455A64"/>
<path d="M420.99 549.19H421.348L422.342 549.031C423.217 548.912 424.489 548.594 426.173 548.422C430.886 547.802 435.648 547.634 440.393 547.919C447.435 548.372 454.415 549.525 461.228 551.361C465.071 552.381 469.074 553.599 473.156 555.016C477.238 556.432 481.426 558.061 485.707 559.769C489.884 561.424 494.154 562.835 498.496 563.992C502.697 565.144 506.793 566.045 510.716 566.799C518.562 568.335 525.705 569.275 531.696 570.003C537.686 570.732 542.55 571.221 545.903 571.566L549.773 571.95L550.78 572.029C550.895 572.047 551.011 572.047 551.125 572.029H550.794L549.786 571.883L545.943 571.367L531.762 569.593C525.771 568.799 518.654 567.806 510.848 566.243C506.938 565.475 502.896 564.562 498.682 563.397C494.365 562.238 490.117 560.836 485.958 559.2C481.691 557.492 477.489 555.85 473.368 554.446C469.246 553.043 465.243 551.798 461.373 550.805C454.516 548.99 447.49 547.885 440.407 547.509C435.632 547.26 430.845 547.5 426.12 548.224C424.436 548.435 423.177 548.806 422.303 548.965L421.309 549.19C421.203 549.176 421.096 549.176 420.99 549.19Z" fill="#455A64"/>
<path d="M519.803 538.201C519.803 538.651 522.665 539.379 527.476 539.829C540.039 540.856 552.682 539.508 564.745 535.857C569.344 534.401 572.034 533.064 571.902 532.627C571.597 531.674 560.239 534.692 545.925 536.175C531.611 537.658 519.896 537.195 519.803 538.201Z" fill="#263238"/>
<path d="M469.096 532.839C469.788 533.082 470.497 533.272 471.217 533.408C472.053 533.577 472.881 533.789 473.695 534.044C474.649 534.322 475.75 534.613 476.929 535.037C479.716 535.968 482.451 537.051 485.12 538.281C488.115 539.71 491.349 541.405 494.649 543.365C500.239 546.772 505.6 550.54 510.699 554.645C512.66 556.207 514.237 557.505 515.311 558.405C515.85 558.896 516.431 559.339 517.047 559.729C516.569 559.175 516.051 558.657 515.496 558.18C514.462 557.214 512.938 555.863 511.003 554.208C505.972 549.966 500.619 546.119 494.993 542.703C491.883 540.847 488.675 539.159 485.385 537.645C482.684 536.424 479.909 535.376 477.075 534.507C475.882 534.11 474.769 533.845 473.788 533.607C472.96 533.381 472.119 533.204 471.27 533.077C470.554 532.936 469.826 532.856 469.096 532.839Z" fill="#455A64"/>
<path d="M529.229 559.756C530.539 559.559 531.817 559.194 533.033 558.67C536 557.538 538.899 556.234 541.714 554.764L550.103 550.355C551.297 549.805 552.452 549.177 553.562 548.475C552.288 548.829 551.054 549.312 549.878 549.918C547.665 550.924 544.67 552.46 541.369 554.142C538.069 555.823 535.061 557.28 532.821 558.22C530.581 559.16 529.203 559.65 529.229 559.756Z" fill="#455A64"/>
<path d="M523.386 512.833C523.28 512.833 523.466 514.819 523.665 518.01C523.863 521.201 524.049 525.61 523.956 530.482C523.863 535.354 523.506 539.75 523.187 542.954C522.937 544.666 522.774 546.389 522.697 548.118C522.871 547.694 522.987 547.248 523.042 546.794C523.227 545.92 523.439 544.635 523.665 543.047C524.239 538.899 524.567 534.721 524.645 530.535C524.723 526.354 524.559 522.172 524.155 518.01C523.983 516.408 523.824 515.124 523.678 514.236C523.638 513.759 523.54 513.287 523.386 512.833Z" fill="#455A64"/>
<path d="M517.356 514.792C517.356 514.792 517.595 515.004 517.926 515.402C518.39 515.955 518.684 516.631 518.774 517.348C518.849 517.863 518.813 518.387 518.669 518.887C518.525 519.387 518.276 519.851 517.939 520.247C517.476 520.659 516.909 520.936 516.3 521.051C515.691 521.165 515.063 521.112 514.481 520.897C513.9 520.683 513.388 520.314 513.001 519.831C512.613 519.348 512.364 518.769 512.28 518.155C512.293 517.631 512.418 517.115 512.647 516.642C512.875 516.17 513.202 515.751 513.605 515.415C514.139 514.929 514.802 514.607 515.514 514.488C516.031 514.409 516.322 514.488 516.336 514.395C516.349 514.303 516.057 514.223 515.487 514.223C514.683 514.247 513.91 514.535 513.287 515.044C512.803 515.41 512.409 515.882 512.136 516.423C511.862 516.965 511.717 517.562 511.71 518.169C511.771 518.923 512.047 519.643 512.504 520.246C512.961 520.849 513.581 521.309 514.291 521.572C515.001 521.835 515.772 521.889 516.512 521.73C517.252 521.57 517.931 521.203 518.469 520.671C518.855 520.202 519.129 519.653 519.274 519.065C519.419 518.476 519.429 517.862 519.304 517.268C519.163 516.473 518.762 515.747 518.164 515.203C517.687 514.845 517.369 514.766 517.356 514.792Z" fill="#455A64"/>
<path d="M500.893 492.986C501.187 493.465 501.534 493.909 501.927 494.31C502.922 495.491 503.984 496.614 505.108 497.673C506.771 499.255 508.543 500.719 510.409 502.056C512.707 503.682 515.121 505.138 517.632 506.412C520.157 507.651 522.77 508.7 525.452 509.55C527.648 510.232 529.889 510.762 532.158 511.138C533.679 511.404 535.215 511.576 536.757 511.655C537.321 511.709 537.889 511.709 538.453 511.655C538.453 511.522 536.054 511.39 532.237 510.649C529.997 510.205 527.784 509.63 525.611 508.927C518.155 506.494 511.286 502.54 505.439 497.316C502.55 494.747 500.999 492.907 500.893 492.986Z" fill="#263238"/>
<path d="M476.706 507.683C476.706 507.881 479.092 507.881 481.901 508.596C484.711 509.311 486.831 510.37 486.938 510.198C483.996 508.038 480.315 507.133 476.706 507.683Z" fill="#263238"/>
<g opacity="0.3">
<path d="M532.327 510.993C520.805 508.884 510.368 502.859 502.785 493.939C502.095 496.035 502.001 498.281 502.514 500.427C503.026 502.573 504.125 504.535 505.688 506.094C502.321 507.683 498.372 506.623 494.687 506.094C491.003 505.564 486.497 506.094 484.734 509.364C501.219 510.888 517.783 511.361 534.328 510.781" fill="black"/>
</g>
<path d="M565.239 485.043C566.9 483.471 568.836 482.219 570.951 481.349C573.26 480.454 575.726 480.035 578.201 480.117C581.225 480.226 584.185 481.023 586.855 482.447C592.634 485.44 596.132 490.55 598.677 493.821C599.663 495.194 600.548 496.637 601.328 498.137C601.585 498.701 601.891 499.241 602.242 499.752C602.076 499.153 601.849 498.572 601.566 498.018C600.886 496.458 600.07 494.96 599.128 493.543C597.895 491.768 596.305 489.782 594.476 487.611C592.425 485.26 589.964 483.299 587.213 481.825C584.446 480.356 581.373 479.553 578.24 479.482C575.686 479.431 573.149 479.913 570.792 480.898C569.207 481.546 567.752 482.474 566.498 483.639C566.15 483.944 565.83 484.281 565.544 484.645C565.318 484.897 565.212 485.029 565.239 485.043Z" fill="#263238"/>
<path d="M530.545 358.044L549.047 361.977L539.796 396.573L507.034 403.603L484.556 387.676L481.468 368.597L500.738 361.315L530.545 358.044Z" fill="#FFBE9D"/>
<path d="M543.569 360.56C543.569 360.56 531.044 396.891 507.904 393.528C484.764 390.165 486.699 366.624 486.699 366.624C486.699 366.624 462.551 373.985 455.089 381.81C447.628 389.635 452.028 406.648 452.028 406.648L458.283 437.392L471.908 496.283C471.908 496.283 466.699 512.357 480.019 516.329L484.22 509.709L564.098 511.959C564.098 511.959 581.182 531.634 586.509 524.855C591.837 518.076 596.953 504.836 596.953 504.836L560.255 364.916L543.569 360.56Z" fill="#455A64"/>
<path d="M461.402 377.163C460.753 377.534 404.691 418.207 404.691 418.207C404.691 418.207 409.091 451.678 382.16 446.355C382.16 446.355 393.028 474.345 407.739 468.466C411.927 466.798 463.602 434.135 463.602 434.135L474.562 410.819L461.402 377.163Z" fill="#455A64"/>
<path d="M543.572 362.347C543.572 362.347 544.898 362.347 546.978 362.585C557.952 363.645 598.454 372.026 602.205 400.584C604.167 415.519 604.723 459.198 606.844 477.509C606.844 477.509 603.464 502.956 602.205 507.669C599.965 516.064 559.384 502.612 559.384 502.612L559.304 421.848L544.805 362.387" fill="#455A64"/>
<path d="M569.201 435.724C569.165 435.938 569.165 436.158 569.201 436.372C569.191 437.001 569.147 437.629 569.069 438.252C568.781 440.522 568.206 442.747 567.359 444.872C566.325 447.6 564.708 450.698 563.171 454.246C562.326 456.108 561.617 458.029 561.05 459.993C560.482 462.112 560.114 464.279 559.95 466.467C559.714 470.679 559.825 474.904 560.282 479.098C560.613 482.964 560.931 486.446 561.408 489.346C561.77 491.638 562.306 493.9 563.012 496.111C563.277 496.892 563.502 497.435 563.674 497.885C563.742 498.097 563.84 498.298 563.966 498.481C563.966 498.481 563.714 497.607 563.264 496.032C562.671 493.809 562.228 491.549 561.938 489.266C561.514 486.38 561.249 482.911 560.944 479.058C560.538 474.891 560.45 470.7 560.679 466.52C560.835 464.373 561.19 462.246 561.739 460.165C562.291 458.23 562.978 456.337 563.794 454.498C565.331 450.963 566.868 447.812 567.862 445.045C568.687 442.859 569.195 440.568 569.373 438.239C569.428 437.609 569.428 436.976 569.373 436.346C569.334 436.134 569.277 435.926 569.201 435.724Z" fill="#263238"/>
<path d="M567.333 425.529C567.213 425.529 567.121 427.581 566.657 430.825C566.056 435.094 565.066 439.3 563.701 443.39C563.29 444.594 562.866 445.746 562.376 446.858C562.28 447.116 562.169 447.368 562.045 447.613L561.567 448.341C561.26 448.826 560.977 449.325 560.719 449.837C559.771 451.598 559.257 453.559 559.222 455.557C559.214 456.92 559.48 458.271 560.004 459.529C560.187 460.001 560.432 460.446 560.733 460.853C560.063 459.214 559.716 457.46 559.712 455.69C559.808 453.78 560.343 451.918 561.276 450.248C561.528 449.771 561.819 449.295 562.124 448.818L562.601 448.09C562.762 447.817 562.895 447.528 562.999 447.229C563.463 446.117 563.887 444.939 564.324 443.734C565.715 439.603 566.649 435.331 567.107 430.997C567.293 429.342 567.346 427.978 567.359 427.025C567.409 426.527 567.4 426.025 567.333 425.529Z" fill="#263238"/>
<path d="M565.72 413.401C565.826 413.401 566.436 411.746 567.629 409.137C569.189 405.73 571.066 402.477 573.235 399.419C575.421 396.379 577.884 393.547 580.591 390.959C582.671 388.973 584.076 387.848 583.997 387.755C583.614 387.936 583.258 388.168 582.937 388.443C582.016 389.116 581.131 389.837 580.286 390.601C574.59 395.644 570.117 401.915 567.205 408.939C566.661 410.263 566.264 411.388 566.039 412.169C565.882 412.565 565.775 412.979 565.72 413.401Z" fill="#263238"/>
<path d="M450.851 389.675C450.824 390.749 450.913 391.823 451.116 392.879C451.355 394.852 451.699 397.566 452.004 400.571C452.309 403.577 452.561 406.304 452.733 408.29C452.753 409.365 452.887 410.434 453.131 411.481C453.282 410.415 453.313 409.336 453.224 408.264C453.224 406.264 453.011 403.524 452.693 400.505C452.375 397.486 451.964 394.759 451.607 392.813C451.473 391.742 451.22 390.689 450.851 389.675Z" fill="#263238"/>
<path d="M439.322 423.675C439.322 423.794 441.072 423.966 443.789 424.734C447.326 425.714 450.547 427.599 453.132 430.202C454.506 431.673 455.702 433.299 456.697 435.048C457.477 436.502 458.159 438.005 458.738 439.55L459.388 441.35C459.547 441.84 459.679 442.304 459.812 442.674C459.906 443.08 460.053 443.472 460.249 443.839C460.257 443.422 460.194 443.005 460.064 442.608L459.759 441.191L459.202 439.338C458.676 437.74 458.024 436.186 457.254 434.691C456.253 432.913 455.033 431.267 453.623 429.792C450.969 427.096 447.605 425.205 443.921 424.337C443.295 424.165 442.657 424.036 442.013 423.953C441.535 423.862 441.053 423.8 440.568 423.768C440.16 423.671 439.74 423.64 439.322 423.675Z" fill="#263238"/>
<path d="M402.193 460.522C402.543 460.061 402.84 459.564 403.081 459.039C403.36 458.562 403.678 457.953 404.009 457.225C404.341 456.497 404.738 455.703 405.083 454.763C405.956 452.588 406.669 450.354 407.217 448.076C407.881 445.278 408.325 442.431 408.542 439.563C408.722 436.699 408.674 433.826 408.396 430.97C408.154 428.641 407.746 426.331 407.177 424.059C406.965 423.079 406.66 422.219 406.435 421.411C406.253 420.758 406.032 420.117 405.772 419.491C405.599 418.939 405.368 418.406 405.083 417.902C404.95 417.902 405.838 420.246 406.7 424.112C407.194 426.374 407.548 428.665 407.76 430.97C407.997 433.798 408.032 436.638 407.866 439.47C407.653 442.299 407.236 445.109 406.62 447.878C406.104 450.123 405.449 452.334 404.659 454.498C403.254 458.298 402.074 460.469 402.193 460.522Z" fill="#263238"/>
<path d="M416.763 450.578C417.003 450.132 417.181 449.656 417.293 449.162C417.663 447.859 417.937 446.532 418.114 445.19C418.683 440.669 418.258 436.078 416.869 431.738C415.517 427.379 413.203 423.379 410.096 420.034C409.164 418.955 407.866 418.258 406.451 418.074C406.064 418.063 405.679 418.14 405.325 418.299C405.1 418.419 404.98 418.498 404.994 418.524C405.46 418.374 405.949 418.311 406.438 418.339C407.735 418.624 408.898 419.338 409.738 420.365C412.674 423.732 414.876 427.673 416.206 431.937C417.558 436.211 418.044 440.712 417.637 445.177C417.293 448.487 416.643 450.539 416.763 450.578Z" fill="#263238"/>
<path d="M507.903 443.985C507.944 444.523 508.056 445.052 508.234 445.561C508.374 446.171 508.551 446.773 508.764 447.362C509.02 448.153 509.317 448.931 509.652 449.692C510.489 451.692 511.5 453.615 512.674 455.438C515.56 459.931 519.335 463.788 523.767 466.771C525.566 467.989 527.469 469.048 529.453 469.936C530.208 470.288 530.982 470.597 531.772 470.863C532.352 471.103 532.95 471.298 533.561 471.445C534.069 471.621 534.593 471.745 535.125 471.816C535.125 471.683 532.951 471.088 529.665 469.499C527.737 468.562 525.885 467.477 524.125 466.255C521.991 464.738 519.987 463.047 518.134 461.197C516.324 459.306 514.679 457.264 513.217 455.094C512.033 453.312 510.992 451.439 510.103 449.493C508.579 446.17 508.035 443.946 507.903 443.985Z" fill="#263238"/>
<g opacity="0.3">
<path d="M553.804 457.093L561.438 429.289C561.809 427.965 562.432 426.336 563.824 426.085C564.478 426.062 565.118 426.282 565.619 426.702C566.121 427.123 566.449 427.714 566.54 428.362C566.726 429.71 566.726 431.078 566.54 432.427C565.944 438.477 565.467 442.582 562.644 447.269C557.144 456.404 560.762 460.84 560.762 460.84C560.325 471.961 561.266 487.134 564.738 498.56L561.464 512.343C558.363 502.095 551.273 493.556 550.08 482.911C549.165 474.186 551.432 465.54 553.804 457.093Z" fill="black"/>
</g>
<g opacity="0.3">
<path d="M458.258 437.577C449.179 442.29 441.108 448.805 432.268 453.849C435.727 446.633 441.545 439.497 448.543 435.67C450.37 434.493 452.522 433.923 454.693 434.042C456.84 434.346 458.377 435.551 458.046 437.683" fill="black"/>
</g>
<g opacity="0.3">
<path d="M406.237 417.624C409.338 417.545 411.671 420.365 413.195 423.066C417.481 430.751 419.234 439.591 418.205 448.328C418.019 449.89 417.436 451.77 415.886 452.075C415.313 452.138 414.736 452.013 414.241 451.719C413.746 451.425 413.36 450.979 413.142 450.446C412.717 449.384 412.54 448.238 412.625 447.097C412.625 441.801 412.996 436.438 412.228 431.209C411.459 425.979 409.484 420.683 405.601 417.095" fill="black"/>
</g>
<path d="M546.422 427.568H546.104L545.189 427.501L541.598 427.316L528.026 426.694L479.956 424.655H479.638V424.959C479.241 441.112 478.777 459.701 478.313 479.376V481.348V481.693H478.538C498.342 481.921 518.111 483.398 537.728 486.115H537.98L538.046 485.863C541.848 471.948 544.215 457.68 545.11 443.283C545.428 438.067 545.481 434.015 545.481 431.182C545.481 429.858 545.481 428.719 545.481 427.991V427.184C545.481 426.998 545.481 426.906 545.481 426.906C545.469 426.998 545.469 427.091 545.481 427.184V428.005C545.481 428.746 545.481 429.818 545.481 431.182C545.481 433.976 545.309 438.067 544.951 443.257C543.935 457.617 541.493 471.84 537.661 485.718L537.993 485.493C518.294 482.697 498.434 481.18 478.538 480.951L478.883 481.309V479.336C479.347 459.661 479.771 441.072 480.208 424.92L479.89 425.224L527.973 427.012L541.558 427.462L545.15 427.568H546.382H546.422Z" fill="white"/>
<path d="M528.896 467.698C529.082 467.698 530.739 458.788 532.594 447.719C534.449 436.65 535.801 427.66 535.616 427.621C535.43 427.581 533.774 436.531 531.918 447.613C530.063 458.695 528.764 467.672 528.896 467.698Z" fill="white"/>
<path d="M526.968 484.778C527.68 482.423 528.173 480.007 528.439 477.562C528.928 475.146 529.194 472.691 529.234 470.227C528.521 472.586 528.029 475.006 527.763 477.456C527.259 479.865 526.993 482.317 526.968 484.778Z" fill="white"/>
<path d="M515.542 458.84C515.731 458.452 515.856 458.037 515.914 457.609C516.112 456.815 516.364 455.636 516.643 454.193C517.199 451.294 517.822 447.269 518.273 442.794C518.723 438.319 518.896 434.241 518.935 431.301C518.935 429.818 518.935 428.653 518.935 427.806C518.948 427.361 518.908 426.917 518.816 426.482C518.602 428.057 518.491 429.645 518.485 431.235C518.326 434.174 518.074 438.226 517.623 442.688C517.173 447.15 516.629 451.161 516.205 454.074C515.889 455.648 515.668 457.24 515.542 458.84Z" fill="white"/>
<path d="M517.048 483.003C517.772 479.923 518.273 476.795 518.545 473.643C519.057 470.521 519.332 467.366 519.367 464.203C518.644 467.283 518.144 470.411 517.87 473.563C517.358 476.685 517.083 479.841 517.048 483.003Z" fill="white"/>
<path d="M502.078 481.931C502.217 481.21 502.306 480.48 502.343 479.746L502.86 473.788C503.298 468.77 503.947 461.872 504.822 454.18C505.696 446.487 506.651 439.616 507.366 434.624C507.711 432.215 508.003 430.215 508.215 428.706C508.35 427.985 508.429 427.255 508.453 426.521C508.221 427.22 508.053 427.938 507.949 428.666C507.671 429.99 507.313 432.056 506.889 434.545C506.041 439.536 505.02 446.461 504.133 454.1C503.245 461.74 502.688 468.664 502.37 473.762C502.224 476.277 502.118 478.316 502.078 479.733C502.009 480.464 502.009 481.2 502.078 481.931Z" fill="white"/>
<path d="M489.324 482.646C489.42 481.909 489.455 481.165 489.43 480.422C489.43 478.873 489.43 476.821 489.43 474.358C489.43 469.247 489.616 462.177 489.973 454.392C490.331 446.607 490.888 439.55 491.299 434.453C491.511 432.003 491.683 429.964 491.816 428.428C491.909 427.691 491.949 426.947 491.935 426.204C491.74 426.919 491.611 427.65 491.55 428.389C491.338 429.805 491.087 431.871 490.808 434.413C490.252 439.497 489.642 446.554 489.258 454.352C488.873 462.151 488.834 469.234 488.913 474.358C488.913 476.913 489.006 478.992 489.072 480.422C489.101 481.168 489.186 481.912 489.324 482.646Z" fill="white"/>
<g opacity="0.3">
<path d="M534.081 471.908C532.004 473.23 529.548 473.826 527.096 473.603C524.66 473.382 522.278 472.76 520.045 471.763C517.004 470.631 514.261 468.82 512.027 466.467C509.856 463.772 508.479 460.526 508.051 457.093C507.611 453.665 507.496 450.202 507.707 446.752C507.694 446.603 507.731 446.454 507.813 446.329C507.861 446.279 507.918 446.24 507.982 446.213C508.046 446.186 508.114 446.172 508.184 446.172C508.253 446.172 508.321 446.186 508.385 446.213C508.449 446.24 508.507 446.279 508.555 446.329C508.752 446.532 508.893 446.783 508.966 447.057C510.995 452.825 514.373 458.026 518.82 462.226C523.266 466.427 528.653 469.505 534.531 471.207" fill="black"/>
</g>
<path d="M542.284 582.806L550.382 567.633L568.592 482.487C568.592 482.487 585.344 472.875 599.075 493.939C599.618 494.787 580.202 555.77 574.781 572.731L574.026 588.963C574.026 588.963 574.98 608.174 574.026 609.856C573.173 611.034 572.007 611.951 570.66 612.504C570.66 612.504 571.375 617.31 565.849 617.8C565.849 617.8 565.372 623.096 561.29 622.367C560.18 622.233 559.112 621.863 558.156 621.283C557.201 620.703 556.38 619.926 555.75 619.005C555.75 619.005 555.75 625.717 552.145 625.002C548.54 624.287 547.957 621.401 547.294 620.448C546.631 619.494 545.863 609.631 545.863 609.631L545.929 593.372L536.546 600.972C533.895 602.296 529.853 603.99 527.6 601.965L542.284 582.806Z" fill="#FFBE9D"/>
<path d="M545.911 592.538C545.294 595.416 545.115 598.371 545.381 601.303C545.487 603.554 545.579 605.606 545.672 607.486C545.643 608.344 545.723 609.203 545.911 610.041C546.28 607.134 546.334 604.195 546.07 601.276C545.831 596.457 546.123 592.565 545.911 592.538Z" fill="#EB996E"/>
<path d="M556.253 603.872C555.723 609.218 555.652 614.6 556.041 619.958C556.571 614.612 556.642 609.23 556.253 603.872Z" fill="#EB996E"/>
<path d="M564.916 606.824C564.305 610.561 564.675 614.393 565.99 617.945C566.175 617.945 565.698 615.443 565.42 612.385C565.354 610.523 565.186 608.667 564.916 606.824Z" fill="#EB996E"/>
<path d="M570.5 604.944C570.277 607.381 570.52 609.839 571.216 612.186C571.449 610.979 571.449 609.739 571.216 608.532C571.198 607.302 570.956 606.086 570.5 604.944Z" fill="#EB996E"/>
<path d="M399.16 220.51L402.312 224.695L407.225 226.524L403.035 229.674L401.203 234.582L398.051 230.397L393.138 228.568L397.328 225.418L399.16 220.51Z" fill="#4B29AA"/>
<path d="M406.757 155.832L409.316 155.286L411.177 153.438L411.724 156.007L413.574 157.866L411.002 158.413L409.139 160.249L408.594 157.692L406.757 155.832Z" fill="#4B29AA"/>
<path d="M752.296 300.186L754.855 299.641L756.716 297.792L757.263 300.362L759.113 302.22L756.541 302.768L754.678 304.603L754.133 302.047L752.296 300.186Z" fill="#4B29AA"/>
<path d="M541.997 215.233L544.556 214.688L546.432 212.85L546.978 215.407L548.814 217.267L546.255 217.813L544.379 219.65L543.847 217.092L541.997 215.233Z" fill="#4B29AA"/>
<path d="M541.7 102.227L544.259 101.682L546.122 99.8463L546.667 102.403L548.504 104.263L545.945 104.809L544.084 106.658L543.537 104.088L541.7 102.227Z" fill="#4B29AA"/>
<path d="M472.256 182.463L475.862 179.625L477.364 175.3L480.203 178.902L484.547 180.412L480.94 183.237L479.427 187.577L476.587 183.975L472.256 182.463Z" fill="#4B29AA"/>
<path d="M835.264 357.903L838.87 355.065L840.372 350.74L843.211 354.342L847.54 355.841L843.934 358.678L842.433 363.004L839.593 359.402L835.264 357.903Z" fill="#8181A2"/>
<path d="M716.913 285.078L720.519 282.24L722.033 277.913L724.873 281.515L729.202 283.014L725.596 285.851L724.083 290.192L721.255 286.575L716.913 285.078Z" fill="#4B29AA"/>
</svg>
