<svg width="117" height="28" viewBox="0 0 117 28" fill="none" xmlns="http://www.w3.org/2000/svg">
<path d="M37.7577 3.64567C37.7577 4.45087 37.5564 5.15542 37.0532 5.65867C36.4493 6.26257 35.7447 6.56452 34.8389 6.56452C33.933 6.56452 33.2285 6.26257 32.6246 5.65867C32.0207 5.05477 31.7188 4.35022 31.7188 3.44437C31.7188 2.53852 32.0207 1.83397 32.6246 1.23007C33.2285 0.626169 33.933 0.324219 34.8389 0.324219C35.2415 0.324219 35.6441 0.424868 36.0467 0.626168C36.4493 0.827468 36.7512 1.02877 36.9525 1.33072L36.4493 1.83397C36.0467 1.33072 35.5434 1.12942 34.8389 1.12942C34.235 1.12942 33.6311 1.33072 33.2285 1.83397C32.7252 2.23657 32.5239 2.84047 32.5239 3.54502C32.5239 4.24957 32.7252 4.85347 33.2285 5.25607C33.7317 5.65867 34.235 5.96062 34.8389 5.96062C35.5434 5.96062 36.0467 5.75932 36.5499 5.25607C36.8519 4.95412 37.0532 4.55152 37.0532 4.04827H34.8389V3.24307H37.7577V3.64567ZM42.3876 1.12942H39.6701V3.04177H42.1863V3.74632H39.6701V5.65867H42.3876V6.46387H38.8649V0.424869H42.3876V1.12942ZM45.7091 6.46387H44.9039V1.12942H43.1928V0.424869H47.4201V1.12942H45.7091V6.46387ZM50.339 6.46387V0.424869H51.1442V6.46387H50.339ZM54.5663 6.46387H53.7611V1.12942H52.05V0.424869H56.1767V1.12942H54.4656V6.46387H54.5663ZM64.128 5.65867C63.5241 6.26257 62.8196 6.56452 61.9137 6.56452C61.0079 6.56452 60.3033 6.26257 59.6994 5.65867C59.0955 5.05477 58.7936 4.35022 58.7936 3.44437C58.7936 2.53852 59.0955 1.83397 59.6994 1.23007C60.3033 0.626169 61.0079 0.324219 61.9137 0.324219C62.8196 0.324219 63.5241 0.626169 64.128 1.23007C64.7319 1.83397 65.0339 2.53852 65.0339 3.44437C65.0339 4.35022 64.7319 5.05477 64.128 5.65867ZM60.3033 5.15542C60.7059 5.55802 61.3098 5.85997 61.9137 5.85997C62.5176 5.85997 63.1215 5.65867 63.5241 5.15542C63.9267 4.75282 64.2287 4.14892 64.2287 3.44437C64.2287 2.73982 64.0274 2.13592 63.5241 1.73332C63.1215 1.33072 62.5176 1.02877 61.9137 1.02877C61.3098 1.02877 60.7059 1.23007 60.3033 1.73332C59.9007 2.13592 59.5988 2.73982 59.5988 3.44437C59.5988 4.14892 59.8001 4.75282 60.3033 5.15542ZM66.141 6.46387V0.424869H67.0469L69.9657 5.15542V0.424869H70.7709V6.46387H69.9657L66.8456 1.53202V6.46387H66.141Z" fill="#344054" stroke="#344054" stroke-width="0.224233" stroke-miterlimit="10"/>
<path d="M58.5896 15.3204C56.174 15.3204 54.2616 17.1321 54.2616 19.6483C54.2616 22.0639 56.174 23.9763 58.5896 23.9763C61.0052 23.9763 62.9175 22.1646 62.9175 19.6483C62.9175 17.0314 61.0052 15.3204 58.5896 15.3204ZM58.5896 22.1646C57.2811 22.1646 56.174 21.0574 56.174 19.5477C56.174 18.0379 57.2811 16.9308 58.5896 16.9308C59.898 16.9308 61.0052 17.9373 61.0052 19.5477C61.0052 21.0574 59.898 22.1646 58.5896 22.1646ZM49.2291 15.3204C46.8135 15.3204 44.9012 17.1321 44.9012 19.6483C44.9012 22.0639 46.8135 23.9763 49.2291 23.9763C51.6447 23.9763 53.5571 22.1646 53.5571 19.6483C53.5571 17.0314 51.6447 15.3204 49.2291 15.3204ZM49.2291 22.1646C47.9207 22.1646 46.8135 21.0574 46.8135 19.5477C46.8135 18.0379 47.9207 16.9308 49.2291 16.9308C50.5376 16.9308 51.6447 17.9373 51.6447 19.5477C51.6447 21.0574 50.5376 22.1646 49.2291 22.1646ZM38.057 16.6288V18.4405H42.3849C42.2843 19.447 41.8817 20.2522 41.3784 20.7555C40.7745 21.3594 39.768 22.0639 38.057 22.0639C35.3394 22.0639 33.3264 19.9503 33.3264 17.2327C33.3264 14.5152 35.4401 12.4015 38.057 12.4015C39.4661 12.4015 40.5732 13.0054 41.3784 13.71L42.6869 12.4015C41.5797 11.395 40.1706 10.5898 38.1576 10.5898C34.5342 10.5898 31.4141 13.6093 31.4141 17.2327C31.4141 20.8561 34.5342 23.8756 38.1576 23.8756C40.1706 23.8756 41.5797 23.2717 42.7875 21.9633C43.9953 20.7555 44.3979 19.0444 44.3979 17.736C44.3979 17.3334 44.3979 16.9308 44.2973 16.6288H38.057ZM83.752 18.0379C83.3494 17.0314 82.3429 15.3204 80.1286 15.3204C77.9143 15.3204 76.1026 17.0314 76.1026 19.6483C76.1026 22.0639 77.9143 23.9763 80.3299 23.9763C82.2423 23.9763 83.4501 22.7685 83.8527 22.0639L82.4436 21.0574C81.9403 21.762 81.3364 22.2652 80.3299 22.2652C79.3234 22.2652 78.7195 21.8626 78.2163 20.9568L83.9533 18.5412L83.752 18.0379ZM77.9144 19.447C77.9144 17.8366 79.2228 16.9308 80.1286 16.9308C80.8332 16.9308 81.5377 17.3334 81.739 17.8366L77.9144 19.447ZM73.1838 23.5737H75.0961V10.9924H73.1838V23.5737ZM70.1643 16.2262C69.661 15.723 68.8559 15.2197 67.8494 15.2197C65.7357 15.2197 63.7227 17.1321 63.7227 19.5477C63.7227 21.9633 65.6351 23.775 67.8494 23.775C68.8559 23.775 69.6611 23.2717 70.0637 22.7685H70.1643V23.3724C70.1643 24.9828 69.2585 25.8886 67.8494 25.8886C66.7422 25.8886 65.937 25.0834 65.7357 24.3789L64.1253 25.0834C64.6286 26.1906 65.8364 27.5997 67.95 27.5997C70.1643 27.5997 71.976 26.2912 71.976 23.1711V15.5217H70.1643V16.2262ZM67.95 22.1646C66.6416 22.1646 65.5344 21.0574 65.5344 19.5477C65.5344 18.0379 66.6416 16.9308 67.95 16.9308C69.2585 16.9308 70.2649 18.0379 70.2649 19.5477C70.2649 21.0574 69.2585 22.1646 67.95 22.1646ZM92.5086 10.9924H87.9793V23.5737H89.8917V18.8431H92.5086C94.6222 18.8431 96.6352 17.3334 96.6352 14.9178C96.6352 12.5022 94.6222 10.9924 92.5086 10.9924ZM92.6092 17.0314H89.8917V12.7035H92.6092C94.0183 12.7035 94.8235 13.9113 94.8235 14.8171C94.7229 15.9243 93.9177 17.0314 92.6092 17.0314ZM104.184 15.2197C102.775 15.2197 101.366 15.8236 100.863 17.1321L102.574 17.8366C102.976 17.1321 103.58 16.9308 104.285 16.9308C105.291 16.9308 106.197 17.5347 106.298 18.5412V18.6418C105.996 18.4405 105.19 18.1386 104.385 18.1386C102.574 18.1386 100.762 19.1451 100.762 20.9568C100.762 22.6678 102.272 23.775 103.882 23.775C105.19 23.775 105.794 23.1711 106.298 22.5672H106.398V23.5737H108.21V18.7425C108.009 16.5282 106.298 15.2197 104.184 15.2197ZM103.983 22.1646C103.379 22.1646 102.473 21.8626 102.473 21.0574C102.473 20.0509 103.58 19.749 104.486 19.749C105.291 19.749 105.694 19.9503 106.197 20.1516C105.996 21.3594 104.989 22.1646 103.983 22.1646ZM114.551 15.5217L112.437 20.9568H112.337L110.122 15.5217H108.109L111.431 23.1711L109.518 27.3984H111.431L116.564 15.5217H114.551ZM97.6417 23.5737H99.5541V10.9924H97.6417V23.5737Z" fill="#344054"/>
<path d="M0.511974 0.927734C0.210025 1.22968 0.109375 1.73293 0.109375 2.33683V24.5805C0.109375 25.1844 0.310675 25.6876 0.612625 25.9896L0.713275 26.0902L13.1939 13.6096V13.4083L0.511974 0.927734Z" fill="url(#paint0_linear_23509_5932)"/>
<path d="M17.2204 17.8375L13.0938 13.7108V13.4089L17.2204 9.28223L17.321 9.38288L22.2529 12.2011C23.662 13.0063 23.662 14.3147 22.2529 15.1199L17.2204 17.8375Z" fill="url(#paint1_linear_23509_5932)"/>
<path d="M17.3242 17.7371L13.0969 13.5098L0.515625 26.091C1.01887 26.5943 1.72343 26.5943 2.62927 26.1917L17.3242 17.7371Z" fill="url(#paint2_linear_23509_5932)"/>
<path d="M17.3242 9.28149L2.62927 0.927542C1.72343 0.424292 1.01887 0.524942 0.515625 1.02819L13.0969 13.5088L17.3242 9.28149Z" fill="url(#paint3_linear_23509_5932)"/>
<path opacity="0.2" d="M17.2235 17.6357L2.62927 25.889C1.82407 26.3923 1.11953 26.2916 0.616275 25.889L0.515625 25.9897L0.616275 26.0903C1.11953 26.4929 1.82407 26.5936 2.62927 26.0903L17.2235 17.6357Z" fill="black"/>
<path opacity="0.12" d="M0.511974 25.8897C0.210025 25.5878 0.109375 25.0845 0.109375 24.4806V24.5813C0.109375 25.1852 0.310675 25.6884 0.612625 25.9904V25.8897H0.511974ZM22.2524 14.8182L17.2199 17.6364L17.3205 17.7371L22.2524 14.9189C22.9569 14.5163 23.2589 14.013 23.2589 13.5098C23.2589 14.013 22.8563 14.4156 22.2524 14.8182Z" fill="black"/>
<path opacity="0.25" d="M2.62562 1.02899L22.2524 12.2011C22.8563 12.6037 23.2589 13.0063 23.2589 13.5096C23.2589 13.0063 22.9569 12.5031 22.2524 12.1005L2.62562 0.928345C1.21652 0.123145 0.109375 0.727044 0.109375 2.33744V2.43809C0.109375 0.928345 1.21652 0.223795 2.62562 1.02899Z" fill="#344054"/>
<defs>
<linearGradient id="paint0_linear_23509_5932" x1="11.9861" y1="2.1456" x2="-4.90601" y2="19.0367" gradientUnits="userSpaceOnUse">
<stop stop-color="#00A0FF"/>
<stop offset="0.007" stop-color="#00A1FF"/>
<stop offset="0.26" stop-color="#00BEFF"/>
<stop offset="0.512" stop-color="#00D2FF"/>
<stop offset="0.76" stop-color="#00DFFF"/>
<stop offset="1" stop-color="#00E3FF"/>
</linearGradient>
<linearGradient id="paint1_linear_23509_5932" x1="24.0988" y1="13.5105" x2="-0.255455" y2="13.5105" gradientUnits="userSpaceOnUse">
<stop stop-color="#FFE000"/>
<stop offset="0.409" stop-color="#FFBD00"/>
<stop offset="0.775" stop-color="#FFA500"/>
<stop offset="1" stop-color="#FF9C00"/>
</linearGradient>
<linearGradient id="paint2_linear_23509_5932" x1="15.0364" y1="15.8207" x2="-7.86952" y2="38.7266" gradientUnits="userSpaceOnUse">
<stop stop-color="#FF3A44"/>
<stop offset="1" stop-color="#C31162"/>
</linearGradient>
<linearGradient id="paint3_linear_23509_5932" x1="-2.60754" y1="-6.44406" x2="7.62151" y2="3.785" gradientUnits="userSpaceOnUse">
<stop stop-color="#32A071"/>
<stop offset="0.069" stop-color="#2DA771"/>
<stop offset="0.476" stop-color="#15CF74"/>
<stop offset="0.801" stop-color="#06E775"/>
<stop offset="1" stop-color="#00F076"/>
</linearGradient>
</defs>
</svg>
