<svg width="50" height="50" viewBox="0 0 50 50" fill="none" xmlns="http://www.w3.org/2000/svg">
<g clip-path="url(#clip0_22940_6899)">
<path d="M27.5347 24.0046L3.35126 48.188C2.19521 47.0944 1.57031 45.5947 1.57031 43.97V6.03883C1.57031 4.38286 2.22645 2.88311 3.41375 1.7583L27.5347 24.0046Z" fill="#2196F3"/>
<path d="M48.434 25.0042C48.434 27.1913 47.2467 29.1285 45.2783 30.222L38.4044 34.0339L29.8746 26.1602L27.5312 24.0043L36.561 14.9746L45.2783 19.7863C47.2467 20.8799 48.434 22.817 48.434 25.0042Z" fill="#FFC107"/>
<path d="M27.5272 24.0044L3.40625 1.75815C3.7187 1.4457 4.12488 1.1645 4.53106 0.914542C6.49948 -0.272758 8.87408 -0.304003 10.905 0.820808L36.5569 14.9747L27.5272 24.0044Z" fill="#4CAF50"/>
<path d="M38.4004 34.034L10.905 49.1877C9.93639 49.7501 8.84283 50 7.7805 50C6.65569 50 5.53088 49.7188 4.53105 49.0939C4.09362 48.844 3.68744 48.5315 3.34375 48.1878L27.5272 24.0044L29.8705 26.1603L38.4004 34.034Z" fill="#F44336"/>
</g>
<defs>
<clipPath id="clip0_22940_6899">
<rect width="50" height="50" fill="white"/>
</clipPath>
</defs>
</svg>
