<svg width="1402" height="575" viewBox="0 0 1402 575" fill="none" xmlns="http://www.w3.org/2000/svg">
<g clip-path="url(#clip0_23684_12290)">
<path d="M42.34 574.37H1092.38C1113.72 574.37 1131.08 557.01 1131.08 535.67V267.26L1131.14 261.22C1131.44 230.57 1155.63 205.25 1186.21 203.58H1186.41H1362.8C1384.14 203.58 1401.5 186.22 1401.5 164.88V38.7C1401.5 17.36 1384.14 0 1362.8 0H1183.2C1159.86 0 1140.86 18.99 1140.86 42.34V161.65L1140.83 162.04C1140.6 163.9 1140.24 165.9 1139.78 167.89C1134.99 188.58 1118.56 205.19 1097.94 210.22C1096.34 210.61 1094.59 210.79 1092.43 210.79H42.34C19 210.79 0 229.78 0 253.13V532.04C0 555.38 18.99 574.38 42.34 574.38V574.37ZM1362.8 3C1382.48 3 1398.5 19.01 1398.5 38.7V164.88C1398.5 184.57 1382.48 200.58 1362.8 200.58H1186.09C1153.89 202.35 1128.46 228.97 1128.14 261.2L1128.08 267.25V535.67C1128.08 555.36 1112.06 571.37 1092.38 571.37H42.34C20.65 571.37 3 553.72 3 532.03V253.13C3 231.44 20.65 213.79 42.34 213.79H1092.4C1094.8 213.79 1096.83 213.58 1098.65 213.13C1120.36 207.84 1137.66 190.35 1142.7 168.57C1143.18 166.48 1143.56 164.38 1143.82 162.32L1143.86 161.65V42.34C1143.86 20.65 1161.51 3 1183.2 3H1362.8Z" fill="url(#paint0_linear_23684_12290)" fill-opacity="0.7"/>
</g>
<defs>
<linearGradient id="paint0_linear_23684_12290" x1="1401.5" y1="0" x2="854.594" y2="901.81" gradientUnits="userSpaceOnUse">
<stop stop-color="#35C2FF"/>
<stop offset="0.524793" stop-color="#F9AEFF"/>
<stop offset="1" stop-color="#F9AEFF" stop-opacity="0"/>
</linearGradient>
<clipPath id="clip0_23684_12290">
<rect width="1401.5" height="574.37" fill="white" transform="matrix(-1 0 0 1 1401.5 0)"/>
</clipPath>
</defs>
</svg>
