<svg width="29" height="28" viewBox="0 0 29 28" fill="none" xmlns="http://www.w3.org/2000/svg">
<path d="M26.1265 21.3837C26.1265 21.8037 26.0331 22.2354 25.8348 22.6554C25.6365 23.0754 25.3798 23.472 25.0415 23.8454C24.4698 24.4754 23.8398 24.9304 23.1281 25.222C22.4281 25.5137 21.6698 25.6654 20.8531 25.6654C19.6631 25.6654 18.3915 25.3854 17.0498 24.8137C15.7081 24.242 14.3665 23.472 13.0365 22.5037C11.6948 21.5237 10.4231 20.4387 9.20979 19.237C8.00813 18.0237 6.92313 16.752 5.95479 15.422C4.99812 14.092 4.22813 12.762 3.66813 11.4437C3.10813 10.1137 2.82812 8.84203 2.82812 7.6287C2.82812 6.83536 2.96812 6.07703 3.24812 5.37703C3.52812 4.66536 3.97146 4.01203 4.58979 3.4287C5.33646 2.6937 6.15313 2.33203 7.01646 2.33203C7.34313 2.33203 7.66979 2.40203 7.96146 2.54203C8.26479 2.68203 8.53313 2.89203 8.74313 3.19536L11.4498 7.01037C11.6598 7.30203 11.8115 7.57036 11.9165 7.82703C12.0215 8.07203 12.0798 8.31703 12.0798 8.5387C12.0798 8.8187 11.9981 9.0987 11.8348 9.36703C11.6831 9.63536 11.4615 9.91536 11.1815 10.1954L10.2948 11.117C10.1665 11.2454 10.1081 11.397 10.1081 11.5837C10.1081 11.677 10.1198 11.7587 10.1431 11.852C10.1781 11.9454 10.2131 12.0154 10.2365 12.0854C10.4465 12.4704 10.8081 12.972 11.3215 13.5787C11.8465 14.1854 12.4065 14.8037 13.0131 15.422C13.6431 16.0404 14.2498 16.612 14.8681 17.137C15.4748 17.6504 15.9765 18.0004 16.3731 18.2104C16.4315 18.2337 16.5015 18.2687 16.5831 18.3037C16.6765 18.3387 16.7698 18.3504 16.8748 18.3504C17.0731 18.3504 17.2248 18.2804 17.3531 18.152L18.2398 17.277C18.5315 16.9854 18.8115 16.7637 19.0798 16.6237C19.3481 16.4604 19.6165 16.3787 19.9081 16.3787C20.1298 16.3787 20.3631 16.4254 20.6198 16.5304C20.8765 16.6354 21.1448 16.787 21.4365 16.9854L25.2981 19.727C25.6015 19.937 25.8115 20.182 25.9398 20.4737C26.0565 20.7654 26.1265 21.057 26.1265 21.3837Z" stroke="#916BFE" stroke-width="1.75" stroke-miterlimit="10"/>
<path d="M22.0755 10.4993C22.0755 9.79935 21.5272 8.72602 20.7105 7.85102C19.9639 7.04602 18.9722 6.41602 17.9922 6.41602" stroke="#916BFE" stroke-width="1.75" stroke-linecap="round" stroke-linejoin="round"/>
<path d="M26.1589 10.4987C26.1589 5.9837 22.5072 2.33203 17.9922 2.33203" stroke="#916BFE" stroke-width="1.75" stroke-linecap="round" stroke-linejoin="round"/>
</svg>
