<svg width="24" height="24" viewBox="0 0 24 24" fill="none" xmlns="http://www.w3.org/2000/svg">
<g clip-path="url(#clip0_23208_26917)">
<path d="M12 24C18.6274 24 24 18.6274 24 12C24 5.37258 18.6274 0 12 0C5.37258 0 0 5.37258 0 12C0 18.6274 5.37258 24 12 24Z" fill="#F0F0F0"/>
<path d="M2.4813 4.69531C1.53869 5.9217 0.827922 7.33522 0.414062 8.8708H6.65678L2.4813 4.69531Z" fill="#0052B4"/>
<path d="M23.5864 8.87075C23.1725 7.33522 22.4617 5.9217 21.5191 4.69531L17.3438 8.87075H23.5864Z" fill="#0052B4"/>
<path d="M0.414062 15.1309C0.827969 16.6664 1.53873 18.0799 2.4813 19.3063L6.65664 15.1309H0.414062Z" fill="#0052B4"/>
<path d="M19.3082 2.48134C18.0819 1.53873 16.6684 0.827969 15.1328 0.414062V6.65673L19.3082 2.48134Z" fill="#0052B4"/>
<path d="M4.69531 21.5191C5.9217 22.4617 7.33522 23.1725 8.87075 23.5864V17.3438L4.69531 21.5191Z" fill="#0052B4"/>
<path d="M8.8707 0.414062C7.33517 0.827969 5.92166 1.53873 4.69531 2.4813L8.8707 6.65669V0.414062Z" fill="#0052B4"/>
<path d="M15.1328 23.5864C16.6683 23.1725 18.0819 22.4617 19.3082 21.5191L15.1328 17.3438V23.5864Z" fill="#0052B4"/>
<path d="M17.3438 15.1309L21.5191 19.3063C22.4617 18.08 23.1725 16.6664 23.5864 15.1309H17.3438Z" fill="#0052B4"/>
<path d="M23.8984 10.4348H13.5653H13.5653V0.101578C13.0529 0.034875 12.5305 0 12 0C11.4694 0 10.9471 0.034875 10.4348 0.101578V10.4347V10.4347H0.101578C0.034875 10.9471 0 11.4695 0 12C0 12.5306 0.034875 13.0529 0.101578 13.5652H10.4347H10.4347V23.8984C10.9471 23.9651 11.4694 24 12 24C12.5305 24 13.0529 23.9652 13.5652 23.8984V13.5653V13.5653H23.8984C23.9651 13.0529 24 12.5306 24 12C24 11.4695 23.9651 10.9471 23.8984 10.4348Z" fill="#D80027"/>
<path d="M15.1328 15.1309L20.4876 20.4857C20.7339 20.2395 20.9688 19.9821 21.193 19.7153L16.6085 15.1309H15.1328V15.1309Z" fill="#D80027"/>
<path d="M8.87048 15.1309H8.87039L3.51562 20.4856C3.76181 20.7319 4.0192 20.9668 4.28602 21.191L8.87048 16.6064V15.1309Z" fill="#D80027"/>
<path d="M8.87269 8.87058V8.87048L3.51788 3.51562C3.27159 3.76181 3.03666 4.0192 2.8125 4.28602L7.39702 8.87053H8.87269V8.87058Z" fill="#D80027"/>
<path d="M15.1328 8.86883L20.4877 3.51392C20.2415 3.26764 19.9841 3.0327 19.7173 2.80859L15.1328 7.39311V8.86883Z" fill="#D80027"/>
</g>
<defs>
<clipPath id="clip0_23208_26917">
<rect width="24" height="24" fill="white"/>
</clipPath>
</defs>
</svg>
