<svg width="52" height="52" viewBox="0 0 52 52" fill="none" xmlns="http://www.w3.org/2000/svg">
<path d="M4.33594 27.3203H41.1693" stroke="#029A9A" stroke-width="3.25" stroke-miterlimit="10" stroke-linecap="round" stroke-linejoin="round"/>
<path d="M41.1693 22.275V37.7667C41.1043 43.9417 39.4142 45.5017 32.9792 45.5017H12.526C5.98267 45.5017 4.33594 43.8767 4.33594 37.42V22.275C4.33594 16.425 5.70094 14.54 10.8359 14.2367C11.3559 14.215 11.9193 14.1934 12.526 14.1934H32.9792C39.5225 14.1934 41.1693 15.8184 41.1693 22.275Z" stroke="#029A9A" stroke-width="3.25" stroke-linecap="round" stroke-linejoin="round"/>
<path d="M47.6693 14.5817V29.7267C47.6693 35.5767 46.3043 37.4617 41.1693 37.765V22.2733C41.1693 15.8167 39.5225 14.1917 32.9792 14.1917H12.526C11.9193 14.1917 11.3559 14.2133 10.8359 14.235C10.9009 8.06 12.591 6.5 19.026 6.5H39.4792C46.0225 6.5 47.6693 8.125 47.6693 14.5817Z" stroke="#029A9A" stroke-width="3.25" stroke-linecap="round" stroke-linejoin="round"/>
<path d="M11.375 38.5859H15.1016" stroke="#029A9A" stroke-width="3.25" stroke-miterlimit="10" stroke-linecap="round" stroke-linejoin="round"/>
<path d="M19.7344 38.5859H27.1877" stroke="#029A9A" stroke-width="3.25" stroke-miterlimit="10" stroke-linecap="round" stroke-linejoin="round"/>
</svg>
