<svg width="570" height="570" viewBox="0 0 570 570" fill="none" xmlns="http://www.w3.org/2000/svg">
<path d="M178.836 532.181C178.836 532.181 76.9653 493.512 29.8035 373.721C-17.3583 253.93 152.422 169.98 150.484 152.059C148.546 134.138 29.7579 124.699 100.495 67.1634C171.232 9.6276 419.353 3.027 509.915 126.546C600.476 250.065 506.164 290.706 496.702 312.366C487.24 334.026 580.652 342.542 515.569 453.851C450.486 565.161 253.346 562.368 178.836 532.181Z" fill="#E7DEFF"/>
<path opacity="0.7" d="M178.836 532.181C178.836 532.181 76.9653 493.512 29.8035 373.721C-17.3583 253.93 152.422 169.98 150.484 152.059C148.546 134.138 29.7579 124.699 100.495 67.1634C171.232 9.6276 419.353 3.027 509.915 126.546C600.476 250.065 506.164 290.706 496.702 312.366C487.24 334.026 580.652 342.542 515.569 453.851C450.486 565.161 253.346 562.368 178.836 532.181Z" fill="white"/>
</svg>
