<svg width="69" height="69" viewBox="0 0 69 69" fill="none" xmlns="http://www.w3.org/2000/svg">
<path d="M60.3669 0H8.63308C3.86516 0 0 3.86516 0 8.63308V60.3669C0 65.1348 3.86516 69 8.63308 69H60.3669C65.1348 69 69 65.1348 69 60.3669V8.63308C69 3.86516 65.1348 0 60.3669 0Z" fill="white"/>
<path d="M45.3751 19.9219L45.3535 19.9004L34.4531 30.8008L42.4453 38.793L45.3751 35.8578L53.3403 27.8926L45.3751 19.9219Z" fill="#6A35FF"/>
<path d="M23.5493 19.9004L15.5625 27.8926L23.6139 35.944L26.4629 38.793L34.4497 30.8008L23.5493 19.9004Z" fill="#9AD0FD"/>
<path d="M34.4505 30.7995L26.4609 38.7891L34.4505 46.7786L42.44 38.7891L34.4505 30.7995Z" fill="#C3AEFF"/>
<path d="M56.6739 39.375H45.375V49.1121H56.6739V39.375Z" fill="#AD90FE"/>
<path d="M56.6739 29.625H45.375V39.3621H56.6739V29.625Z" fill="#9672FE"/>
<path d="M56.6739 19.9004H45.375V29.6375H56.6739V19.9004Z" fill="#8155FF"/>
<path d="M23.6271 39.375H12.3281V49.1121H23.6271V39.375Z" fill="#35ACFE"/>
<path d="M23.6271 29.625H12.3281V39.3621H23.6271V29.625Z" fill="#59B9FF"/>
<path d="M23.6271 19.9004H12.3281V29.6375H23.6271V19.9004Z" fill="#7BC4FD"/>
</svg>
