<svg width="24" height="24" viewBox="0 0 24 24" fill="none" xmlns="http://www.w3.org/2000/svg">
<g clip-path="url(#clip0_23256_75073)">
<path d="M12 0C9.62663 0 7.30655 0.703788 5.33316 2.02236C3.35977 3.34094 1.8217 5.21509 0.913451 7.4078C0.00519938 9.60051 -0.232441 12.0133 0.230582 14.3411C0.693605 16.6689 1.83649 18.8071 3.51472 20.4853C5.19295 22.1635 7.33115 23.3064 9.65892 23.7694C11.9867 24.2324 14.3995 23.9948 16.5922 23.0866C18.7849 22.1783 20.6591 20.6402 21.9776 18.6668C23.2962 16.6935 24 14.3734 24 12C24 8.8174 22.7357 5.76516 20.4853 3.51472C18.2348 1.26428 15.1826 0 12 0V0ZM17.9763 8.36842C17.6927 8.7945 17.3461 9.17513 16.9484 9.49737C16.8983 9.53915 16.8581 9.59159 16.8308 9.65086C16.8035 9.71013 16.7897 9.77474 16.7905 9.84V9.87947C16.7859 10.7352 16.6287 11.5832 16.3263 12.3837C16.0147 13.2239 15.5518 13.9998 14.9605 14.6732C14.1659 15.5777 13.1437 16.2532 12 16.6295C11.2485 16.8734 10.4627 16.9955 9.67264 16.9911C8.41917 16.9909 7.18805 16.6591 6.10422 16.0295C6.06538 16.0074 6.0348 15.9732 6.01714 15.9322C5.99947 15.8912 5.99567 15.8455 6.00632 15.8021C6.01725 15.7594 6.04215 15.7216 6.07706 15.6947C6.11197 15.6678 6.15488 15.6534 6.19895 15.6537H6.49895C7.45143 15.6554 8.38274 15.3728 9.17369 14.8421C8.7025 14.7652 8.26164 14.5599 7.89953 14.2487C7.53741 13.9376 7.26806 13.5327 7.12106 13.0784C7.11354 13.0557 7.11218 13.0313 7.11711 13.0079C7.12203 12.9845 7.13307 12.9627 7.14911 12.9449C7.16514 12.9271 7.1856 12.9139 7.2084 12.9066C7.23121 12.8992 7.25555 12.898 7.27895 12.9032C7.42265 12.9302 7.56853 12.9439 7.71474 12.9442H7.77001C7.31448 12.7352 6.92931 12.3985 6.66113 11.9751C6.39295 11.5517 6.25326 11.0596 6.25895 10.5584C6.25912 10.535 6.26535 10.512 6.27704 10.4916C6.28874 10.4713 6.3055 10.4544 6.32569 10.4424C6.34588 10.4305 6.36882 10.424 6.39226 10.4236C6.41571 10.4232 6.43887 10.4288 6.45948 10.44C6.64471 10.5434 6.84347 10.6205 7.05001 10.6689C6.64214 10.2652 6.37979 9.73746 6.30406 9.16854C6.22834 8.59963 6.34353 8.02167 6.63158 7.52526C6.64264 7.50629 6.65812 7.49029 6.67672 7.47862C6.69531 7.46694 6.71646 7.45995 6.73835 7.45825C6.76024 7.45654 6.78221 7.46016 6.80239 7.46881C6.82257 7.47746 6.84036 7.49087 6.85422 7.50789C7.42507 8.21325 8.13153 8.79701 8.93183 9.22469C9.73213 9.65237 10.61 9.91528 11.5137 9.9979H11.5263C11.5396 9.99751 11.5527 9.99443 11.5647 9.98883C11.5768 9.98324 11.5875 9.97525 11.5964 9.96535C11.6053 9.95545 11.612 9.94385 11.6163 9.93126C11.6205 9.91867 11.6221 9.90535 11.6211 9.89211C11.5859 9.57523 11.6062 9.25465 11.6811 8.94474C11.7829 8.5235 11.9921 8.13577 12.2881 7.81926C12.5841 7.50274 12.957 7.2682 13.3705 7.13842C13.6358 7.05555 13.9121 7.01297 14.19 7.01211C14.8202 7.01138 15.4289 7.24106 15.9016 7.6579C15.9628 7.71268 16.0421 7.74302 16.1242 7.74316C16.1509 7.74259 16.1774 7.73888 16.2032 7.73211C16.647 7.61975 17.0724 7.44428 17.4663 7.21105C17.4899 7.19652 17.5173 7.18963 17.545 7.19132C17.5726 7.19301 17.599 7.20319 17.6206 7.22048C17.6422 7.23777 17.658 7.26131 17.6657 7.28789C17.6734 7.31447 17.6727 7.34278 17.6637 7.36895C17.5323 7.78229 17.2981 8.15552 16.9832 8.45368C17.2671 8.38675 17.5441 8.29318 17.8105 8.17421C17.8367 8.1644 17.8652 8.16288 17.8922 8.16985C17.9192 8.17682 17.9434 8.19195 17.9615 8.21317C17.9797 8.2344 17.9908 8.26068 17.9934 8.28846C17.9961 8.31624 17.9901 8.34416 17.9763 8.36842Z" fill="white"/>
</g>
<defs>
<clipPath id="clip0_23256_75073">
<rect width="24" height="24" fill="white"/>
</clipPath>
</defs>
</svg>
