<svg width="24" height="24" viewBox="0 0 24 24" fill="none" xmlns="http://www.w3.org/2000/svg">
<g clip-path="url(#clip0_23256_75068)">
<path d="M10.5625 9.69922L14.3062 11.9982L10.5625 14.2987V9.69922Z" fill="white"/>
<path d="M12 0C9.62663 0 7.30655 0.703788 5.33316 2.02236C3.35977 3.34094 1.8217 5.21509 0.913451 7.4078C0.00519938 9.60051 -0.232441 12.0133 0.230582 14.3411C0.693605 16.6689 1.83649 18.8071 3.51472 20.4853C5.19295 22.1635 7.33115 23.3064 9.65892 23.7694C11.9867 24.2324 14.3995 23.9948 16.5922 23.0866C18.7849 22.1783 20.6591 20.6402 21.9776 18.6668C23.2962 16.6935 24 14.3734 24 12C24 8.8174 22.7357 5.76516 20.4853 3.51472C18.2348 1.26428 15.1826 0 12 0V0ZM17.719 14.8879C17.479 15.6253 16.6847 16.0737 15.9537 16.1763C13.3253 16.4558 10.6747 16.4558 8.04632 16.1763C7.31527 16.0737 6.52106 15.6253 6.28106 14.8879C5.90686 12.9813 5.90686 11.0202 6.28106 9.11368C6.52106 8.36842 7.31527 7.9279 8.05264 7.82526C10.681 7.54579 13.3316 7.54579 15.96 7.82526C16.6911 7.9279 17.4853 8.37474 17.7253 9.11368C18.0974 11.0206 18.0952 12.9818 17.719 14.8879Z" fill="white"/>
</g>
<defs>
<clipPath id="clip0_23256_75068">
<rect width="24" height="24" fill="white"/>
</clipPath>
</defs>
</svg>
