<svg width="180" height="54" viewBox="0 0 180 54" fill="none" xmlns="http://www.w3.org/2000/svg">
<path d="M165.666 0.324392H14.3422C13.7906 0.324392 13.2456 0.324392 12.6955 0.327059C12.235 0.329725 11.7781 0.337472 11.3132 0.343992C10.3031 0.354528 9.29543 0.433294 8.29888 0.579605C7.30373 0.729102 6.33976 1.01095 5.43956 1.41561C4.54046 1.82369 3.71893 2.35395 3.00477 2.98715C2.28686 3.61857 1.68842 4.34841 1.23248 5.14861C0.775271 5.9472 0.458244 6.80298 0.292343 7.68637C0.124866 8.56864 0.0347448 9.46109 0.0227888 10.3557C0.00882972 10.7645 0.00735559 11.1747 0 11.5835V42.4025C0.00735559 42.8165 0.00882972 43.2176 0.0227888 43.6317C0.0347485 44.5263 0.12487 45.4187 0.292343 46.3009C0.457785 47.1848 0.774831 48.0411 1.23248 48.84C1.68821 49.6376 2.28673 50.3645 3.00477 50.9924C3.71622 51.6284 4.53828 52.159 5.43956 52.564C6.33975 52.9697 7.30362 53.2533 8.29888 53.4051C9.2956 53.5502 10.3032 53.629 11.3132 53.6408C11.7781 53.6499 12.235 53.6551 12.6955 53.6551C13.2456 53.6577 13.7906 53.6577 14.3422 53.6577H165.666C166.207 53.6577 166.756 53.6577 167.296 53.6551C167.755 53.6551 168.225 53.6499 168.683 53.6408C169.691 53.6296 170.697 53.5508 171.692 53.4051C172.69 53.2522 173.657 52.9687 174.562 52.564C175.462 52.1588 176.284 51.6282 176.995 50.9924C177.711 50.362 178.311 49.6357 178.772 48.84C179.226 48.0405 179.54 47.1843 179.703 46.3009C179.871 45.4186 179.964 44.5264 179.982 43.6317C179.988 43.2176 179.988 42.8165 179.988 42.4025C180 41.9181 180 41.4364 180 40.9441V13.0392C180 12.551 180 12.0666 179.988 11.5835C179.988 11.1747 179.988 10.7645 179.982 10.3556C179.964 9.46096 179.871 8.56871 179.703 7.68631C179.54 6.80343 179.226 5.94773 178.772 5.14855C177.843 3.54465 176.371 2.23909 174.562 1.41549C173.657 1.01182 172.69 0.730046 171.692 0.579485C170.697 0.432529 169.691 0.353736 168.683 0.343805C168.225 0.337299 167.755 0.329485 167.296 0.326885C166.756 0.324219 166.207 0.324219 165.666 0.324219V0.324392Z" fill="white"/>
<path d="M12.5733 52.495C12.1143 52.495 11.6663 52.4898 11.2108 52.4808C10.2672 52.4699 9.32578 52.3972 8.39432 52.2633C7.52578 52.1309 6.6844 51.8846 5.89793 51.5326C5.11867 51.1835 4.40792 50.7257 3.79292 50.1768C3.16901 49.6344 2.64958 49.0053 2.2552 48.3144C1.85649 47.6191 1.58055 46.8737 1.43701 46.1044C1.28199 45.2777 1.19812 44.4418 1.18612 43.6038C1.17657 43.3226 1.16406 42.3861 1.16406 42.3861V11.5789C1.16406 11.5789 1.17738 10.6569 1.1862 10.386C1.19769 9.54937 1.28107 8.71476 1.43562 7.88935C1.57943 7.11789 1.85558 6.37039 2.25451 5.67276C2.64743 4.98236 3.16398 4.35279 3.78413 3.80843C4.40359 3.25891 5.11661 2.79879 5.89719 2.44486C6.68185 2.09396 7.52164 1.84943 8.38843 1.71945C9.32295 1.58418 10.2676 1.51104 11.2145 1.50066L12.5741 1.48438H167.427L168.803 1.50131C169.741 1.51118 170.677 1.58366 171.603 1.71814C172.478 1.84975 173.327 2.09599 174.121 2.44876C175.684 3.16204 176.957 4.29051 177.759 5.67601C178.152 6.36883 178.424 7.11023 178.566 7.87503C178.722 8.70721 178.81 9.54838 178.828 10.3918C178.832 10.7695 178.832 11.1752 178.832 11.5789C178.844 12.079 178.844 12.555 178.844 13.035V40.9457C178.844 41.4302 178.844 41.903 178.832 42.3796C178.832 42.8133 178.832 43.2106 178.826 43.6195C178.809 44.4479 178.723 45.274 178.569 46.0913C178.428 46.8662 178.154 47.6174 177.755 48.3184C177.358 49.0018 176.841 49.6255 176.225 50.1664C175.609 50.7183 174.897 51.1787 174.116 51.53C173.325 51.8848 172.477 52.132 171.603 52.2633C170.671 52.3979 169.73 52.4706 168.786 52.4808C168.345 52.4898 167.883 52.495 167.434 52.495L165.801 52.4977L12.5733 52.495Z" fill="white"/>
<path d="M43.7298 27.392C43.7441 26.2791 44.0397 25.1879 44.5891 24.22C45.1384 23.252 45.9237 22.4388 46.8718 21.8559C46.2695 20.9957 45.4749 20.2878 44.5512 19.7884C43.6274 19.289 42.5999 19.0118 41.5503 18.979C39.3113 18.744 37.1407 20.3188 35.9998 20.3188C34.8367 20.3188 33.0801 19.0023 31.1884 19.0412C29.9649 19.0808 28.7724 19.4366 27.7272 20.074C26.682 20.7114 25.8198 21.6087 25.2245 22.6784C22.6459 27.143 24.5693 33.7044 27.0395 37.3132C28.2753 39.0803 29.7197 41.0542 31.6096 40.9842C33.459 40.9075 34.1498 39.8049 36.3822 39.8049C38.5938 39.8049 39.2419 40.9842 41.1702 40.9397C43.1547 40.9075 44.405 39.1647 45.5975 37.3809C46.4855 36.1217 47.1688 34.7301 47.6221 33.2575C46.4691 32.7699 45.4852 31.9537 44.7931 30.9106C44.1009 29.8675 43.7311 28.6438 43.7298 27.392Z" fill="black"/>
<path d="M40.0875 16.6053C41.1696 15.3064 41.7026 13.6368 41.5736 11.9512C39.9204 12.1248 38.3934 12.9149 37.2968 14.164C36.7606 14.7742 36.3499 15.4841 36.0883 16.2531C35.8266 17.0222 35.7191 17.8352 35.7718 18.6458C36.5987 18.6544 37.4167 18.4751 38.1642 18.1217C38.9118 17.7682 39.5694 17.2498 40.0875 16.6053Z" fill="black"/>
<path d="M67.1074 36.5108H60.7962L59.2806 40.986H56.6074L62.5853 24.4287H65.3626L71.3405 40.986H68.6217L67.1074 36.5108ZM61.4499 34.4457H66.4525L63.9864 27.1826H63.9174L61.4499 34.4457Z" fill="black"/>
<path d="M84.251 34.9502C84.251 38.7015 82.2432 41.1116 79.2133 41.1116C78.4457 41.1518 77.6824 40.975 77.0107 40.6014C76.3389 40.2279 75.786 39.6728 75.4151 38.9996H75.3577V44.9788H72.8799V28.9137H75.2784V30.9215H75.3239C75.7119 30.2515 76.2742 29.6993 76.951 29.3235C77.6279 28.9477 78.3939 28.7624 79.1677 28.7874C82.2314 28.7874 84.251 31.2093 84.251 34.9502ZM81.7041 34.9502C81.7041 32.5062 80.4411 30.8994 78.514 30.8994C76.6208 30.8994 75.3474 32.54 75.3474 34.9502C75.3474 37.3824 76.6208 39.0114 78.514 39.0114C80.4411 39.0114 81.7041 37.4163 81.7041 34.9502Z" fill="black"/>
<path d="M97.5372 34.9501C97.5372 38.7014 95.5293 41.1116 92.4994 41.1116C91.7319 41.1517 90.9685 40.9749 90.2968 40.6014C89.6251 40.2279 89.0721 39.6728 88.7012 38.9996H88.6439V44.9788H86.166V28.9137H88.5644V30.9215H88.61C88.998 30.2515 89.5603 29.6993 90.2371 29.3235C90.914 28.9477 91.68 28.7624 92.4538 28.7874C95.5176 28.7874 97.5372 31.2092 97.5372 34.9501ZM94.9903 34.9501C94.9903 32.5061 93.7272 30.8994 91.8002 30.8994C89.9069 30.8994 88.6335 32.54 88.6335 34.9501C88.6335 37.3824 89.9069 39.0113 91.8002 39.0113C93.7273 39.0113 94.9903 37.4163 94.9903 34.9501H94.9903Z" fill="black"/>
<path d="M106.319 36.3725C106.502 38.0144 108.097 39.0925 110.277 39.0925C112.366 39.0925 113.868 38.0143 113.868 36.5339C113.868 35.2487 112.962 34.4792 110.816 33.9518L108.67 33.4349C105.63 32.7005 104.218 31.2786 104.218 28.9714C104.218 26.1146 106.708 24.1523 110.243 24.1523C113.742 24.1523 116.14 26.1146 116.221 28.9714H113.72C113.57 27.319 112.204 26.3216 110.208 26.3216C108.212 26.3216 106.846 27.3307 106.846 28.7995C106.846 29.9701 107.718 30.6589 109.853 31.1862L111.677 31.6341C115.074 32.4375 116.485 33.8021 116.485 36.2239C116.485 39.3216 114.018 41.2617 110.093 41.2617C106.422 41.2617 103.942 39.3671 103.782 36.3723L106.319 36.3725Z" fill="black"/>
<path d="M121.833 26.0576V28.9144H124.128V30.8766H121.833V37.5316C121.833 38.5654 122.292 39.0472 123.301 39.0472C123.574 39.0425 123.846 39.0233 124.117 38.9899V40.9404C123.663 41.0252 123.202 41.0636 122.74 41.055C120.296 41.055 119.343 40.137 119.343 37.7959V30.8766H117.588V28.9144H119.343V26.0576H121.833Z" fill="black"/>
<path d="M125.458 34.9505C125.458 31.1523 127.695 28.7656 131.183 28.7656C134.683 28.7656 136.91 31.1523 136.91 34.9505C136.91 38.7591 134.695 41.1354 131.183 41.1354C127.673 41.1354 125.458 38.7591 125.458 34.9505ZM134.385 34.9505C134.385 32.3451 133.191 30.8073 131.183 30.8073C129.175 30.8073 127.983 32.3568 127.983 34.9505C127.983 37.5664 129.175 39.0924 131.183 39.0924C133.191 39.0924 134.385 37.5664 134.385 34.9505H134.385Z" fill="black"/>
<path d="M138.952 28.9136H141.315V30.9682H141.373C141.533 30.3265 141.909 29.7594 142.437 29.3622C142.966 28.9651 143.616 28.762 144.276 28.7873C144.562 28.7863 144.847 28.8173 145.125 28.8797V31.1974C144.765 31.0873 144.389 31.0367 144.012 31.0477C143.652 31.0331 143.293 31.0965 142.96 31.2337C142.627 31.3709 142.327 31.5786 142.082 31.8424C141.837 32.1063 141.652 32.4201 141.539 32.7623C141.426 33.1045 141.389 33.4671 141.43 33.825V40.9852H138.952L138.952 28.9136Z" fill="black"/>
<path d="M156.55 37.4401C156.217 39.6315 154.083 41.1354 151.353 41.1354C147.841 41.1354 145.661 38.7825 145.661 35.0078C145.661 31.2214 147.853 28.7656 151.248 28.7656C154.588 28.7656 156.688 31.0599 156.688 34.72V35.569H148.162V35.7187C148.123 36.163 148.179 36.6106 148.326 37.0317C148.473 37.4528 148.707 37.8379 149.014 38.1613C149.322 38.4846 149.694 38.739 150.107 38.9074C150.52 39.0758 150.964 39.1544 151.41 39.138C151.995 39.1929 152.583 39.0573 153.085 38.7513C153.588 38.4454 153.978 37.9855 154.198 37.4401L156.55 37.4401ZM148.174 33.8372H154.209C154.232 33.4378 154.171 33.038 154.031 32.6631C153.892 32.2881 153.676 31.9461 153.398 31.6584C153.12 31.3707 152.786 31.1436 152.416 30.9913C152.046 30.839 151.648 30.7648 151.248 30.7734C150.845 30.771 150.445 30.8486 150.071 31.0015C149.698 31.1545 149.359 31.38 149.073 31.6648C148.787 31.9496 148.561 32.2883 148.406 32.6611C148.252 33.034 148.173 33.4337 148.174 33.8372V33.8372Z" fill="black"/>
<path d="M61.1393 11.9651C61.6588 11.9278 62.1801 12.0063 62.6656 12.1949C63.1511 12.3834 63.5886 12.6774 63.9467 13.0556C64.3049 13.4337 64.5746 13.8867 64.7364 14.3817C64.8983 14.8767 64.9483 15.4015 64.8828 15.9182C64.8828 18.4599 63.5091 19.9209 61.1393 19.9209H58.2656V11.9651H61.1393ZM59.5013 18.7957H61.0013C61.3725 18.8179 61.744 18.7571 62.0887 18.6176C62.4334 18.4781 62.7427 18.2635 62.994 17.9894C63.2453 17.7153 63.4324 17.3887 63.5415 17.0332C63.6507 16.6777 63.6792 16.3023 63.625 15.9344C63.6753 15.568 63.6439 15.1949 63.533 14.8421C63.4222 14.4892 63.2347 14.1652 62.984 13.8933C62.7332 13.6214 62.4254 13.4083 62.0826 13.2693C61.7399 13.1303 61.3706 13.0689 61.0013 13.0894H59.5013V18.7957Z" fill="black"/>
<path d="M66.279 16.916C66.2413 16.5214 66.2864 16.1233 66.4115 15.7472C66.5367 15.3711 66.739 15.0253 67.0056 14.732C67.2722 14.4387 67.5971 14.2044 67.9596 14.044C68.3221 13.8836 68.714 13.8008 69.1104 13.8008C69.5068 13.8008 69.8987 13.8836 70.2612 14.044C70.6237 14.2044 70.9486 14.4387 71.2152 14.732C71.4818 15.0253 71.6841 15.3711 71.8093 15.7472C71.9344 16.1233 71.9795 16.5214 71.9418 16.916C71.9802 17.3109 71.9356 17.7096 71.8109 18.0863C71.6861 18.463 71.4838 18.8094 71.2172 19.1033C70.9505 19.3972 70.6253 19.632 70.2625 19.7927C69.8997 19.9534 69.5072 20.0364 69.1104 20.0364C68.7136 20.0364 68.3211 19.9534 67.9583 19.7927C67.5955 19.632 67.2703 19.3972 67.0036 19.1033C66.737 18.8094 66.5347 18.463 66.4099 18.0863C66.2852 17.7096 66.2406 17.3109 66.279 16.916ZM70.723 16.916C70.723 15.6145 70.1384 14.8535 69.1124 14.8535C68.0824 14.8535 67.503 15.6145 67.503 16.916C67.503 18.2278 68.0824 18.983 69.1124 18.983C70.1384 18.983 70.723 18.2226 70.723 16.916H70.723Z" fill="black"/>
<path d="M79.4687 19.9209H78.2396L76.9987 15.499H76.905L75.6693 19.9209H74.4518L72.7969 13.917H73.9987L75.0742 18.4983H75.1628L76.3971 13.917H77.5339L78.7682 18.4983H78.862L79.9323 13.917H81.1172L79.4687 19.9209Z" fill="black"/>
<path d="M82.5088 13.9167H83.6494V14.8705H83.738C83.8882 14.5279 84.1415 14.2408 84.4627 14.049C84.7838 13.8573 85.1568 13.7705 85.5296 13.8008C85.8218 13.7789 86.1151 13.8229 86.3879 13.9297C86.6607 14.0365 86.906 14.2033 87.1055 14.4178C87.3051 14.6322 87.4539 14.8888 87.5408 15.1686C87.6278 15.4484 87.6506 15.7441 87.6078 16.0339V19.9206H86.4229V16.3314C86.4229 15.3666 86.0036 14.8868 85.1273 14.8868C84.9289 14.8775 84.7309 14.9113 84.5469 14.9857C84.3628 15.0602 84.197 15.1735 84.0608 15.3181C83.9247 15.4626 83.8213 15.6348 83.758 15.823C83.6946 16.0112 83.6727 16.2108 83.6937 16.4083V19.9206H82.5088L82.5088 13.9167Z" fill="black"/>
<path d="M89.4961 11.5732H90.681V19.9209H89.4961V11.5732Z" fill="black"/>
<path d="M92.3278 16.9161C92.2901 16.5215 92.3353 16.1234 92.4604 15.7473C92.5856 15.3712 92.7879 15.0254 93.0546 14.732C93.3212 14.4387 93.6461 14.2044 94.0086 14.044C94.3711 13.8836 94.7631 13.8008 95.1595 13.8008C95.5559 13.8008 95.9479 13.8836 96.3104 14.044C96.6729 14.2044 96.9979 14.4387 97.2645 14.732C97.5311 15.0254 97.7335 15.3712 97.8586 15.7473C97.9838 16.1234 98.0289 16.5215 97.9912 16.9161C98.0296 17.311 97.985 17.7097 97.8602 18.0864C97.7353 18.4631 97.5331 18.8095 97.2664 19.1034C96.9997 19.3973 96.6745 19.6321 96.3117 19.7928C95.9488 19.9535 95.5564 20.0365 95.1595 20.0365C94.7627 20.0365 94.3702 19.9535 94.0074 19.7928C93.6445 19.6321 93.3193 19.3973 93.0526 19.1034C92.786 18.8095 92.5837 18.4631 92.4589 18.0864C92.334 17.7097 92.2894 17.311 92.3278 16.9161ZM96.7718 16.9161C96.7718 15.6146 96.1872 14.8536 95.1611 14.8536C94.1312 14.8536 93.5518 15.6146 93.5518 16.9161C93.5518 18.2279 94.1312 18.9831 95.1611 18.9831C96.1872 18.9831 96.7718 18.2227 96.7718 16.9161H96.7718Z" fill="black"/>
<path d="M99.2393 18.2226C99.2393 17.1419 100.044 16.5189 101.472 16.4303L103.099 16.3366V15.8184C103.099 15.1842 102.679 14.8262 101.869 14.8262C101.208 14.8262 100.75 15.069 100.618 15.4935H99.471C99.5921 14.4622 100.562 13.8008 101.924 13.8008C103.429 13.8008 104.278 14.5501 104.278 15.8184V19.9206H103.138V19.0768H103.044C102.854 19.3795 102.586 19.6262 102.27 19.7918C101.953 19.9574 101.598 20.036 101.241 20.0195C100.989 20.0457 100.734 20.0188 100.493 19.9406C100.252 19.8623 100.03 19.7344 99.8412 19.5651C99.6527 19.3958 99.5017 19.1889 99.398 18.9577C99.2943 18.7264 99.2403 18.4761 99.2393 18.2226ZM103.099 17.7096V17.2077L101.632 17.3014C100.806 17.3568 100.431 17.638 100.431 18.1673C100.431 18.7077 100.899 19.0221 101.544 19.0221C101.733 19.0412 101.924 19.0222 102.105 18.966C102.286 18.9099 102.455 18.8179 102.6 18.6954C102.745 18.573 102.864 18.4226 102.949 18.2532C103.035 18.0839 103.086 17.899 103.099 17.7096Z" fill="black"/>
<path d="M105.835 16.9164C105.835 15.0192 106.81 13.8174 108.327 13.8174C108.702 13.8001 109.075 13.89 109.401 14.0765C109.727 14.263 109.993 14.5385 110.168 14.8707H110.257V11.5732H111.442V19.9209H110.306V18.9723H110.213C110.024 19.3023 109.748 19.5744 109.416 19.759C109.084 19.9436 108.707 20.0338 108.327 20.0198C106.8 20.0199 105.835 18.8181 105.835 16.9164ZM107.059 16.9164C107.059 18.1898 107.659 18.9561 108.663 18.9561C109.662 18.9561 110.279 18.1787 110.279 16.9216C110.279 15.6703 109.655 14.8819 108.663 14.8819C107.666 14.8819 107.059 15.6533 107.059 16.9164H107.059Z" fill="black"/>
<path d="M116.344 16.916C116.307 16.5214 116.352 16.1233 116.477 15.7472C116.602 15.3711 116.804 15.0253 117.071 14.732C117.338 14.4387 117.663 14.2044 118.025 14.044C118.387 13.8836 118.779 13.8008 119.176 13.8008C119.572 13.8008 119.964 13.8836 120.327 14.044C120.689 14.2044 121.014 14.4387 121.281 14.732C121.547 15.0253 121.75 15.3711 121.875 15.7472C122 16.1233 122.045 16.5214 122.007 16.916C122.046 17.3109 122.001 17.7096 121.876 18.0863C121.751 18.463 121.549 18.8094 121.283 19.1033C121.016 19.3972 120.691 19.632 120.328 19.7927C119.965 19.9534 119.573 20.0364 119.176 20.0364C118.779 20.0364 118.387 19.9534 118.024 19.7927C117.661 19.632 117.336 19.3972 117.069 19.1033C116.802 18.8094 116.6 18.463 116.475 18.0863C116.351 17.7096 116.306 17.3109 116.344 16.916ZM120.788 16.916C120.788 15.6145 120.204 14.8535 119.178 14.8535C118.148 14.8535 117.568 15.6145 117.568 16.916C117.568 18.2278 118.148 18.983 119.178 18.983C120.204 18.983 120.788 18.2226 120.788 16.916Z" fill="black"/>
<path d="M123.597 13.9167H124.737V14.8705H124.826C124.976 14.5279 125.229 14.2408 125.551 14.049C125.872 13.8573 126.245 13.7705 126.618 13.8008C126.91 13.7789 127.203 13.8229 127.476 13.9297C127.749 14.0365 127.994 14.2033 128.193 14.4178C128.393 14.6322 128.542 14.8888 128.629 15.1686C128.716 15.4484 128.739 15.7441 128.696 16.0339V19.9206H127.511V16.3314C127.511 15.3666 127.091 14.8868 126.215 14.8868C126.017 14.8775 125.819 14.9113 125.635 14.9857C125.451 15.0602 125.285 15.1735 125.149 15.3181C125.013 15.4626 124.909 15.6348 124.846 15.823C124.782 16.0112 124.761 16.2108 124.782 16.4083V19.9206H123.597V13.9167Z" fill="black"/>
<path d="M135.391 12.4219V13.944H136.692V14.9421H135.391V18.0293C135.391 18.6582 135.65 18.9336 136.24 18.9336C136.391 18.9331 136.542 18.924 136.692 18.9062V19.8932C136.479 19.9313 136.264 19.9515 136.048 19.9538C134.73 19.9538 134.205 19.4902 134.205 18.3327V14.942H133.252V13.944H134.205V12.4219H135.391Z" fill="black"/>
<path d="M138.311 11.5732H139.485V14.8818H139.579C139.736 14.5361 139.997 14.2473 140.324 14.0548C140.652 13.8624 141.031 13.7756 141.409 13.8063C141.7 13.7905 141.991 13.839 142.26 13.9484C142.53 14.0578 142.772 14.2254 142.97 14.4392C143.167 14.6529 143.315 14.9077 143.403 15.1852C143.491 15.4627 143.516 15.7561 143.477 16.0446V19.9209H142.291V16.3369C142.291 15.3779 141.844 14.8922 141.007 14.8922C140.804 14.8755 140.599 14.9035 140.407 14.9743C140.215 15.045 140.041 15.1568 139.897 15.3018C139.753 15.4467 139.643 15.6214 139.573 15.8136C139.504 16.0058 139.477 16.2108 139.495 16.4144V19.9209H138.311L138.311 11.5732Z" fill="black"/>
<path d="M150.386 18.2996C150.225 18.8483 149.876 19.3229 149.401 19.6405C148.925 19.958 148.353 20.0982 147.784 20.0365C147.389 20.047 146.996 19.9712 146.632 19.8145C146.269 19.6578 145.944 19.4239 145.68 19.1291C145.416 18.8342 145.22 18.4855 145.104 18.1071C144.989 17.7286 144.957 17.3296 145.011 16.9376C144.958 16.5444 144.991 16.1445 145.106 15.7649C145.221 15.3854 145.417 15.035 145.679 14.7376C145.942 14.4402 146.265 14.2026 146.627 14.041C146.99 13.8794 147.382 13.7975 147.779 13.8009C149.45 13.8009 150.458 14.9422 150.458 16.8275V17.241H146.218V17.3074C146.199 17.5277 146.227 17.7495 146.299 17.9585C146.371 18.1675 146.486 18.3591 146.637 18.5211C146.788 18.683 146.97 18.8117 147.173 18.8989C147.377 18.9861 147.596 19.0299 147.817 19.0274C148.1 19.0614 148.388 19.0104 148.642 18.8808C148.896 18.7512 149.106 18.5488 149.245 18.2995L150.386 18.2996ZM146.218 16.3647H149.25C149.265 16.1632 149.238 15.9608 149.17 15.7705C149.102 15.5802 148.995 15.4062 148.856 15.2597C148.717 15.1133 148.549 14.9975 148.362 14.92C148.175 14.8424 147.975 14.8047 147.773 14.8093C147.568 14.8068 147.364 14.8452 147.174 14.9225C146.985 14.9998 146.812 15.1142 146.667 15.2592C146.522 15.4042 146.408 15.5766 146.331 15.7665C146.254 15.9564 146.215 16.1598 146.218 16.3647H146.218Z" fill="black"/>
</svg>
