<svg width="200" height="62" viewBox="0 0 200 62" fill="none" xmlns="http://www.w3.org/2000/svg">
<path d="M12.8425 61.9968C12.3257 61.9968 11.8215 61.9904 11.3088 61.9794C10.2466 61.9662 9.18699 61.8778 8.13852 61.7151C7.16087 61.5542 6.2138 61.2548 5.32853 60.827C4.45138 60.4027 3.65135 59.8464 2.95909 59.1793C2.25681 58.52 1.67212 57.7554 1.22821 56.9158C0.779404 56.0707 0.468805 55.1648 0.30723 54.2297C0.132744 53.225 0.0383392 52.2091 0.0248309 51.1907C0.0140776 50.8489 0 49.7107 0 49.7107V12.2686C0 12.2686 0.0149935 11.148 0.0249157 10.8187C0.0378498 9.80194 0.131705 8.78758 0.30567 7.78441C0.467543 6.84679 0.778383 5.93831 1.22743 5.09043C1.66971 4.25135 2.25115 3.48618 2.9492 2.82459C3.64647 2.15671 4.44906 1.5975 5.3277 1.16734C6.21093 0.740871 7.15622 0.443674 8.13188 0.285704C9.1838 0.121297 10.2471 0.0324103 11.3129 0.0197904L12.8433 0H187.148L188.697 0.0205846C189.753 0.0325774 190.807 0.120671 191.849 0.284115C192.835 0.444067 193.79 0.743338 194.683 1.17209C196.443 2.03898 197.876 3.41049 198.779 5.09438C199.221 5.93642 199.527 6.83748 199.687 7.767C199.863 8.7784 199.961 9.80074 199.982 10.8258C199.987 11.2849 199.987 11.7779 199.987 12.2686C200 12.8764 200 13.4549 200 14.0382V47.96C200 48.5489 200 49.1235 199.987 49.7028C199.987 50.2299 199.987 50.7127 199.98 51.2096C199.96 52.2165 199.863 53.2206 199.69 54.2139C199.532 55.1557 199.223 56.0686 198.774 56.9206C198.327 57.7512 197.746 58.5092 197.052 59.1666C196.359 59.8373 195.557 60.3969 194.678 60.8239C193.787 61.2551 192.834 61.5555 191.849 61.7151C190.801 61.8787 189.741 61.9671 188.679 61.9794C188.182 61.9904 187.662 61.9968 187.157 61.9968L185.318 62L12.8425 61.9968Z" fill="#252445"/>
<g clip-path="url(#clip0_22390_1516)">
<path d="M39.9298 13C40.0136 13 40.0973 13 40.1859 13C40.3914 15.5388 39.4223 17.4358 38.2446 18.8095C37.089 20.1738 35.5066 21.4969 32.9473 21.2961C32.7766 18.7937 33.7472 17.0374 34.9233 15.6668C36.0141 14.3895 38.0138 13.2529 39.9298 13Z" fill="white"/>
<path d="M47.6766 39.4256C47.6766 39.4508 47.6766 39.473 47.6766 39.4967C46.9574 41.6751 45.9314 43.542 44.6794 45.2746C43.5365 46.8475 42.1359 48.9642 39.635 48.9642C37.474 48.9642 36.0386 47.5747 33.8239 47.5367C31.4811 47.4988 30.1928 48.6986 28.0508 49.0006C27.8057 49.0006 27.5607 49.0006 27.3204 49.0006C25.7475 48.7729 24.4781 47.5273 23.5533 46.4049C20.8264 43.0883 18.7192 38.8043 18.3271 33.322C18.3271 32.7845 18.3271 32.2486 18.3271 31.7112C18.4931 27.7876 20.3996 24.5975 22.9337 23.0514C24.271 22.2294 26.1095 21.5291 28.1567 21.8421C29.034 21.978 29.9304 22.2784 30.716 22.5756C31.4606 22.8617 32.3917 23.3692 33.2738 23.3423C33.8713 23.3249 34.4657 23.0135 35.068 22.7938C36.8322 22.1567 38.5616 21.4263 40.8412 21.7694C43.5807 22.1836 45.5251 23.4008 46.7266 25.2788C44.4091 26.7537 42.5769 28.9763 42.8899 32.7719C43.1681 36.2197 45.1726 38.2368 47.6766 39.4256Z" fill="white"/>
</g>
<path d="M60.576 49L67.488 32.2H69.408L76.272 49H73.296L67.92 35.392H68.928L63.504 49H60.576ZM63.984 45.76V43.36H72.888V45.76H63.984ZM84.4836 49.24C83.6036 49.24 82.8196 49.056 82.1316 48.688C81.4436 48.304 80.8996 47.784 80.4996 47.128C80.1156 46.472 79.9236 45.728 79.9236 44.896V41.584C79.9236 40.752 80.1236 40.008 80.5236 39.352C80.9236 38.696 81.4676 38.184 82.1556 37.816C82.8436 37.432 83.6196 37.24 84.4836 37.24C85.5236 37.24 86.4596 37.512 87.2916 38.056C88.1396 38.584 88.8036 39.304 89.2836 40.216C89.7796 41.112 90.0276 42.128 90.0276 43.264C90.0276 44.384 89.7796 45.4 89.2836 46.312C88.8036 47.208 88.1396 47.92 87.2916 48.448C86.4596 48.976 85.5236 49.24 84.4836 49.24ZM84.0516 46.744C84.6916 46.744 85.2516 46.6 85.7316 46.312C86.2276 46.008 86.6116 45.592 86.8836 45.064C87.1716 44.536 87.3156 43.928 87.3156 43.24C87.3156 42.552 87.1716 41.944 86.8836 41.416C86.6116 40.888 86.2276 40.48 85.7316 40.192C85.2516 39.888 84.6916 39.736 84.0516 39.736C83.4116 39.736 82.8436 39.888 82.3476 40.192C81.8516 40.48 81.4676 40.888 81.1956 41.416C80.9236 41.944 80.7876 42.552 80.7876 43.24C80.7876 43.928 80.9236 44.536 81.1956 45.064C81.4676 45.592 81.8516 46.008 82.3476 46.312C82.8436 46.6 83.4116 46.744 84.0516 46.744ZM78.3156 53.8V37.48H80.9556V40.576L80.4996 43.384L80.9556 46.168V53.8H78.3156ZM98.4054 49.24C97.5254 49.24 96.7414 49.056 96.0534 48.688C95.3654 48.304 94.8214 47.784 94.4214 47.128C94.0374 46.472 93.8454 45.728 93.8454 44.896V41.584C93.8454 40.752 94.0454 40.008 94.4454 39.352C94.8454 38.696 95.3894 38.184 96.0774 37.816C96.7654 37.432 97.5414 37.24 98.4054 37.24C99.4454 37.24 100.381 37.512 101.213 38.056C102.061 38.584 102.725 39.304 103.205 40.216C103.701 41.112 103.949 42.128 103.949 43.264C103.949 44.384 103.701 45.4 103.205 46.312C102.725 47.208 102.061 47.92 101.213 48.448C100.381 48.976 99.4454 49.24 98.4054 49.24ZM97.9734 46.744C98.6134 46.744 99.1734 46.6 99.6534 46.312C100.149 46.008 100.533 45.592 100.805 45.064C101.093 44.536 101.237 43.928 101.237 43.24C101.237 42.552 101.093 41.944 100.805 41.416C100.533 40.888 100.149 40.48 99.6534 40.192C99.1734 39.888 98.6134 39.736 97.9734 39.736C97.3334 39.736 96.7654 39.888 96.2694 40.192C95.7734 40.48 95.3894 40.888 95.1174 41.416C94.8454 41.944 94.7094 42.552 94.7094 43.24C94.7094 43.928 94.8454 44.536 95.1174 45.064C95.3894 45.592 95.7734 46.008 96.2694 46.312C96.7654 46.6 97.3334 46.744 97.9734 46.744ZM92.2374 53.8V37.48H94.8774V40.576L94.4214 43.384L94.8774 46.168V53.8H92.2374ZM116.004 49.24C114.676 49.24 113.548 49 112.62 48.52C111.692 48.04 110.86 47.336 110.124 46.408L111.996 44.536C112.46 45.208 113.012 45.736 113.652 46.12C114.292 46.488 115.108 46.672 116.1 46.672C117.028 46.672 117.764 46.48 118.308 46.096C118.868 45.712 119.148 45.184 119.148 44.512C119.148 43.952 119.004 43.496 118.716 43.144C118.428 42.792 118.044 42.504 117.564 42.28C117.1 42.04 116.58 41.832 116.004 41.656C115.444 41.464 114.876 41.256 114.3 41.032C113.74 40.792 113.22 40.496 112.74 40.144C112.276 39.792 111.9 39.336 111.612 38.776C111.324 38.216 111.18 37.504 111.18 36.64C111.18 35.648 111.42 34.808 111.9 34.12C112.396 33.416 113.06 32.88 113.892 32.512C114.724 32.144 115.652 31.96 116.676 31.96C117.78 31.96 118.764 32.176 119.628 32.608C120.508 33.04 121.22 33.592 121.764 34.264L119.892 36.136C119.412 35.592 118.908 35.192 118.38 34.936C117.868 34.664 117.276 34.528 116.604 34.528C115.772 34.528 115.116 34.696 114.636 35.032C114.172 35.368 113.94 35.84 113.94 36.448C113.94 36.96 114.084 37.376 114.372 37.696C114.66 38 115.036 38.264 115.5 38.488C115.98 38.696 116.5 38.896 117.06 39.088C117.636 39.28 118.204 39.496 118.764 39.736C119.34 39.976 119.86 40.288 120.324 40.672C120.804 41.04 121.188 41.52 121.476 42.112C121.764 42.704 121.908 43.448 121.908 44.344C121.908 45.848 121.372 47.04 120.3 47.92C119.244 48.8 117.812 49.24 116.004 49.24ZM126.052 49V32.68H128.692V49H126.052ZM123.292 39.88V37.48H131.452V39.88H123.292ZM138.322 49.24C137.202 49.24 136.186 48.976 135.274 48.448C134.362 47.904 133.634 47.176 133.09 46.264C132.562 45.352 132.298 44.336 132.298 43.216C132.298 42.096 132.562 41.088 133.09 40.192C133.634 39.296 134.362 38.584 135.274 38.056C136.186 37.512 137.202 37.24 138.322 37.24C139.458 37.24 140.482 37.504 141.394 38.032C142.306 38.56 143.026 39.28 143.554 40.192C144.098 41.088 144.37 42.096 144.37 43.216C144.37 44.336 144.098 45.352 143.554 46.264C143.026 47.176 142.306 47.904 141.394 48.448C140.482 48.976 139.458 49.24 138.322 49.24ZM138.322 46.696C138.978 46.696 139.554 46.552 140.05 46.264C140.562 45.96 140.954 45.544 141.226 45.016C141.514 44.488 141.658 43.888 141.658 43.216C141.658 42.544 141.514 41.952 141.226 41.44C140.938 40.928 140.546 40.528 140.05 40.24C139.554 39.936 138.978 39.784 138.322 39.784C137.682 39.784 137.106 39.936 136.594 40.24C136.098 40.528 135.706 40.928 135.418 41.44C135.146 41.952 135.01 42.544 135.01 43.216C135.01 43.888 135.146 44.488 135.418 45.016C135.706 45.544 136.098 45.96 136.594 46.264C137.106 46.552 137.682 46.696 138.322 46.696ZM146.566 49V37.48H149.206V49H146.566ZM149.206 42.592L148.294 42.136C148.294 40.68 148.614 39.504 149.254 38.608C149.91 37.696 150.894 37.24 152.206 37.24C152.782 37.24 153.302 37.344 153.766 37.552C154.23 37.76 154.662 38.096 155.062 38.56L153.334 40.336C153.126 40.112 152.894 39.952 152.638 39.856C152.382 39.76 152.086 39.712 151.75 39.712C151.014 39.712 150.406 39.944 149.926 40.408C149.446 40.872 149.206 41.6 149.206 42.592ZM161.339 49.24C160.187 49.24 159.147 48.984 158.219 48.472C157.307 47.944 156.579 47.224 156.035 46.312C155.507 45.4 155.243 44.376 155.243 43.24C155.243 42.104 155.507 41.088 156.035 40.192C156.563 39.28 157.275 38.56 158.171 38.032C159.083 37.504 160.091 37.24 161.195 37.24C162.267 37.24 163.211 37.488 164.027 37.984C164.859 38.48 165.507 39.16 165.971 40.024C166.451 40.888 166.691 41.872 166.691 42.976C166.691 43.168 166.675 43.368 166.643 43.576C166.627 43.768 166.595 43.984 166.547 44.224H157.091V42.064H165.179L164.195 42.928C164.163 42.224 164.027 41.632 163.787 41.152C163.547 40.672 163.203 40.304 162.755 40.048C162.323 39.792 161.787 39.664 161.147 39.664C160.475 39.664 159.891 39.808 159.395 40.096C158.899 40.384 158.515 40.792 158.243 41.32C157.971 41.832 157.835 42.448 157.835 43.168C157.835 43.888 157.979 44.52 158.267 45.064C158.555 45.608 158.963 46.032 159.491 46.336C160.019 46.624 160.627 46.768 161.315 46.768C161.907 46.768 162.451 46.664 162.947 46.456C163.459 46.248 163.891 45.944 164.243 45.544L165.923 47.248C165.363 47.904 164.683 48.4 163.883 48.736C163.083 49.072 162.235 49.24 161.339 49.24Z" fill="white"/>
<path d="M62.016 24V22.796H64.718C65.4367 22.796 66.0667 22.642 66.608 22.334C67.1493 22.0167 67.5693 21.5827 67.868 21.032C68.176 20.4813 68.33 19.8467 68.33 19.128C68.33 18.4187 68.176 17.7887 67.868 17.238C67.56 16.6873 67.1353 16.258 66.594 15.95C66.0527 15.642 65.4273 15.488 64.718 15.488H62.03V14.284H64.746C65.4553 14.284 66.1087 14.4053 66.706 14.648C67.3127 14.8907 67.8353 15.2313 68.274 15.67C68.722 16.1087 69.0673 16.622 69.31 17.21C69.562 17.798 69.688 18.442 69.688 19.142C69.688 19.8327 69.562 20.4767 69.31 21.074C69.0673 21.662 68.7267 22.1753 68.288 22.614C67.8493 23.0527 67.3267 23.3933 66.72 23.636C66.1227 23.8787 65.474 24 64.774 24H62.016ZM61.148 24V14.284H62.464V24H61.148ZM74.3253 24.14C73.6719 24.14 73.0839 23.986 72.5613 23.678C72.0386 23.37 71.6233 22.9547 71.3153 22.432C71.0073 21.9 70.8533 21.3073 70.8533 20.654C70.8533 20.01 71.0073 19.4313 71.3153 18.918C71.6233 18.3953 72.0386 17.98 72.5613 17.672C73.0839 17.364 73.6719 17.21 74.3253 17.21C74.9693 17.21 75.5526 17.364 76.0753 17.672C76.6073 17.9707 77.0273 18.3813 77.3353 18.904C77.6433 19.4267 77.7973 20.01 77.7973 20.654C77.7973 21.3073 77.6433 21.9 77.3353 22.432C77.0273 22.9547 76.6073 23.37 76.0753 23.678C75.5526 23.986 74.9693 24.14 74.3253 24.14ZM74.3253 22.922C74.7453 22.922 75.1186 22.824 75.4453 22.628C75.7719 22.432 76.0286 22.166 76.2153 21.83C76.4019 21.4847 76.4953 21.0927 76.4953 20.654C76.4953 20.2247 76.3973 19.842 76.2013 19.506C76.0146 19.17 75.7579 18.9087 75.4313 18.722C75.1139 18.526 74.7453 18.428 74.3253 18.428C73.9053 18.428 73.5319 18.526 73.2053 18.722C72.8786 18.9087 72.6219 19.17 72.4353 19.506C72.2486 19.842 72.1553 20.2247 72.1553 20.654C72.1553 21.0927 72.2486 21.4847 72.4353 21.83C72.6219 22.166 72.8786 22.432 73.2053 22.628C73.5319 22.824 73.9053 22.922 74.3253 22.922ZM80.9296 24L78.2976 17.35H79.6136L81.5176 22.53H81.0976L82.9876 17.35H83.7156L85.6056 22.53H85.1856L87.0896 17.35H88.4056L85.7876 24H85.0456L83.1276 18.974H83.5896L81.6576 24H80.9296ZM94.2296 24V20.122C94.2296 19.618 94.0709 19.2027 93.7536 18.876C93.4362 18.5493 93.0256 18.386 92.5216 18.386C92.1856 18.386 91.8869 18.4607 91.6256 18.61C91.3642 18.7593 91.1589 18.9647 91.0096 19.226C90.8602 19.4873 90.7856 19.786 90.7856 20.122L90.2676 19.828C90.2676 19.324 90.3796 18.876 90.6036 18.484C90.8276 18.092 91.1402 17.784 91.5416 17.56C91.9429 17.3267 92.3956 17.21 92.8996 17.21C93.4036 17.21 93.8469 17.336 94.2296 17.588C94.6216 17.84 94.9296 18.1713 95.1536 18.582C95.3776 18.9833 95.4896 19.4127 95.4896 19.87V24H94.2296ZM89.5256 24V17.35H90.7856V24H89.5256ZM97.1955 24V14.004H98.4555V24H97.1955ZM103.337 24.14C102.684 24.14 102.096 23.986 101.573 23.678C101.05 23.37 100.635 22.9547 100.327 22.432C100.019 21.9 99.865 21.3073 99.865 20.654C99.865 20.01 100.019 19.4313 100.327 18.918C100.635 18.3953 101.05 17.98 101.573 17.672C102.096 17.364 102.684 17.21 103.337 17.21C103.981 17.21 104.564 17.364 105.087 17.672C105.619 17.9707 106.039 18.3813 106.347 18.904C106.655 19.4267 106.809 20.01 106.809 20.654C106.809 21.3073 106.655 21.9 106.347 22.432C106.039 22.9547 105.619 23.37 105.087 23.678C104.564 23.986 103.981 24.14 103.337 24.14ZM103.337 22.922C103.757 22.922 104.13 22.824 104.457 22.628C104.784 22.432 105.04 22.166 105.227 21.83C105.414 21.4847 105.507 21.0927 105.507 20.654C105.507 20.2247 105.409 19.842 105.213 19.506C105.026 19.17 104.77 18.9087 104.443 18.722C104.126 18.526 103.757 18.428 103.337 18.428C102.917 18.428 102.544 18.526 102.217 18.722C101.89 18.9087 101.634 19.17 101.447 19.506C101.26 19.842 101.167 20.2247 101.167 20.654C101.167 21.0927 101.26 21.4847 101.447 21.83C101.634 22.166 101.89 22.432 102.217 22.628C102.544 22.824 102.917 22.922 103.337 22.922ZM111.057 24.14C110.45 24.14 109.899 23.9907 109.405 23.692C108.91 23.384 108.518 22.9687 108.229 22.446C107.949 21.9233 107.809 21.3353 107.809 20.682C107.809 20.0287 107.949 19.4407 108.229 18.918C108.518 18.3953 108.905 17.98 109.391 17.672C109.885 17.364 110.441 17.21 111.057 17.21C111.561 17.21 112.009 17.3173 112.401 17.532C112.802 17.7373 113.124 18.0267 113.367 18.4C113.609 18.764 113.745 19.1887 113.773 19.674V21.676C113.745 22.152 113.609 22.5767 113.367 22.95C113.133 23.3233 112.816 23.6173 112.415 23.832C112.023 24.0373 111.57 24.14 111.057 24.14ZM111.267 22.95C111.892 22.95 112.396 22.74 112.779 22.32C113.161 21.8907 113.353 21.3447 113.353 20.682C113.353 20.2247 113.264 19.828 113.087 19.492C112.919 19.1467 112.676 18.8807 112.359 18.694C112.041 18.498 111.673 18.4 111.253 18.4C110.833 18.4 110.459 18.498 110.133 18.694C109.815 18.89 109.563 19.1607 109.377 19.506C109.199 19.842 109.111 20.2293 109.111 20.668C109.111 21.116 109.199 21.5127 109.377 21.858C109.563 22.194 109.82 22.46 110.147 22.656C110.473 22.852 110.847 22.95 111.267 22.95ZM113.269 24V22.208L113.507 20.584L113.269 18.974V17.35H114.543V24H113.269ZM119.191 24.14C118.575 24.14 118.024 23.9907 117.539 23.692C117.054 23.384 116.666 22.9687 116.377 22.446C116.097 21.9233 115.957 21.3353 115.957 20.682C115.957 20.0287 116.097 19.4407 116.377 18.918C116.666 18.3953 117.054 17.98 117.539 17.672C118.024 17.364 118.575 17.21 119.191 17.21C119.686 17.21 120.134 17.3173 120.535 17.532C120.936 17.7373 121.258 18.0267 121.501 18.4C121.753 18.764 121.893 19.1887 121.921 19.674V21.676C121.893 22.152 121.758 22.5767 121.515 22.95C121.272 23.3233 120.95 23.6173 120.549 23.832C120.148 24.0373 119.695 24.14 119.191 24.14ZM119.401 22.95C119.821 22.95 120.185 22.852 120.493 22.656C120.81 22.46 121.058 22.194 121.235 21.858C121.412 21.5127 121.501 21.1207 121.501 20.682C121.501 20.2247 121.408 19.828 121.221 19.492C121.044 19.156 120.796 18.89 120.479 18.694C120.171 18.498 119.807 18.4 119.387 18.4C118.967 18.4 118.598 18.498 118.281 18.694C117.964 18.89 117.712 19.1607 117.525 19.506C117.348 19.842 117.259 20.2293 117.259 20.668C117.259 21.116 117.348 21.5127 117.525 21.858C117.712 22.194 117.964 22.46 118.281 22.656C118.608 22.852 118.981 22.95 119.401 22.95ZM122.691 24H121.417V22.208L121.655 20.584L121.417 18.974V14.004H122.691V24ZM130.476 24.14C129.822 24.14 129.234 23.986 128.712 23.678C128.189 23.37 127.774 22.9547 127.466 22.432C127.158 21.9 127.004 21.3073 127.004 20.654C127.004 20.01 127.158 19.4313 127.466 18.918C127.774 18.3953 128.189 17.98 128.712 17.672C129.234 17.364 129.822 17.21 130.476 17.21C131.12 17.21 131.703 17.364 132.226 17.672C132.758 17.9707 133.178 18.3813 133.486 18.904C133.794 19.4267 133.948 20.01 133.948 20.654C133.948 21.3073 133.794 21.9 133.486 22.432C133.178 22.9547 132.758 23.37 132.226 23.678C131.703 23.986 131.12 24.14 130.476 24.14ZM130.476 22.922C130.896 22.922 131.269 22.824 131.596 22.628C131.922 22.432 132.179 22.166 132.366 21.83C132.552 21.4847 132.646 21.0927 132.646 20.654C132.646 20.2247 132.548 19.842 132.352 19.506C132.165 19.17 131.908 18.9087 131.582 18.722C131.264 18.526 130.896 18.428 130.476 18.428C130.056 18.428 129.682 18.526 129.356 18.722C129.029 18.9087 128.772 19.17 128.586 19.506C128.399 19.842 128.306 20.2247 128.306 20.654C128.306 21.0927 128.399 21.4847 128.586 21.83C128.772 22.166 129.029 22.432 129.356 22.628C129.682 22.824 130.056 22.922 130.476 22.922ZM140.071 24V20.122C140.071 19.618 139.913 19.2027 139.595 18.876C139.278 18.5493 138.867 18.386 138.363 18.386C138.027 18.386 137.729 18.4607 137.467 18.61C137.206 18.7593 137.001 18.9647 136.851 19.226C136.702 19.4873 136.627 19.786 136.627 20.122L136.109 19.828C136.109 19.324 136.221 18.876 136.445 18.484C136.669 18.092 136.982 17.784 137.383 17.56C137.785 17.3267 138.237 17.21 138.741 17.21C139.245 17.21 139.689 17.336 140.071 17.588C140.463 17.84 140.771 18.1713 140.995 18.582C141.219 18.9833 141.331 19.4127 141.331 19.87V24H140.071ZM135.367 24V17.35H136.627V24H135.367ZM146.971 24V14.564H148.231V24H146.971ZM145.333 18.498V17.35H149.869V18.498H145.333ZM155.808 24V20.122C155.808 19.618 155.649 19.2027 155.332 18.876C155.014 18.5493 154.604 18.386 154.1 18.386C153.764 18.386 153.465 18.4607 153.204 18.61C152.942 18.7593 152.737 18.9647 152.588 19.226C152.438 19.4873 152.364 19.786 152.364 20.122L151.846 19.828C151.846 19.324 151.958 18.876 152.182 18.484C152.406 18.092 152.718 17.784 153.12 17.56C153.521 17.3267 153.974 17.21 154.478 17.21C154.982 17.21 155.425 17.322 155.808 17.546C156.2 17.77 156.508 18.0827 156.732 18.484C156.956 18.8853 157.068 19.3473 157.068 19.87V24H155.808ZM151.104 24V14.004H152.364V24H151.104ZM161.854 24.14C161.191 24.14 160.594 23.9907 160.062 23.692C159.53 23.384 159.11 22.9687 158.802 22.446C158.494 21.9233 158.34 21.3307 158.34 20.668C158.34 20.0147 158.489 19.4267 158.788 18.904C159.096 18.3813 159.506 17.9707 160.02 17.672C160.542 17.364 161.126 17.21 161.77 17.21C162.386 17.21 162.927 17.35 163.394 17.63C163.87 17.91 164.238 18.2973 164.5 18.792C164.77 19.2867 164.906 19.8467 164.906 20.472C164.906 20.5653 164.901 20.668 164.892 20.78C164.882 20.8827 164.864 21.004 164.836 21.144H159.222V20.094H164.164L163.702 20.5C163.702 20.052 163.622 19.674 163.464 19.366C163.305 19.0487 163.081 18.806 162.792 18.638C162.502 18.4607 162.152 18.372 161.742 18.372C161.312 18.372 160.934 18.4653 160.608 18.652C160.281 18.8387 160.029 19.1 159.852 19.436C159.674 19.772 159.586 20.1687 159.586 20.626C159.586 21.0927 159.679 21.5033 159.866 21.858C160.052 22.2033 160.318 22.474 160.664 22.67C161.009 22.8567 161.406 22.95 161.854 22.95C162.227 22.95 162.568 22.8847 162.876 22.754C163.193 22.6233 163.464 22.4273 163.688 22.166L164.5 22.992C164.182 23.3653 163.79 23.65 163.324 23.846C162.866 24.042 162.376 24.14 161.854 24.14Z" fill="white"/>
<defs>
<clipPath id="clip0_22390_1516">
<rect width="36" height="36" fill="white" transform="translate(15 13)"/>
</clipPath>
</defs>
</svg>
