<svg width="234" height="62" viewBox="0 0 234 62" fill="none" xmlns="http://www.w3.org/2000/svg">
<path d="M54.1699 0H7.74685C3.46838 0 0 3.47304 0 7.75726V54.2427C0 58.527 3.46838 62 7.74685 62H54.1699C58.4484 62 61.9168 58.527 61.9168 54.2427V7.75726C61.9168 3.47304 58.4484 0 54.1699 0Z" fill="#000047"/>
<path d="M40.7197 17.8944L40.7004 17.875L30.9189 27.6696L38.0907 34.851L40.7197 32.2136L47.8673 25.0564L40.7197 17.8944Z" fill="#6A35FF"/>
<path d="M21.1386 17.875L13.9717 25.0564L21.1966 32.291L23.7531 34.851L30.92 27.6696L21.1386 17.875Z" fill="#9AD0FD"/>
<path d="M30.9194 27.6735L23.75 34.8525L30.9194 42.0316L38.0888 34.8525L30.9194 27.6735Z" fill="#C3AEFF"/>
<path d="M50.8598 35.374H40.7207V44.1233H50.8598V35.374Z" fill="#AD90FE"/>
<path d="M50.8588 26.625H40.7197V35.3743H50.8588V26.625Z" fill="#9672FE"/>
<path d="M50.8588 17.875H40.7197V26.6243H50.8588V17.875Z" fill="#8155FF"/>
<path d="M21.1957 35.374H11.0566V44.1233H21.1957V35.374Z" fill="#35ACFE"/>
<path d="M21.1957 26.625H11.0566V35.3743H21.1957V26.625Z" fill="#59B9FF"/>
<path d="M21.1957 17.875H11.0566V26.6243H21.1957V17.875Z" fill="#7BC4FD"/>
<path d="M76.2607 26.3195V10.834H79.228L85.815 21.7706H84.2444L90.7251 10.834H93.6682L93.7117 26.3195H90.3288V15.9781H90.9474L85.7715 24.6887H84.1381L78.8704 15.9974H79.6243V26.3388L76.2607 26.3195Z" fill="#000047"/>
<path d="M100.941 23.4404H109.364V26.3439H97.3789V10.8584H109.079V13.7377H100.941V23.4404ZM100.675 17.0623H108.127V19.869H100.675V17.0623Z" fill="#000047"/>
<path d="M112.221 26.3193V10.8339H115.183L121.77 21.7705H120.204L126.666 10.8193H129.609L129.652 26.3048H126.269V15.9634H126.888L121.712 24.674H120.098L114.816 15.9634H115.565V26.3048L112.221 26.3193Z" fill="#000047"/>
<path d="M133.34 26.3195V10.834H140.903C142.836 10.834 144.299 11.2034 145.291 11.9422C145.751 12.2714 146.123 12.708 146.376 13.214C146.628 13.72 146.754 14.2801 146.741 14.8457C146.759 15.5943 146.552 16.3311 146.147 16.9604C145.738 17.5637 145.171 18.0426 144.508 18.3444C143.758 18.6801 142.943 18.8453 142.121 18.8284L142.541 17.9234C143.427 17.9107 144.306 18.0753 145.127 18.4074C145.839 18.6936 146.45 19.1833 146.886 19.8156C147.322 20.4935 147.542 21.2887 147.514 22.0948C147.537 22.7037 147.405 23.3085 147.132 23.8526C146.858 24.3968 146.451 24.8625 145.948 25.2064C144.898 25.9517 143.356 26.3243 141.324 26.3243L133.34 26.3195ZM136.897 23.6192H141.077C141.809 23.6656 142.54 23.5081 143.189 23.1643C143.428 23.0094 143.621 22.7929 143.748 22.5374C143.875 22.2819 143.93 21.997 143.909 21.7125C143.927 21.4285 143.87 21.1447 143.744 20.8897C143.617 20.6348 143.426 20.4178 143.189 20.2608C142.546 19.8992 141.813 19.7311 141.077 19.7768H136.631V17.1637H140.458C141.155 17.2068 141.849 17.0489 142.459 16.7088C142.675 16.5511 142.85 16.3447 142.971 16.1063C143.092 15.8679 143.155 15.6043 143.155 15.3369C143.155 15.0695 143.092 14.8058 142.971 14.5674C142.85 14.329 142.675 14.1226 142.459 13.965C141.849 13.6271 141.155 13.4694 140.458 13.5101H136.897V23.6192Z" fill="#000047"/>
<path d="M153.816 23.4404H162.239V26.3439H150.254V10.8584H161.944V13.7377H153.816V23.4404ZM153.55 17.0623H161.002V19.869H153.55V17.0623Z" fill="#000047"/>
<path d="M165.095 26.3191V10.8336H171.793C173.021 10.8037 174.241 11.0346 175.374 11.5111C176.322 11.9133 177.131 12.5866 177.698 13.4468C178.26 14.3479 178.544 15.3949 178.515 16.4568C178.543 17.5095 178.259 18.5469 177.698 19.4377C177.131 20.2981 176.322 20.9715 175.374 21.3734C174.239 21.8405 173.02 22.0663 171.793 22.0364H167.081L168.676 20.4637V26.353L165.095 26.3191ZM168.676 20.8363L167.081 19.1571H171.609C172.494 19.2247 173.373 18.9685 174.084 18.436C174.609 17.9081 174.905 17.1928 174.905 16.4471C174.905 15.7014 174.609 14.9862 174.084 14.4582C173.369 13.9352 172.492 13.6846 171.609 13.7517H167.095L168.69 12.0483L168.676 20.8363ZM174.958 26.3288L171.092 20.7056H174.92L178.834 26.3288H174.958Z" fill="#000047"/>
<path d="M186.432 26.586C185.229 26.5965 184.031 26.4336 182.875 26.1021C181.889 25.8405 180.959 25.401 180.13 24.8052L181.348 22.1049C182.067 22.6038 182.857 22.992 183.692 23.2566C184.579 23.5572 185.509 23.7109 186.446 23.7115C187.025 23.729 187.604 23.6588 188.162 23.5034C188.533 23.4022 188.868 23.1975 189.128 22.9131C189.33 22.6718 189.44 22.3665 189.438 22.0517C189.44 21.8635 189.397 21.6774 189.313 21.5091C189.229 21.3407 189.106 21.1949 188.954 21.0838C188.566 20.8119 188.132 20.6104 187.674 20.4886C187.142 20.3338 186.553 20.1837 185.915 20.0434C185.277 19.9031 184.629 19.7289 183.982 19.5256C183.366 19.3296 182.775 19.0616 182.222 18.7271C181.697 18.4065 181.253 17.9673 180.927 17.4448C180.58 16.8238 180.413 16.1183 180.444 15.4074C180.44 14.5474 180.691 13.7055 181.164 12.9878C181.703 12.2079 182.455 11.5998 183.329 11.236C184.483 10.7651 185.723 10.5425 186.968 10.5827C187.945 10.5808 188.918 10.6962 189.868 10.9263C190.752 11.1289 191.596 11.4772 192.366 11.9571L191.26 14.6816C190.58 14.284 189.852 13.975 189.095 13.7621C188.404 13.5676 187.69 13.4667 186.973 13.4621C186.395 13.4454 185.818 13.5272 185.267 13.704C184.89 13.8171 184.555 14.0374 184.301 14.338C184.109 14.5965 184.009 14.9114 184.015 15.2332C184.009 15.4221 184.05 15.6094 184.135 15.7784C184.219 15.9474 184.344 16.0926 184.499 16.2011C184.885 16.4744 185.32 16.6729 185.779 16.7866C186.311 16.9366 186.896 17.0818 187.538 17.2318C188.181 17.3818 188.819 17.5464 189.472 17.7399C190.089 17.9217 190.68 18.1819 191.231 18.5142C191.757 18.8343 192.199 19.2756 192.521 19.8015C192.87 20.4129 193.037 21.1112 193.004 21.8146C193.011 22.6674 192.756 23.5017 192.275 24.2051C191.727 24.9804 190.973 25.5871 190.1 25.9569C188.935 26.4241 187.685 26.6385 186.432 26.586Z" fill="#000047"/>
<path d="M199.035 26.3193H195.454V10.8339H199.035V26.3193ZM206.337 19.9654H198.774V16.9313H206.337V19.9654ZM206.072 10.8193H209.653V26.3048H206.072V10.8193Z" fill="#000047"/>
<path d="M213.321 26.3195V10.834H216.907V26.3195H213.321Z" fill="#000047"/>
<path d="M220.575 26.3191V10.8336H227.278C228.506 10.8037 229.727 11.0346 230.859 11.5111C231.807 11.9133 232.616 12.5866 233.184 13.4468C233.718 14.356 234 15.392 234 16.4471C234 17.5023 233.718 18.5382 233.184 19.4474C232.616 20.3076 231.807 20.9809 230.859 21.3831C229.727 21.8622 228.506 22.0932 227.278 22.0606H222.566L224.161 20.4443V26.3336L220.575 26.3191ZM224.161 20.8363L222.566 19.1329H227.08C227.964 19.1967 228.841 18.9427 229.554 18.4167C230.077 17.8891 230.371 17.1759 230.371 16.4326C230.371 15.6893 230.077 14.9761 229.554 14.4485C228.84 13.9259 227.962 13.6754 227.08 13.742H222.566L224.161 12.0386V20.8363Z" fill="#000047"/>
<path d="M79.9768 52.0303L74.9121 36.5448H78.6285L83.0311 50.2736H81.1705L85.7712 36.5448H89.0865L93.5132 50.2736H91.7203L96.2196 36.5303H99.6508L94.5861 52.0158H90.7199L86.8054 39.971H87.8203L83.7946 52.0158L79.9768 52.0303Z" fill="#8155FF"/>
<path d="M99.1191 52.0304L106.02 36.5449H109.558L116.478 52.0304H112.718L107.045 38.3451H108.461L102.778 52.0304H99.1191ZM102.57 48.7107L103.536 45.9862H111.496L112.462 48.7107H102.57Z" fill="#8155FF"/>
<path d="M118.078 52.0304V36.5449H121.664V49.1269H129.425V52.0304H118.078Z" fill="#8155FF"/>
<path d="M131.436 52.0304V36.5449H135.021V49.1269H142.783V52.0304H131.436Z" fill="#8155FF"/>
<path d="M148.355 49.1511H156.778V52.0304H144.793V36.5449H156.493V39.4243H148.355V49.1511ZM148.089 42.7778H155.541V45.5652H148.089V42.7778Z" fill="#8155FF"/>
<path d="M162.838 52.0304V39.4485H157.885V36.5449H171.373V39.4485H166.419V52.0304H162.838Z" fill="#8155FF"/>
</svg>
