<svg width="211" height="56" viewBox="0 0 211 56" fill="none" xmlns="http://www.w3.org/2000/svg">
<path d="M48.8455 0H6.9854C3.12747 0 0 3.13694 0 7.00656V48.9934C0 52.8631 3.12747 56 6.9854 56H48.8455C52.7035 56 55.8309 52.8631 55.8309 48.9934V7.00656C55.8309 3.13694 52.7035 0 48.8455 0Z" fill="#000047"/>
<path d="M36.7173 16.163L36.6999 16.1455L27.8799 24.9922L34.3467 31.4786L36.7173 29.0965L43.1624 22.6319L36.7173 16.163Z" fill="#6A35FF"/>
<path d="M19.0601 16.1455L12.5977 22.6319L19.1124 29.1664L21.4177 31.4786L27.8801 24.9922L19.0601 16.1455Z" fill="#9AD0FD"/>
<path d="M27.8797 24.9952L21.415 31.4795L27.8797 37.9638L34.3444 31.4795L27.8797 24.9952Z" fill="#C3AEFF"/>
<path d="M45.8602 31.9512H36.7178V39.8538H45.8602V31.9512Z" fill="#AD90FE"/>
<path d="M45.8602 24.0488H36.7178V31.9514H45.8602V24.0488Z" fill="#9672FE"/>
<path d="M45.8602 16.1455H36.7178V24.0481H45.8602V16.1455Z" fill="#8155FF"/>
<path d="M19.1132 31.9512H9.9707V39.8538H19.1132V31.9512Z" fill="#35ACFE"/>
<path d="M19.1132 24.0488H9.9707V31.9514H19.1132V24.0488Z" fill="#59B9FF"/>
<path d="M19.1132 16.1455H9.9707V24.0481H19.1132V16.1455Z" fill="#7BC4FD"/>
<path d="M68.7646 23.772V9.78516H71.4403L77.3798 19.6634H75.9636L81.8073 9.78516H84.4611L84.5003 23.772H81.4499V14.4314H82.0077L77.3406 22.2991H75.8677L71.1178 14.4489H71.7976V23.7895L68.7646 23.772Z" fill="#000047"/>
<path d="M91.0183 21.172H98.6138V23.7945H87.8066V9.80762H98.3566V12.4083H91.0183V21.172ZM90.7786 15.4111H97.4982V17.9462H90.7786V15.4111Z" fill="#000047"/>
<path d="M101.189 23.7725V9.78557H103.861L109.8 19.6638H108.388L114.215 9.77246H116.868L116.908 23.7593H113.857V14.4187H114.415L109.748 22.2864H108.293L103.53 14.4187H104.205V23.7593L101.189 23.7725Z" fill="#000047"/>
<path d="M120.233 23.772V9.78516H127.053C128.796 9.78516 130.115 10.1188 131.01 10.7861C131.424 11.0834 131.76 11.4778 131.988 11.9348C132.216 12.3919 132.329 12.8978 132.317 13.4086C132.334 14.0848 132.147 14.7503 131.781 15.3187C131.413 15.8636 130.902 16.2961 130.304 16.5688C129.627 16.872 128.892 17.0212 128.151 17.0059L128.53 16.1885C129.329 16.1771 130.121 16.3257 130.862 16.6256C131.504 16.8841 132.055 17.3265 132.448 17.8976C132.842 18.5099 133.039 19.2282 133.015 19.9562C133.035 20.5062 132.916 21.0525 132.67 21.5439C132.423 22.0354 132.056 22.4561 131.603 22.7667C130.656 23.4399 129.265 23.7764 127.432 23.7764L120.233 23.772ZM123.441 21.3331H127.21C127.87 21.375 128.53 21.2328 129.114 20.9222C129.33 20.7823 129.504 20.5867 129.619 20.356C129.733 20.1252 129.783 19.8679 129.764 19.6109C129.78 19.3544 129.729 19.098 129.615 18.8678C129.501 18.6375 129.328 18.4415 129.114 18.2997C128.535 17.9731 127.874 17.8213 127.21 17.8626H123.201V15.5023H126.652C127.28 15.5412 127.907 15.3986 128.456 15.0914C128.651 14.949 128.809 14.7626 128.918 14.5472C129.027 14.3319 129.084 14.0938 129.084 13.8523C129.084 13.6108 129.027 13.3726 128.918 13.1573C128.809 12.942 128.651 12.7555 128.456 12.6131C127.906 12.308 127.28 12.1655 126.652 12.2023H123.441V21.3331Z" fill="#000047"/>
<path d="M138.697 21.172H146.292V23.7945H135.485V9.80762H146.027V12.4083H138.697V21.172ZM138.457 15.4111H145.177V17.9462H138.457V15.4111Z" fill="#000047"/>
<path d="M148.868 23.7724V9.78553H154.908C156.015 9.75853 157.116 9.96707 158.137 10.3975C158.992 10.7607 159.721 11.3689 160.233 12.1458C160.74 12.9597 160.996 13.9054 160.969 14.8645C160.995 15.8153 160.739 16.7523 160.233 17.557C159.721 18.3341 158.992 18.9423 158.137 19.3054C157.114 19.7272 156.014 19.9312 154.908 19.9042H150.659L152.097 18.4836V23.803L148.868 23.7724ZM152.097 18.8202L150.659 17.3035H154.742C155.54 17.3646 156.333 17.1332 156.973 16.6522C157.448 16.1753 157.714 15.5293 157.714 14.8558C157.714 14.1822 157.448 13.5362 156.973 13.0593C156.329 12.5869 155.538 12.3606 154.742 12.4212H150.672L152.11 10.8826L152.097 18.8202ZM157.762 23.7812L154.276 18.7022H157.727L161.257 23.7812H157.762Z" fill="#000047"/>
<path d="M168.108 24.0134C167.024 24.0229 165.944 23.8757 164.901 23.5763C164.012 23.3401 163.173 22.9431 162.426 22.4049L163.524 19.966C164.173 20.4166 164.885 20.7673 165.637 21.0063C166.438 21.2777 167.277 21.4165 168.121 21.4171C168.643 21.4329 169.165 21.3695 169.668 21.2292C170.003 21.1377 170.305 20.9528 170.54 20.6959C170.722 20.478 170.821 20.2022 170.819 19.9179C170.821 19.7479 170.782 19.5799 170.707 19.4278C170.631 19.2757 170.52 19.144 170.383 19.0437C170.032 18.7981 169.642 18.6161 169.228 18.5061C168.749 18.3662 168.217 18.2307 167.642 18.104C167.067 17.9772 166.483 17.8199 165.899 17.6363C165.344 17.4593 164.811 17.2172 164.313 16.9151C163.839 16.6254 163.439 16.2288 163.145 15.7568C162.832 15.196 162.681 14.5587 162.709 13.9167C162.706 13.1398 162.932 12.3794 163.358 11.7312C163.844 11.0268 164.522 10.4775 165.311 10.1489C166.351 9.72358 167.469 9.52253 168.592 9.55886C169.473 9.55714 170.351 9.66133 171.207 9.8692C172.004 10.0521 172.765 10.3668 173.459 10.8002L172.462 13.261C171.849 12.9019 171.193 12.6228 170.509 12.4305C169.887 12.2549 169.243 12.1637 168.596 12.1595C168.075 12.1445 167.555 12.2184 167.058 12.3781C166.718 12.4802 166.416 12.6792 166.186 12.9507C166.014 13.1842 165.923 13.4686 165.929 13.7593C165.924 13.9299 165.961 14.0991 166.037 14.2517C166.113 14.4043 166.226 14.5355 166.365 14.6335C166.714 14.8803 167.106 15.0597 167.52 15.1624C167.999 15.2979 168.527 15.429 169.106 15.5645C169.686 15.7 170.261 15.8486 170.849 16.0234C171.406 16.1876 171.939 16.4226 172.435 16.7228C172.91 17.0119 173.309 17.4105 173.599 17.8854C173.913 18.4377 174.065 19.0684 174.035 19.7037C174.041 20.474 173.811 21.2276 173.377 21.863C172.883 22.5632 172.204 23.1112 171.416 23.4452C170.366 23.8671 169.238 24.0608 168.108 24.0134Z" fill="#000047"/>
<path d="M179.473 23.7725H176.244V9.78557H179.473V23.7725ZM186.058 18.0335H179.238V15.2929H186.058V18.0335ZM185.818 9.77246H189.047V23.7593H185.818V9.77246Z" fill="#000047"/>
<path d="M192.354 23.772V9.78516H195.587V23.772H192.354Z" fill="#000047"/>
<path d="M198.895 23.7724V9.78553H204.939C206.046 9.75853 207.147 9.96707 208.168 10.3975C209.023 10.7607 209.752 11.3689 210.264 12.1458C210.746 12.9671 211 13.9027 211 14.8558C211 15.8088 210.746 16.7445 210.264 17.5657C209.752 18.3426 209.023 18.9508 208.168 19.3141C207.147 19.7468 206.046 19.9554 204.939 19.926H200.69L202.128 18.4661V23.7855L198.895 23.7724ZM202.128 18.8202L200.69 17.2816H204.76C205.557 17.3393 206.348 17.1099 206.991 16.6347C207.463 16.1582 207.727 15.5141 207.727 14.8427C207.727 14.1713 207.463 13.5271 206.991 13.0506C206.347 12.5785 205.556 12.3523 204.76 12.4124H200.69L202.128 10.8739V18.8202Z" fill="#000047"/>
<path d="M72.1147 46.9951L67.5479 33.0082H70.8989L74.8688 45.4085H73.1911L77.3396 33.0082H80.329L84.3207 45.4085H82.704L86.761 32.9951H89.855L85.2881 46.982H81.8019L78.2722 36.1028H79.1873L75.5573 46.982L72.1147 46.9951Z" fill="#8155FF"/>
<path d="M89.377 46.9957L95.5998 33.0088H98.7896L105.03 46.9957H101.64L96.5236 34.6348H97.8004L92.6757 46.9957H89.377ZM92.4884 43.9972L93.3599 41.5364H100.537L101.409 43.9972H92.4884Z" fill="#8155FF"/>
<path d="M106.472 46.9957V33.0088H109.705V44.3731H116.704V46.9957H106.472Z" fill="#8155FF"/>
<path d="M118.517 46.9957V33.0088H121.75V44.3731H128.748V46.9957H118.517Z" fill="#8155FF"/>
<path d="M133.772 44.395H141.368V46.9957H130.561V33.0088H141.111V35.6095H133.772V44.395ZM133.533 38.6385H140.252V41.1562H133.533V38.6385Z" fill="#8155FF"/>
<path d="M146.832 46.9957V35.6313H142.365V33.0088H154.528V35.6313H150.061V46.9957H146.832Z" fill="#8155FF"/>
</svg>
