<svg width="167" height="46" viewBox="0 0 167 46" fill="none" xmlns="http://www.w3.org/2000/svg">
<path d="M38.4282 0.972656H5.49563C2.46048 0.972656 0 3.44058 0 6.48492V39.5173C0 42.5616 2.46048 45.0295 5.49563 45.0295H38.4282C41.4634 45.0295 43.9239 42.5616 43.9239 39.5173V6.48492C43.9239 3.44058 41.4634 0.972656 38.4282 0.972656Z" fill="#000047"/>
<path d="M28.8902 13.6886L28.8765 13.6748L21.9375 20.6348L27.0252 25.7378L28.8902 23.8637L33.9607 18.7779L28.8902 13.6886Z" fill="#6A35FF"/>
<path d="M14.9905 13.6748L9.90625 18.7779L15.0316 23.9188L16.8452 25.7378L21.9294 20.6348L14.9905 13.6748Z" fill="#9AD0FD"/>
<path d="M21.9375 20.6369L16.8516 25.7383L21.9375 30.8397L27.0235 25.7383L21.9375 20.6369Z" fill="#C3AEFF"/>
<path d="M36.0755 26.1084H28.8828V32.3256H36.0755V26.1084Z" fill="#AD90FE"/>
<path d="M36.0755 19.8926H28.8828V26.1098H36.0755V19.8926Z" fill="#9672FE"/>
<path d="M36.0755 13.6748H28.8828V19.892H36.0755V13.6748Z" fill="#8155FF"/>
<path d="M15.0364 26.1084H7.84375V32.3256H15.0364V26.1084Z" fill="#35ACFE"/>
<path d="M15.0364 19.8926H7.84375V26.1098H15.0364V19.8926Z" fill="#59B9FF"/>
<path d="M15.0364 13.6748H7.84375V19.892H15.0364V13.6748Z" fill="#7BC4FD"/>
<path d="M54.1016 19.6748V8.6709H56.2066L60.8794 16.4424H59.7652L64.3626 8.6709H66.4504L66.4813 19.6748H64.0815V12.3263H64.5203L60.8485 18.516H59.6898L55.9529 12.34H56.4877V19.6886L54.1016 19.6748Z" fill="#000047"/>
<path d="M71.6126 17.6282H77.5882V19.6914H69.0859V8.6875H77.3859V10.7335H71.6126V17.6282ZM71.4241 13.0959H76.7106V15.0904H71.4241V13.0959Z" fill="#000047"/>
<path d="M79.6094 19.6744V8.67047H81.7109L86.3838 16.442H85.273L89.8567 8.66016H91.9446L91.9754 19.6641H89.5756V12.3155H90.0144L86.3426 18.5052H85.1976L81.4504 12.3155H81.9818V19.6641L79.6094 19.6744Z" fill="#000047"/>
<path d="M94.5859 19.6748V8.6709H99.9513C101.323 8.6709 102.36 8.93339 103.064 9.45836C103.39 9.6923 103.654 10.0025 103.833 10.3621C104.013 10.7217 104.102 11.1197 104.093 11.5216C104.105 12.0536 103.959 12.5771 103.671 13.0243C103.381 13.453 102.979 13.7933 102.509 14.0078C101.976 14.2463 101.398 14.3637 100.815 14.3517L101.113 13.7086C101.742 13.6996 102.365 13.8165 102.948 14.0525C103.453 14.2559 103.887 14.6039 104.196 15.0532C104.505 15.5349 104.661 16.1 104.641 16.6728C104.657 17.1055 104.564 17.5352 104.37 17.9219C104.176 18.3085 103.887 18.6395 103.53 18.8839C102.785 19.4135 101.692 19.6782 100.25 19.6782L94.5859 19.6748ZM97.1092 17.756H100.075C100.594 17.7889 101.113 17.6771 101.573 17.4328C101.743 17.3227 101.88 17.1688 101.969 16.9873C102.059 16.8057 102.099 16.6033 102.084 16.4011C102.097 16.1993 102.056 15.9976 101.967 15.8165C101.877 15.6353 101.741 15.4811 101.573 15.3695C101.117 15.1126 100.597 14.9932 100.075 15.0257H96.9206V13.1687H99.6359C100.13 13.1994 100.623 13.0872 101.055 12.8455C101.208 12.7335 101.333 12.5868 101.419 12.4174C101.504 12.248 101.549 12.0606 101.549 11.8706C101.549 11.6806 101.504 11.4933 101.419 11.3239C101.333 11.1545 101.208 11.0078 101.055 10.8958C100.622 10.6557 100.13 10.5436 99.6359 10.5725H97.1092V17.756Z" fill="#000047"/>
<path d="M109.113 17.6282H115.088V19.6914H106.586V8.6875H114.879V10.7335H109.113V17.6282ZM108.924 13.0959H114.211V15.0904H108.924V13.0959Z" fill="#000047"/>
<path d="M117.117 19.6737V8.6698H121.869C122.74 8.64855 123.606 8.81263 124.409 9.15122C125.082 9.43702 125.655 9.91548 126.058 10.5267C126.457 11.167 126.658 11.911 126.638 12.6656C126.658 13.4136 126.456 14.1508 126.058 14.7838C125.656 15.3952 125.082 15.8737 124.409 16.1593C123.604 16.4912 122.739 16.6517 121.869 16.6304H118.526L119.658 15.5128V19.6978L117.117 19.6737ZM119.658 15.7776L118.526 14.5844H121.739C122.366 14.6325 122.99 14.4504 123.494 14.072C123.867 13.6969 124.076 13.1886 124.076 12.6587C124.076 12.1288 123.867 11.6206 123.494 11.2454C122.987 10.8737 122.365 10.6957 121.739 10.7433H118.537L119.668 9.53291L119.658 15.7776ZM124.114 19.6806L121.372 15.6848H124.087L126.864 19.6806H124.114Z" fill="#000047"/>
<path d="M132.252 19.8644C131.399 19.8719 130.549 19.7561 129.729 19.5205C129.029 19.3346 128.369 19.0223 127.781 18.5989L128.645 16.6801C129.156 17.0347 129.716 17.3105 130.308 17.4986C130.937 17.7121 131.598 17.8213 132.262 17.8218C132.673 17.8342 133.083 17.7843 133.479 17.6739C133.743 17.602 133.98 17.4565 134.165 17.2544C134.308 17.083 134.386 16.866 134.384 16.6423C134.386 16.5086 134.356 16.3764 134.296 16.2567C134.236 16.1371 134.149 16.0335 134.041 15.9546C133.766 15.7613 133.458 15.6181 133.133 15.5316C132.756 15.4216 132.338 15.315 131.885 15.2152C131.432 15.1155 130.973 14.9917 130.514 14.8473C130.077 14.708 129.658 14.5176 129.266 14.2799C128.893 14.052 128.578 13.74 128.347 13.3686C128.101 12.9274 127.982 12.4261 128.004 11.9209C128.001 11.3098 128.179 10.7115 128.515 10.2016C128.897 9.6474 129.43 9.21527 130.051 8.95677C130.869 8.62213 131.749 8.46396 132.632 8.49254C133.325 8.49119 134.016 8.57316 134.689 8.73669C135.317 8.88062 135.916 9.12814 136.462 9.46914L135.677 11.4051C135.195 11.1226 134.678 10.9031 134.141 10.7518C133.651 10.6136 133.145 10.5419 132.636 10.5386C132.226 10.5267 131.816 10.5849 131.426 10.7105C131.158 10.7909 130.92 10.9474 130.74 11.161C130.604 11.3447 130.533 11.5685 130.538 11.7972C130.533 11.9313 130.562 12.0645 130.622 12.1845C130.682 12.3046 130.771 12.4078 130.88 12.4849C131.155 12.6791 131.463 12.8202 131.789 12.901C132.166 13.0076 132.581 13.1107 133.037 13.2173C133.493 13.3239 133.945 13.4409 134.408 13.5784C134.846 13.7076 135.265 13.8925 135.656 14.1286C136.03 14.356 136.343 14.6696 136.572 15.0433C136.819 15.4778 136.938 15.974 136.914 16.4738C136.919 17.0798 136.738 17.6727 136.397 18.1725C136.008 18.7235 135.474 19.1546 134.854 19.4174C134.028 19.7493 133.141 19.9017 132.252 19.8644Z" fill="#000047"/>
<path d="M141.197 19.6744H138.656V8.67047H141.197V19.6744ZM146.377 15.1593H141.012V13.0033H146.377V15.1593ZM146.188 8.66016H148.729V19.6641H146.188V8.66016Z" fill="#000047"/>
<path d="M151.328 19.6748V8.6709H153.872V19.6748H151.328Z" fill="#000047"/>
<path d="M156.484 19.6737V8.6698H161.239C162.111 8.64855 162.976 8.81263 163.78 9.15122C164.452 9.43702 165.026 9.91548 165.429 10.5267C165.808 11.1728 166.008 11.9089 166.008 12.6587C166.008 13.4085 165.808 14.1446 165.429 14.7907C165.026 15.4019 164.452 15.8804 163.78 16.1662C162.977 16.5066 162.111 16.6708 161.239 16.6476H157.897L159.028 15.4991V19.684L156.484 19.6737ZM159.028 15.7776L157.897 14.5672H161.099C161.726 14.6125 162.348 14.4321 162.854 14.0583C163.225 13.6834 163.433 13.1766 163.433 12.6484C163.433 12.1202 163.225 11.6134 162.854 11.2385C162.347 10.8671 161.725 10.6891 161.099 10.7365H157.897L159.028 9.52604V15.7776Z" fill="#000047"/>
<path d="M56.7413 37.9449L53.1484 26.941H55.7848L58.908 36.6966H57.5881L60.8519 26.941H63.2038L66.3441 36.6966H65.0722L68.264 26.9307H70.6981L67.1052 37.9346H64.3625L61.5856 29.3756H62.3055L59.4497 37.9346L56.7413 37.9449Z" fill="#8155FF"/>
<path d="M70.3125 37.9453L75.2082 26.9414H77.7177L82.6271 37.9453H79.9599L75.935 28.2206H76.9395L72.9078 37.9453H70.3125ZM72.7603 35.5864L73.446 33.6504H79.0925L79.7781 35.5864H72.7603Z" fill="#8155FF"/>
<path d="M83.7656 37.9453V26.9414H86.3094V35.8821H91.8154V37.9453H83.7656Z" fill="#8155FF"/>
<path d="M93.2422 37.9453V26.9414H95.786V35.8821H101.292V37.9453H93.2422Z" fill="#8155FF"/>
<path d="M105.238 35.8993H111.213V37.9453H102.711V26.9414H111.011V28.9874H105.238V35.8993ZM105.049 31.3705H110.336V33.3512H105.049V31.3705Z" fill="#8155FF"/>
<path d="M115.514 37.9453V29.0046H112V26.9414H121.569V29.0046H118.054V37.9453H115.514Z" fill="#8155FF"/>
</svg>
