<svg width="200" height="62" viewBox="0 0 200 62" fill="none" xmlns="http://www.w3.org/2000/svg">
<path d="M7.40741 61.25H192.593C196.221 61.25 199.25 58.1306 199.25 54.25V7.75C199.25 3.8694 196.221 0.75 192.593 0.75H7.40741C3.77914 0.75 0.75 3.8694 0.75 7.75V54.25C0.75 58.1306 3.77914 61.25 7.40741 61.25Z" fill="white" stroke="#D9DBE9" stroke-width="1.5"/>
<path d="M33.8223 29.2829L16.4102 46.695C15.5779 45.9076 15.1279 44.8278 15.1279 43.658V16.3476C15.1279 15.1553 15.6004 14.0755 16.4552 13.2656L33.8223 29.2829Z" fill="#2196F3"/>
<path d="M48.8722 30.0035C48.8722 31.5782 48.0174 32.973 46.6001 33.7604L41.6509 36.5049L35.5095 30.8359L33.8223 29.2836L40.3237 22.7822L46.6001 26.2466C48.0174 27.034 48.8722 28.4288 48.8722 30.0035Z" fill="#FFC107"/>
<path d="M33.8222 29.2832L16.4551 13.2659C16.68 13.0409 16.9725 12.8384 17.2649 12.6585C18.6822 11.8036 20.3919 11.7811 21.8542 12.591L40.3236 22.7818L33.8222 29.2832Z" fill="#4CAF50"/>
<path d="M41.6509 36.5045L21.8542 47.4152C21.1569 47.8201 20.3695 48.0001 19.6046 48.0001C18.7948 48.0001 17.9849 47.7976 17.265 47.3477C16.9501 47.1677 16.6576 46.9427 16.4102 46.6953L33.8222 29.2832L35.5095 30.8354L41.6509 36.5045Z" fill="#F44336"/>
<path d="M65.544 24.14C64.8627 24.14 64.2233 24.014 63.626 23.762C63.038 23.5007 62.52 23.1413 62.072 22.684C61.6333 22.2267 61.288 21.6947 61.036 21.088C60.784 20.4813 60.658 19.828 60.658 19.128C60.658 18.428 60.784 17.7793 61.036 17.182C61.288 16.5753 61.638 16.0433 62.086 15.586C62.534 15.1287 63.0567 14.774 63.654 14.522C64.2607 14.27 64.9187 14.144 65.628 14.144C66.4027 14.144 67.1167 14.2933 67.77 14.592C68.4233 14.8907 68.9693 15.32 69.408 15.88L68.498 16.79C68.19 16.342 67.784 16.0013 67.28 15.768C66.776 15.5253 66.2253 15.404 65.628 15.404C64.9187 15.404 64.2887 15.5627 63.738 15.88C63.1967 16.1973 62.772 16.636 62.464 17.196C62.1653 17.756 62.016 18.4 62.016 19.128C62.016 19.8653 62.17 20.514 62.478 21.074C62.786 21.634 63.2013 22.0727 63.724 22.39C64.2467 22.7073 64.844 22.866 65.516 22.866C66.1973 22.866 66.7853 22.7353 67.28 22.474C67.784 22.2127 68.1713 21.83 68.442 21.326C68.7127 20.8127 68.848 20.1873 68.848 19.45L69.646 20.024H65.446V18.82H70.206V19.016C70.206 20.1453 70.0053 21.0927 69.604 21.858C69.212 22.614 68.6613 23.1833 67.952 23.566C67.252 23.9487 66.4493 24.14 65.544 24.14ZM74.8321 24.14C74.1695 24.14 73.5721 23.9907 73.0401 23.692C72.5081 23.384 72.0881 22.9687 71.7801 22.446C71.4721 21.9233 71.3181 21.3307 71.3181 20.668C71.3181 20.0147 71.4675 19.4267 71.7661 18.904C72.0741 18.3813 72.4848 17.9707 72.9981 17.672C73.5208 17.364 74.1041 17.21 74.7481 17.21C75.3641 17.21 75.9055 17.35 76.3721 17.63C76.8481 17.91 77.2168 18.2973 77.4781 18.792C77.7488 19.2867 77.8841 19.8467 77.8841 20.472C77.8841 20.5653 77.8795 20.668 77.8701 20.78C77.8608 20.8827 77.8421 21.004 77.8141 21.144H72.2001V20.094H77.1421L76.6801 20.5C76.6801 20.052 76.6008 19.674 76.4421 19.366C76.2835 19.0487 76.0595 18.806 75.7701 18.638C75.4808 18.4607 75.1308 18.372 74.7201 18.372C74.2908 18.372 73.9128 18.4653 73.5861 18.652C73.2595 18.8387 73.0075 19.1 72.8301 19.436C72.6528 19.772 72.5641 20.1687 72.5641 20.626C72.5641 21.0927 72.6575 21.5033 72.8441 21.858C73.0308 22.2033 73.2968 22.474 73.6421 22.67C73.9875 22.8567 74.3841 22.95 74.8321 22.95C75.2055 22.95 75.5461 22.8847 75.8541 22.754C76.1715 22.6233 76.4421 22.4273 76.6661 22.166L77.4781 22.992C77.1608 23.3653 76.7688 23.65 76.3021 23.846C75.8448 24.042 75.3548 24.14 74.8321 24.14ZM80.0749 24V14.564H81.3349V24H80.0749ZM78.4369 18.498V17.35H82.9729V18.498H78.4369ZM87.1333 24V17.35H88.3933V24H87.1333ZM87.7633 16.02C87.53 16.02 87.3386 15.9453 87.1893 15.796C87.04 15.6373 86.9653 15.4413 86.9653 15.208C86.9653 14.984 87.04 14.7973 87.1893 14.648C87.3386 14.4893 87.53 14.41 87.7633 14.41C87.9966 14.41 88.188 14.4893 88.3373 14.648C88.4866 14.7973 88.5613 14.984 88.5613 15.208C88.5613 15.4413 88.4866 15.6373 88.3373 15.796C88.188 15.9453 87.9966 16.02 87.7633 16.02ZM91.2722 24V14.564H92.5322V24H91.2722ZM89.6342 18.498V17.35H94.1702V18.498H89.6342ZM101.355 24.14C100.701 24.14 100.113 23.986 99.5906 23.678C99.0679 23.37 98.6526 22.9547 98.3446 22.432C98.0366 21.9 97.8826 21.3073 97.8826 20.654C97.8826 20.01 98.0366 19.4313 98.3446 18.918C98.6526 18.3953 99.0679 17.98 99.5906 17.672C100.113 17.364 100.701 17.21 101.355 17.21C101.999 17.21 102.582 17.364 103.105 17.672C103.637 17.9707 104.057 18.3813 104.365 18.904C104.673 19.4267 104.827 20.01 104.827 20.654C104.827 21.3073 104.673 21.9 104.365 22.432C104.057 22.9547 103.637 23.37 103.105 23.678C102.582 23.986 101.999 24.14 101.355 24.14ZM101.355 22.922C101.775 22.922 102.148 22.824 102.475 22.628C102.801 22.432 103.058 22.166 103.245 21.83C103.431 21.4847 103.525 21.0927 103.525 20.654C103.525 20.2247 103.427 19.842 103.231 19.506C103.044 19.17 102.787 18.9087 102.461 18.722C102.143 18.526 101.775 18.428 101.355 18.428C100.935 18.428 100.561 18.526 100.235 18.722C99.9079 18.9087 99.6512 19.17 99.4646 19.506C99.2779 19.842 99.1846 20.2247 99.1846 20.654C99.1846 21.0927 99.2779 21.4847 99.4646 21.83C99.6512 22.166 99.9079 22.432 100.235 22.628C100.561 22.824 100.935 22.922 101.355 22.922ZM110.95 24V20.122C110.95 19.618 110.792 19.2027 110.474 18.876C110.157 18.5493 109.746 18.386 109.242 18.386C108.906 18.386 108.608 18.4607 108.346 18.61C108.085 18.7593 107.88 18.9647 107.73 19.226C107.581 19.4873 107.506 19.786 107.506 20.122L106.988 19.828C106.988 19.324 107.1 18.876 107.324 18.484C107.548 18.092 107.861 17.784 108.262 17.56C108.664 17.3267 109.116 17.21 109.62 17.21C110.124 17.21 110.568 17.336 110.95 17.588C111.342 17.84 111.65 18.1713 111.874 18.582C112.098 18.9833 112.21 19.4127 112.21 19.87V24H110.95ZM106.246 24V17.35H107.506V24H106.246Z" fill="#2F2F2F"/>
<path d="M69.408 49.24C68.256 49.24 67.168 49.016 66.144 48.568C65.12 48.12 64.224 47.504 63.456 46.72C62.688 45.92 62.08 45 61.632 43.96C61.2 42.904 60.984 41.776 60.984 40.576C60.984 39.376 61.2 38.256 61.632 37.216C62.08 36.176 62.688 35.264 63.456 34.48C64.24 33.68 65.152 33.064 66.192 32.632C67.248 32.184 68.384 31.96 69.6 31.96C70.928 31.96 72.16 32.216 73.296 32.728C74.432 33.24 75.384 33.968 76.152 34.912L74.28 36.784C73.784 36.08 73.12 35.544 72.288 35.176C71.456 34.792 70.56 34.6 69.6 34.6C68.448 34.6 67.432 34.856 66.552 35.368C65.688 35.864 65.016 36.56 64.536 37.456C64.056 38.352 63.816 39.392 63.816 40.576C63.816 41.76 64.056 42.808 64.536 43.72C65.032 44.616 65.696 45.32 66.528 45.832C67.36 46.344 68.304 46.6 69.36 46.6C70.48 46.6 71.44 46.4 72.24 46C73.056 45.584 73.68 44.976 74.112 44.176C74.544 43.36 74.76 42.36 74.76 41.176L76.488 42.424H69.312V39.904H77.616V40.288C77.616 42.288 77.256 43.952 76.536 45.28C75.832 46.608 74.864 47.6 73.632 48.256C72.4 48.912 70.992 49.24 69.408 49.24ZM85.2831 49.24C84.1631 49.24 83.1471 48.976 82.2351 48.448C81.3231 47.904 80.5951 47.176 80.0511 46.264C79.5231 45.352 79.2591 44.336 79.2591 43.216C79.2591 42.096 79.5231 41.088 80.0511 40.192C80.5951 39.296 81.3231 38.584 82.2351 38.056C83.1471 37.512 84.1631 37.24 85.2831 37.24C86.4191 37.24 87.4431 37.504 88.3551 38.032C89.2671 38.56 89.9871 39.28 90.5151 40.192C91.0591 41.088 91.3311 42.096 91.3311 43.216C91.3311 44.336 91.0591 45.352 90.5151 46.264C89.9871 47.176 89.2671 47.904 88.3551 48.448C87.4431 48.976 86.4191 49.24 85.2831 49.24ZM85.2831 46.696C85.9391 46.696 86.5151 46.552 87.0111 46.264C87.5231 45.96 87.9151 45.544 88.1871 45.016C88.4751 44.488 88.6191 43.888 88.6191 43.216C88.6191 42.544 88.4751 41.952 88.1871 41.44C87.8991 40.928 87.5071 40.528 87.0111 40.24C86.5151 39.936 85.9391 39.784 85.2831 39.784C84.6431 39.784 84.0671 39.936 83.5551 40.24C83.0591 40.528 82.6671 40.928 82.3791 41.44C82.1071 41.952 81.9711 42.544 81.9711 43.216C81.9711 43.888 82.1071 44.488 82.3791 45.016C82.6671 45.544 83.0591 45.96 83.5551 46.264C84.0671 46.552 84.6431 46.696 85.2831 46.696ZM98.8065 49.24C97.6865 49.24 96.6705 48.976 95.7585 48.448C94.8465 47.904 94.1185 47.176 93.5745 46.264C93.0465 45.352 92.7825 44.336 92.7825 43.216C92.7825 42.096 93.0465 41.088 93.5745 40.192C94.1185 39.296 94.8465 38.584 95.7585 38.056C96.6705 37.512 97.6865 37.24 98.8065 37.24C99.9425 37.24 100.967 37.504 101.879 38.032C102.791 38.56 103.511 39.28 104.039 40.192C104.583 41.088 104.855 42.096 104.855 43.216C104.855 44.336 104.583 45.352 104.039 46.264C103.511 47.176 102.791 47.904 101.879 48.448C100.967 48.976 99.9425 49.24 98.8065 49.24ZM98.8065 46.696C99.4625 46.696 100.039 46.552 100.535 46.264C101.047 45.96 101.439 45.544 101.711 45.016C101.999 44.488 102.143 43.888 102.143 43.216C102.143 42.544 101.999 41.952 101.711 41.44C101.423 40.928 101.031 40.528 100.535 40.24C100.039 39.936 99.4625 39.784 98.8065 39.784C98.1665 39.784 97.5905 39.936 97.0785 40.24C96.5825 40.528 96.1905 40.928 95.9025 41.44C95.6305 41.952 95.4945 42.544 95.4945 43.216C95.4945 43.888 95.6305 44.488 95.9025 45.016C96.1905 45.544 96.5825 45.96 97.0785 46.264C97.5905 46.552 98.1665 46.696 98.8065 46.696ZM111.85 54.04C110.634 54.04 109.57 53.816 108.658 53.368C107.746 52.936 107.01 52.32 106.45 51.52L108.178 49.792C108.642 50.368 109.17 50.8 109.762 51.088C110.354 51.376 111.066 51.52 111.898 51.52C112.938 51.52 113.762 51.248 114.37 50.704C114.978 50.176 115.282 49.448 115.282 48.52V45.688L115.738 43.144L115.282 40.576V37.48H117.922V48.52C117.922 49.624 117.666 50.584 117.154 51.4C116.642 52.232 115.93 52.88 115.018 53.344C114.106 53.808 113.05 54.04 111.85 54.04ZM111.73 48.76C110.706 48.76 109.778 48.512 108.946 48.016C108.13 47.504 107.482 46.808 107.002 45.928C106.538 45.048 106.306 44.064 106.306 42.976C106.306 41.888 106.538 40.912 107.002 40.048C107.482 39.184 108.13 38.504 108.946 38.008C109.778 37.496 110.706 37.24 111.73 37.24C112.642 37.24 113.442 37.424 114.13 37.792C114.818 38.16 115.354 38.672 115.738 39.328C116.122 39.968 116.314 40.72 116.314 41.584V44.416C116.314 45.264 116.114 46.016 115.714 46.672C115.33 47.328 114.794 47.84 114.106 48.208C113.418 48.576 112.626 48.76 111.73 48.76ZM112.258 46.264C112.898 46.264 113.458 46.128 113.938 45.856C114.418 45.584 114.786 45.208 115.042 44.728C115.314 44.232 115.45 43.656 115.45 43C115.45 42.344 115.314 41.776 115.042 41.296C114.786 40.8 114.418 40.416 113.938 40.144C113.458 39.872 112.898 39.736 112.258 39.736C111.618 39.736 111.05 39.872 110.554 40.144C110.074 40.416 109.698 40.8 109.426 41.296C109.154 41.776 109.018 42.344 109.018 43C109.018 43.64 109.154 44.208 109.426 44.704C109.698 45.2 110.074 45.584 110.554 45.856C111.05 46.128 111.618 46.264 112.258 46.264ZM120.855 49V31.72H123.495V49H120.855ZM131.785 49.24C130.633 49.24 129.593 48.984 128.665 48.472C127.753 47.944 127.025 47.224 126.481 46.312C125.953 45.4 125.689 44.376 125.689 43.24C125.689 42.104 125.953 41.088 126.481 40.192C127.009 39.28 127.721 38.56 128.617 38.032C129.529 37.504 130.537 37.24 131.641 37.24C132.713 37.24 133.657 37.488 134.473 37.984C135.305 38.48 135.953 39.16 136.417 40.024C136.897 40.888 137.137 41.872 137.137 42.976C137.137 43.168 137.121 43.368 137.089 43.576C137.073 43.768 137.041 43.984 136.993 44.224H127.537V42.064H135.625L134.641 42.928C134.609 42.224 134.473 41.632 134.233 41.152C133.993 40.672 133.649 40.304 133.201 40.048C132.769 39.792 132.233 39.664 131.593 39.664C130.921 39.664 130.337 39.808 129.841 40.096C129.345 40.384 128.961 40.792 128.689 41.32C128.417 41.832 128.281 42.448 128.281 43.168C128.281 43.888 128.425 44.52 128.713 45.064C129.001 45.608 129.409 46.032 129.937 46.336C130.465 46.624 131.073 46.768 131.761 46.768C132.353 46.768 132.897 46.664 133.393 46.456C133.905 46.248 134.337 45.944 134.689 45.544L136.369 47.248C135.809 47.904 135.129 48.4 134.329 48.736C133.529 49.072 132.681 49.24 131.785 49.24ZM146.314 42.664V40.264H150.514C151.09 40.264 151.594 40.152 152.026 39.928C152.474 39.688 152.826 39.36 153.082 38.944C153.338 38.512 153.466 38.008 153.466 37.432C153.466 36.856 153.338 36.36 153.082 35.944C152.826 35.512 152.474 35.184 152.026 34.96C151.594 34.72 151.09 34.6 150.514 34.6H146.314V32.2H150.658C151.714 32.2 152.658 32.416 153.49 32.848C154.338 33.28 155.002 33.888 155.482 34.672C155.978 35.456 156.226 36.376 156.226 37.432C156.226 38.488 155.978 39.408 155.482 40.192C155.002 40.976 154.338 41.584 153.49 42.016C152.658 42.448 151.714 42.664 150.658 42.664H146.314ZM144.418 49V32.2H147.178V49H144.418ZM158.542 49V31.72H161.182V49H158.542ZM168.944 49.24C167.904 49.24 166.96 48.976 166.112 48.448C165.28 47.92 164.616 47.208 164.12 46.312C163.64 45.4 163.4 44.384 163.4 43.264C163.4 42.128 163.64 41.112 164.12 40.216C164.616 39.304 165.28 38.584 166.112 38.056C166.96 37.512 167.904 37.24 168.944 37.24C169.824 37.24 170.6 37.432 171.272 37.816C171.96 38.184 172.504 38.696 172.904 39.352C173.304 40.008 173.504 40.752 173.504 41.584V44.896C173.504 45.728 173.304 46.472 172.904 47.128C172.52 47.784 171.984 48.304 171.296 48.688C170.608 49.056 169.824 49.24 168.944 49.24ZM169.376 46.744C170.352 46.744 171.136 46.416 171.728 45.76C172.336 45.104 172.64 44.264 172.64 43.24C172.64 42.552 172.504 41.944 172.232 41.416C171.96 40.888 171.576 40.48 171.08 40.192C170.6 39.888 170.032 39.736 169.376 39.736C168.736 39.736 168.168 39.888 167.672 40.192C167.192 40.48 166.808 40.888 166.52 41.416C166.248 41.944 166.112 42.552 166.112 43.24C166.112 43.928 166.248 44.536 166.52 45.064C166.808 45.592 167.192 46.008 167.672 46.312C168.168 46.6 168.736 46.744 169.376 46.744ZM172.472 49V45.904L172.928 43.096L172.472 40.312V37.48H175.112V49H172.472ZM181.762 49.12L176.842 37.48H179.746L183.106 46.024H182.266L185.818 37.48H188.746L183.394 49.12H181.762ZM178.33 53.8L181.906 46.432L183.394 49.12L181.258 53.8H178.33Z" fill="#2F2F2F"/>
</svg>
